<?xml version="1.0" encoding="utf-8" standalone="no"?>
<!DOCTYPE svg PUBLIC "-//W3C//DTD SVG 1.1//EN"
  "http://www.w3.org/Graphics/SVG/1.1/DTD/svg11.dtd">
<!-- Created with matplotlib (http://matplotlib.org/) -->
<svg height="432pt" version="1.1" viewBox="0 0 864 432" width="864pt" xmlns="http://www.w3.org/2000/svg" xmlns:xlink="http://www.w3.org/1999/xlink">
 <defs>
  <style type="text/css">
*{stroke-linecap:butt;stroke-linejoin:round;}
  </style>
 </defs>
 <g id="figure_1">
  <g id="patch_1">
   <path d="
M0 432
L864 432
L864 0
L0 0
z
" style="fill:#ffffff;"/>
  </g>
  <g id="axes_1">
   <g id="patch_2">
    <path d="
M108 378
L777.6 378
L777.6 43.2
L108 43.2
z
" style="fill:#eaeaf2;"/>
   </g>
   <g id="matplotlib.axis_1">
    <g id="xtick_1">
     <g id="line2d_1">
      <path clip-path="url(#pe8a5247557)" d="
M219.6 378
L219.6 43.2" style="fill:none;stroke:#ffffff;stroke-linecap:round;"/>
     </g>
     <g id="line2d_2">
      <defs>
       <path d="
M0 0
L0 0" id="m219da94a98" style="stroke:#262626;"/>
      </defs>
      <g>
       <use style="fill:#262626;stroke:#262626;" x="219.6" xlink:href="#m219da94a98" y="378.0"/>
      </g>
     </g>
     <g id="line2d_3">
      <g>
       <use style="fill:#262626;stroke:#262626;" x="219.6" xlink:href="#m219da94a98" y="43.2"/>
      </g>
     </g>
     <g id="text_1">
      <!-- Defector -->
      <defs>
       <path d="
M40.4375 19
L49.0781 17.875
Q47.6562 8.9375 41.8125 3.875
Q35.9844 -1.17188 27.4844 -1.17188
Q16.8438 -1.17188 10.375 5.78125
Q3.90625 12.75 3.90625 25.7344
Q3.90625 34.125 6.6875 40.4219
Q9.46875 46.7344 15.1562 49.875
Q20.8438 53.0312 27.5469 53.0312
Q35.9844 53.0312 41.3594 48.75
Q46.7344 44.4844 48.25 36.625
L39.7031 35.2969
Q38.4844 40.5312 35.375 43.1562
Q32.2812 45.7969 27.875 45.7969
Q21.2344 45.7969 17.0781 41.0312
Q12.9375 36.2812 12.9375 25.9844
Q12.9375 15.5312 16.9375 10.7969
Q20.9531 6.0625 27.3906 6.0625
Q32.5625 6.0625 36.0312 9.23438
Q39.5 12.4062 40.4375 19" id="ArialMT-63"/>
       <path d="
M8.6875 0
L8.6875 45.0156
L0.921875 45.0156
L0.921875 51.8594
L8.6875 51.8594
L8.6875 57.375
Q8.6875 62.5938 9.625 65.1406
Q10.8906 68.5625 14.0781 70.6719
Q17.2812 72.7969 23.0469 72.7969
Q26.7656 72.7969 31.25 71.9219
L29.9375 64.2656
Q27.2031 64.75 24.75 64.75
Q20.75 64.75 19.0938 63.0312
Q17.4375 61.3281 17.4375 56.6406
L17.4375 51.8594
L27.5469 51.8594
L27.5469 45.0156
L17.4375 45.0156
L17.4375 0
z
" id="ArialMT-66"/>
       <path d="
M42.0938 16.7031
L51.1719 15.5781
Q49.0312 7.625 43.2188 3.21875
Q37.4062 -1.17188 28.375 -1.17188
Q17 -1.17188 10.3281 5.82812
Q3.65625 12.8438 3.65625 25.4844
Q3.65625 38.5781 10.3906 45.7969
Q17.1406 53.0312 27.875 53.0312
Q38.2812 53.0312 44.875 45.9531
Q51.4688 38.875 51.4688 26.0312
Q51.4688 25.25 51.4219 23.6875
L12.75 23.6875
Q13.2344 15.1406 17.5781 10.5938
Q21.9219 6.0625 28.4219 6.0625
Q33.25 6.0625 36.6719 8.59375
Q40.0938 11.1406 42.0938 16.7031
M13.2344 30.9062
L42.1875 30.9062
Q41.6094 37.4531 38.875 40.7188
Q34.6719 45.7969 27.9844 45.7969
Q21.9219 45.7969 17.7969 41.75
Q13.6719 37.7031 13.2344 30.9062" id="ArialMT-65"/>
       <path d="
M25.7812 7.85938
L27.0469 0.09375
Q23.3438 -0.6875 20.4062 -0.6875
Q15.625 -0.6875 12.9844 0.828125
Q10.3594 2.34375 9.28125 4.8125
Q8.20312 7.28125 8.20312 15.1875
L8.20312 45.0156
L1.76562 45.0156
L1.76562 51.8594
L8.20312 51.8594
L8.20312 64.7031
L16.9375 69.9688
L16.9375 51.8594
L25.7812 51.8594
L25.7812 45.0156
L16.9375 45.0156
L16.9375 14.7031
Q16.9375 10.9375 17.4062 9.85938
Q17.875 8.79688 18.9219 8.15625
Q19.9688 7.51562 21.9219 7.51562
Q23.3906 7.51562 25.7812 7.85938" id="ArialMT-74"/>
       <path d="
M7.71875 0
L7.71875 71.5781
L32.375 71.5781
Q40.7188 71.5781 45.125 70.5625
Q51.2656 69.1406 55.6094 65.4375
Q61.2812 60.6406 64.0781 53.1875
Q66.8906 45.75 66.8906 36.1875
Q66.8906 28.0312 64.9844 21.7344
Q63.0938 15.4375 60.1094 11.2969
Q57.125 7.17188 53.5781 4.79688
Q50.0469 2.4375 45.0469 1.21875
Q40.0469 0 33.5469 0
z

M17.1875 8.45312
L32.4688 8.45312
Q39.5469 8.45312 43.5781 9.76562
Q47.6094 11.0781 50 13.4844
Q53.375 16.8438 55.25 22.5312
Q57.125 28.2188 57.125 36.3281
Q57.125 47.5625 53.4375 53.5938
Q49.75 59.625 44.4844 61.6719
Q40.6719 63.1406 32.2344 63.1406
L17.1875 63.1406
z
" id="ArialMT-44"/>
       <path d="
M6.5 0
L6.5 51.8594
L14.4062 51.8594
L14.4062 44
Q17.4375 49.5156 20 51.2656
Q22.5625 53.0312 25.6406 53.0312
Q30.0781 53.0312 34.6719 50.2031
L31.6406 42.0469
Q28.4219 43.9531 25.2031 43.9531
Q22.3125 43.9531 20.0156 42.2188
Q17.7188 40.4844 16.75 37.4062
Q15.2812 32.7188 15.2812 27.1562
L15.2812 0
z
" id="ArialMT-72"/>
       <path d="
M3.32812 25.9219
Q3.32812 40.3281 11.3281 47.2656
Q18.0156 53.0312 27.6406 53.0312
Q38.3281 53.0312 45.1094 46.0156
Q51.9062 39.0156 51.9062 26.6562
Q51.9062 16.6562 48.9062 10.9062
Q45.9062 5.17188 40.1562 2
Q34.4219 -1.17188 27.6406 -1.17188
Q16.75 -1.17188 10.0312 5.8125
Q3.32812 12.7969 3.32812 25.9219
M12.3594 25.9219
Q12.3594 15.9688 16.7031 11.0156
Q21.0469 6.0625 27.6406 6.0625
Q34.1875 6.0625 38.5312 11.0312
Q42.875 16.0156 42.875 26.2188
Q42.875 35.8438 38.5 40.7969
Q34.125 45.75 27.6406 45.75
Q21.0469 45.75 16.7031 40.8125
Q12.3594 35.8906 12.3594 25.9219" id="ArialMT-6f"/>
      </defs>
      <g style="fill:#262626;" transform="translate(221.668125 414.725)rotate(-90.0)scale(0.08 -0.08)">
       <use xlink:href="#ArialMT-44"/>
       <use x="72.216796875" xlink:href="#ArialMT-65"/>
       <use x="127.83203125" xlink:href="#ArialMT-66"/>
       <use x="155.615234375" xlink:href="#ArialMT-65"/>
       <use x="211.23046875" xlink:href="#ArialMT-63"/>
       <use x="261.23046875" xlink:href="#ArialMT-74"/>
       <use x="289.013671875" xlink:href="#ArialMT-6f"/>
       <use x="344.62890625" xlink:href="#ArialMT-72"/>
      </g>
     </g>
    </g>
    <g id="xtick_2">
     <g id="line2d_4">
      <path clip-path="url(#pe8a5247557)" d="
M331.2 378
L331.2 43.2" style="fill:none;stroke:#ffffff;stroke-linecap:round;"/>
     </g>
     <g id="line2d_5">
      <g>
       <use style="fill:#262626;stroke:#262626;" x="331.2" xlink:href="#m219da94a98" y="378.0"/>
      </g>
     </g>
     <g id="line2d_6">
      <g>
       <use style="fill:#262626;stroke:#262626;" x="331.2" xlink:href="#m219da94a98" y="43.2"/>
      </g>
     </g>
     <g id="text_2">
      <!-- Alternator -->
      <defs>
       <path d="
M-0.140625 0
L27.3438 71.5781
L37.5469 71.5781
L66.8438 0
L56.0625 0
L47.7031 21.6875
L17.7812 21.6875
L9.90625 0
z

M20.5156 29.3906
L44.7812 29.3906
L37.3125 49.2188
Q33.8906 58.25 32.2344 64.0625
Q30.8594 57.1719 28.375 50.3906
z
" id="ArialMT-41"/>
       <path d="
M6.39062 0
L6.39062 71.5781
L15.1875 71.5781
L15.1875 0
z
" id="ArialMT-6c"/>
       <path d="
M40.4375 6.39062
Q35.5469 2.25 31.0312 0.53125
Q26.5156 -1.17188 21.3438 -1.17188
Q12.7969 -1.17188 8.20312 3
Q3.60938 7.17188 3.60938 13.6719
Q3.60938 17.4844 5.34375 20.625
Q7.07812 23.7812 9.89062 25.6875
Q12.7031 27.5938 16.2188 28.5625
Q18.7969 29.25 24.0312 29.8906
Q34.6719 31.1562 39.7031 32.9062
Q39.75 34.7188 39.75 35.2031
Q39.75 40.5781 37.25 42.7812
Q33.8906 45.75 27.25 45.75
Q21.0469 45.75 18.0938 43.5781
Q15.1406 41.4062 13.7188 35.8906
L5.125 37.0625
Q6.29688 42.5781 8.98438 45.9688
Q11.6719 49.3594 16.75 51.1875
Q21.8281 53.0312 28.5156 53.0312
Q35.1562 53.0312 39.2969 51.4688
Q43.4531 49.9062 45.4062 47.5312
Q47.3594 45.1719 48.1406 41.5469
Q48.5781 39.3125 48.5781 33.4531
L48.5781 21.7344
Q48.5781 9.46875 49.1406 6.21875
Q49.7031 2.98438 51.375 0
L42.1875 0
Q40.8281 2.73438 40.4375 6.39062
M39.7031 26.0312
Q34.9062 24.0781 25.3438 22.7031
Q19.9219 21.9219 17.6719 20.9375
Q15.4375 19.9688 14.2031 18.0938
Q12.9844 16.2188 12.9844 13.9219
Q12.9844 10.4062 15.6406 8.0625
Q18.3125 5.71875 23.4375 5.71875
Q28.5156 5.71875 32.4688 7.9375
Q36.4219 10.1562 38.2812 14.0156
Q39.7031 17 39.7031 22.7969
z
" id="ArialMT-61"/>
       <path d="
M6.59375 0
L6.59375 51.8594
L14.5 51.8594
L14.5 44.4844
Q20.2188 53.0312 31 53.0312
Q35.6875 53.0312 39.625 51.3438
Q43.5625 49.6562 45.5156 46.9219
Q47.4688 44.1875 48.25 40.4375
Q48.7344 37.9844 48.7344 31.8906
L48.7344 0
L39.9375 0
L39.9375 31.5469
Q39.9375 36.9219 38.9062 39.5781
Q37.8906 42.2344 35.2812 43.8125
Q32.6719 45.4062 29.1562 45.4062
Q23.5312 45.4062 19.4531 41.8438
Q15.375 38.2812 15.375 28.3281
L15.375 0
z
" id="ArialMT-6e"/>
      </defs>
      <g style="fill:#262626;" transform="translate(333.268125 419.8025)rotate(-90.0)scale(0.08 -0.08)">
       <use xlink:href="#ArialMT-41"/>
       <use x="66.69921875" xlink:href="#ArialMT-6c"/>
       <use x="88.916015625" xlink:href="#ArialMT-74"/>
       <use x="116.69921875" xlink:href="#ArialMT-65"/>
       <use x="172.314453125" xlink:href="#ArialMT-72"/>
       <use x="205.615234375" xlink:href="#ArialMT-6e"/>
       <use x="261.23046875" xlink:href="#ArialMT-61"/>
       <use x="316.845703125" xlink:href="#ArialMT-74"/>
       <use x="344.62890625" xlink:href="#ArialMT-6f"/>
       <use x="400.244140625" xlink:href="#ArialMT-72"/>
      </g>
     </g>
    </g>
    <g id="xtick_3">
     <g id="line2d_7">
      <path clip-path="url(#pe8a5247557)" d="
M442.8 378
L442.8 43.2" style="fill:none;stroke:#ffffff;stroke-linecap:round;"/>
     </g>
     <g id="line2d_8">
      <g>
       <use style="fill:#262626;stroke:#262626;" x="442.8" xlink:href="#m219da94a98" y="378.0"/>
      </g>
     </g>
     <g id="line2d_9">
      <g>
       <use style="fill:#262626;stroke:#262626;" x="442.8" xlink:href="#m219da94a98" y="43.2"/>
      </g>
     </g>
     <g id="text_3">
      <!-- Random: 0.5 -->
      <defs>
       <path d="
M40.2344 0
L40.2344 6.54688
Q35.2969 -1.17188 25.7344 -1.17188
Q19.5312 -1.17188 14.3281 2.25
Q9.125 5.67188 6.26562 11.7969
Q3.42188 17.9219 3.42188 25.875
Q3.42188 33.6406 6 39.9688
Q8.59375 46.2969 13.7656 49.6562
Q18.9531 53.0312 25.3438 53.0312
Q30.0312 53.0312 33.6875 51.0469
Q37.3594 49.0781 39.6562 45.9062
L39.6562 71.5781
L48.3906 71.5781
L48.3906 0
z

M12.4531 25.875
Q12.4531 15.9219 16.6406 10.9844
Q20.8438 6.0625 26.5625 6.0625
Q32.3281 6.0625 36.3438 10.7656
Q40.375 15.4844 40.375 25.1406
Q40.375 35.7969 36.2656 40.7656
Q32.1719 45.75 26.1719 45.75
Q20.3125 45.75 16.375 40.9688
Q12.4531 36.1875 12.4531 25.875" id="ArialMT-64"/>
       <path d="
M7.85938 0
L7.85938 71.5781
L39.5938 71.5781
Q49.1719 71.5781 54.1406 69.6406
Q59.125 67.7188 62.1094 62.8281
Q65.0938 57.9531 65.0938 52.0469
Q65.0938 44.4375 60.1562 39.2031
Q55.2188 33.9844 44.9219 32.5625
Q48.6875 30.7656 50.6406 29
Q54.7812 25.2031 58.5 19.4844
L70.9531 0
L59.0312 0
L49.5625 14.8906
Q45.4062 21.3438 42.7188 24.75
Q40.0469 28.1719 37.9219 29.5312
Q35.7969 30.9062 33.5938 31.4531
Q31.9844 31.7812 28.3281 31.7812
L17.3281 31.7812
L17.3281 0
z

M17.3281 39.9844
L37.7031 39.9844
Q44.1875 39.9844 47.8438 41.3281
Q51.5156 42.6719 53.4219 45.625
Q55.3281 48.5781 55.3281 52.0469
Q55.3281 57.125 51.6406 60.3906
Q47.9531 63.6719 39.9844 63.6719
L17.3281 63.6719
z
" id="ArialMT-52"/>
       <path d="
M9.03125 41.8438
L9.03125 51.8594
L19.0469 51.8594
L19.0469 41.8438
z

M9.03125 0
L9.03125 10.0156
L19.0469 10.0156
L19.0469 0
z
" id="ArialMT-3a"/>
       <path d="
M9.07812 0
L9.07812 10.0156
L19.0938 10.0156
L19.0938 0
z
" id="ArialMT-2e"/>
       <path d="
M6.59375 0
L6.59375 51.8594
L14.4531 51.8594
L14.4531 44.5781
Q16.8906 48.3906 20.9375 50.7031
Q25 53.0312 30.1719 53.0312
Q35.9375 53.0312 39.625 50.6406
Q43.3125 48.25 44.8281 43.9531
Q50.9844 53.0312 60.8438 53.0312
Q68.5625 53.0312 72.7031 48.75
Q76.8594 44.4844 76.8594 35.5938
L76.8594 0
L68.1094 0
L68.1094 32.6719
Q68.1094 37.9375 67.25 40.25
Q66.4062 42.5781 64.1562 43.9844
Q61.9219 45.4062 58.8906 45.4062
Q53.4219 45.4062 49.7969 41.7656
Q46.1875 38.1406 46.1875 30.125
L46.1875 0
L37.4062 0
L37.4062 33.6875
Q37.4062 39.5469 35.25 42.4688
Q33.1094 45.4062 28.2188 45.4062
Q24.5156 45.4062 21.3594 43.4531
Q18.2188 41.5 16.7969 37.7344
Q15.375 33.9844 15.375 26.9062
L15.375 0
z
" id="ArialMT-6d"/>
       <path d="
M4.15625 35.2969
Q4.15625 48 6.76562 55.7344
Q9.375 63.4844 14.5156 67.6719
Q19.6719 71.875 27.4844 71.875
Q33.25 71.875 37.5938 69.5469
Q41.9375 67.2344 44.7656 62.8594
Q47.6094 58.5 49.2188 52.2188
Q50.8281 45.9531 50.8281 35.2969
Q50.8281 22.7031 48.2344 14.9688
Q45.6562 7.23438 40.5 3
Q35.3594 -1.21875 27.4844 -1.21875
Q17.1406 -1.21875 11.2344 6.20312
Q4.15625 15.1406 4.15625 35.2969
M13.1875 35.2969
Q13.1875 17.6719 17.3125 11.8281
Q21.4375 6 27.4844 6
Q33.5469 6 37.6719 11.8594
Q41.7969 17.7188 41.7969 35.2969
Q41.7969 52.9844 37.6719 58.7812
Q33.5469 64.5938 27.3906 64.5938
Q21.3438 64.5938 17.7188 59.4688
Q13.1875 52.9375 13.1875 35.2969" id="ArialMT-30"/>
       <path d="
M4.15625 18.75
L13.375 19.5312
Q14.4062 12.7969 18.1406 9.39062
Q21.875 6 27.1562 6
Q33.5 6 37.8906 10.7812
Q42.2812 15.5781 42.2812 23.4844
Q42.2812 31 38.0625 35.3438
Q33.8438 39.7031 27 39.7031
Q22.75 39.7031 19.3281 37.7656
Q15.9219 35.8438 13.9688 32.7656
L5.71875 33.8438
L12.6406 70.6094
L48.25 70.6094
L48.25 62.2031
L19.6719 62.2031
L15.8281 42.9688
Q22.2656 47.4688 29.3438 47.4688
Q38.7188 47.4688 45.1562 40.9688
Q51.6094 34.4688 51.6094 24.2656
Q51.6094 14.5469 45.9531 7.46875
Q39.0625 -1.21875 27.1562 -1.21875
Q17.3906 -1.21875 11.2031 4.25
Q5.03125 9.71875 4.15625 18.75" id="ArialMT-35"/>
       <path id="ArialMT-20"/>
      </defs>
      <g style="fill:#262626;" transform="translate(444.868125 430.48125)rotate(-90.0)scale(0.08 -0.08)">
       <use xlink:href="#ArialMT-52"/>
       <use x="72.216796875" xlink:href="#ArialMT-61"/>
       <use x="127.83203125" xlink:href="#ArialMT-6e"/>
       <use x="183.447265625" xlink:href="#ArialMT-64"/>
       <use x="239.0625" xlink:href="#ArialMT-6f"/>
       <use x="294.677734375" xlink:href="#ArialMT-6d"/>
       <use x="377.978515625" xlink:href="#ArialMT-3a"/>
       <use x="405.76171875" xlink:href="#ArialMT-20"/>
       <use x="433.544921875" xlink:href="#ArialMT-30"/>
       <use x="489.16015625" xlink:href="#ArialMT-2e"/>
       <use x="516.943359375" xlink:href="#ArialMT-35"/>
      </g>
     </g>
    </g>
    <g id="xtick_4">
     <g id="line2d_10">
      <path clip-path="url(#pe8a5247557)" d="
M554.4 378
L554.4 43.2" style="fill:none;stroke:#ffffff;stroke-linecap:round;"/>
     </g>
     <g id="line2d_11">
      <g>
       <use style="fill:#262626;stroke:#262626;" x="554.4" xlink:href="#m219da94a98" y="378.0"/>
      </g>
     </g>
     <g id="line2d_12">
      <g>
       <use style="fill:#262626;stroke:#262626;" x="554.4" xlink:href="#m219da94a98" y="43.2"/>
      </g>
     </g>
     <g id="text_4">
      <!-- Tit For Tat -->
      <defs>
       <path d="
M6.64062 61.4688
L6.64062 71.5781
L15.4375 71.5781
L15.4375 61.4688
z

M6.64062 0
L6.64062 51.8594
L15.4375 51.8594
L15.4375 0
z
" id="ArialMT-69"/>
       <path d="
M25.9219 0
L25.9219 63.1406
L2.34375 63.1406
L2.34375 71.5781
L59.0781 71.5781
L59.0781 63.1406
L35.4062 63.1406
L35.4062 0
z
" id="ArialMT-54"/>
       <path d="
M8.20312 0
L8.20312 71.5781
L56.5 71.5781
L56.5 63.1406
L17.6719 63.1406
L17.6719 40.9688
L51.2656 40.9688
L51.2656 32.5156
L17.6719 32.5156
L17.6719 0
z
" id="ArialMT-46"/>
      </defs>
      <g style="fill:#262626;" transform="translate(556.468125 420.49875)rotate(-90.0)scale(0.08 -0.08)">
       <use xlink:href="#ArialMT-54"/>
       <use x="57.333984375" xlink:href="#ArialMT-69"/>
       <use x="79.55078125" xlink:href="#ArialMT-74"/>
       <use x="107.333984375" xlink:href="#ArialMT-20"/>
       <use x="135.1171875" xlink:href="#ArialMT-46"/>
       <use x="196.201171875" xlink:href="#ArialMT-6f"/>
       <use x="251.81640625" xlink:href="#ArialMT-72"/>
       <use x="285.1171875" xlink:href="#ArialMT-20"/>
       <use x="311.150390625" xlink:href="#ArialMT-54"/>
       <use x="361.109375" xlink:href="#ArialMT-61"/>
       <use x="416.724609375" xlink:href="#ArialMT-74"/>
      </g>
     </g>
    </g>
    <g id="xtick_5">
     <g id="line2d_13">
      <path clip-path="url(#pe8a5247557)" d="
M666 378
L666 43.2" style="fill:none;stroke:#ffffff;stroke-linecap:round;"/>
     </g>
     <g id="line2d_14">
      <g>
       <use style="fill:#262626;stroke:#262626;" x="666.0" xlink:href="#m219da94a98" y="378.0"/>
      </g>
     </g>
     <g id="line2d_15">
      <g>
       <use style="fill:#262626;stroke:#262626;" x="666.0" xlink:href="#m219da94a98" y="43.2"/>
      </g>
     </g>
     <g id="text_5">
      <!-- Cooperator -->
      <defs>
       <path d="
M58.7969 25.0938
L68.2656 22.7031
Q65.2812 11.0312 57.5469 4.90625
Q49.8125 -1.21875 38.625 -1.21875
Q27.0469 -1.21875 19.7969 3.48438
Q12.5469 8.20312 8.76562 17.1406
Q4.98438 26.0781 4.98438 36.3281
Q4.98438 47.5156 9.25 55.8281
Q13.5312 64.1562 21.4062 68.4688
Q29.2969 72.7969 38.7656 72.7969
Q49.5156 72.7969 56.8281 67.3281
Q64.1562 61.8594 67.0469 51.9531
L57.7188 49.75
Q55.2188 57.5625 50.4844 61.125
Q45.75 64.7031 38.5781 64.7031
Q30.3281 64.7031 24.7812 60.7344
Q19.2344 56.7812 16.9844 50.1094
Q14.75 43.4531 14.75 36.375
Q14.75 27.25 17.4062 20.4375
Q20.0625 13.625 25.6719 10.25
Q31.2969 6.89062 37.8438 6.89062
Q45.7969 6.89062 51.3125 11.4688
Q56.8438 16.0625 58.7969 25.0938" id="ArialMT-43"/>
       <path d="
M6.59375 -19.875
L6.59375 51.8594
L14.5938 51.8594
L14.5938 45.125
Q17.4375 49.0781 21 51.0469
Q24.5625 53.0312 29.6406 53.0312
Q36.2812 53.0312 41.3594 49.6094
Q46.4375 46.1875 49.0156 39.9531
Q51.6094 33.7344 51.6094 26.3125
Q51.6094 18.3594 48.75 11.9844
Q45.9062 5.60938 40.4531 2.21875
Q35.0156 -1.17188 29 -1.17188
Q24.6094 -1.17188 21.1094 0.6875
Q17.625 2.54688 15.375 5.375
L15.375 -19.875
z

M14.5469 25.6406
Q14.5469 15.625 18.5938 10.8438
Q22.6562 6.0625 28.4219 6.0625
Q34.2812 6.0625 38.4531 11.0156
Q42.625 15.9688 42.625 26.375
Q42.625 36.2812 38.5469 41.2031
Q34.4688 46.1406 28.8125 46.1406
Q23.1875 46.1406 18.8594 40.8906
Q14.5469 35.6406 14.5469 25.6406" id="ArialMT-70"/>
      </defs>
      <g style="fill:#262626;" transform="translate(668.116875 424.73125)rotate(-90.0)scale(0.08 -0.08)">
       <use xlink:href="#ArialMT-43"/>
       <use x="72.216796875" xlink:href="#ArialMT-6f"/>
       <use x="127.83203125" xlink:href="#ArialMT-6f"/>
       <use x="183.447265625" xlink:href="#ArialMT-70"/>
       <use x="239.0625" xlink:href="#ArialMT-65"/>
       <use x="294.677734375" xlink:href="#ArialMT-72"/>
       <use x="327.978515625" xlink:href="#ArialMT-61"/>
       <use x="383.59375" xlink:href="#ArialMT-74"/>
       <use x="411.376953125" xlink:href="#ArialMT-6f"/>
       <use x="466.9921875" xlink:href="#ArialMT-72"/>
      </g>
     </g>
    </g>
   </g>
   <g id="matplotlib.axis_2">
    <g id="ytick_1">
     <g id="line2d_16">
      <path clip-path="url(#pe8a5247557)" d="
M108 378
L777.6 378" style="fill:none;stroke:#ffffff;stroke-linecap:round;"/>
     </g>
     <g id="line2d_17">
      <g>
       <use style="fill:#262626;stroke:#262626;" x="108.0" xlink:href="#m219da94a98" y="378.0"/>
      </g>
     </g>
     <g id="line2d_18">
      <g>
       <use style="fill:#262626;stroke:#262626;" x="777.6" xlink:href="#m219da94a98" y="378.0"/>
      </g>
     </g>
     <g id="text_6">
      <!-- 1.4 -->
      <defs>
       <path d="
M37.25 0
L28.4688 0
L28.4688 56
Q25.2969 52.9844 20.1406 49.9531
Q14.9844 46.9219 10.8906 45.4062
L10.8906 53.9062
Q18.2656 57.375 23.7812 62.2969
Q29.2969 67.2344 31.5938 71.875
L37.25 71.875
z
" id="ArialMT-31"/>
       <path d="
M32.3281 0
L32.3281 17.1406
L1.26562 17.1406
L1.26562 25.2031
L33.9375 71.5781
L41.1094 71.5781
L41.1094 25.2031
L50.7812 25.2031
L50.7812 17.1406
L41.1094 17.1406
L41.1094 0
z

M32.3281 25.2031
L32.3281 57.4688
L9.90625 25.2031
z
" id="ArialMT-34"/>
      </defs>
      <g style="fill:#262626;" transform="translate(91.1375 380.068125)scale(0.08 -0.08)">
       <use xlink:href="#ArialMT-31"/>
       <use x="55.615234375" xlink:href="#ArialMT-2e"/>
       <use x="83.3984375" xlink:href="#ArialMT-34"/>
      </g>
     </g>
    </g>
    <g id="ytick_2">
     <g id="line2d_19">
      <path clip-path="url(#pe8a5247557)" d="
M108 340.8
L777.6 340.8" style="fill:none;stroke:#ffffff;stroke-linecap:round;"/>
     </g>
     <g id="line2d_20">
      <g>
       <use style="fill:#262626;stroke:#262626;" x="108.0" xlink:href="#m219da94a98" y="340.8"/>
      </g>
     </g>
     <g id="line2d_21">
      <g>
       <use style="fill:#262626;stroke:#262626;" x="777.6" xlink:href="#m219da94a98" y="340.8"/>
      </g>
     </g>
     <g id="text_7">
      <!-- 1.6 -->
      <defs>
       <path d="
M49.75 54.0469
L41.0156 53.375
Q39.8438 58.5469 37.7031 60.8906
Q34.125 64.6562 28.9062 64.6562
Q24.7031 64.6562 21.5312 62.3125
Q17.3906 59.2812 14.9844 53.4688
Q12.5938 47.6562 12.5 36.9219
Q15.6719 41.75 20.2656 44.0938
Q24.8594 46.4375 29.8906 46.4375
Q38.6719 46.4375 44.8438 39.9688
Q51.0312 33.5 51.0312 23.25
Q51.0312 16.5 48.125 10.7188
Q45.2188 4.9375 40.1406 1.85938
Q35.0625 -1.21875 28.6094 -1.21875
Q17.625 -1.21875 10.6875 6.85938
Q3.76562 14.9375 3.76562 33.5
Q3.76562 54.25 11.4219 63.6719
Q18.1094 71.875 29.4375 71.875
Q37.8906 71.875 43.2812 67.1406
Q48.6875 62.4062 49.75 54.0469
M13.875 23.1875
Q13.875 18.6562 15.7969 14.5
Q17.7188 10.3594 21.1875 8.17188
Q24.6562 6 28.4688 6
Q34.0312 6 38.0312 10.4844
Q42.0469 14.9844 42.0469 22.7031
Q42.0469 30.125 38.0781 34.3906
Q34.125 38.6719 28.125 38.6719
Q22.1719 38.6719 18.0156 34.3906
Q13.875 30.125 13.875 23.1875" id="ArialMT-36"/>
      </defs>
      <g style="fill:#262626;" transform="translate(91.1175 342.868125)scale(0.08 -0.08)">
       <use xlink:href="#ArialMT-31"/>
       <use x="55.615234375" xlink:href="#ArialMT-2e"/>
       <use x="83.3984375" xlink:href="#ArialMT-36"/>
      </g>
     </g>
    </g>
    <g id="ytick_3">
     <g id="line2d_22">
      <path clip-path="url(#pe8a5247557)" d="
M108 303.6
L777.6 303.6" style="fill:none;stroke:#ffffff;stroke-linecap:round;"/>
     </g>
     <g id="line2d_23">
      <g>
       <use style="fill:#262626;stroke:#262626;" x="108.0" xlink:href="#m219da94a98" y="303.6"/>
      </g>
     </g>
     <g id="line2d_24">
      <g>
       <use style="fill:#262626;stroke:#262626;" x="777.6" xlink:href="#m219da94a98" y="303.6"/>
      </g>
     </g>
     <g id="text_8">
      <!-- 1.8 -->
      <defs>
       <path d="
M17.6719 38.8125
Q12.2031 40.8281 9.5625 44.5312
Q6.9375 48.25 6.9375 53.4219
Q6.9375 61.2344 12.5469 66.5469
Q18.1719 71.875 27.4844 71.875
Q36.8594 71.875 42.5781 66.4219
Q48.2969 60.9844 48.2969 53.1719
Q48.2969 48.1875 45.6719 44.5
Q43.0625 40.8281 37.75 38.8125
Q44.3438 36.6719 47.7812 31.875
Q51.2188 27.0938 51.2188 20.4531
Q51.2188 11.2812 44.7188 5.03125
Q38.2344 -1.21875 27.6406 -1.21875
Q17.0469 -1.21875 10.5469 5.04688
Q4.04688 11.3281 4.04688 20.7031
Q4.04688 27.6875 7.59375 32.3906
Q11.1406 37.1094 17.6719 38.8125
M15.9219 53.7188
Q15.9219 48.6406 19.1875 45.4062
Q22.4688 42.1875 27.6875 42.1875
Q32.7656 42.1875 36.0156 45.375
Q39.2656 48.5781 39.2656 53.2188
Q39.2656 58.0625 35.9062 61.3594
Q32.5625 64.6562 27.5938 64.6562
Q22.5625 64.6562 19.2344 61.4219
Q15.9219 58.2031 15.9219 53.7188
M13.0938 20.6562
Q13.0938 16.8906 14.875 13.375
Q16.6562 9.85938 20.1719 7.92188
Q23.6875 6 27.7344 6
Q34.0312 6 38.125 10.0469
Q42.2344 14.1094 42.2344 20.3594
Q42.2344 26.7031 38.0156 30.8594
Q33.7969 35.0156 27.4375 35.0156
Q21.2344 35.0156 17.1562 30.9062
Q13.0938 26.8125 13.0938 20.6562" id="ArialMT-38"/>
      </defs>
      <g style="fill:#262626;" transform="translate(91.1025 305.668125)scale(0.08 -0.08)">
       <use xlink:href="#ArialMT-31"/>
       <use x="55.615234375" xlink:href="#ArialMT-2e"/>
       <use x="83.3984375" xlink:href="#ArialMT-38"/>
      </g>
     </g>
    </g>
    <g id="ytick_4">
     <g id="line2d_25">
      <path clip-path="url(#pe8a5247557)" d="
M108 266.4
L777.6 266.4" style="fill:none;stroke:#ffffff;stroke-linecap:round;"/>
     </g>
     <g id="line2d_26">
      <g>
       <use style="fill:#262626;stroke:#262626;" x="108.0" xlink:href="#m219da94a98" y="266.4"/>
      </g>
     </g>
     <g id="line2d_27">
      <g>
       <use style="fill:#262626;stroke:#262626;" x="777.6" xlink:href="#m219da94a98" y="266.4"/>
      </g>
     </g>
     <g id="text_9">
      <!-- 2.0 -->
      <defs>
       <path d="
M50.3438 8.45312
L50.3438 0
L3.03125 0
Q2.9375 3.17188 4.04688 6.10938
Q5.85938 10.9375 9.82812 15.625
Q13.8125 20.3125 21.3438 26.4688
Q33.0156 36.0312 37.1094 41.625
Q41.2188 47.2188 41.2188 52.2031
Q41.2188 57.4219 37.4688 61
Q33.7344 64.5938 27.7344 64.5938
Q21.3906 64.5938 17.5781 60.7812
Q13.7656 56.9844 13.7188 50.25
L4.6875 51.1719
Q5.60938 61.2812 11.6562 66.5781
Q17.7188 71.875 27.9375 71.875
Q38.2344 71.875 44.2344 66.1562
Q50.25 60.4531 50.25 52
Q50.25 47.7031 48.4844 43.5469
Q46.7344 39.4062 42.6562 34.8125
Q38.5781 30.2188 29.1094 22.2188
Q21.1875 15.5781 18.9375 13.2031
Q16.7031 10.8438 15.2344 8.45312
z
" id="ArialMT-32"/>
      </defs>
      <g style="fill:#262626;" transform="translate(90.4975 268.468125)scale(0.08 -0.08)">
       <use xlink:href="#ArialMT-32"/>
       <use x="55.615234375" xlink:href="#ArialMT-2e"/>
       <use x="83.3984375" xlink:href="#ArialMT-30"/>
      </g>
     </g>
    </g>
    <g id="ytick_5">
     <g id="line2d_28">
      <path clip-path="url(#pe8a5247557)" d="
M108 229.2
L777.6 229.2" style="fill:none;stroke:#ffffff;stroke-linecap:round;"/>
     </g>
     <g id="line2d_29">
      <g>
       <use style="fill:#262626;stroke:#262626;" x="108.0" xlink:href="#m219da94a98" y="229.2"/>
      </g>
     </g>
     <g id="line2d_30">
      <g>
       <use style="fill:#262626;stroke:#262626;" x="777.6" xlink:href="#m219da94a98" y="229.2"/>
      </g>
     </g>
     <g id="text_10">
      <!-- 2.2 -->
      <g style="fill:#262626;" transform="translate(90.53625 231.268125)scale(0.08 -0.08)">
       <use xlink:href="#ArialMT-32"/>
       <use x="55.615234375" xlink:href="#ArialMT-2e"/>
       <use x="83.3984375" xlink:href="#ArialMT-32"/>
      </g>
     </g>
    </g>
    <g id="ytick_6">
     <g id="line2d_31">
      <path clip-path="url(#pe8a5247557)" d="
M108 192
L777.6 192" style="fill:none;stroke:#ffffff;stroke-linecap:round;"/>
     </g>
     <g id="line2d_32">
      <g>
       <use style="fill:#262626;stroke:#262626;" x="108.0" xlink:href="#m219da94a98" y="192.0"/>
      </g>
     </g>
     <g id="line2d_33">
      <g>
       <use style="fill:#262626;stroke:#262626;" x="777.6" xlink:href="#m219da94a98" y="192.0"/>
      </g>
     </g>
     <g id="text_11">
      <!-- 2.4 -->
      <g style="fill:#262626;" transform="translate(90.50125 194.068125)scale(0.08 -0.08)">
       <use xlink:href="#ArialMT-32"/>
       <use x="55.615234375" xlink:href="#ArialMT-2e"/>
       <use x="83.3984375" xlink:href="#ArialMT-34"/>
      </g>
     </g>
    </g>
    <g id="ytick_7">
     <g id="line2d_34">
      <path clip-path="url(#pe8a5247557)" d="
M108 154.8
L777.6 154.8" style="fill:none;stroke:#ffffff;stroke-linecap:round;"/>
     </g>
     <g id="line2d_35">
      <g>
       <use style="fill:#262626;stroke:#262626;" x="108.0" xlink:href="#m219da94a98" y="154.8"/>
      </g>
     </g>
     <g id="line2d_36">
      <g>
       <use style="fill:#262626;stroke:#262626;" x="777.6" xlink:href="#m219da94a98" y="154.8"/>
      </g>
     </g>
     <g id="text_12">
      <!-- 2.6 -->
      <g style="fill:#262626;" transform="translate(90.48125 156.868125)scale(0.08 -0.08)">
       <use xlink:href="#ArialMT-32"/>
       <use x="55.615234375" xlink:href="#ArialMT-2e"/>
       <use x="83.3984375" xlink:href="#ArialMT-36"/>
      </g>
     </g>
    </g>
    <g id="ytick_8">
     <g id="line2d_37">
      <path clip-path="url(#pe8a5247557)" d="
M108 117.6
L777.6 117.6" style="fill:none;stroke:#ffffff;stroke-linecap:round;"/>
     </g>
     <g id="line2d_38">
      <g>
       <use style="fill:#262626;stroke:#262626;" x="108.0" xlink:href="#m219da94a98" y="117.6"/>
      </g>
     </g>
     <g id="line2d_39">
      <g>
       <use style="fill:#262626;stroke:#262626;" x="777.6" xlink:href="#m219da94a98" y="117.6"/>
      </g>
     </g>
     <g id="text_13">
      <!-- 2.8 -->
      <g style="fill:#262626;" transform="translate(90.46625 119.668125)scale(0.08 -0.08)">
       <use xlink:href="#ArialMT-32"/>
       <use x="55.615234375" xlink:href="#ArialMT-2e"/>
       <use x="83.3984375" xlink:href="#ArialMT-38"/>
      </g>
     </g>
    </g>
    <g id="ytick_9">
     <g id="line2d_40">
      <path clip-path="url(#pe8a5247557)" d="
M108 80.4
L777.6 80.4" style="fill:none;stroke:#ffffff;stroke-linecap:round;"/>
     </g>
     <g id="line2d_41">
      <g>
       <use style="fill:#262626;stroke:#262626;" x="108.0" xlink:href="#m219da94a98" y="80.4"/>
      </g>
     </g>
     <g id="line2d_42">
      <g>
       <use style="fill:#262626;stroke:#262626;" x="777.6" xlink:href="#m219da94a98" y="80.4"/>
      </g>
     </g>
     <g id="text_14">
      <!-- 3.0 -->
      <defs>
       <path d="
M4.20312 18.8906
L12.9844 20.0625
Q14.5 12.5938 18.1406 9.29688
Q21.7812 6 27 6
Q33.2031 6 37.4688 10.2969
Q41.75 14.5938 41.75 20.9531
Q41.75 27 37.7969 30.9219
Q33.8438 34.8594 27.7344 34.8594
Q25.25 34.8594 21.5312 33.8906
L22.5156 41.6094
Q23.3906 41.5 23.9219 41.5
Q29.5469 41.5 34.0312 44.4219
Q38.5312 47.3594 38.5312 53.4688
Q38.5312 58.2969 35.25 61.4688
Q31.9844 64.6562 26.8125 64.6562
Q21.6875 64.6562 18.2656 61.4219
Q14.8438 58.2031 13.875 51.7656
L5.07812 53.3281
Q6.6875 62.1562 12.3906 67.0156
Q18.1094 71.875 26.6094 71.875
Q32.4688 71.875 37.3906 69.3594
Q42.3281 66.8438 44.9375 62.5
Q47.5625 58.1562 47.5625 53.2656
Q47.5625 48.6406 45.0625 44.8281
Q42.5781 41.0156 37.7031 38.7656
Q44.0469 37.3125 47.5625 32.6875
Q51.0781 28.0781 51.0781 21.1406
Q51.0781 11.7656 44.2344 5.25
Q37.4062 -1.26562 26.9531 -1.26562
Q17.5312 -1.26562 11.2969 4.34375
Q5.07812 9.96875 4.20312 18.8906" id="ArialMT-33"/>
      </defs>
      <g style="fill:#262626;" transform="translate(90.59875 82.468125)scale(0.08 -0.08)">
       <use xlink:href="#ArialMT-33"/>
       <use x="55.615234375" xlink:href="#ArialMT-2e"/>
       <use x="83.3984375" xlink:href="#ArialMT-30"/>
      </g>
     </g>
    </g>
    <g id="ytick_10">
     <g id="line2d_43">
      <path clip-path="url(#pe8a5247557)" d="
M108 43.2
L777.6 43.2" style="fill:none;stroke:#ffffff;stroke-linecap:round;"/>
     </g>
     <g id="line2d_44">
      <g>
       <use style="fill:#262626;stroke:#262626;" x="108.0" xlink:href="#m219da94a98" y="43.2"/>
      </g>
     </g>
     <g id="line2d_45">
      <g>
       <use style="fill:#262626;stroke:#262626;" x="777.6" xlink:href="#m219da94a98" y="43.2"/>
      </g>
     </g>
     <g id="text_15">
      <!-- 3.2 -->
      <g style="fill:#262626;" transform="translate(90.6375 45.268125)scale(0.08 -0.08)">
       <use xlink:href="#ArialMT-33"/>
       <use x="55.615234375" xlink:href="#ArialMT-2e"/>
       <use x="83.3984375" xlink:href="#ArialMT-32"/>
      </g>
     </g>
    </g>
   </g>
   <g id="PolyCollection_1">
    <defs>
     <path d="
M225.415 -336.72
L213.785 -336.72
L213.651 -337.021
L213.523 -337.321
L213.397 -337.622
L213.276 -337.922
L213.156 -338.223
L213.039 -338.524
L212.922 -338.824
L212.805 -339.125
L212.687 -339.425
L212.566 -339.726
L212.442 -340.027
L212.312 -340.327
L212.177 -340.628
L212.034 -340.928
L211.881 -341.229
L211.719 -341.53
L211.545 -341.83
L211.357 -342.131
L211.156 -342.432
L210.938 -342.732
L210.704 -343.033
L210.452 -343.333
L210.181 -343.634
L209.889 -343.935
L209.576 -344.235
L209.242 -344.536
L208.885 -344.836
L208.504 -345.137
L208.101 -345.438
L207.673 -345.738
L207.222 -346.039
L206.748 -346.339
L206.25 -346.64
L205.731 -346.941
L205.19 -347.241
L204.629 -347.542
L204.05 -347.842
L203.453 -348.143
L202.842 -348.444
L202.218 -348.744
L201.584 -349.045
L200.942 -349.345
L200.297 -349.646
L199.65 -349.947
L199.005 -350.247
L198.365 -350.548
L197.735 -350.848
L197.118 -351.149
L196.518 -351.45
L195.938 -351.75
L195.382 -352.051
L194.854 -352.352
L194.357 -352.652
L193.894 -352.953
L193.469 -353.253
L193.085 -353.554
L192.743 -353.855
L192.447 -354.155
L192.198 -354.456
L191.997 -354.756
L191.847 -355.057
L191.748 -355.358
L191.7 -355.658
L191.704 -355.959
L191.759 -356.259
L191.864 -356.56
L192.019 -356.861
L192.222 -357.161
L192.472 -357.462
L192.766 -357.762
L193.103 -358.063
L193.48 -358.364
L193.894 -358.664
L194.343 -358.965
L194.824 -359.265
L195.333 -359.566
L195.868 -359.867
L196.426 -360.167
L197.004 -360.468
L197.598 -360.768
L198.206 -361.069
L198.825 -361.37
L199.452 -361.67
L200.085 -361.971
L200.722 -362.272
L201.359 -362.572
L201.995 -362.873
L202.629 -363.173
L203.257 -363.474
L203.88 -363.775
L204.495 -364.075
L205.101 -364.376
L205.698 -364.676
L206.284 -364.977
L206.859 -365.278
L207.421 -365.578
L207.972 -365.879
L208.509 -366.179
L209.033 -366.48
L230.167 -366.48
L230.167 -366.48
L230.691 -366.179
L231.228 -365.879
L231.779 -365.578
L232.341 -365.278
L232.916 -364.977
L233.502 -364.676
L234.099 -364.376
L234.705 -364.075
L235.32 -363.775
L235.943 -363.474
L236.571 -363.173
L237.205 -362.873
L237.841 -362.572
L238.478 -362.272
L239.115 -361.971
L239.748 -361.67
L240.375 -361.37
L240.994 -361.069
L241.602 -360.768
L242.196 -360.468
L242.774 -360.167
L243.332 -359.867
L243.867 -359.566
L244.376 -359.265
L244.857 -358.965
L245.306 -358.664
L245.72 -358.364
L246.097 -358.063
L246.434 -357.762
L246.728 -357.462
L246.978 -357.161
L247.181 -356.861
L247.336 -356.56
L247.441 -356.259
L247.496 -355.959
L247.5 -355.658
L247.452 -355.358
L247.353 -355.057
L247.203 -354.756
L247.002 -354.456
L246.753 -354.155
L246.457 -353.855
L246.115 -353.554
L245.731 -353.253
L245.306 -352.953
L244.843 -352.652
L244.346 -352.352
L243.818 -352.051
L243.262 -351.75
L242.682 -351.45
L242.082 -351.149
L241.465 -350.848
L240.835 -350.548
L240.195 -350.247
L239.55 -349.947
L238.903 -349.646
L238.258 -349.345
L237.616 -349.045
L236.982 -348.744
L236.358 -348.444
L235.747 -348.143
L235.15 -347.842
L234.571 -347.542
L234.01 -347.241
L233.469 -346.941
L232.95 -346.64
L232.452 -346.339
L231.978 -346.039
L231.527 -345.738
L231.099 -345.438
L230.696 -345.137
L230.315 -344.836
L229.958 -344.536
L229.624 -344.235
L229.311 -343.935
L229.019 -343.634
L228.748 -343.333
L228.496 -343.033
L228.262 -342.732
L228.044 -342.432
L227.843 -342.131
L227.655 -341.83
L227.481 -341.53
L227.319 -341.229
L227.166 -340.928
L227.023 -340.628
L226.888 -340.327
L226.758 -340.027
L226.634 -339.726
L226.513 -339.425
L226.395 -339.125
L226.278 -338.824
L226.161 -338.524
L226.044 -338.223
L225.924 -337.922
L225.803 -337.622
L225.677 -337.321
L225.549 -337.021
L225.415 -336.72
z
" id="mec7530b08f" style="stroke:#000000;stroke-opacity:0.3;stroke-width:0.3;"/>
    </defs>
    <g clip-path="url(#pe8a5247557)">
     <use style="fill:#bfbf00;fill-opacity:0.3;stroke:#000000;stroke-opacity:0.3;stroke-width:0.3;" x="0.0" xlink:href="#mec7530b08f" y="432.0"/>
    </g>
   </g>
   <g id="PolyCollection_2">
    <defs>
     <path d="
M337.789 -212.333
L324.611 -212.333
L324.425 -212.57
L324.246 -212.807
L324.074 -213.044
L323.909 -213.281
L323.75 -213.518
L323.596 -213.756
L323.446 -213.993
L323.298 -214.23
L323.152 -214.467
L323.006 -214.704
L322.857 -214.942
L322.703 -215.179
L322.543 -215.416
L322.373 -215.653
L322.191 -215.89
L321.995 -216.128
L321.782 -216.365
L321.548 -216.602
L321.292 -216.839
L321.01 -217.076
L320.7 -217.314
L320.361 -217.551
L319.989 -217.788
L319.584 -218.025
L319.143 -218.262
L318.667 -218.5
L318.155 -218.737
L317.606 -218.974
L317.021 -219.211
L316.402 -219.448
L315.751 -219.686
L315.07 -219.923
L314.363 -220.16
L313.632 -220.397
L312.883 -220.634
L312.12 -220.872
L311.35 -221.109
L310.577 -221.346
L309.809 -221.583
L309.052 -221.82
L308.313 -222.058
L307.6 -222.295
L306.92 -222.532
L306.279 -222.769
L305.684 -223.006
L305.143 -223.244
L304.662 -223.481
L304.246 -223.718
L303.9 -223.955
L303.63 -224.192
L303.438 -224.43
L303.327 -224.667
L303.3 -224.904
L303.357 -225.141
L303.499 -225.378
L303.725 -225.616
L304.032 -225.853
L304.418 -226.09
L304.88 -226.327
L305.413 -226.564
L306.011 -226.802
L306.67 -227.039
L307.382 -227.276
L308.141 -227.513
L308.94 -227.75
L309.771 -227.988
L310.626 -228.225
L311.499 -228.462
L312.382 -228.699
L313.267 -228.936
L314.148 -229.173
L315.019 -229.411
L315.872 -229.648
L316.703 -229.885
L317.508 -230.122
L318.28 -230.359
L319.018 -230.597
L319.718 -230.834
L320.378 -231.071
L320.997 -231.308
L321.573 -231.545
L322.106 -231.783
L322.596 -232.02
L323.046 -232.257
L323.455 -232.494
L323.826 -232.731
L324.16 -232.969
L324.461 -233.206
L324.731 -233.443
L324.973 -233.68
L325.19 -233.917
L325.385 -234.155
L325.561 -234.392
L325.721 -234.629
L325.868 -234.866
L326.005 -235.103
L326.134 -235.341
L326.258 -235.578
L326.378 -235.815
L336.022 -235.815
L336.022 -235.815
L336.142 -235.578
L336.266 -235.341
L336.395 -235.103
L336.532 -234.866
L336.679 -234.629
L336.839 -234.392
L337.015 -234.155
L337.21 -233.917
L337.427 -233.68
L337.669 -233.443
L337.939 -233.206
L338.24 -232.969
L338.574 -232.731
L338.945 -232.494
L339.354 -232.257
L339.804 -232.02
L340.294 -231.783
L340.827 -231.545
L341.403 -231.308
L342.022 -231.071
L342.682 -230.834
L343.382 -230.597
L344.12 -230.359
L344.892 -230.122
L345.697 -229.885
L346.528 -229.648
L347.381 -229.411
L348.252 -229.173
L349.133 -228.936
L350.018 -228.699
L350.901 -228.462
L351.774 -228.225
L352.629 -227.988
L353.46 -227.75
L354.259 -227.513
L355.018 -227.276
L355.73 -227.039
L356.389 -226.802
L356.987 -226.564
L357.52 -226.327
L357.982 -226.09
L358.368 -225.853
L358.675 -225.616
L358.901 -225.378
L359.043 -225.141
L359.1 -224.904
L359.073 -224.667
L358.962 -224.43
L358.77 -224.192
L358.5 -223.955
L358.154 -223.718
L357.738 -223.481
L357.257 -223.244
L356.716 -223.006
L356.121 -222.769
L355.48 -222.532
L354.8 -222.295
L354.087 -222.058
L353.348 -221.82
L352.591 -221.583
L351.823 -221.346
L351.05 -221.109
L350.28 -220.872
L349.517 -220.634
L348.768 -220.397
L348.037 -220.16
L347.33 -219.923
L346.649 -219.686
L345.998 -219.448
L345.379 -219.211
L344.794 -218.974
L344.245 -218.737
L343.733 -218.5
L343.257 -218.262
L342.816 -218.025
L342.411 -217.788
L342.039 -217.551
L341.7 -217.314
L341.39 -217.076
L341.108 -216.839
L340.852 -216.602
L340.618 -216.365
L340.405 -216.128
L340.209 -215.89
L340.027 -215.653
L339.857 -215.416
L339.697 -215.179
L339.543 -214.942
L339.394 -214.704
L339.248 -214.467
L339.102 -214.23
L338.954 -213.993
L338.804 -213.756
L338.65 -213.518
L338.491 -213.281
L338.326 -213.044
L338.154 -212.807
L337.975 -212.57
L337.789 -212.333
z
" id="m86a58f8aed" style="stroke:#000000;stroke-opacity:0.3;stroke-width:0.3;"/>
    </defs>
    <g clip-path="url(#pe8a5247557)">
     <use style="fill:#bfbf00;fill-opacity:0.3;stroke:#000000;stroke-opacity:0.3;stroke-width:0.3;" x="0.0" xlink:href="#m86a58f8aed" y="432.0"/>
    </g>
   </g>
   <g id="PolyCollection_3">
    <defs>
     <path d="
M462.265 -202.568
L423.335 -202.568
L422.63 -202.779
L421.941 -202.99
L421.27 -203.202
L420.62 -203.413
L419.993 -203.624
L419.393 -203.836
L418.822 -204.047
L418.282 -204.258
L417.776 -204.47
L417.305 -204.681
L416.873 -204.893
L416.48 -205.104
L416.128 -205.315
L415.819 -205.527
L415.553 -205.738
L415.332 -205.949
L415.155 -206.161
L415.025 -206.372
L414.94 -206.583
L414.9 -206.795
L414.906 -207.006
L414.956 -207.218
L415.051 -207.429
L415.188 -207.64
L415.368 -207.852
L415.587 -208.063
L415.846 -208.274
L416.142 -208.486
L416.473 -208.697
L416.838 -208.908
L417.234 -209.12
L417.659 -209.331
L418.11 -209.543
L418.586 -209.754
L419.083 -209.965
L419.599 -210.177
L420.132 -210.388
L420.679 -210.599
L421.238 -210.811
L421.805 -211.022
L422.378 -211.233
L422.955 -211.445
L423.534 -211.656
L424.112 -211.868
L424.687 -212.079
L425.256 -212.29
L425.818 -212.502
L426.372 -212.713
L426.914 -212.924
L427.444 -213.136
L427.96 -213.347
L428.461 -213.558
L428.946 -213.77
L429.414 -213.981
L429.864 -214.193
L430.296 -214.404
L430.708 -214.615
L431.102 -214.827
L431.476 -215.038
L431.83 -215.249
L432.166 -215.461
L432.482 -215.672
L432.78 -215.883
L433.059 -216.095
L433.32 -216.306
L433.565 -216.517
L433.792 -216.729
L434.004 -216.94
L434.202 -217.152
L434.384 -217.363
L434.554 -217.574
L434.711 -217.786
L434.856 -217.997
L434.991 -218.208
L435.116 -218.42
L435.232 -218.631
L435.339 -218.843
L435.44 -219.054
L435.534 -219.265
L435.623 -219.477
L435.706 -219.688
L435.786 -219.899
L435.863 -220.111
L435.938 -220.322
L436.011 -220.533
L436.083 -220.745
L436.155 -220.956
L436.227 -221.167
L436.301 -221.379
L436.376 -221.59
L436.454 -221.802
L436.535 -222.013
L436.618 -222.224
L436.706 -222.436
L436.798 -222.647
L436.894 -222.858
L436.995 -223.07
L437.101 -223.281
L437.212 -223.493
L448.388 -223.493
L448.388 -223.493
L448.499 -223.281
L448.605 -223.07
L448.706 -222.858
L448.802 -222.647
L448.894 -222.436
L448.982 -222.224
L449.065 -222.013
L449.146 -221.802
L449.224 -221.59
L449.299 -221.379
L449.373 -221.167
L449.445 -220.956
L449.517 -220.745
L449.589 -220.533
L449.662 -220.322
L449.737 -220.111
L449.814 -219.899
L449.894 -219.688
L449.977 -219.477
L450.066 -219.265
L450.16 -219.054
L450.261 -218.843
L450.368 -218.631
L450.484 -218.42
L450.609 -218.208
L450.744 -217.997
L450.889 -217.786
L451.046 -217.574
L451.216 -217.363
L451.398 -217.152
L451.596 -216.94
L451.808 -216.729
L452.035 -216.517
L452.28 -216.306
L452.541 -216.095
L452.82 -215.883
L453.118 -215.672
L453.434 -215.461
L453.77 -215.249
L454.124 -215.038
L454.498 -214.827
L454.892 -214.615
L455.304 -214.404
L455.736 -214.193
L456.186 -213.981
L456.654 -213.77
L457.139 -213.558
L457.64 -213.347
L458.156 -213.136
L458.686 -212.924
L459.228 -212.713
L459.782 -212.502
L460.344 -212.29
L460.913 -212.079
L461.488 -211.868
L462.066 -211.656
L462.645 -211.445
L463.222 -211.233
L463.795 -211.022
L464.362 -210.811
L464.921 -210.599
L465.468 -210.388
L466.001 -210.177
L466.517 -209.965
L467.014 -209.754
L467.49 -209.543
L467.941 -209.331
L468.366 -209.12
L468.762 -208.908
L469.127 -208.697
L469.458 -208.486
L469.754 -208.274
L470.013 -208.063
L470.232 -207.852
L470.412 -207.64
L470.549 -207.429
L470.644 -207.218
L470.694 -207.006
L470.7 -206.795
L470.66 -206.583
L470.575 -206.372
L470.445 -206.161
L470.268 -205.949
L470.047 -205.738
L469.781 -205.527
L469.472 -205.315
L469.12 -205.104
L468.727 -204.893
L468.295 -204.681
L467.824 -204.47
L467.318 -204.258
L466.778 -204.047
L466.207 -203.836
L465.607 -203.624
L464.98 -203.413
L464.33 -203.202
L463.659 -202.99
L462.97 -202.779
L462.265 -202.568
z
" id="md74cf4afdd" style="stroke:#000000;stroke-opacity:0.3;stroke-width:0.3;"/>
    </defs>
    <g clip-path="url(#pe8a5247557)">
     <use style="fill:#bfbf00;fill-opacity:0.3;stroke:#000000;stroke-opacity:0.3;stroke-width:0.3;" x="0.0" xlink:href="#md74cf4afdd" y="432.0"/>
    </g>
   </g>
   <g id="PolyCollection_4">
    <defs>
     <path d="
M562.331 -193.965
L546.469 -193.965
L546.124 -194.045
L545.764 -194.125
L545.389 -194.205
L544.998 -194.284
L544.589 -194.364
L544.162 -194.444
L543.717 -194.524
L543.252 -194.604
L542.768 -194.684
L542.264 -194.763
L541.74 -194.843
L541.197 -194.923
L540.635 -195.003
L540.055 -195.083
L539.458 -195.163
L538.845 -195.243
L538.219 -195.322
L537.58 -195.402
L536.931 -195.482
L536.274 -195.562
L535.613 -195.642
L534.95 -195.722
L534.288 -195.802
L533.631 -195.881
L532.983 -195.961
L532.346 -196.041
L531.725 -196.121
L531.122 -196.201
L530.543 -196.281
L529.991 -196.36
L529.468 -196.44
L528.98 -196.52
L528.528 -196.6
L528.115 -196.68
L527.746 -196.76
L527.421 -196.84
L527.143 -196.919
L526.913 -196.999
L526.733 -197.079
L526.604 -197.159
L526.527 -197.239
L526.5 -197.319
L526.524 -197.398
L526.598 -197.478
L526.721 -197.558
L526.89 -197.638
L527.105 -197.718
L527.362 -197.798
L527.659 -197.878
L527.992 -197.957
L528.359 -198.037
L528.756 -198.117
L529.18 -198.197
L529.627 -198.277
L530.092 -198.357
L530.572 -198.437
L531.064 -198.516
L531.563 -198.596
L532.067 -198.676
L532.57 -198.756
L533.07 -198.836
L533.565 -198.916
L534.05 -198.995
L534.523 -199.075
L534.982 -199.155
L535.425 -199.235
L535.85 -199.315
L536.256 -199.395
L536.641 -199.475
L537.004 -199.554
L537.346 -199.634
L537.665 -199.714
L537.963 -199.794
L538.239 -199.874
L538.494 -199.954
L538.729 -200.033
L538.945 -200.113
L539.144 -200.193
L539.327 -200.273
L539.495 -200.353
L539.651 -200.433
L539.797 -200.513
L539.934 -200.592
L540.065 -200.672
L540.192 -200.752
L540.316 -200.832
L540.439 -200.912
L540.564 -200.992
L540.693 -201.072
L540.827 -201.151
L540.968 -201.231
L541.117 -201.311
L541.276 -201.391
L541.446 -201.471
L541.627 -201.551
L541.822 -201.63
L542.029 -201.71
L542.25 -201.79
L542.485 -201.87
L566.315 -201.87
L566.315 -201.87
L566.55 -201.79
L566.771 -201.71
L566.978 -201.63
L567.173 -201.551
L567.354 -201.471
L567.524 -201.391
L567.683 -201.311
L567.832 -201.231
L567.973 -201.151
L568.107 -201.072
L568.236 -200.992
L568.361 -200.912
L568.484 -200.832
L568.608 -200.752
L568.735 -200.672
L568.866 -200.592
L569.003 -200.513
L569.149 -200.433
L569.305 -200.353
L569.473 -200.273
L569.656 -200.193
L569.855 -200.113
L570.071 -200.033
L570.306 -199.954
L570.561 -199.874
L570.837 -199.794
L571.135 -199.714
L571.454 -199.634
L571.796 -199.554
L572.159 -199.475
L572.544 -199.395
L572.95 -199.315
L573.375 -199.235
L573.818 -199.155
L574.277 -199.075
L574.75 -198.995
L575.235 -198.916
L575.73 -198.836
L576.23 -198.756
L576.733 -198.676
L577.237 -198.596
L577.736 -198.516
L578.228 -198.437
L578.708 -198.357
L579.173 -198.277
L579.62 -198.197
L580.044 -198.117
L580.441 -198.037
L580.808 -197.957
L581.141 -197.878
L581.438 -197.798
L581.695 -197.718
L581.91 -197.638
L582.079 -197.558
L582.202 -197.478
L582.276 -197.398
L582.3 -197.319
L582.273 -197.239
L582.196 -197.159
L582.067 -197.079
L581.887 -196.999
L581.657 -196.919
L581.379 -196.84
L581.054 -196.76
L580.685 -196.68
L580.272 -196.6
L579.82 -196.52
L579.332 -196.44
L578.809 -196.36
L578.257 -196.281
L577.678 -196.201
L577.075 -196.121
L576.454 -196.041
L575.817 -195.961
L575.169 -195.881
L574.512 -195.802
L573.85 -195.722
L573.187 -195.642
L572.526 -195.562
L571.869 -195.482
L571.22 -195.402
L570.581 -195.322
L569.955 -195.243
L569.342 -195.163
L568.745 -195.083
L568.165 -195.003
L567.603 -194.923
L567.06 -194.843
L566.536 -194.763
L566.032 -194.684
L565.548 -194.604
L565.083 -194.524
L564.638 -194.444
L564.211 -194.364
L563.802 -194.284
L563.411 -194.205
L563.036 -194.125
L562.676 -194.045
L562.331 -193.965
z
" id="m7b2c7583e4" style="stroke:#000000;stroke-opacity:0.3;stroke-width:0.3;"/>
    </defs>
    <g clip-path="url(#pe8a5247557)">
     <use style="fill:#bfbf00;fill-opacity:0.3;stroke:#000000;stroke-opacity:0.3;stroke-width:0.3;" x="0.0" xlink:href="#m7b2c7583e4" y="432.0"/>
    </g>
   </g>
   <g id="PolyCollection_5">
    <defs>
     <path d="
M680.05 -68.415
L651.95 -68.415
L651.597 -68.5418
L651.256 -68.6686
L650.93 -68.7955
L650.618 -68.9223
L650.321 -69.0491
L650.038 -69.1759
L649.769 -69.3027
L649.515 -69.4295
L649.274 -69.5564
L649.045 -69.6832
L648.828 -69.81
L648.622 -69.9368
L648.425 -70.0636
L648.237 -70.1905
L648.054 -70.3173
L647.877 -70.4441
L647.703 -70.5709
L647.53 -70.6977
L647.357 -70.8245
L647.183 -70.9514
L647.005 -71.0782
L646.822 -71.205
L646.632 -71.3318
L646.434 -71.4586
L646.227 -71.5855
L646.01 -71.7123
L645.782 -71.8391
L645.542 -71.9659
L645.289 -72.0927
L645.024 -72.2195
L644.747 -72.3464
L644.458 -72.4732
L644.157 -72.6
L643.845 -72.7268
L643.524 -72.8536
L643.195 -72.9805
L642.858 -73.1073
L642.517 -73.2341
L642.173 -73.3609
L641.828 -73.4877
L641.485 -73.6145
L641.145 -73.7414
L640.812 -73.8682
L640.487 -73.995
L640.173 -74.1218
L639.874 -74.2486
L639.59 -74.3755
L639.326 -74.5023
L639.082 -74.6291
L638.861 -74.7559
L638.665 -74.8827
L638.497 -75.0095
L638.356 -75.1364
L638.245 -75.2632
L638.165 -75.39
L638.116 -75.5168
L638.1 -75.6436
L638.116 -75.7705
L638.165 -75.8973
L638.246 -76.0241
L638.358 -76.1509
L638.502 -76.2777
L638.676 -76.4045
L638.879 -76.5314
L639.11 -76.6582
L639.368 -76.785
L639.65 -76.9118
L639.955 -77.0386
L640.282 -77.1655
L640.628 -77.2923
L640.992 -77.4191
L641.371 -77.5459
L641.765 -77.6727
L642.171 -77.7995
L642.587 -77.9264
L643.012 -78.0532
L643.444 -78.18
L643.882 -78.3068
L644.325 -78.4336
L644.771 -78.5605
L645.219 -78.6873
L645.668 -78.8141
L646.118 -78.9409
L646.568 -79.0677
L647.017 -79.1945
L647.465 -79.3214
L647.912 -79.4482
L648.357 -79.575
L648.8 -79.7018
L649.241 -79.8286
L649.68 -79.9555
L650.118 -80.0823
L650.553 -80.2091
L650.987 -80.3359
L651.419 -80.4627
L651.85 -80.5895
L652.279 -80.7164
L652.706 -80.8432
L653.132 -80.97
L678.868 -80.97
L678.868 -80.97
L679.294 -80.8432
L679.721 -80.7164
L680.15 -80.5895
L680.581 -80.4627
L681.013 -80.3359
L681.447 -80.2091
L681.882 -80.0823
L682.32 -79.9555
L682.759 -79.8286
L683.2 -79.7018
L683.643 -79.575
L684.088 -79.4482
L684.535 -79.3214
L684.983 -79.1945
L685.432 -79.0677
L685.882 -78.9409
L686.332 -78.8141
L686.781 -78.6873
L687.229 -78.5605
L687.675 -78.4336
L688.118 -78.3068
L688.556 -78.18
L688.988 -78.0532
L689.413 -77.9264
L689.829 -77.7995
L690.235 -77.6727
L690.629 -77.5459
L691.008 -77.4191
L691.372 -77.2923
L691.718 -77.1655
L692.045 -77.0386
L692.35 -76.9118
L692.632 -76.785
L692.89 -76.6582
L693.121 -76.5314
L693.324 -76.4045
L693.498 -76.2777
L693.642 -76.1509
L693.754 -76.0241
L693.835 -75.8973
L693.884 -75.7705
L693.9 -75.6436
L693.884 -75.5168
L693.835 -75.39
L693.755 -75.2632
L693.644 -75.1364
L693.503 -75.0095
L693.335 -74.8827
L693.139 -74.7559
L692.918 -74.6291
L692.674 -74.5023
L692.41 -74.3755
L692.126 -74.2486
L691.827 -74.1218
L691.513 -73.995
L691.188 -73.8682
L690.855 -73.7414
L690.515 -73.6145
L690.172 -73.4877
L689.827 -73.3609
L689.483 -73.2341
L689.142 -73.1073
L688.805 -72.9805
L688.476 -72.8536
L688.155 -72.7268
L687.843 -72.6
L687.542 -72.4732
L687.253 -72.3464
L686.976 -72.2195
L686.711 -72.0927
L686.458 -71.9659
L686.218 -71.8391
L685.99 -71.7123
L685.773 -71.5855
L685.566 -71.4586
L685.368 -71.3318
L685.178 -71.205
L684.995 -71.0782
L684.817 -70.9514
L684.643 -70.8245
L684.47 -70.6977
L684.297 -70.5709
L684.123 -70.4441
L683.946 -70.3173
L683.763 -70.1905
L683.575 -70.0636
L683.378 -69.9368
L683.172 -69.81
L682.955 -69.6832
L682.726 -69.5564
L682.485 -69.4295
L682.231 -69.3027
L681.962 -69.1759
L681.679 -69.0491
L681.382 -68.9223
L681.07 -68.7955
L680.744 -68.6686
L680.403 -68.5418
L680.05 -68.415
z
" id="m2d92db1c75" style="stroke:#000000;stroke-opacity:0.3;stroke-width:0.3;"/>
    </defs>
    <g clip-path="url(#pe8a5247557)">
     <use style="fill:#bfbf00;fill-opacity:0.3;stroke:#000000;stroke-opacity:0.3;stroke-width:0.3;" x="0.0" xlink:href="#m2d92db1c75" y="432.0"/>
    </g>
   </g>
   <g id="LineCollection_1">
    <defs>
     <path d="
M205.65 -354.855
L233.55 -354.855" id="C0_0_cec6fe97c1"/>
     <path d="
M317.25 -225.004
L345.15 -225.004" id="C0_1_e085cd950a"/>
     <path d="
M428.85 -207.799
L456.75 -207.799" id="C0_2_551a6f9adf"/>
     <path d="
M540.45 -197.452
L568.35 -197.452" id="C0_3_1f1cc9e891"/>
     <path d="
M652.05 -75.0412
L679.95 -75.0412" id="C0_4_f87df112e7"/>
    </defs>
    <g clip-path="url(#pe8a5247557)">
     <use style="fill:none;stroke:#ff0000;stroke-width:1.75;" x="0.0" xlink:href="#C0_0_cec6fe97c1" y="432.0"/>
    </g>
    <g clip-path="url(#pe8a5247557)">
     <use style="fill:none;stroke:#ff0000;stroke-width:1.75;" x="0.0" xlink:href="#C0_1_e085cd950a" y="432.0"/>
    </g>
    <g clip-path="url(#pe8a5247557)">
     <use style="fill:none;stroke:#ff0000;stroke-width:1.75;" x="0.0" xlink:href="#C0_2_551a6f9adf" y="432.0"/>
    </g>
    <g clip-path="url(#pe8a5247557)">
     <use style="fill:none;stroke:#ff0000;stroke-width:1.75;" x="0.0" xlink:href="#C0_3_1f1cc9e891" y="432.0"/>
    </g>
    <g clip-path="url(#pe8a5247557)">
     <use style="fill:none;stroke:#ff0000;stroke-width:1.75;" x="0.0" xlink:href="#C0_4_f87df112e7" y="432.0"/>
    </g>
   </g>
   <g id="patch_3">
    <path d="
M108 43.2
L777.6 43.2" style="fill:none;"/>
   </g>
   <g id="patch_4">
    <path d="
M777.6 378
L777.6 43.2" style="fill:none;"/>
   </g>
   <g id="patch_5">
    <path d="
M108 378
L777.6 378" style="fill:none;"/>
   </g>
   <g id="patch_6">
    <path d="
M108 378
L108 43.2" style="fill:none;"/>
   </g>
   <g id="text_16">
    <!-- Mean score per stage game over 200 turns repeated 10 times (5 strategies) -->
    <defs>
     <path d="
M4.98438 -4.29688
L13.5312 -5.5625
Q14.0625 -9.51562 16.5 -11.3281
Q19.7812 -13.7656 25.4375 -13.7656
Q31.5469 -13.7656 34.8594 -11.3281
Q38.1875 -8.89062 39.3594 -4.5
Q40.0469 -1.8125 39.9844 6.78125
Q34.2344 0 25.6406 0
Q14.9375 0 9.07812 7.71875
Q3.21875 15.4375 3.21875 26.2188
Q3.21875 33.6406 5.90625 39.9062
Q8.59375 46.1875 13.6875 49.6094
Q18.7969 53.0312 25.6875 53.0312
Q34.8594 53.0312 40.8281 45.6094
L40.8281 51.8594
L48.9219 51.8594
L48.9219 7.03125
Q48.9219 -5.07812 46.4531 -10.125
Q44 -15.1875 38.6406 -18.1094
Q33.2969 -21.0469 25.4844 -21.0469
Q16.2188 -21.0469 10.5 -16.875
Q4.78125 -12.7031 4.98438 -4.29688
M12.25 26.8594
Q12.25 16.6562 16.2969 11.9688
Q20.3594 7.28125 26.4688 7.28125
Q32.5156 7.28125 36.6094 11.9375
Q40.7188 16.6094 40.7188 26.5625
Q40.7188 36.0781 36.5 40.9062
Q32.2812 45.75 26.3125 45.75
Q20.4531 45.75 16.3438 40.9844
Q12.25 36.2344 12.25 26.8594" id="ArialMT-67"/>
     <path d="
M40.5781 0
L40.5781 7.625
Q34.5156 -1.17188 24.125 -1.17188
Q19.5312 -1.17188 15.5469 0.578125
Q11.5781 2.34375 9.64062 5
Q7.71875 7.67188 6.9375 11.5312
Q6.39062 14.1094 6.39062 19.7344
L6.39062 51.8594
L15.1875 51.8594
L15.1875 23.0938
Q15.1875 16.2188 15.7188 13.8125
Q16.5469 10.3594 19.2344 8.375
Q21.9219 6.39062 25.875 6.39062
Q29.8281 6.39062 33.2969 8.42188
Q36.7656 10.4531 38.2031 13.9375
Q39.6562 17.4375 39.6562 24.0781
L39.6562 51.8594
L48.4375 51.8594
L48.4375 0
z
" id="ArialMT-75"/>
     <path d="
M21 0
L1.26562 51.8594
L10.5469 51.8594
L21.6875 20.7969
Q23.4844 15.7656 25 10.3594
Q26.1719 14.4531 28.2656 20.2188
L39.7969 51.8594
L48.8281 51.8594
L29.2031 0
z
" id="ArialMT-76"/>
     <path d="
M3.07812 15.4844
L11.7656 16.8438
Q12.5 11.625 15.8438 8.84375
Q19.1875 6.0625 25.2031 6.0625
Q31.25 6.0625 34.1719 8.51562
Q37.1094 10.9844 37.1094 14.3125
Q37.1094 17.2812 34.5156 19
Q32.7188 20.1719 25.5312 21.9688
Q15.875 24.4219 12.1406 26.2031
Q8.40625 27.9844 6.46875 31.125
Q4.54688 34.2812 4.54688 38.0938
Q4.54688 41.5469 6.125 44.5
Q7.71875 47.4688 10.4531 49.4219
Q12.5 50.9219 16.0312 51.9688
Q19.5781 53.0312 23.6406 53.0312
Q29.7344 53.0312 34.3438 51.2656
Q38.9688 49.5156 41.1562 46.5
Q43.3594 43.5 44.1875 38.4844
L35.5938 37.3125
Q35.0156 41.3125 32.2031 43.5469
Q29.3906 45.7969 24.2656 45.7969
Q18.2188 45.7969 15.625 43.7969
Q13.0312 41.7969 13.0312 39.1094
Q13.0312 37.4062 14.1094 36.0312
Q15.1875 34.625 17.4844 33.6875
Q18.7969 33.2031 25.25 31.4531
Q34.5781 28.9531 38.25 27.3594
Q41.9375 25.7812 44.0312 22.75
Q46.1406 19.7344 46.1406 15.2344
Q46.1406 10.8438 43.5781 6.95312
Q41.0156 3.07812 36.1719 0.953125
Q31.3438 -1.17188 25.25 -1.17188
Q15.1406 -1.17188 9.84375 3.03125
Q4.54688 7.23438 3.07812 15.4844" id="ArialMT-73"/>
     <path d="
M12.3594 -21.0469
L6.0625 -21.0469
Q20.6562 2.39062 20.6562 25.875
Q20.6562 35.0625 18.5625 44.0938
Q16.8906 51.4219 13.9219 58.1562
Q12.0156 62.5469 6.0625 72.7969
L12.3594 72.7969
Q21.5312 60.5469 25.9219 48.1875
Q29.6875 37.5469 29.6875 25.9219
Q29.6875 12.75 24.625 0.4375
Q19.5781 -11.8594 12.3594 -21.0469" id="ArialMT-29"/>
     <path d="
M23.3906 -21.0469
Q16.1094 -11.8594 11.0781 0.4375
Q6.0625 12.75 6.0625 25.9219
Q6.0625 37.5469 9.8125 48.1875
Q14.2031 60.5469 23.3906 72.7969
L29.6875 72.7969
Q23.7812 62.6406 21.875 58.2969
Q18.8906 51.5625 17.1875 44.2344
Q15.0938 35.1094 15.0938 25.875
Q15.0938 2.39062 29.6875 -21.0469
z
" id="ArialMT-28"/>
     <path d="
M7.42188 0
L7.42188 71.5781
L21.6875 71.5781
L38.625 20.9062
Q40.9688 13.8125 42.0469 10.2969
Q43.2656 14.2031 45.8438 21.7812
L62.9844 71.5781
L75.7344 71.5781
L75.7344 0
L66.6094 0
L66.6094 59.9062
L45.7969 0
L37.25 0
L16.5469 60.9375
L16.5469 0
z
" id="ArialMT-4d"/>
    </defs>
    <g style="fill:#262626;" transform="translate(241.9275 38.2)scale(0.12 -0.12)">
     <use xlink:href="#ArialMT-4d"/>
     <use x="83.30078125" xlink:href="#ArialMT-65"/>
     <use x="138.916015625" xlink:href="#ArialMT-61"/>
     <use x="194.53125" xlink:href="#ArialMT-6e"/>
     <use x="250.146484375" xlink:href="#ArialMT-20"/>
     <use x="277.9296875" xlink:href="#ArialMT-73"/>
     <use x="327.9296875" xlink:href="#ArialMT-63"/>
     <use x="377.9296875" xlink:href="#ArialMT-6f"/>
     <use x="433.544921875" xlink:href="#ArialMT-72"/>
     <use x="466.845703125" xlink:href="#ArialMT-65"/>
     <use x="522.4609375" xlink:href="#ArialMT-20"/>
     <use x="550.244140625" xlink:href="#ArialMT-70"/>
     <use x="605.859375" xlink:href="#ArialMT-65"/>
     <use x="661.474609375" xlink:href="#ArialMT-72"/>
     <use x="694.775390625" xlink:href="#ArialMT-20"/>
     <use x="722.55859375" xlink:href="#ArialMT-73"/>
     <use x="772.55859375" xlink:href="#ArialMT-74"/>
     <use x="800.341796875" xlink:href="#ArialMT-61"/>
     <use x="855.95703125" xlink:href="#ArialMT-67"/>
     <use x="911.572265625" xlink:href="#ArialMT-65"/>
     <use x="967.1875" xlink:href="#ArialMT-20"/>
     <use x="994.970703125" xlink:href="#ArialMT-67"/>
     <use x="1050.5859375" xlink:href="#ArialMT-61"/>
     <use x="1106.20117188" xlink:href="#ArialMT-6d"/>
     <use x="1189.50195312" xlink:href="#ArialMT-65"/>
     <use x="1245.1171875" xlink:href="#ArialMT-20"/>
     <use x="1272.90039062" xlink:href="#ArialMT-6f"/>
     <use x="1328.515625" xlink:href="#ArialMT-76"/>
     <use x="1378.515625" xlink:href="#ArialMT-65"/>
     <use x="1434.13085938" xlink:href="#ArialMT-72"/>
     <use x="1467.43164062" xlink:href="#ArialMT-20"/>
     <use x="1495.21484375" xlink:href="#ArialMT-32"/>
     <use x="1550.83007812" xlink:href="#ArialMT-30"/>
     <use x="1606.4453125" xlink:href="#ArialMT-30"/>
     <use x="1662.06054688" xlink:href="#ArialMT-20"/>
     <use x="1689.84375" xlink:href="#ArialMT-74"/>
     <use x="1717.62695312" xlink:href="#ArialMT-75"/>
     <use x="1773.2421875" xlink:href="#ArialMT-72"/>
     <use x="1806.54296875" xlink:href="#ArialMT-6e"/>
     <use x="1862.15820312" xlink:href="#ArialMT-73"/>
     <use x="1912.15820312" xlink:href="#ArialMT-20"/>
     <use x="1939.94140625" xlink:href="#ArialMT-72"/>
     <use x="1973.2421875" xlink:href="#ArialMT-65"/>
     <use x="2028.85742188" xlink:href="#ArialMT-70"/>
     <use x="2084.47265625" xlink:href="#ArialMT-65"/>
     <use x="2140.08789062" xlink:href="#ArialMT-61"/>
     <use x="2195.703125" xlink:href="#ArialMT-74"/>
     <use x="2223.48632812" xlink:href="#ArialMT-65"/>
     <use x="2279.1015625" xlink:href="#ArialMT-64"/>
     <use x="2334.71679688" xlink:href="#ArialMT-20"/>
     <use x="2362.5" xlink:href="#ArialMT-31"/>
     <use x="2418.11523438" xlink:href="#ArialMT-30"/>
     <use x="2473.73046875" xlink:href="#ArialMT-20"/>
     <use x="2501.51367188" xlink:href="#ArialMT-74"/>
     <use x="2529.296875" xlink:href="#ArialMT-69"/>
     <use x="2551.51367188" xlink:href="#ArialMT-6d"/>
     <use x="2634.81445312" xlink:href="#ArialMT-65"/>
     <use x="2690.4296875" xlink:href="#ArialMT-73"/>
     <use x="2740.4296875" xlink:href="#ArialMT-20"/>
     <use x="2768.21289062" xlink:href="#ArialMT-28"/>
     <use x="2801.51367188" xlink:href="#ArialMT-35"/>
     <use x="2857.12890625" xlink:href="#ArialMT-20"/>
     <use x="2884.91210938" xlink:href="#ArialMT-73"/>
     <use x="2934.91210938" xlink:href="#ArialMT-74"/>
     <use x="2962.6953125" xlink:href="#ArialMT-72"/>
     <use x="2995.99609375" xlink:href="#ArialMT-61"/>
     <use x="3051.61132812" xlink:href="#ArialMT-74"/>
     <use x="3079.39453125" xlink:href="#ArialMT-65"/>
     <use x="3135.00976562" xlink:href="#ArialMT-67"/>
     <use x="3190.625" xlink:href="#ArialMT-69"/>
     <use x="3212.84179688" xlink:href="#ArialMT-65"/>
     <use x="3268.45703125" xlink:href="#ArialMT-73"/>
     <use x="3318.45703125" xlink:href="#ArialMT-29"/>
    </g>
   </g>
  </g>
 </g>
 <defs>
  <clipPath id="pe8a5247557">
   <rect height="334.8" width="669.6" x="108.0" y="43.2"/>
  </clipPath>
 </defs>
</svg>
