<?xml version="1.0" encoding="utf-8" standalone="no"?>
<!DOCTYPE svg PUBLIC "-//W3C//DTD SVG 1.1//EN"
  "http://www.w3.org/Graphics/SVG/1.1/DTD/svg11.dtd">
<!-- Created with matplotlib (http://matplotlib.org/) -->
<svg height="288pt" version="1.1" viewBox="0 0 432 288" width="432pt" xmlns="http://www.w3.org/2000/svg" xmlns:xlink="http://www.w3.org/1999/xlink">
 <defs>
  <style type="text/css">
*{stroke-linecap:butt;stroke-linejoin:round;}
  </style>
 </defs>
 <g id="figure_1">
  <g id="patch_1">
   <path d="
M0 288
L432 288
L432 0
L0 0
z
" style="fill:#ffffff;"/>
  </g>
  <g id="axes_1">
   <g id="patch_2">
    <path d="
M54 252
L388.8 252
L388.8 28.8
L54 28.8
z
" style="fill:#eaeaf2;"/>
   </g>
   <g id="matplotlib.axis_1">
    <g id="xtick_1">
     <g id="line2d_1">
      <path clip-path="url(#p124b8dd147)" d="
M54 252
L54 28.8" style="fill:none;stroke:#ffffff;stroke-linecap:round;"/>
     </g>
     <g id="line2d_2">
      <defs>
       <path d="
M0 0
L0 0" id="m219da94a98" style="stroke:#262626;"/>
      </defs>
      <g>
       <use style="fill:#262626;stroke:#262626;" x="54.0" xlink:href="#m219da94a98" y="252.0"/>
      </g>
     </g>
     <g id="line2d_3">
      <g>
       <use style="fill:#262626;stroke:#262626;" x="54.0" xlink:href="#m219da94a98" y="28.8"/>
      </g>
     </g>
     <g id="text_1">
      <!-- $\mathdefault{10^{0}}$ -->
      <defs>
       <path d="
M4.15625 35.2969
Q4.15625 48 6.76562 55.7344
Q9.375 63.4844 14.5156 67.6719
Q19.6719 71.875 27.4844 71.875
Q33.25 71.875 37.5938 69.5469
Q41.9375 67.2344 44.7656 62.8594
Q47.6094 58.5 49.2188 52.2188
Q50.8281 45.9531 50.8281 35.2969
Q50.8281 22.7031 48.2344 14.9688
Q45.6562 7.23438 40.5 3
Q35.3594 -1.21875 27.4844 -1.21875
Q17.1406 -1.21875 11.2344 6.20312
Q4.15625 15.1406 4.15625 35.2969
M13.1875 35.2969
Q13.1875 17.6719 17.3125 11.8281
Q21.4375 6 27.4844 6
Q33.5469 6 37.6719 11.8594
Q41.7969 17.7188 41.7969 35.2969
Q41.7969 52.9844 37.6719 58.7812
Q33.5469 64.5938 27.3906 64.5938
Q21.3438 64.5938 17.7188 59.4688
Q13.1875 52.9375 13.1875 35.2969" id="ArialMT-30"/>
       <path d="
M37.25 0
L28.4688 0
L28.4688 56
Q25.2969 52.9844 20.1406 49.9531
Q14.9844 46.9219 10.8906 45.4062
L10.8906 53.9062
Q18.2656 57.375 23.7812 62.2969
Q29.2969 67.2344 31.5938 71.875
L37.25 71.875
z
" id="ArialMT-31"/>
      </defs>
      <g style="fill:#262626;" transform="translate(45.45 267.3125)scale(0.1 -0.1)">
       <use transform="translate(0.0 0.90625)" xlink:href="#ArialMT-31"/>
       <use transform="translate(55.615234375 0.90625)" xlink:href="#ArialMT-30"/>
       <use transform="translate(111.23046875 50.6875)scale(0.7)" xlink:href="#ArialMT-30"/>
      </g>
     </g>
    </g>
    <g id="xtick_2">
     <g id="line2d_4">
      <path clip-path="url(#p124b8dd147)" d="
M221.4 252
L221.4 28.8" style="fill:none;stroke:#ffffff;stroke-linecap:round;"/>
     </g>
     <g id="line2d_5">
      <g>
       <use style="fill:#262626;stroke:#262626;" x="221.4" xlink:href="#m219da94a98" y="252.0"/>
      </g>
     </g>
     <g id="line2d_6">
      <g>
       <use style="fill:#262626;stroke:#262626;" x="221.4" xlink:href="#m219da94a98" y="28.8"/>
      </g>
     </g>
     <g id="text_2">
      <!-- $\mathdefault{10^{1}}$ -->
      <g style="fill:#262626;" transform="translate(212.85 267.3125)scale(0.1 -0.1)">
       <use transform="translate(0.0 0.90625)" xlink:href="#ArialMT-31"/>
       <use transform="translate(55.615234375 0.90625)" xlink:href="#ArialMT-30"/>
       <use transform="translate(111.23046875 50.6875)scale(0.7)" xlink:href="#ArialMT-31"/>
      </g>
     </g>
    </g>
    <g id="xtick_3">
     <g id="line2d_7">
      <path clip-path="url(#p124b8dd147)" d="
M388.8 252
L388.8 28.8" style="fill:none;stroke:#ffffff;stroke-linecap:round;"/>
     </g>
     <g id="line2d_8">
      <g>
       <use style="fill:#262626;stroke:#262626;" x="388.8" xlink:href="#m219da94a98" y="252.0"/>
      </g>
     </g>
     <g id="line2d_9">
      <g>
       <use style="fill:#262626;stroke:#262626;" x="388.8" xlink:href="#m219da94a98" y="28.8"/>
      </g>
     </g>
     <g id="text_3">
      <!-- $\mathdefault{10^{2}}$ -->
      <defs>
       <path d="
M50.3438 8.45312
L50.3438 0
L3.03125 0
Q2.9375 3.17188 4.04688 6.10938
Q5.85938 10.9375 9.82812 15.625
Q13.8125 20.3125 21.3438 26.4688
Q33.0156 36.0312 37.1094 41.625
Q41.2188 47.2188 41.2188 52.2031
Q41.2188 57.4219 37.4688 61
Q33.7344 64.5938 27.7344 64.5938
Q21.3906 64.5938 17.5781 60.7812
Q13.7656 56.9844 13.7188 50.25
L4.6875 51.1719
Q5.60938 61.2812 11.6562 66.5781
Q17.7188 71.875 27.9375 71.875
Q38.2344 71.875 44.2344 66.1562
Q50.25 60.4531 50.25 52
Q50.25 47.7031 48.4844 43.5469
Q46.7344 39.4062 42.6562 34.8125
Q38.5781 30.2188 29.1094 22.2188
Q21.1875 15.5781 18.9375 13.2031
Q16.7031 10.8438 15.2344 8.45312
z
" id="ArialMT-32"/>
      </defs>
      <g style="fill:#262626;" transform="translate(380.25 267.3125)scale(0.1 -0.1)">
       <use transform="translate(0.0 0.90625)" xlink:href="#ArialMT-31"/>
       <use transform="translate(55.615234375 0.90625)" xlink:href="#ArialMT-30"/>
       <use transform="translate(111.23046875 50.6875)scale(0.7)" xlink:href="#ArialMT-32"/>
      </g>
     </g>
    </g>
    <g id="xtick_4">
     <g id="line2d_10">
      <defs>
       <path d="
M0 0
L0 0" id="m8735711441" style="stroke:#262626;stroke-width:0.5;"/>
      </defs>
      <g>
       <use style="fill:#262626;stroke:#262626;stroke-width:0.5;" x="104.392421274" xlink:href="#m8735711441" y="252.0"/>
      </g>
     </g>
     <g id="line2d_11">
      <g>
       <use style="fill:#262626;stroke:#262626;stroke-width:0.5;" x="104.392421274" xlink:href="#m8735711441" y="28.8"/>
      </g>
     </g>
    </g>
    <g id="xtick_5">
     <g id="line2d_12">
      <g>
       <use style="fill:#262626;stroke:#262626;stroke-width:0.5;" x="133.87009804" xlink:href="#m8735711441" y="252.0"/>
      </g>
     </g>
     <g id="line2d_13">
      <g>
       <use style="fill:#262626;stroke:#262626;stroke-width:0.5;" x="133.87009804" xlink:href="#m8735711441" y="28.8"/>
      </g>
     </g>
    </g>
    <g id="xtick_6">
     <g id="line2d_14">
      <g>
       <use style="fill:#262626;stroke:#262626;stroke-width:0.5;" x="154.784842548" xlink:href="#m8735711441" y="252.0"/>
      </g>
     </g>
     <g id="line2d_15">
      <g>
       <use style="fill:#262626;stroke:#262626;stroke-width:0.5;" x="154.784842548" xlink:href="#m8735711441" y="28.8"/>
      </g>
     </g>
    </g>
    <g id="xtick_7">
     <g id="line2d_16">
      <g>
       <use style="fill:#262626;stroke:#262626;stroke-width:0.5;" x="171.007578726" xlink:href="#m8735711441" y="252.0"/>
      </g>
     </g>
     <g id="line2d_17">
      <g>
       <use style="fill:#262626;stroke:#262626;stroke-width:0.5;" x="171.007578726" xlink:href="#m8735711441" y="28.8"/>
      </g>
     </g>
    </g>
    <g id="xtick_8">
     <g id="line2d_18">
      <g>
       <use style="fill:#262626;stroke:#262626;stroke-width:0.5;" x="184.262519314" xlink:href="#m8735711441" y="252.0"/>
      </g>
     </g>
     <g id="line2d_19">
      <g>
       <use style="fill:#262626;stroke:#262626;stroke-width:0.5;" x="184.262519314" xlink:href="#m8735711441" y="28.8"/>
      </g>
     </g>
    </g>
    <g id="xtick_9">
     <g id="line2d_20">
      <g>
       <use style="fill:#262626;stroke:#262626;stroke-width:0.5;" x="195.469411898" xlink:href="#m8735711441" y="252.0"/>
      </g>
     </g>
     <g id="line2d_21">
      <g>
       <use style="fill:#262626;stroke:#262626;stroke-width:0.5;" x="195.469411898" xlink:href="#m8735711441" y="28.8"/>
      </g>
     </g>
    </g>
    <g id="xtick_10">
     <g id="line2d_22">
      <g>
       <use style="fill:#262626;stroke:#262626;stroke-width:0.5;" x="205.177263822" xlink:href="#m8735711441" y="252.0"/>
      </g>
     </g>
     <g id="line2d_23">
      <g>
       <use style="fill:#262626;stroke:#262626;stroke-width:0.5;" x="205.177263822" xlink:href="#m8735711441" y="28.8"/>
      </g>
     </g>
    </g>
    <g id="xtick_11">
     <g id="line2d_24">
      <g>
       <use style="fill:#262626;stroke:#262626;stroke-width:0.5;" x="213.74019608" xlink:href="#m8735711441" y="252.0"/>
      </g>
     </g>
     <g id="line2d_25">
      <g>
       <use style="fill:#262626;stroke:#262626;stroke-width:0.5;" x="213.74019608" xlink:href="#m8735711441" y="28.8"/>
      </g>
     </g>
    </g>
    <g id="xtick_12">
     <g id="line2d_26">
      <g>
       <use style="fill:#262626;stroke:#262626;stroke-width:0.5;" x="271.792421274" xlink:href="#m8735711441" y="252.0"/>
      </g>
     </g>
     <g id="line2d_27">
      <g>
       <use style="fill:#262626;stroke:#262626;stroke-width:0.5;" x="271.792421274" xlink:href="#m8735711441" y="28.8"/>
      </g>
     </g>
    </g>
    <g id="xtick_13">
     <g id="line2d_28">
      <g>
       <use style="fill:#262626;stroke:#262626;stroke-width:0.5;" x="301.27009804" xlink:href="#m8735711441" y="252.0"/>
      </g>
     </g>
     <g id="line2d_29">
      <g>
       <use style="fill:#262626;stroke:#262626;stroke-width:0.5;" x="301.27009804" xlink:href="#m8735711441" y="28.8"/>
      </g>
     </g>
    </g>
    <g id="xtick_14">
     <g id="line2d_30">
      <g>
       <use style="fill:#262626;stroke:#262626;stroke-width:0.5;" x="322.184842548" xlink:href="#m8735711441" y="252.0"/>
      </g>
     </g>
     <g id="line2d_31">
      <g>
       <use style="fill:#262626;stroke:#262626;stroke-width:0.5;" x="322.184842548" xlink:href="#m8735711441" y="28.8"/>
      </g>
     </g>
    </g>
    <g id="xtick_15">
     <g id="line2d_32">
      <g>
       <use style="fill:#262626;stroke:#262626;stroke-width:0.5;" x="338.407578726" xlink:href="#m8735711441" y="252.0"/>
      </g>
     </g>
     <g id="line2d_33">
      <g>
       <use style="fill:#262626;stroke:#262626;stroke-width:0.5;" x="338.407578726" xlink:href="#m8735711441" y="28.8"/>
      </g>
     </g>
    </g>
    <g id="xtick_16">
     <g id="line2d_34">
      <g>
       <use style="fill:#262626;stroke:#262626;stroke-width:0.5;" x="351.662519314" xlink:href="#m8735711441" y="252.0"/>
      </g>
     </g>
     <g id="line2d_35">
      <g>
       <use style="fill:#262626;stroke:#262626;stroke-width:0.5;" x="351.662519314" xlink:href="#m8735711441" y="28.8"/>
      </g>
     </g>
    </g>
    <g id="xtick_17">
     <g id="line2d_36">
      <g>
       <use style="fill:#262626;stroke:#262626;stroke-width:0.5;" x="362.869411898" xlink:href="#m8735711441" y="252.0"/>
      </g>
     </g>
     <g id="line2d_37">
      <g>
       <use style="fill:#262626;stroke:#262626;stroke-width:0.5;" x="362.869411898" xlink:href="#m8735711441" y="28.8"/>
      </g>
     </g>
    </g>
    <g id="xtick_18">
     <g id="line2d_38">
      <g>
       <use style="fill:#262626;stroke:#262626;stroke-width:0.5;" x="372.577263822" xlink:href="#m8735711441" y="252.0"/>
      </g>
     </g>
     <g id="line2d_39">
      <g>
       <use style="fill:#262626;stroke:#262626;stroke-width:0.5;" x="372.577263822" xlink:href="#m8735711441" y="28.8"/>
      </g>
     </g>
    </g>
    <g id="xtick_19">
     <g id="line2d_40">
      <g>
       <use style="fill:#262626;stroke:#262626;stroke-width:0.5;" x="381.14019608" xlink:href="#m8735711441" y="252.0"/>
      </g>
     </g>
     <g id="line2d_41">
      <g>
       <use style="fill:#262626;stroke:#262626;stroke-width:0.5;" x="381.14019608" xlink:href="#m8735711441" y="28.8"/>
      </g>
     </g>
    </g>
    <g id="text_4">
     <!-- Turn -->
     <defs>
      <path d="
M6.59375 0
L6.59375 51.8594
L14.5 51.8594
L14.5 44.4844
Q20.2188 53.0312 31 53.0312
Q35.6875 53.0312 39.625 51.3438
Q43.5625 49.6562 45.5156 46.9219
Q47.4688 44.1875 48.25 40.4375
Q48.7344 37.9844 48.7344 31.8906
L48.7344 0
L39.9375 0
L39.9375 31.5469
Q39.9375 36.9219 38.9062 39.5781
Q37.8906 42.2344 35.2812 43.8125
Q32.6719 45.4062 29.1562 45.4062
Q23.5312 45.4062 19.4531 41.8438
Q15.375 38.2812 15.375 28.3281
L15.375 0
z
" id="ArialMT-6e"/>
      <path d="
M40.5781 0
L40.5781 7.625
Q34.5156 -1.17188 24.125 -1.17188
Q19.5312 -1.17188 15.5469 0.578125
Q11.5781 2.34375 9.64062 5
Q7.71875 7.67188 6.9375 11.5312
Q6.39062 14.1094 6.39062 19.7344
L6.39062 51.8594
L15.1875 51.8594
L15.1875 23.0938
Q15.1875 16.2188 15.7188 13.8125
Q16.5469 10.3594 19.2344 8.375
Q21.9219 6.39062 25.875 6.39062
Q29.8281 6.39062 33.2969 8.42188
Q36.7656 10.4531 38.2031 13.9375
Q39.6562 17.4375 39.6562 24.0781
L39.6562 51.8594
L48.4375 51.8594
L48.4375 0
z
" id="ArialMT-75"/>
      <path d="
M6.5 0
L6.5 51.8594
L14.4062 51.8594
L14.4062 44
Q17.4375 49.5156 20 51.2656
Q22.5625 53.0312 25.6406 53.0312
Q30.0781 53.0312 34.6719 50.2031
L31.6406 42.0469
Q28.4219 43.9531 25.2031 43.9531
Q22.3125 43.9531 20.0156 42.2188
Q17.7188 40.4844 16.75 37.4062
Q15.2812 32.7188 15.2812 27.1562
L15.2812 0
z
" id="ArialMT-72"/>
      <path d="
M25.9219 0
L25.9219 63.1406
L2.34375 63.1406
L2.34375 71.5781
L59.0781 71.5781
L59.0781 63.1406
L35.4062 63.1406
L35.4062 0
z
" id="ArialMT-54"/>
     </defs>
     <g style="fill:#262626;" transform="translate(210.805625 282.17359375)scale(0.11 -0.11)">
      <use xlink:href="#ArialMT-54"/>
      <use x="57.333984375" xlink:href="#ArialMT-75"/>
      <use x="112.94921875" xlink:href="#ArialMT-72"/>
      <use x="146.25" xlink:href="#ArialMT-6e"/>
     </g>
    </g>
   </g>
   <g id="matplotlib.axis_2">
    <g id="ytick_1">
     <g id="line2d_42">
      <path clip-path="url(#p124b8dd147)" d="
M54 229.68
L388.8 229.68" style="fill:none;stroke:#ffffff;stroke-linecap:round;"/>
     </g>
     <g id="line2d_43">
      <g>
       <use style="fill:#262626;stroke:#262626;" x="54.0" xlink:href="#m219da94a98" y="229.68"/>
      </g>
     </g>
    </g>
    <g id="ytick_2">
     <g id="line2d_44">
      <path clip-path="url(#p124b8dd147)" d="
M54 185.04
L388.8 185.04" style="fill:none;stroke:#ffffff;stroke-linecap:round;"/>
     </g>
     <g id="line2d_45">
      <g>
       <use style="fill:#262626;stroke:#262626;" x="54.0" xlink:href="#m219da94a98" y="185.04"/>
      </g>
     </g>
    </g>
    <g id="ytick_3">
     <g id="line2d_46">
      <path clip-path="url(#p124b8dd147)" d="
M54 140.4
L388.8 140.4" style="fill:none;stroke:#ffffff;stroke-linecap:round;"/>
     </g>
     <g id="line2d_47">
      <g>
       <use style="fill:#262626;stroke:#262626;" x="54.0" xlink:href="#m219da94a98" y="140.4"/>
      </g>
     </g>
    </g>
    <g id="ytick_4">
     <g id="line2d_48">
      <path clip-path="url(#p124b8dd147)" d="
M54 95.76
L388.8 95.76" style="fill:none;stroke:#ffffff;stroke-linecap:round;"/>
     </g>
     <g id="line2d_49">
      <g>
       <use style="fill:#262626;stroke:#262626;" x="54.0" xlink:href="#m219da94a98" y="95.76"/>
      </g>
     </g>
    </g>
    <g id="ytick_5">
     <g id="line2d_50">
      <path clip-path="url(#p124b8dd147)" d="
M54 51.12
L388.8 51.12" style="fill:none;stroke:#ffffff;stroke-linecap:round;"/>
     </g>
     <g id="line2d_51">
      <g>
       <use style="fill:#262626;stroke:#262626;" x="54.0" xlink:href="#m219da94a98" y="51.12"/>
      </g>
     </g>
    </g>
    <g id="text_5">
     <!-- Relative population size -->
     <defs>
      <path d="
M40.4375 6.39062
Q35.5469 2.25 31.0312 0.53125
Q26.5156 -1.17188 21.3438 -1.17188
Q12.7969 -1.17188 8.20312 3
Q3.60938 7.17188 3.60938 13.6719
Q3.60938 17.4844 5.34375 20.625
Q7.07812 23.7812 9.89062 25.6875
Q12.7031 27.5938 16.2188 28.5625
Q18.7969 29.25 24.0312 29.8906
Q34.6719 31.1562 39.7031 32.9062
Q39.75 34.7188 39.75 35.2031
Q39.75 40.5781 37.25 42.7812
Q33.8906 45.75 27.25 45.75
Q21.0469 45.75 18.0938 43.5781
Q15.1406 41.4062 13.7188 35.8906
L5.125 37.0625
Q6.29688 42.5781 8.98438 45.9688
Q11.6719 49.3594 16.75 51.1875
Q21.8281 53.0312 28.5156 53.0312
Q35.1562 53.0312 39.2969 51.4688
Q43.4531 49.9062 45.4062 47.5312
Q47.3594 45.1719 48.1406 41.5469
Q48.5781 39.3125 48.5781 33.4531
L48.5781 21.7344
Q48.5781 9.46875 49.1406 6.21875
Q49.7031 2.98438 51.375 0
L42.1875 0
Q40.8281 2.73438 40.4375 6.39062
M39.7031 26.0312
Q34.9062 24.0781 25.3438 22.7031
Q19.9219 21.9219 17.6719 20.9375
Q15.4375 19.9688 14.2031 18.0938
Q12.9844 16.2188 12.9844 13.9219
Q12.9844 10.4062 15.6406 8.0625
Q18.3125 5.71875 23.4375 5.71875
Q28.5156 5.71875 32.4688 7.9375
Q36.4219 10.1562 38.2812 14.0156
Q39.7031 17 39.7031 22.7969
z
" id="ArialMT-61"/>
      <path d="
M42.0938 16.7031
L51.1719 15.5781
Q49.0312 7.625 43.2188 3.21875
Q37.4062 -1.17188 28.375 -1.17188
Q17 -1.17188 10.3281 5.82812
Q3.65625 12.8438 3.65625 25.4844
Q3.65625 38.5781 10.3906 45.7969
Q17.1406 53.0312 27.875 53.0312
Q38.2812 53.0312 44.875 45.9531
Q51.4688 38.875 51.4688 26.0312
Q51.4688 25.25 51.4219 23.6875
L12.75 23.6875
Q13.2344 15.1406 17.5781 10.5938
Q21.9219 6.0625 28.4219 6.0625
Q33.25 6.0625 36.6719 8.59375
Q40.0938 11.1406 42.0938 16.7031
M13.2344 30.9062
L42.1875 30.9062
Q41.6094 37.4531 38.875 40.7188
Q34.6719 45.7969 27.9844 45.7969
Q21.9219 45.7969 17.7969 41.75
Q13.6719 37.7031 13.2344 30.9062" id="ArialMT-65"/>
      <path d="
M1.95312 0
L1.95312 7.125
L34.9688 45.0156
Q29.3438 44.7344 25.0469 44.7344
L3.90625 44.7344
L3.90625 51.8594
L46.2969 51.8594
L46.2969 46.0469
L18.2188 13.1406
L12.7969 7.125
Q18.7031 7.5625 23.875 7.5625
L47.8594 7.5625
L47.8594 0
z
" id="ArialMT-7a"/>
      <path d="
M7.85938 0
L7.85938 71.5781
L39.5938 71.5781
Q49.1719 71.5781 54.1406 69.6406
Q59.125 67.7188 62.1094 62.8281
Q65.0938 57.9531 65.0938 52.0469
Q65.0938 44.4375 60.1562 39.2031
Q55.2188 33.9844 44.9219 32.5625
Q48.6875 30.7656 50.6406 29
Q54.7812 25.2031 58.5 19.4844
L70.9531 0
L59.0312 0
L49.5625 14.8906
Q45.4062 21.3438 42.7188 24.75
Q40.0469 28.1719 37.9219 29.5312
Q35.7969 30.9062 33.5938 31.4531
Q31.9844 31.7812 28.3281 31.7812
L17.3281 31.7812
L17.3281 0
z

M17.3281 39.9844
L37.7031 39.9844
Q44.1875 39.9844 47.8438 41.3281
Q51.5156 42.6719 53.4219 45.625
Q55.3281 48.5781 55.3281 52.0469
Q55.3281 57.125 51.6406 60.3906
Q47.9531 63.6719 39.9844 63.6719
L17.3281 63.6719
z
" id="ArialMT-52"/>
      <path d="
M6.64062 61.4688
L6.64062 71.5781
L15.4375 71.5781
L15.4375 61.4688
z

M6.64062 0
L6.64062 51.8594
L15.4375 51.8594
L15.4375 0
z
" id="ArialMT-69"/>
      <path d="
M6.59375 -19.875
L6.59375 51.8594
L14.5938 51.8594
L14.5938 45.125
Q17.4375 49.0781 21 51.0469
Q24.5625 53.0312 29.6406 53.0312
Q36.2812 53.0312 41.3594 49.6094
Q46.4375 46.1875 49.0156 39.9531
Q51.6094 33.7344 51.6094 26.3125
Q51.6094 18.3594 48.75 11.9844
Q45.9062 5.60938 40.4531 2.21875
Q35.0156 -1.17188 29 -1.17188
Q24.6094 -1.17188 21.1094 0.6875
Q17.625 2.54688 15.375 5.375
L15.375 -19.875
z

M14.5469 25.6406
Q14.5469 15.625 18.5938 10.8438
Q22.6562 6.0625 28.4219 6.0625
Q34.2812 6.0625 38.4531 11.0156
Q42.625 15.9688 42.625 26.375
Q42.625 36.2812 38.5469 41.2031
Q34.4688 46.1406 28.8125 46.1406
Q23.1875 46.1406 18.8594 40.8906
Q14.5469 35.6406 14.5469 25.6406" id="ArialMT-70"/>
      <path d="
M3.07812 15.4844
L11.7656 16.8438
Q12.5 11.625 15.8438 8.84375
Q19.1875 6.0625 25.2031 6.0625
Q31.25 6.0625 34.1719 8.51562
Q37.1094 10.9844 37.1094 14.3125
Q37.1094 17.2812 34.5156 19
Q32.7188 20.1719 25.5312 21.9688
Q15.875 24.4219 12.1406 26.2031
Q8.40625 27.9844 6.46875 31.125
Q4.54688 34.2812 4.54688 38.0938
Q4.54688 41.5469 6.125 44.5
Q7.71875 47.4688 10.4531 49.4219
Q12.5 50.9219 16.0312 51.9688
Q19.5781 53.0312 23.6406 53.0312
Q29.7344 53.0312 34.3438 51.2656
Q38.9688 49.5156 41.1562 46.5
Q43.3594 43.5 44.1875 38.4844
L35.5938 37.3125
Q35.0156 41.3125 32.2031 43.5469
Q29.3906 45.7969 24.2656 45.7969
Q18.2188 45.7969 15.625 43.7969
Q13.0312 41.7969 13.0312 39.1094
Q13.0312 37.4062 14.1094 36.0312
Q15.1875 34.625 17.4844 33.6875
Q18.7969 33.2031 25.25 31.4531
Q34.5781 28.9531 38.25 27.3594
Q41.9375 25.7812 44.0312 22.75
Q46.1406 19.7344 46.1406 15.2344
Q46.1406 10.8438 43.5781 6.95312
Q41.0156 3.07812 36.1719 0.953125
Q31.3438 -1.17188 25.25 -1.17188
Q15.1406 -1.17188 9.84375 3.03125
Q4.54688 7.23438 3.07812 15.4844" id="ArialMT-73"/>
      <path d="
M6.39062 0
L6.39062 71.5781
L15.1875 71.5781
L15.1875 0
z
" id="ArialMT-6c"/>
      <path d="
M25.7812 7.85938
L27.0469 0.09375
Q23.3438 -0.6875 20.4062 -0.6875
Q15.625 -0.6875 12.9844 0.828125
Q10.3594 2.34375 9.28125 4.8125
Q8.20312 7.28125 8.20312 15.1875
L8.20312 45.0156
L1.76562 45.0156
L1.76562 51.8594
L8.20312 51.8594
L8.20312 64.7031
L16.9375 69.9688
L16.9375 51.8594
L25.7812 51.8594
L25.7812 45.0156
L16.9375 45.0156
L16.9375 14.7031
Q16.9375 10.9375 17.4062 9.85938
Q17.875 8.79688 18.9219 8.15625
Q19.9688 7.51562 21.9219 7.51562
Q23.3906 7.51562 25.7812 7.85938" id="ArialMT-74"/>
      <path d="
M3.32812 25.9219
Q3.32812 40.3281 11.3281 47.2656
Q18.0156 53.0312 27.6406 53.0312
Q38.3281 53.0312 45.1094 46.0156
Q51.9062 39.0156 51.9062 26.6562
Q51.9062 16.6562 48.9062 10.9062
Q45.9062 5.17188 40.1562 2
Q34.4219 -1.17188 27.6406 -1.17188
Q16.75 -1.17188 10.0312 5.8125
Q3.32812 12.7969 3.32812 25.9219
M12.3594 25.9219
Q12.3594 15.9688 16.7031 11.0156
Q21.0469 6.0625 27.6406 6.0625
Q34.1875 6.0625 38.5312 11.0312
Q42.875 16.0156 42.875 26.2188
Q42.875 35.8438 38.5 40.7969
Q34.125 45.75 27.6406 45.75
Q21.0469 45.75 16.7031 40.8125
Q12.3594 35.8906 12.3594 25.9219" id="ArialMT-6f"/>
      <path d="
M21 0
L1.26562 51.8594
L10.5469 51.8594
L21.6875 20.7969
Q23.4844 15.7656 25 10.3594
Q26.1719 14.4531 28.2656 20.2188
L39.7969 51.8594
L48.8281 51.8594
L29.2031 0
z
" id="ArialMT-76"/>
      <path id="ArialMT-20"/>
     </defs>
     <g style="fill:#262626;" transform="translate(421.67359375 198.26)rotate(-90.0)scale(0.11 -0.11)">
      <use xlink:href="#ArialMT-52"/>
      <use x="72.216796875" xlink:href="#ArialMT-65"/>
      <use x="127.83203125" xlink:href="#ArialMT-6c"/>
      <use x="150.048828125" xlink:href="#ArialMT-61"/>
      <use x="205.6640625" xlink:href="#ArialMT-74"/>
      <use x="233.447265625" xlink:href="#ArialMT-69"/>
      <use x="255.6640625" xlink:href="#ArialMT-76"/>
      <use x="305.6640625" xlink:href="#ArialMT-65"/>
      <use x="361.279296875" xlink:href="#ArialMT-20"/>
      <use x="389.0625" xlink:href="#ArialMT-70"/>
      <use x="444.677734375" xlink:href="#ArialMT-6f"/>
      <use x="500.29296875" xlink:href="#ArialMT-70"/>
      <use x="555.908203125" xlink:href="#ArialMT-75"/>
      <use x="611.5234375" xlink:href="#ArialMT-6c"/>
      <use x="633.740234375" xlink:href="#ArialMT-61"/>
      <use x="689.35546875" xlink:href="#ArialMT-74"/>
      <use x="717.138671875" xlink:href="#ArialMT-69"/>
      <use x="739.35546875" xlink:href="#ArialMT-6f"/>
      <use x="794.970703125" xlink:href="#ArialMT-6e"/>
      <use x="850.5859375" xlink:href="#ArialMT-20"/>
      <use x="878.369140625" xlink:href="#ArialMT-73"/>
      <use x="928.369140625" xlink:href="#ArialMT-69"/>
      <use x="950.5859375" xlink:href="#ArialMT-7a"/>
      <use x="1000.5859375" xlink:href="#ArialMT-65"/>
     </g>
    </g>
   </g>
   <g id="PolyCollection_1">
    <defs>
     <path d="
M-50333.4 -80.64
L-50333.4 -36
L54 -36
L104.392 -36
L133.87 -36
L154.785 -36
L171.008 -36
L184.263 -36
L195.469 -36
L205.177 -36
L213.74 -36
L221.4 -36
L228.329 -36
L234.655 -36
L240.474 -36
L245.862 -36
L250.878 -36
L255.57 -36
L259.977 -36
L264.133 -36
L268.063 -36
L271.792 -36
L275.34 -36
L278.722 -36
L281.953 -36
L285.047 -36
L288.015 -36
L290.867 -36
L293.61 -36
L296.254 -36
L298.805 -36
L301.27 -36
L303.654 -36
L305.962 -36
L308.199 -36
L310.37 -36
L312.477 -36
L314.525 -36
L316.517 -36
L318.456 -36
L320.344 -36
L322.185 -36
L323.98 -36
L325.732 -36
L327.443 -36
L329.114 -36
L330.748 -36
L332.346 -36
L333.909 -36
L335.44 -36
L336.939 -36
L338.408 -36
L339.847 -36
L341.259 -36
L342.644 -36
L344.003 -36
L345.337 -36
L346.647 -36
L347.933 -36
L349.198 -36
L350.441 -36
L351.663 -36
L352.864 -36
L354.046 -36
L355.21 -36
L356.355 -36
L357.482 -36
L358.592 -36
L359.685 -36
L360.762 -36
L361.823 -36
L362.869 -36
L363.901 -36
L364.917 -36
L365.92 -36
L366.909 -36
L367.885 -36
L368.848 -36
L369.799 -36
L370.737 -36
L371.663 -36
L372.577 -36
L373.48 -36
L374.372 -36
L375.254 -36
L376.124 -36
L376.985 -36
L377.835 -36
L378.676 -36
L379.506 -36
L380.328 -36
L381.14 -36
L381.944 -36
L382.738 -36
L383.524 -36
L384.302 -36
L385.071 -36
L385.832 -36
L386.586 -36
L387.331 -36
L388.069 -36
L388.8 -36
L388.8 -36
L388.8 -36
L388.069 -36
L387.331 -36
L386.586 -36
L385.832 -36
L385.071 -36
L384.302 -36
L383.524 -36
L382.738 -36
L381.944 -36
L381.14 -36
L380.328 -36
L379.506 -36
L378.676 -36
L377.835 -36
L376.985 -36
L376.124 -36
L375.254 -36
L374.372 -36
L373.48 -36
L372.577 -36
L371.663 -36
L370.737 -36
L369.799 -36
L368.848 -36
L367.885 -36
L366.909 -36
L365.92 -36
L364.917 -36
L363.901 -36
L362.869 -36
L361.823 -36
L360.762 -36
L359.685 -36
L358.592 -36
L357.482 -36
L356.355 -36
L355.21 -36
L354.046 -36
L352.864 -36
L351.663 -36
L350.441 -36
L349.198 -36
L347.933 -36
L346.647 -36
L345.337 -36
L344.003 -36
L342.644 -36
L341.259 -36
L339.847 -36
L338.408 -36
L336.939 -36
L335.44 -36
L333.909 -36
L332.346 -36
L330.748 -36
L329.114 -36
L327.443 -36
L325.732 -36
L323.98 -36
L322.185 -36
L320.344 -36
L318.456 -36
L316.517 -36
L314.525 -36
L312.477 -36
L310.37 -36
L308.199 -36
L305.962 -36
L303.654 -36
L301.27 -36
L298.805 -36
L296.254 -36.0001
L293.61 -36.0002
L290.867 -36.0005
L288.015 -36.0012
L285.047 -36.0029
L281.953 -36.0073
L278.722 -36.018
L275.34 -36.0433
L271.792 -36.1021
L268.063 -36.2333
L264.133 -36.516
L259.977 -37.1032
L255.57 -38.258
L250.878 -40.3846
L245.862 -44.0302
L240.474 -49.788
L234.655 -57.9838
L228.329 -68.28
L221.4 -79.2345
L213.74 -89.1662
L205.177 -98.0257
L195.469 -102.833
L184.263 -105.746
L171.008 -105.638
L154.785 -103.408
L133.87 -98.8512
L104.392 -93.4371
L54 -87.0041
L-50333.4 -80.64
z
" id="m17a6efb32b" style="stroke:#000000;stroke-width:0.3;"/>
    </defs>
    <g clip-path="url(#p124b8dd147)">
     <use style="fill:#4c72b0;stroke:#000000;stroke-width:0.3;" x="0.0" xlink:href="#m17a6efb32b" y="288.0"/>
    </g>
   </g>
   <g id="PolyCollection_2">
    <defs>
     <path d="
M-50333.4 -125.28
L-50333.4 -80.64
L54 -87.0041
L104.392 -93.4371
L133.87 -98.8512
L154.785 -103.408
L171.008 -105.638
L184.263 -105.746
L195.469 -102.833
L205.177 -98.0257
L213.74 -89.1662
L221.4 -79.2345
L228.329 -68.28
L234.655 -57.9838
L240.474 -49.788
L245.862 -44.0302
L250.878 -40.3846
L255.57 -38.258
L259.977 -37.1032
L264.133 -36.516
L268.063 -36.2333
L271.792 -36.1021
L275.34 -36.0433
L278.722 -36.018
L281.953 -36.0073
L285.047 -36.0029
L288.015 -36.0012
L290.867 -36.0005
L293.61 -36.0002
L296.254 -36.0001
L298.805 -36
L301.27 -36
L303.654 -36
L305.962 -36
L308.199 -36
L310.37 -36
L312.477 -36
L314.525 -36
L316.517 -36
L318.456 -36
L320.344 -36
L322.185 -36
L323.98 -36
L325.732 -36
L327.443 -36
L329.114 -36
L330.748 -36
L332.346 -36
L333.909 -36
L335.44 -36
L336.939 -36
L338.408 -36
L339.847 -36
L341.259 -36
L342.644 -36
L344.003 -36
L345.337 -36
L346.647 -36
L347.933 -36
L349.198 -36
L350.441 -36
L351.663 -36
L352.864 -36
L354.046 -36
L355.21 -36
L356.355 -36
L357.482 -36
L358.592 -36
L359.685 -36
L360.762 -36
L361.823 -36
L362.869 -36
L363.901 -36
L364.917 -36
L365.92 -36
L366.909 -36
L367.885 -36
L368.848 -36
L369.799 -36
L370.737 -36
L371.663 -36
L372.577 -36
L373.48 -36
L374.372 -36
L375.254 -36
L376.124 -36
L376.985 -36
L377.835 -36
L378.676 -36
L379.506 -36
L380.328 -36
L381.14 -36
L381.944 -36
L382.738 -36
L383.524 -36
L384.302 -36
L385.071 -36
L385.832 -36
L386.586 -36
L387.331 -36
L388.069 -36
L388.8 -36
L388.8 -36
L388.8 -36
L388.069 -36
L387.331 -36
L386.586 -36
L385.832 -36
L385.071 -36
L384.302 -36.0001
L383.524 -36.0001
L382.738 -36.0001
L381.944 -36.0001
L381.14 -36.0001
L380.328 -36.0001
L379.506 -36.0001
L378.676 -36.0002
L377.835 -36.0002
L376.985 -36.0002
L376.124 -36.0003
L375.254 -36.0003
L374.372 -36.0004
L373.48 -36.0005
L372.577 -36.0005
L371.663 -36.0006
L370.737 -36.0008
L369.799 -36.0009
L368.848 -36.0011
L367.885 -36.0013
L366.909 -36.0015
L365.92 -36.0017
L364.917 -36.0021
L363.901 -36.0024
L362.869 -36.0029
L361.823 -36.0034
L360.762 -36.004
L359.685 -36.0047
L358.592 -36.0055
L357.482 -36.0065
L356.355 -36.0077
L355.21 -36.009
L354.046 -36.0107
L352.864 -36.0126
L351.663 -36.0148
L350.441 -36.0175
L349.198 -36.0206
L347.933 -36.0243
L346.647 -36.0286
L345.337 -36.0337
L344.003 -36.0398
L342.644 -36.0469
L341.259 -36.0553
L339.847 -36.0652
L338.408 -36.0769
L336.939 -36.0906
L335.44 -36.1068
L333.909 -36.126
L332.346 -36.1485
L330.748 -36.1751
L329.114 -36.2064
L327.443 -36.2433
L325.732 -36.2868
L323.98 -36.338
L322.185 -36.3984
L320.344 -36.4695
L318.456 -36.5533
L316.517 -36.652
L314.525 -36.7681
L312.477 -36.9049
L310.37 -37.0659
L308.199 -37.2552
L305.962 -37.4776
L303.654 -37.7391
L301.27 -38.0461
L298.805 -38.4068
L296.254 -38.8297
L293.61 -39.3225
L290.867 -39.8995
L288.015 -40.5718
L285.047 -41.3598
L281.953 -42.2643
L278.722 -43.3218
L275.34 -44.5387
L271.792 -45.9654
L268.063 -47.6717
L264.133 -49.675
L259.977 -52.1645
L255.57 -55.3783
L250.878 -59.7601
L245.862 -65.4765
L240.474 -73.3975
L234.655 -83.4247
L228.329 -95.3608
L221.4 -108.011
L213.74 -119.764
L205.177 -130.316
L195.469 -136.958
L184.263 -141.269
L171.008 -143.592
L154.785 -143.675
L133.87 -141.324
L104.392 -137.473
L54 -132.172
L-50333.4 -125.28
z
" id="m4b035f27ff" style="stroke:#000000;stroke-width:0.3;"/>
    </defs>
    <g clip-path="url(#p124b8dd147)">
     <use style="fill:#55a868;stroke:#000000;stroke-width:0.3;" x="0.0" xlink:href="#m4b035f27ff" y="288.0"/>
    </g>
   </g>
   <g id="PolyCollection_3">
    <defs>
     <path d="
M-50333.4 -169.92
L-50333.4 -125.28
L54 -132.172
L104.392 -137.473
L133.87 -141.324
L154.785 -143.675
L171.008 -143.592
L184.263 -141.269
L195.469 -136.958
L205.177 -130.316
L213.74 -119.764
L221.4 -108.011
L228.329 -95.3608
L234.655 -83.4247
L240.474 -73.3975
L245.862 -65.4765
L250.878 -59.7601
L255.57 -55.3783
L259.977 -52.1645
L264.133 -49.675
L268.063 -47.6717
L271.792 -45.9654
L275.34 -44.5387
L278.722 -43.3218
L281.953 -42.2643
L285.047 -41.3598
L288.015 -40.5718
L290.867 -39.8995
L293.61 -39.3225
L296.254 -38.8297
L298.805 -38.4068
L301.27 -38.0461
L303.654 -37.7391
L305.962 -37.4776
L308.199 -37.2552
L310.37 -37.0659
L312.477 -36.9049
L314.525 -36.7681
L316.517 -36.652
L318.456 -36.5533
L320.344 -36.4695
L322.185 -36.3984
L323.98 -36.338
L325.732 -36.2868
L327.443 -36.2433
L329.114 -36.2064
L330.748 -36.1751
L332.346 -36.1485
L333.909 -36.126
L335.44 -36.1068
L336.939 -36.0906
L338.408 -36.0769
L339.847 -36.0652
L341.259 -36.0553
L342.644 -36.0469
L344.003 -36.0398
L345.337 -36.0337
L346.647 -36.0286
L347.933 -36.0243
L349.198 -36.0206
L350.441 -36.0175
L351.663 -36.0148
L352.864 -36.0126
L354.046 -36.0107
L355.21 -36.009
L356.355 -36.0077
L357.482 -36.0065
L358.592 -36.0055
L359.685 -36.0047
L360.762 -36.004
L361.823 -36.0034
L362.869 -36.0029
L363.901 -36.0024
L364.917 -36.0021
L365.92 -36.0017
L366.909 -36.0015
L367.885 -36.0013
L368.848 -36.0011
L369.799 -36.0009
L370.737 -36.0008
L371.663 -36.0006
L372.577 -36.0005
L373.48 -36.0005
L374.372 -36.0004
L375.254 -36.0003
L376.124 -36.0003
L376.985 -36.0002
L377.835 -36.0002
L378.676 -36.0002
L379.506 -36.0001
L380.328 -36.0001
L381.14 -36.0001
L381.944 -36.0001
L382.738 -36.0001
L383.524 -36.0001
L384.302 -36.0001
L385.071 -36
L385.832 -36
L386.586 -36
L387.331 -36
L388.069 -36
L388.8 -36
L388.8 -36
L388.8 -36
L388.069 -36
L387.331 -36
L386.586 -36
L385.832 -36
L385.071 -36
L384.302 -36.0001
L383.524 -36.0001
L382.738 -36.0001
L381.944 -36.0001
L381.14 -36.0001
L380.328 -36.0001
L379.506 -36.0001
L378.676 -36.0002
L377.835 -36.0002
L376.985 -36.0002
L376.124 -36.0003
L375.254 -36.0003
L374.372 -36.0004
L373.48 -36.0005
L372.577 -36.0006
L371.663 -36.0007
L370.737 -36.0008
L369.799 -36.0009
L368.848 -36.0011
L367.885 -36.0013
L366.909 -36.0015
L365.92 -36.0018
L364.917 -36.0021
L363.901 -36.0024
L362.869 -36.0029
L361.823 -36.0034
L360.762 -36.004
L359.685 -36.0047
L358.592 -36.0056
L357.482 -36.0066
L356.355 -36.0078
L355.21 -36.0092
L354.046 -36.0109
L352.864 -36.0129
L351.663 -36.0152
L350.441 -36.018
L349.198 -36.0213
L347.933 -36.0252
L346.647 -36.0297
L345.337 -36.0352
L344.003 -36.0416
L342.644 -36.0492
L341.259 -36.0582
L339.847 -36.069
L338.408 -36.0818
L336.939 -36.0968
L335.44 -36.1148
L333.909 -36.136
L332.346 -36.1613
L330.748 -36.1909
L329.114 -36.227
L327.443 -36.2691
L325.732 -36.3207
L323.98 -36.382
L322.185 -36.4549
L320.344 -36.5418
L318.456 -36.6444
L316.517 -36.7708
L314.525 -36.9213
L312.477 -37.101
L310.37 -37.3101
L308.199 -37.56
L305.962 -37.86
L303.654 -38.2079
L301.27 -38.6294
L298.805 -39.1449
L296.254 -39.7601
L293.61 -40.5084
L290.867 -41.3911
L288.015 -42.4083
L285.047 -43.647
L281.953 -45.1998
L278.722 -47.0123
L275.34 -49.222
L271.792 -51.6164
L268.063 -54.8491
L264.133 -58.6171
L259.977 -63.0919
L255.57 -68.3558
L250.878 -75.0347
L245.862 -83.24
L240.474 -93.8061
L234.655 -106.817
L228.329 -121.078
L221.4 -135.724
L213.74 -149.846
L205.177 -162.448
L195.469 -171.286
L184.263 -177.924
L171.008 -182.428
L154.785 -184.788
L133.87 -184.23
L104.392 -181.758
L54 -177.164
L-50333.4 -169.92
z
" id="mc03e5e3f55" style="stroke:#000000;stroke-width:0.3;"/>
    </defs>
    <g clip-path="url(#p124b8dd147)">
     <use style="fill:#c44e52;stroke:#000000;stroke-width:0.3;" x="0.0" xlink:href="#mc03e5e3f55" y="288.0"/>
    </g>
   </g>
   <g id="PolyCollection_4">
    <defs>
     <path d="
M-50333.4 -214.56
L-50333.4 -169.92
L54 -177.164
L104.392 -181.758
L133.87 -184.23
L154.785 -184.788
L171.008 -182.428
L184.263 -177.924
L195.469 -171.286
L205.177 -162.448
L213.74 -149.846
L221.4 -135.724
L228.329 -121.078
L234.655 -106.817
L240.474 -93.8061
L245.862 -83.24
L250.878 -75.0347
L255.57 -68.3558
L259.977 -63.0919
L264.133 -58.6171
L268.063 -54.8491
L271.792 -51.6164
L275.34 -49.222
L278.722 -47.0123
L281.953 -45.1998
L285.047 -43.647
L288.015 -42.4083
L290.867 -41.3911
L293.61 -40.5084
L296.254 -39.7601
L298.805 -39.1449
L301.27 -38.6294
L303.654 -38.2079
L305.962 -37.86
L308.199 -37.56
L310.37 -37.3101
L312.477 -37.101
L314.525 -36.9213
L316.517 -36.7708
L318.456 -36.6444
L320.344 -36.5418
L322.185 -36.4549
L323.98 -36.382
L325.732 -36.3207
L327.443 -36.2691
L329.114 -36.227
L330.748 -36.1909
L332.346 -36.1613
L333.909 -36.136
L335.44 -36.1148
L336.939 -36.0968
L338.408 -36.0818
L339.847 -36.069
L341.259 -36.0582
L342.644 -36.0492
L344.003 -36.0416
L345.337 -36.0352
L346.647 -36.0297
L347.933 -36.0252
L349.198 -36.0213
L350.441 -36.018
L351.663 -36.0152
L352.864 -36.0129
L354.046 -36.0109
L355.21 -36.0092
L356.355 -36.0078
L357.482 -36.0066
L358.592 -36.0056
L359.685 -36.0047
L360.762 -36.004
L361.823 -36.0034
L362.869 -36.0029
L363.901 -36.0024
L364.917 -36.0021
L365.92 -36.0018
L366.909 -36.0015
L367.885 -36.0013
L368.848 -36.0011
L369.799 -36.0009
L370.737 -36.0008
L371.663 -36.0007
L372.577 -36.0006
L373.48 -36.0005
L374.372 -36.0004
L375.254 -36.0003
L376.124 -36.0003
L376.985 -36.0002
L377.835 -36.0002
L378.676 -36.0002
L379.506 -36.0001
L380.328 -36.0001
L381.14 -36.0001
L381.944 -36.0001
L382.738 -36.0001
L383.524 -36.0001
L384.302 -36.0001
L385.071 -36
L385.832 -36
L386.586 -36
L387.331 -36
L388.069 -36
L388.8 -36
L388.8 -254.775
L388.8 -254.775
L388.069 -254.775
L387.331 -254.775
L386.586 -254.775
L385.832 -254.775
L385.071 -254.775
L384.302 -254.775
L383.524 -254.775
L382.738 -254.775
L381.944 -254.775
L381.14 -254.775
L380.328 -254.775
L379.506 -254.775
L378.676 -254.775
L377.835 -254.775
L376.985 -254.775
L376.124 -254.775
L375.254 -254.775
L374.372 -254.775
L373.48 -254.775
L372.577 -254.775
L371.663 -254.775
L370.737 -254.775
L369.799 -254.775
L368.848 -254.775
L367.885 -254.775
L366.909 -254.775
L365.92 -254.775
L364.917 -254.775
L363.901 -254.775
L362.869 -254.775
L361.823 -254.775
L360.762 -254.774
L359.685 -254.774
L358.592 -254.774
L357.482 -254.774
L356.355 -254.774
L355.21 -254.774
L354.046 -254.774
L352.864 -254.774
L351.663 -254.774
L350.441 -254.774
L349.198 -254.774
L347.933 -254.774
L346.647 -254.774
L345.337 -254.774
L344.003 -254.774
L342.644 -254.774
L341.259 -254.773
L339.847 -254.773
L338.408 -254.773
L336.939 -254.773
L335.44 -254.772
L333.909 -254.772
L332.346 -254.771
L330.748 -254.771
L329.114 -254.77
L327.443 -254.769
L325.732 -254.768
L323.98 -254.767
L322.185 -254.766
L320.344 -254.764
L318.456 -254.762
L316.517 -254.76
L314.525 -254.757
L312.477 -254.754
L310.37 -254.75
L308.199 -254.745
L305.962 -254.74
L303.654 -254.733
L301.27 -254.725
L298.805 -254.715
L296.254 -254.705
L293.61 -254.691
L290.867 -254.676
L288.015 -254.658
L285.047 -254.636
L281.953 -254.612
L278.722 -254.584
L275.34 -254.553
L271.792 -254.511
L268.063 -254.466
L264.133 -254.411
L259.977 -254.338
L255.57 -254.251
L250.878 -254.15
L245.862 -254.048
L240.474 -253.931
L234.655 -253.764
L228.329 -253.527
L221.4 -253.159
L213.74 -252.575
L205.177 -251.677
L195.469 -250.241
L184.263 -248.277
L171.008 -245.419
L154.785 -242.01
L133.87 -237.153
L104.392 -231.13
L54 -223.854
L-50333.4 -214.56
z
" id="mfe7be67b38" style="stroke:#000000;stroke-width:0.3;"/>
    </defs>
    <g clip-path="url(#p124b8dd147)">
     <use style="fill:#8172b2;stroke:#000000;stroke-width:0.3;" x="0.0" xlink:href="#mfe7be67b38" y="288.0"/>
    </g>
   </g>
   <g id="PolyCollection_5">
    <defs>
     <path d="
M-50333.4 -259.2
L-50333.4 -214.56
L54 -223.854
L104.392 -231.13
L133.87 -237.153
L154.785 -242.01
L171.008 -245.419
L184.263 -248.277
L195.469 -250.241
L205.177 -251.677
L213.74 -252.575
L221.4 -253.159
L228.329 -253.527
L234.655 -253.764
L240.474 -253.931
L245.862 -254.048
L250.878 -254.15
L255.57 -254.251
L259.977 -254.338
L264.133 -254.411
L268.063 -254.466
L271.792 -254.511
L275.34 -254.553
L278.722 -254.584
L281.953 -254.612
L285.047 -254.636
L288.015 -254.658
L290.867 -254.676
L293.61 -254.691
L296.254 -254.705
L298.805 -254.715
L301.27 -254.725
L303.654 -254.733
L305.962 -254.74
L308.199 -254.745
L310.37 -254.75
L312.477 -254.754
L314.525 -254.757
L316.517 -254.76
L318.456 -254.762
L320.344 -254.764
L322.185 -254.766
L323.98 -254.767
L325.732 -254.768
L327.443 -254.769
L329.114 -254.77
L330.748 -254.771
L332.346 -254.771
L333.909 -254.772
L335.44 -254.772
L336.939 -254.773
L338.408 -254.773
L339.847 -254.773
L341.259 -254.773
L342.644 -254.774
L344.003 -254.774
L345.337 -254.774
L346.647 -254.774
L347.933 -254.774
L349.198 -254.774
L350.441 -254.774
L351.663 -254.774
L352.864 -254.774
L354.046 -254.774
L355.21 -254.774
L356.355 -254.774
L357.482 -254.774
L358.592 -254.774
L359.685 -254.774
L360.762 -254.774
L361.823 -254.775
L362.869 -254.775
L363.901 -254.775
L364.917 -254.775
L365.92 -254.775
L366.909 -254.775
L367.885 -254.775
L368.848 -254.775
L369.799 -254.775
L370.737 -254.775
L371.663 -254.775
L372.577 -254.775
L373.48 -254.775
L374.372 -254.775
L375.254 -254.775
L376.124 -254.775
L376.985 -254.775
L377.835 -254.775
L378.676 -254.775
L379.506 -254.775
L380.328 -254.775
L381.14 -254.775
L381.944 -254.775
L382.738 -254.775
L383.524 -254.775
L384.302 -254.775
L385.071 -254.775
L385.832 -254.775
L386.586 -254.775
L387.331 -254.775
L388.069 -254.775
L388.8 -254.775
L388.8 -259.2
L388.8 -259.2
L388.069 -259.2
L387.331 -259.2
L386.586 -259.2
L385.832 -259.2
L385.071 -259.2
L384.302 -259.2
L383.524 -259.2
L382.738 -259.2
L381.944 -259.2
L381.14 -259.2
L380.328 -259.2
L379.506 -259.2
L378.676 -259.2
L377.835 -259.2
L376.985 -259.2
L376.124 -259.2
L375.254 -259.2
L374.372 -259.2
L373.48 -259.2
L372.577 -259.2
L371.663 -259.2
L370.737 -259.2
L369.799 -259.2
L368.848 -259.2
L367.885 -259.2
L366.909 -259.2
L365.92 -259.2
L364.917 -259.2
L363.901 -259.2
L362.869 -259.2
L361.823 -259.2
L360.762 -259.2
L359.685 -259.2
L358.592 -259.2
L357.482 -259.2
L356.355 -259.2
L355.21 -259.2
L354.046 -259.2
L352.864 -259.2
L351.663 -259.2
L350.441 -259.2
L349.198 -259.2
L347.933 -259.2
L346.647 -259.2
L345.337 -259.2
L344.003 -259.2
L342.644 -259.2
L341.259 -259.2
L339.847 -259.2
L338.408 -259.2
L336.939 -259.2
L335.44 -259.2
L333.909 -259.2
L332.346 -259.2
L330.748 -259.2
L329.114 -259.2
L327.443 -259.2
L325.732 -259.2
L323.98 -259.2
L322.185 -259.2
L320.344 -259.2
L318.456 -259.2
L316.517 -259.2
L314.525 -259.2
L312.477 -259.2
L310.37 -259.2
L308.199 -259.2
L305.962 -259.2
L303.654 -259.2
L301.27 -259.2
L298.805 -259.2
L296.254 -259.2
L293.61 -259.2
L290.867 -259.2
L288.015 -259.2
L285.047 -259.2
L281.953 -259.2
L278.722 -259.2
L275.34 -259.2
L271.792 -259.2
L268.063 -259.2
L264.133 -259.2
L259.977 -259.2
L255.57 -259.2
L250.878 -259.2
L245.862 -259.2
L240.474 -259.2
L234.655 -259.2
L228.329 -259.2
L221.4 -259.2
L213.74 -259.2
L205.177 -259.2
L195.469 -259.2
L184.263 -259.2
L171.008 -259.2
L154.785 -259.2
L133.87 -259.2
L104.392 -259.2
L54 -259.2
L-50333.4 -259.2
z
" id="m8851d7c526" style="stroke:#000000;stroke-width:0.3;"/>
    </defs>
    <g clip-path="url(#p124b8dd147)">
     <use style="fill:#ccb974;stroke:#000000;stroke-width:0.3;" x="0.0" xlink:href="#m8851d7c526" y="288.0"/>
    </g>
   </g>
   <g id="patch_3">
    <path d="
M54 28.8
L388.8 28.8" style="fill:none;"/>
   </g>
   <g id="patch_4">
    <path d="
M388.8 252
L388.8 28.8" style="fill:none;"/>
   </g>
   <g id="patch_5">
    <path d="
M54 252
L388.8 252" style="fill:none;"/>
   </g>
   <g id="patch_6">
    <path d="
M54 252
L54 28.8" style="fill:none;"/>
   </g>
   <g id="text_6">
    <!-- Defector -->
    <defs>
     <path d="
M40.4375 19
L49.0781 17.875
Q47.6562 8.9375 41.8125 3.875
Q35.9844 -1.17188 27.4844 -1.17188
Q16.8438 -1.17188 10.375 5.78125
Q3.90625 12.75 3.90625 25.7344
Q3.90625 34.125 6.6875 40.4219
Q9.46875 46.7344 15.1562 49.875
Q20.8438 53.0312 27.5469 53.0312
Q35.9844 53.0312 41.3594 48.75
Q46.7344 44.4844 48.25 36.625
L39.7031 35.2969
Q38.4844 40.5312 35.375 43.1562
Q32.2812 45.7969 27.875 45.7969
Q21.2344 45.7969 17.0781 41.0312
Q12.9375 36.2812 12.9375 25.9844
Q12.9375 15.5312 16.9375 10.7969
Q20.9531 6.0625 27.3906 6.0625
Q32.5625 6.0625 36.0312 9.23438
Q39.5 12.4062 40.4375 19" id="ArialMT-63"/>
     <path d="
M7.71875 0
L7.71875 71.5781
L32.375 71.5781
Q40.7188 71.5781 45.125 70.5625
Q51.2656 69.1406 55.6094 65.4375
Q61.2812 60.6406 64.0781 53.1875
Q66.8906 45.75 66.8906 36.1875
Q66.8906 28.0312 64.9844 21.7344
Q63.0938 15.4375 60.1094 11.2969
Q57.125 7.17188 53.5781 4.79688
Q50.0469 2.4375 45.0469 1.21875
Q40.0469 0 33.5469 0
z

M17.1875 8.45312
L32.4688 8.45312
Q39.5469 8.45312 43.5781 9.76562
Q47.6094 11.0781 50 13.4844
Q53.375 16.8438 55.25 22.5312
Q57.125 28.2188 57.125 36.3281
Q57.125 47.5625 53.4375 53.5938
Q49.75 59.625 44.4844 61.6719
Q40.6719 63.1406 32.2344 63.1406
L17.1875 63.1406
z
" id="ArialMT-44"/>
     <path d="
M8.6875 0
L8.6875 45.0156
L0.921875 45.0156
L0.921875 51.8594
L8.6875 51.8594
L8.6875 57.375
Q8.6875 62.5938 9.625 65.1406
Q10.8906 68.5625 14.0781 70.6719
Q17.2812 72.7969 23.0469 72.7969
Q26.7656 72.7969 31.25 71.9219
L29.9375 64.2656
Q27.2031 64.75 24.75 64.75
Q20.75 64.75 19.0938 63.0312
Q17.4375 61.3281 17.4375 56.6406
L17.4375 51.8594
L27.5469 51.8594
L27.5469 45.0156
L17.4375 45.0156
L17.4375 0
z
" id="ArialMT-66"/>
    </defs>
    <g style="fill:#262626;" transform="translate(32.073875 230.972578125)scale(0.05 -0.05)">
     <use xlink:href="#ArialMT-44"/>
     <use x="72.216796875" xlink:href="#ArialMT-65"/>
     <use x="127.83203125" xlink:href="#ArialMT-66"/>
     <use x="155.615234375" xlink:href="#ArialMT-65"/>
     <use x="211.23046875" xlink:href="#ArialMT-63"/>
     <use x="261.23046875" xlink:href="#ArialMT-74"/>
     <use x="289.013671875" xlink:href="#ArialMT-6f"/>
     <use x="344.62890625" xlink:href="#ArialMT-72"/>
    </g>
   </g>
   <g id="text_7">
    <!-- Alternator -->
    <defs>
     <path d="
M-0.140625 0
L27.3438 71.5781
L37.5469 71.5781
L66.8438 0
L56.0625 0
L47.7031 21.6875
L17.7812 21.6875
L9.90625 0
z

M20.5156 29.3906
L44.7812 29.3906
L37.3125 49.2188
Q33.8906 58.25 32.2344 64.0625
Q30.8594 57.1719 28.375 50.3906
z
" id="ArialMT-41"/>
    </defs>
    <g style="fill:#262626;" transform="translate(28.9004375 186.332578125)scale(0.05 -0.05)">
     <use xlink:href="#ArialMT-41"/>
     <use x="66.69921875" xlink:href="#ArialMT-6c"/>
     <use x="88.916015625" xlink:href="#ArialMT-74"/>
     <use x="116.69921875" xlink:href="#ArialMT-65"/>
     <use x="172.314453125" xlink:href="#ArialMT-72"/>
     <use x="205.615234375" xlink:href="#ArialMT-6e"/>
     <use x="261.23046875" xlink:href="#ArialMT-61"/>
     <use x="316.845703125" xlink:href="#ArialMT-74"/>
     <use x="344.62890625" xlink:href="#ArialMT-6f"/>
     <use x="400.244140625" xlink:href="#ArialMT-72"/>
    </g>
   </g>
   <g id="text_8">
    <!-- Random: 0.5 -->
    <defs>
     <path d="
M9.03125 41.8438
L9.03125 51.8594
L19.0469 51.8594
L19.0469 41.8438
z

M9.03125 0
L9.03125 10.0156
L19.0469 10.0156
L19.0469 0
z
" id="ArialMT-3a"/>
     <path d="
M9.07812 0
L9.07812 10.0156
L19.0938 10.0156
L19.0938 0
z
" id="ArialMT-2e"/>
     <path d="
M6.59375 0
L6.59375 51.8594
L14.4531 51.8594
L14.4531 44.5781
Q16.8906 48.3906 20.9375 50.7031
Q25 53.0312 30.1719 53.0312
Q35.9375 53.0312 39.625 50.6406
Q43.3125 48.25 44.8281 43.9531
Q50.9844 53.0312 60.8438 53.0312
Q68.5625 53.0312 72.7031 48.75
Q76.8594 44.4844 76.8594 35.5938
L76.8594 0
L68.1094 0
L68.1094 32.6719
Q68.1094 37.9375 67.25 40.25
Q66.4062 42.5781 64.1562 43.9844
Q61.9219 45.4062 58.8906 45.4062
Q53.4219 45.4062 49.7969 41.7656
Q46.1875 38.1406 46.1875 30.125
L46.1875 0
L37.4062 0
L37.4062 33.6875
Q37.4062 39.5469 35.25 42.4688
Q33.1094 45.4062 28.2188 45.4062
Q24.5156 45.4062 21.3594 43.4531
Q18.2188 41.5 16.7969 37.7344
Q15.375 33.9844 15.375 26.9062
L15.375 0
z
" id="ArialMT-6d"/>
     <path d="
M4.15625 18.75
L13.375 19.5312
Q14.4062 12.7969 18.1406 9.39062
Q21.875 6 27.1562 6
Q33.5 6 37.8906 10.7812
Q42.2812 15.5781 42.2812 23.4844
Q42.2812 31 38.0625 35.3438
Q33.8438 39.7031 27 39.7031
Q22.75 39.7031 19.3281 37.7656
Q15.9219 35.8438 13.9688 32.7656
L5.71875 33.8438
L12.6406 70.6094
L48.25 70.6094
L48.25 62.2031
L19.6719 62.2031
L15.8281 42.9688
Q22.2656 47.4688 29.3438 47.4688
Q38.7188 47.4688 45.1562 40.9688
Q51.6094 34.4688 51.6094 24.2656
Q51.6094 14.5469 45.9531 7.46875
Q39.0625 -1.21875 27.1562 -1.21875
Q17.3906 -1.21875 11.2031 4.25
Q5.03125 9.71875 4.15625 18.75" id="ArialMT-35"/>
     <path d="
M40.2344 0
L40.2344 6.54688
Q35.2969 -1.17188 25.7344 -1.17188
Q19.5312 -1.17188 14.3281 2.25
Q9.125 5.67188 6.26562 11.7969
Q3.42188 17.9219 3.42188 25.875
Q3.42188 33.6406 6 39.9688
Q8.59375 46.2969 13.7656 49.6562
Q18.9531 53.0312 25.3438 53.0312
Q30.0312 53.0312 33.6875 51.0469
Q37.3594 49.0781 39.6562 45.9062
L39.6562 71.5781
L48.3906 71.5781
L48.3906 0
z

M12.4531 25.875
Q12.4531 15.9219 16.6406 10.9844
Q20.8438 6.0625 26.5625 6.0625
Q32.3281 6.0625 36.3438 10.7656
Q40.375 15.4844 40.375 25.1406
Q40.375 35.7969 36.2656 40.7656
Q32.1719 45.75 26.1719 45.75
Q20.3125 45.75 16.375 40.9688
Q12.4531 36.1875 12.4531 25.875" id="ArialMT-64"/>
    </defs>
    <g style="fill:#262626;" transform="translate(22.22621875 141.692578125)scale(0.05 -0.05)">
     <use xlink:href="#ArialMT-52"/>
     <use x="72.216796875" xlink:href="#ArialMT-61"/>
     <use x="127.83203125" xlink:href="#ArialMT-6e"/>
     <use x="183.447265625" xlink:href="#ArialMT-64"/>
     <use x="239.0625" xlink:href="#ArialMT-6f"/>
     <use x="294.677734375" xlink:href="#ArialMT-6d"/>
     <use x="377.978515625" xlink:href="#ArialMT-3a"/>
     <use x="405.76171875" xlink:href="#ArialMT-20"/>
     <use x="433.544921875" xlink:href="#ArialMT-30"/>
     <use x="489.16015625" xlink:href="#ArialMT-2e"/>
     <use x="516.943359375" xlink:href="#ArialMT-35"/>
    </g>
   </g>
   <g id="text_9">
    <!-- Tit For Tat -->
    <defs>
     <path d="
M8.20312 0
L8.20312 71.5781
L56.5 71.5781
L56.5 63.1406
L17.6719 63.1406
L17.6719 40.9688
L51.2656 40.9688
L51.2656 32.5156
L17.6719 32.5156
L17.6719 0
z
" id="ArialMT-46"/>
    </defs>
    <g style="fill:#262626;" transform="translate(28.46528125 97.052578125)scale(0.05 -0.05)">
     <use xlink:href="#ArialMT-54"/>
     <use x="57.333984375" xlink:href="#ArialMT-69"/>
     <use x="79.55078125" xlink:href="#ArialMT-74"/>
     <use x="107.333984375" xlink:href="#ArialMT-20"/>
     <use x="135.1171875" xlink:href="#ArialMT-46"/>
     <use x="196.201171875" xlink:href="#ArialMT-6f"/>
     <use x="251.81640625" xlink:href="#ArialMT-72"/>
     <use x="285.1171875" xlink:href="#ArialMT-20"/>
     <use x="311.150390625" xlink:href="#ArialMT-54"/>
     <use x="361.109375" xlink:href="#ArialMT-61"/>
     <use x="416.724609375" xlink:href="#ArialMT-74"/>
    </g>
   </g>
   <g id="text_10">
    <!-- Cooperator -->
    <defs>
     <path d="
M58.7969 25.0938
L68.2656 22.7031
Q65.2812 11.0312 57.5469 4.90625
Q49.8125 -1.21875 38.625 -1.21875
Q27.0469 -1.21875 19.7969 3.48438
Q12.5469 8.20312 8.76562 17.1406
Q4.98438 26.0781 4.98438 36.3281
Q4.98438 47.5156 9.25 55.8281
Q13.5312 64.1562 21.4062 68.4688
Q29.2969 72.7969 38.7656 72.7969
Q49.5156 72.7969 56.8281 67.3281
Q64.1562 61.8594 67.0469 51.9531
L57.7188 49.75
Q55.2188 57.5625 50.4844 61.125
Q45.75 64.7031 38.5781 64.7031
Q30.3281 64.7031 24.7812 60.7344
Q19.2344 56.7812 16.9844 50.1094
Q14.75 43.4531 14.75 36.375
Q14.75 27.25 17.4062 20.4375
Q20.0625 13.625 25.6719 10.25
Q31.2969 6.89062 37.8438 6.89062
Q45.7969 6.89062 51.3125 11.4688
Q56.8438 16.0625 58.7969 25.0938" id="ArialMT-43"/>
    </defs>
    <g style="fill:#262626;" transform="translate(25.81996875 52.443046875)scale(0.05 -0.05)">
     <use xlink:href="#ArialMT-43"/>
     <use x="72.216796875" xlink:href="#ArialMT-6f"/>
     <use x="127.83203125" xlink:href="#ArialMT-6f"/>
     <use x="183.447265625" xlink:href="#ArialMT-70"/>
     <use x="239.0625" xlink:href="#ArialMT-65"/>
     <use x="294.677734375" xlink:href="#ArialMT-72"/>
     <use x="327.978515625" xlink:href="#ArialMT-61"/>
     <use x="383.59375" xlink:href="#ArialMT-74"/>
     <use x="411.376953125" xlink:href="#ArialMT-6f"/>
     <use x="466.9921875" xlink:href="#ArialMT-72"/>
    </g>
   </g>
   <g id="text_11">
    <!-- Strategy population dynamics based on average payoffs -->
    <defs>
     <path d="
M4.5 23
L13.4219 23.7812
Q14.0625 18.4062 16.375 14.9688
Q18.7031 11.5312 23.5781 9.40625
Q28.4688 7.28125 34.5781 7.28125
Q39.9844 7.28125 44.1406 8.89062
Q48.2969 10.5 50.3125 13.2969
Q52.3438 16.1094 52.3438 19.4375
Q52.3438 22.7969 50.3906 25.3125
Q48.4375 27.8281 43.9531 29.5469
Q41.0625 30.6719 31.2031 33.0312
Q21.3438 35.4062 17.3906 37.5
Q12.25 40.1875 9.73438 44.1562
Q7.23438 48.1406 7.23438 53.0781
Q7.23438 58.5 10.2969 63.2031
Q13.375 67.9219 19.2812 70.3594
Q25.2031 72.7969 32.4219 72.7969
Q40.375 72.7969 46.4531 70.2344
Q52.5469 67.6719 55.8125 62.6875
Q59.0781 57.7188 59.3281 51.4219
L50.25 50.7344
Q49.5156 57.5156 45.2812 60.9844
Q41.0625 64.4531 32.8125 64.4531
Q24.2188 64.4531 20.2812 61.2969
Q16.3594 58.1562 16.3594 53.7188
Q16.3594 49.8594 19.1406 47.3594
Q21.875 44.875 33.4219 42.2656
Q44.9688 39.6562 49.2656 37.7031
Q55.5156 34.8125 58.4844 30.3906
Q61.4688 25.9844 61.4688 20.2188
Q61.4688 14.5 58.2031 9.4375
Q54.9375 4.39062 48.7969 1.57812
Q42.6719 -1.21875 35.0156 -1.21875
Q25.2969 -1.21875 18.7188 1.60938
Q12.1562 4.4375 8.42188 10.125
Q4.6875 15.8281 4.5 23" id="ArialMT-53"/>
     <path d="
M4.98438 -4.29688
L13.5312 -5.5625
Q14.0625 -9.51562 16.5 -11.3281
Q19.7812 -13.7656 25.4375 -13.7656
Q31.5469 -13.7656 34.8594 -11.3281
Q38.1875 -8.89062 39.3594 -4.5
Q40.0469 -1.8125 39.9844 6.78125
Q34.2344 0 25.6406 0
Q14.9375 0 9.07812 7.71875
Q3.21875 15.4375 3.21875 26.2188
Q3.21875 33.6406 5.90625 39.9062
Q8.59375 46.1875 13.6875 49.6094
Q18.7969 53.0312 25.6875 53.0312
Q34.8594 53.0312 40.8281 45.6094
L40.8281 51.8594
L48.9219 51.8594
L48.9219 7.03125
Q48.9219 -5.07812 46.4531 -10.125
Q44 -15.1875 38.6406 -18.1094
Q33.2969 -21.0469 25.4844 -21.0469
Q16.2188 -21.0469 10.5 -16.875
Q4.78125 -12.7031 4.98438 -4.29688
M12.25 26.8594
Q12.25 16.6562 16.2969 11.9688
Q20.3594 7.28125 26.4688 7.28125
Q32.5156 7.28125 36.6094 11.9375
Q40.7188 16.6094 40.7188 26.5625
Q40.7188 36.0781 36.5 40.9062
Q32.2812 45.75 26.3125 45.75
Q20.4531 45.75 16.3438 40.9844
Q12.25 36.2344 12.25 26.8594" id="ArialMT-67"/>
     <path d="
M6.20312 -19.9688
L5.21875 -11.7188
Q8.10938 -12.5 10.25 -12.5
Q13.1875 -12.5 14.9375 -11.5156
Q16.7031 -10.5469 17.8281 -8.79688
Q18.6562 -7.46875 20.5156 -2.25
Q20.75 -1.51562 21.2969 -0.09375
L1.60938 51.8594
L11.0781 51.8594
L21.875 21.8281
Q23.9688 16.1094 25.6406 9.8125
Q27.1562 15.875 29.25 21.625
L40.3281 51.8594
L49.125 51.8594
L29.3906 -0.875
Q26.2188 -9.42188 24.4688 -12.6406
Q22.125 -17 19.0938 -19.0156
Q16.0625 -21.0469 11.8594 -21.0469
Q9.32812 -21.0469 6.20312 -19.9688" id="ArialMT-79"/>
     <path d="
M14.7031 0
L6.54688 0
L6.54688 71.5781
L15.3281 71.5781
L15.3281 46.0469
Q20.9062 53.0312 29.5469 53.0312
Q34.3281 53.0312 38.5938 51.0938
Q42.875 49.1719 45.625 45.6719
Q48.3906 42.1875 49.9531 37.25
Q51.5156 32.3281 51.5156 26.7031
Q51.5156 13.375 44.9219 6.09375
Q38.3281 -1.17188 29.1094 -1.17188
Q19.9219 -1.17188 14.7031 6.5
z

M14.5938 26.3125
Q14.5938 17 17.1406 12.8438
Q21.2969 6.0625 28.375 6.0625
Q34.125 6.0625 38.3281 11.0625
Q42.5312 16.0625 42.5312 25.9844
Q42.5312 36.1406 38.5 40.9688
Q34.4688 45.7969 28.7656 45.7969
Q23 45.7969 18.7969 40.7969
Q14.5938 35.7969 14.5938 26.3125" id="ArialMT-62"/>
    </defs>
    <g style="fill:#262626;" transform="translate(72.31875 23.8)scale(0.12 -0.12)">
     <use xlink:href="#ArialMT-53"/>
     <use x="66.69921875" xlink:href="#ArialMT-74"/>
     <use x="94.482421875" xlink:href="#ArialMT-72"/>
     <use x="127.783203125" xlink:href="#ArialMT-61"/>
     <use x="183.3984375" xlink:href="#ArialMT-74"/>
     <use x="211.181640625" xlink:href="#ArialMT-65"/>
     <use x="266.796875" xlink:href="#ArialMT-67"/>
     <use x="322.412109375" xlink:href="#ArialMT-79"/>
     <use x="372.412109375" xlink:href="#ArialMT-20"/>
     <use x="400.1953125" xlink:href="#ArialMT-70"/>
     <use x="455.810546875" xlink:href="#ArialMT-6f"/>
     <use x="511.42578125" xlink:href="#ArialMT-70"/>
     <use x="567.041015625" xlink:href="#ArialMT-75"/>
     <use x="622.65625" xlink:href="#ArialMT-6c"/>
     <use x="644.873046875" xlink:href="#ArialMT-61"/>
     <use x="700.48828125" xlink:href="#ArialMT-74"/>
     <use x="728.271484375" xlink:href="#ArialMT-69"/>
     <use x="750.48828125" xlink:href="#ArialMT-6f"/>
     <use x="806.103515625" xlink:href="#ArialMT-6e"/>
     <use x="861.71875" xlink:href="#ArialMT-20"/>
     <use x="889.501953125" xlink:href="#ArialMT-64"/>
     <use x="945.1171875" xlink:href="#ArialMT-79"/>
     <use x="995.1171875" xlink:href="#ArialMT-6e"/>
     <use x="1050.73242188" xlink:href="#ArialMT-61"/>
     <use x="1106.34765625" xlink:href="#ArialMT-6d"/>
     <use x="1189.6484375" xlink:href="#ArialMT-69"/>
     <use x="1211.86523438" xlink:href="#ArialMT-63"/>
     <use x="1261.86523438" xlink:href="#ArialMT-73"/>
     <use x="1311.86523438" xlink:href="#ArialMT-20"/>
     <use x="1339.6484375" xlink:href="#ArialMT-62"/>
     <use x="1395.26367188" xlink:href="#ArialMT-61"/>
     <use x="1450.87890625" xlink:href="#ArialMT-73"/>
     <use x="1500.87890625" xlink:href="#ArialMT-65"/>
     <use x="1556.49414062" xlink:href="#ArialMT-64"/>
     <use x="1612.109375" xlink:href="#ArialMT-20"/>
     <use x="1639.89257812" xlink:href="#ArialMT-6f"/>
     <use x="1695.5078125" xlink:href="#ArialMT-6e"/>
     <use x="1751.12304688" xlink:href="#ArialMT-20"/>
     <use x="1778.90625" xlink:href="#ArialMT-61"/>
     <use x="1834.52148438" xlink:href="#ArialMT-76"/>
     <use x="1884.52148438" xlink:href="#ArialMT-65"/>
     <use x="1940.13671875" xlink:href="#ArialMT-72"/>
     <use x="1973.4375" xlink:href="#ArialMT-61"/>
     <use x="2029.05273438" xlink:href="#ArialMT-67"/>
     <use x="2084.66796875" xlink:href="#ArialMT-65"/>
     <use x="2140.28320312" xlink:href="#ArialMT-20"/>
     <use x="2168.06640625" xlink:href="#ArialMT-70"/>
     <use x="2223.68164062" xlink:href="#ArialMT-61"/>
     <use x="2279.296875" xlink:href="#ArialMT-79"/>
     <use x="2329.296875" xlink:href="#ArialMT-6f"/>
     <use x="2384.91210938" xlink:href="#ArialMT-66"/>
     <use x="2410.9453125" xlink:href="#ArialMT-66"/>
     <use x="2438.72851562" xlink:href="#ArialMT-73"/>
    </g>
   </g>
  </g>
 </g>
 <defs>
  <clipPath id="p124b8dd147">
   <rect height="223.2" width="334.8" x="54.0" y="28.8"/>
  </clipPath>
 </defs>
</svg>
