<?xml version="1.0" encoding="utf-8" standalone="no"?>
<!DOCTYPE svg PUBLIC "-//W3C//DTD SVG 1.1//EN"
  "http://www.w3.org/Graphics/SVG/1.1/DTD/svg11.dtd">
<!-- Created with matplotlib (http://matplotlib.org/) -->
<svg height="432pt" version="1.1" viewBox="0 0 864 432" width="864pt" xmlns="http://www.w3.org/2000/svg" xmlns:xlink="http://www.w3.org/1999/xlink">
 <defs>
  <style type="text/css">
*{stroke-linecap:butt;stroke-linejoin:round;}
  </style>
 </defs>
 <g id="figure_1">
  <g id="patch_1">
   <path d="
M0 432
L864 432
L864 0
L0 0
z
" style="fill:#ffffff;"/>
  </g>
  <g id="axes_1">
   <g id="patch_2">
    <path d="
M108 378
L777.6 378
L777.6 43.2
L108 43.2
z
" style="fill:#eaeaf2;"/>
   </g>
   <g id="matplotlib.axis_1">
    <g id="xtick_1">
     <g id="line2d_1">
      <path clip-path="url(#pe8a5247557)" d="
M219.6 378
L219.6 43.2" style="fill:none;stroke:#ffffff;stroke-linecap:round;"/>
     </g>
     <g id="line2d_2">
      <defs>
       <path d="
M0 0
L0 0" id="m219da94a98" style="stroke:#262626;"/>
      </defs>
      <g>
       <use style="fill:#262626;stroke:#262626;" x="219.6" xlink:href="#m219da94a98" y="378.0"/>
      </g>
     </g>
     <g id="line2d_3">
      <g>
       <use style="fill:#262626;stroke:#262626;" x="219.6" xlink:href="#m219da94a98" y="43.2"/>
      </g>
     </g>
     <g id="text_1">
      <!-- Defector -->
      <defs>
       <path d="
M40.4375 19
L49.0781 17.875
Q47.6562 8.9375 41.8125 3.875
Q35.9844 -1.17188 27.4844 -1.17188
Q16.8438 -1.17188 10.375 5.78125
Q3.90625 12.75 3.90625 25.7344
Q3.90625 34.125 6.6875 40.4219
Q9.46875 46.7344 15.1562 49.875
Q20.8438 53.0312 27.5469 53.0312
Q35.9844 53.0312 41.3594 48.75
Q46.7344 44.4844 48.25 36.625
L39.7031 35.2969
Q38.4844 40.5312 35.375 43.1562
Q32.2812 45.7969 27.875 45.7969
Q21.2344 45.7969 17.0781 41.0312
Q12.9375 36.2812 12.9375 25.9844
Q12.9375 15.5312 16.9375 10.7969
Q20.9531 6.0625 27.3906 6.0625
Q32.5625 6.0625 36.0312 9.23438
Q39.5 12.4062 40.4375 19" id="ArialMT-63"/>
       <path d="
M8.6875 0
L8.6875 45.0156
L0.921875 45.0156
L0.921875 51.8594
L8.6875 51.8594
L8.6875 57.375
Q8.6875 62.5938 9.625 65.1406
Q10.8906 68.5625 14.0781 70.6719
Q17.2812 72.7969 23.0469 72.7969
Q26.7656 72.7969 31.25 71.9219
L29.9375 64.2656
Q27.2031 64.75 24.75 64.75
Q20.75 64.75 19.0938 63.0312
Q17.4375 61.3281 17.4375 56.6406
L17.4375 51.8594
L27.5469 51.8594
L27.5469 45.0156
L17.4375 45.0156
L17.4375 0
z
" id="ArialMT-66"/>
       <path d="
M42.0938 16.7031
L51.1719 15.5781
Q49.0312 7.625 43.2188 3.21875
Q37.4062 -1.17188 28.375 -1.17188
Q17 -1.17188 10.3281 5.82812
Q3.65625 12.8438 3.65625 25.4844
Q3.65625 38.5781 10.3906 45.7969
Q17.1406 53.0312 27.875 53.0312
Q38.2812 53.0312 44.875 45.9531
Q51.4688 38.875 51.4688 26.0312
Q51.4688 25.25 51.4219 23.6875
L12.75 23.6875
Q13.2344 15.1406 17.5781 10.5938
Q21.9219 6.0625 28.4219 6.0625
Q33.25 6.0625 36.6719 8.59375
Q40.0938 11.1406 42.0938 16.7031
M13.2344 30.9062
L42.1875 30.9062
Q41.6094 37.4531 38.875 40.7188
Q34.6719 45.7969 27.9844 45.7969
Q21.9219 45.7969 17.7969 41.75
Q13.6719 37.7031 13.2344 30.9062" id="ArialMT-65"/>
       <path d="
M25.7812 7.85938
L27.0469 0.09375
Q23.3438 -0.6875 20.4062 -0.6875
Q15.625 -0.6875 12.9844 0.828125
Q10.3594 2.34375 9.28125 4.8125
Q8.20312 7.28125 8.20312 15.1875
L8.20312 45.0156
L1.76562 45.0156
L1.76562 51.8594
L8.20312 51.8594
L8.20312 64.7031
L16.9375 69.9688
L16.9375 51.8594
L25.7812 51.8594
L25.7812 45.0156
L16.9375 45.0156
L16.9375 14.7031
Q16.9375 10.9375 17.4062 9.85938
Q17.875 8.79688 18.9219 8.15625
Q19.9688 7.51562 21.9219 7.51562
Q23.3906 7.51562 25.7812 7.85938" id="ArialMT-74"/>
       <path d="
M7.71875 0
L7.71875 71.5781
L32.375 71.5781
Q40.7188 71.5781 45.125 70.5625
Q51.2656 69.1406 55.6094 65.4375
Q61.2812 60.6406 64.0781 53.1875
Q66.8906 45.75 66.8906 36.1875
Q66.8906 28.0312 64.9844 21.7344
Q63.0938 15.4375 60.1094 11.2969
Q57.125 7.17188 53.5781 4.79688
Q50.0469 2.4375 45.0469 1.21875
Q40.0469 0 33.5469 0
z

M17.1875 8.45312
L32.4688 8.45312
Q39.5469 8.45312 43.5781 9.76562
Q47.6094 11.0781 50 13.4844
Q53.375 16.8438 55.25 22.5312
Q57.125 28.2188 57.125 36.3281
Q57.125 47.5625 53.4375 53.5938
Q49.75 59.625 44.4844 61.6719
Q40.6719 63.1406 32.2344 63.1406
L17.1875 63.1406
z
" id="ArialMT-44"/>
       <path d="
M6.5 0
L6.5 51.8594
L14.4062 51.8594
L14.4062 44
Q17.4375 49.5156 20 51.2656
Q22.5625 53.0312 25.6406 53.0312
Q30.0781 53.0312 34.6719 50.2031
L31.6406 42.0469
Q28.4219 43.9531 25.2031 43.9531
Q22.3125 43.9531 20.0156 42.2188
Q17.7188 40.4844 16.75 37.4062
Q15.2812 32.7188 15.2812 27.1562
L15.2812 0
z
" id="ArialMT-72"/>
       <path d="
M3.32812 25.9219
Q3.32812 40.3281 11.3281 47.2656
Q18.0156 53.0312 27.6406 53.0312
Q38.3281 53.0312 45.1094 46.0156
Q51.9062 39.0156 51.9062 26.6562
Q51.9062 16.6562 48.9062 10.9062
Q45.9062 5.17188 40.1562 2
Q34.4219 -1.17188 27.6406 -1.17188
Q16.75 -1.17188 10.0312 5.8125
Q3.32812 12.7969 3.32812 25.9219
M12.3594 25.9219
Q12.3594 15.9688 16.7031 11.0156
Q21.0469 6.0625 27.6406 6.0625
Q34.1875 6.0625 38.5312 11.0312
Q42.875 16.0156 42.875 26.2188
Q42.875 35.8438 38.5 40.7969
Q34.125 45.75 27.6406 45.75
Q21.0469 45.75 16.7031 40.8125
Q12.3594 35.8906 12.3594 25.9219" id="ArialMT-6f"/>
      </defs>
      <g style="fill:#262626;" transform="translate(221.668125 414.725)rotate(-90.0)scale(0.08 -0.08)">
       <use xlink:href="#ArialMT-44"/>
       <use x="72.216796875" xlink:href="#ArialMT-65"/>
       <use x="127.83203125" xlink:href="#ArialMT-66"/>
       <use x="155.615234375" xlink:href="#ArialMT-65"/>
       <use x="211.23046875" xlink:href="#ArialMT-63"/>
       <use x="261.23046875" xlink:href="#ArialMT-74"/>
       <use x="289.013671875" xlink:href="#ArialMT-6f"/>
       <use x="344.62890625" xlink:href="#ArialMT-72"/>
      </g>
     </g>
    </g>
    <g id="xtick_2">
     <g id="line2d_4">
      <path clip-path="url(#pe8a5247557)" d="
M331.2 378
L331.2 43.2" style="fill:none;stroke:#ffffff;stroke-linecap:round;"/>
     </g>
     <g id="line2d_5">
      <g>
       <use style="fill:#262626;stroke:#262626;" x="331.2" xlink:href="#m219da94a98" y="378.0"/>
      </g>
     </g>
     <g id="line2d_6">
      <g>
       <use style="fill:#262626;stroke:#262626;" x="331.2" xlink:href="#m219da94a98" y="43.2"/>
      </g>
     </g>
     <g id="text_2">
      <!-- Alternator -->
      <defs>
       <path d="
M-0.140625 0
L27.3438 71.5781
L37.5469 71.5781
L66.8438 0
L56.0625 0
L47.7031 21.6875
L17.7812 21.6875
L9.90625 0
z

M20.5156 29.3906
L44.7812 29.3906
L37.3125 49.2188
Q33.8906 58.25 32.2344 64.0625
Q30.8594 57.1719 28.375 50.3906
z
" id="ArialMT-41"/>
       <path d="
M6.39062 0
L6.39062 71.5781
L15.1875 71.5781
L15.1875 0
z
" id="ArialMT-6c"/>
       <path d="
M40.4375 6.39062
Q35.5469 2.25 31.0312 0.53125
Q26.5156 -1.17188 21.3438 -1.17188
Q12.7969 -1.17188 8.20312 3
Q3.60938 7.17188 3.60938 13.6719
Q3.60938 17.4844 5.34375 20.625
Q7.07812 23.7812 9.89062 25.6875
Q12.7031 27.5938 16.2188 28.5625
Q18.7969 29.25 24.0312 29.8906
Q34.6719 31.1562 39.7031 32.9062
Q39.75 34.7188 39.75 35.2031
Q39.75 40.5781 37.25 42.7812
Q33.8906 45.75 27.25 45.75
Q21.0469 45.75 18.0938 43.5781
Q15.1406 41.4062 13.7188 35.8906
L5.125 37.0625
Q6.29688 42.5781 8.98438 45.9688
Q11.6719 49.3594 16.75 51.1875
Q21.8281 53.0312 28.5156 53.0312
Q35.1562 53.0312 39.2969 51.4688
Q43.4531 49.9062 45.4062 47.5312
Q47.3594 45.1719 48.1406 41.5469
Q48.5781 39.3125 48.5781 33.4531
L48.5781 21.7344
Q48.5781 9.46875 49.1406 6.21875
Q49.7031 2.98438 51.375 0
L42.1875 0
Q40.8281 2.73438 40.4375 6.39062
M39.7031 26.0312
Q34.9062 24.0781 25.3438 22.7031
Q19.9219 21.9219 17.6719 20.9375
Q15.4375 19.9688 14.2031 18.0938
Q12.9844 16.2188 12.9844 13.9219
Q12.9844 10.4062 15.6406 8.0625
Q18.3125 5.71875 23.4375 5.71875
Q28.5156 5.71875 32.4688 7.9375
Q36.4219 10.1562 38.2812 14.0156
Q39.7031 17 39.7031 22.7969
z
" id="ArialMT-61"/>
       <path d="
M6.59375 0
L6.59375 51.8594
L14.5 51.8594
L14.5 44.4844
Q20.2188 53.0312 31 53.0312
Q35.6875 53.0312 39.625 51.3438
Q43.5625 49.6562 45.5156 46.9219
Q47.4688 44.1875 48.25 40.4375
Q48.7344 37.9844 48.7344 31.8906
L48.7344 0
L39.9375 0
L39.9375 31.5469
Q39.9375 36.9219 38.9062 39.5781
Q37.8906 42.2344 35.2812 43.8125
Q32.6719 45.4062 29.1562 45.4062
Q23.5312 45.4062 19.4531 41.8438
Q15.375 38.2812 15.375 28.3281
L15.375 0
z
" id="ArialMT-6e"/>
      </defs>
      <g style="fill:#262626;" transform="translate(333.268125 419.8025)rotate(-90.0)scale(0.08 -0.08)">
       <use xlink:href="#ArialMT-41"/>
       <use x="66.69921875" xlink:href="#ArialMT-6c"/>
       <use x="88.916015625" xlink:href="#ArialMT-74"/>
       <use x="116.69921875" xlink:href="#ArialMT-65"/>
       <use x="172.314453125" xlink:href="#ArialMT-72"/>
       <use x="205.615234375" xlink:href="#ArialMT-6e"/>
       <use x="261.23046875" xlink:href="#ArialMT-61"/>
       <use x="316.845703125" xlink:href="#ArialMT-74"/>
       <use x="344.62890625" xlink:href="#ArialMT-6f"/>
       <use x="400.244140625" xlink:href="#ArialMT-72"/>
      </g>
     </g>
    </g>
    <g id="xtick_3">
     <g id="line2d_7">
      <path clip-path="url(#pe8a5247557)" d="
M442.8 378
L442.8 43.2" style="fill:none;stroke:#ffffff;stroke-linecap:round;"/>
     </g>
     <g id="line2d_8">
      <g>
       <use style="fill:#262626;stroke:#262626;" x="442.8" xlink:href="#m219da94a98" y="378.0"/>
      </g>
     </g>
     <g id="line2d_9">
      <g>
       <use style="fill:#262626;stroke:#262626;" x="442.8" xlink:href="#m219da94a98" y="43.2"/>
      </g>
     </g>
     <g id="text_3">
      <!-- Random: 0.5 -->
      <defs>
       <path d="
M40.2344 0
L40.2344 6.54688
Q35.2969 -1.17188 25.7344 -1.17188
Q19.5312 -1.17188 14.3281 2.25
Q9.125 5.67188 6.26562 11.7969
Q3.42188 17.9219 3.42188 25.875
Q3.42188 33.6406 6 39.9688
Q8.59375 46.2969 13.7656 49.6562
Q18.9531 53.0312 25.3438 53.0312
Q30.0312 53.0312 33.6875 51.0469
Q37.3594 49.0781 39.6562 45.9062
L39.6562 71.5781
L48.3906 71.5781
L48.3906 0
z

M12.4531 25.875
Q12.4531 15.9219 16.6406 10.9844
Q20.8438 6.0625 26.5625 6.0625
Q32.3281 6.0625 36.3438 10.7656
Q40.375 15.4844 40.375 25.1406
Q40.375 35.7969 36.2656 40.7656
Q32.1719 45.75 26.1719 45.75
Q20.3125 45.75 16.375 40.9688
Q12.4531 36.1875 12.4531 25.875" id="ArialMT-64"/>
       <path d="
M7.85938 0
L7.85938 71.5781
L39.5938 71.5781
Q49.1719 71.5781 54.1406 69.6406
Q59.125 67.7188 62.1094 62.8281
Q65.0938 57.9531 65.0938 52.0469
Q65.0938 44.4375 60.1562 39.2031
Q55.2188 33.9844 44.9219 32.5625
Q48.6875 30.7656 50.6406 29
Q54.7812 25.2031 58.5 19.4844
L70.9531 0
L59.0312 0
L49.5625 14.8906
Q45.4062 21.3438 42.7188 24.75
Q40.0469 28.1719 37.9219 29.5312
Q35.7969 30.9062 33.5938 31.4531
Q31.9844 31.7812 28.3281 31.7812
L17.3281 31.7812
L17.3281 0
z

M17.3281 39.9844
L37.7031 39.9844
Q44.1875 39.9844 47.8438 41.3281
Q51.5156 42.6719 53.4219 45.625
Q55.3281 48.5781 55.3281 52.0469
Q55.3281 57.125 51.6406 60.3906
Q47.9531 63.6719 39.9844 63.6719
L17.3281 63.6719
z
" id="ArialMT-52"/>
       <path d="
M9.03125 41.8438
L9.03125 51.8594
L19.0469 51.8594
L19.0469 41.8438
z

M9.03125 0
L9.03125 10.0156
L19.0469 10.0156
L19.0469 0
z
" id="ArialMT-3a"/>
       <path d="
M9.07812 0
L9.07812 10.0156
L19.0938 10.0156
L19.0938 0
z
" id="ArialMT-2e"/>
       <path d="
M6.59375 0
L6.59375 51.8594
L14.4531 51.8594
L14.4531 44.5781
Q16.8906 48.3906 20.9375 50.7031
Q25 53.0312 30.1719 53.0312
Q35.9375 53.0312 39.625 50.6406
Q43.3125 48.25 44.8281 43.9531
Q50.9844 53.0312 60.8438 53.0312
Q68.5625 53.0312 72.7031 48.75
Q76.8594 44.4844 76.8594 35.5938
L76.8594 0
L68.1094 0
L68.1094 32.6719
Q68.1094 37.9375 67.25 40.25
Q66.4062 42.5781 64.1562 43.9844
Q61.9219 45.4062 58.8906 45.4062
Q53.4219 45.4062 49.7969 41.7656
Q46.1875 38.1406 46.1875 30.125
L46.1875 0
L37.4062 0
L37.4062 33.6875
Q37.4062 39.5469 35.25 42.4688
Q33.1094 45.4062 28.2188 45.4062
Q24.5156 45.4062 21.3594 43.4531
Q18.2188 41.5 16.7969 37.7344
Q15.375 33.9844 15.375 26.9062
L15.375 0
z
" id="ArialMT-6d"/>
       <path d="
M4.15625 35.2969
Q4.15625 48 6.76562 55.7344
Q9.375 63.4844 14.5156 67.6719
Q19.6719 71.875 27.4844 71.875
Q33.25 71.875 37.5938 69.5469
Q41.9375 67.2344 44.7656 62.8594
Q47.6094 58.5 49.2188 52.2188
Q50.8281 45.9531 50.8281 35.2969
Q50.8281 22.7031 48.2344 14.9688
Q45.6562 7.23438 40.5 3
Q35.3594 -1.21875 27.4844 -1.21875
Q17.1406 -1.21875 11.2344 6.20312
Q4.15625 15.1406 4.15625 35.2969
M13.1875 35.2969
Q13.1875 17.6719 17.3125 11.8281
Q21.4375 6 27.4844 6
Q33.5469 6 37.6719 11.8594
Q41.7969 17.7188 41.7969 35.2969
Q41.7969 52.9844 37.6719 58.7812
Q33.5469 64.5938 27.3906 64.5938
Q21.3438 64.5938 17.7188 59.4688
Q13.1875 52.9375 13.1875 35.2969" id="ArialMT-30"/>
       <path d="
M4.15625 18.75
L13.375 19.5312
Q14.4062 12.7969 18.1406 9.39062
Q21.875 6 27.1562 6
Q33.5 6 37.8906 10.7812
Q42.2812 15.5781 42.2812 23.4844
Q42.2812 31 38.0625 35.3438
Q33.8438 39.7031 27 39.7031
Q22.75 39.7031 19.3281 37.7656
Q15.9219 35.8438 13.9688 32.7656
L5.71875 33.8438
L12.6406 70.6094
L48.25 70.6094
L48.25 62.2031
L19.6719 62.2031
L15.8281 42.9688
Q22.2656 47.4688 29.3438 47.4688
Q38.7188 47.4688 45.1562 40.9688
Q51.6094 34.4688 51.6094 24.2656
Q51.6094 14.5469 45.9531 7.46875
Q39.0625 -1.21875 27.1562 -1.21875
Q17.3906 -1.21875 11.2031 4.25
Q5.03125 9.71875 4.15625 18.75" id="ArialMT-35"/>
       <path id="ArialMT-20"/>
      </defs>
      <g style="fill:#262626;" transform="translate(444.868125 430.48125)rotate(-90.0)scale(0.08 -0.08)">
       <use xlink:href="#ArialMT-52"/>
       <use x="72.216796875" xlink:href="#ArialMT-61"/>
       <use x="127.83203125" xlink:href="#ArialMT-6e"/>
       <use x="183.447265625" xlink:href="#ArialMT-64"/>
       <use x="239.0625" xlink:href="#ArialMT-6f"/>
       <use x="294.677734375" xlink:href="#ArialMT-6d"/>
       <use x="377.978515625" xlink:href="#ArialMT-3a"/>
       <use x="405.76171875" xlink:href="#ArialMT-20"/>
       <use x="433.544921875" xlink:href="#ArialMT-30"/>
       <use x="489.16015625" xlink:href="#ArialMT-2e"/>
       <use x="516.943359375" xlink:href="#ArialMT-35"/>
      </g>
     </g>
    </g>
    <g id="xtick_4">
     <g id="line2d_10">
      <path clip-path="url(#pe8a5247557)" d="
M554.4 378
L554.4 43.2" style="fill:none;stroke:#ffffff;stroke-linecap:round;"/>
     </g>
     <g id="line2d_11">
      <g>
       <use style="fill:#262626;stroke:#262626;" x="554.4" xlink:href="#m219da94a98" y="378.0"/>
      </g>
     </g>
     <g id="line2d_12">
      <g>
       <use style="fill:#262626;stroke:#262626;" x="554.4" xlink:href="#m219da94a98" y="43.2"/>
      </g>
     </g>
     <g id="text_4">
      <!-- Tit For Tat -->
      <defs>
       <path d="
M6.64062 61.4688
L6.64062 71.5781
L15.4375 71.5781
L15.4375 61.4688
z

M6.64062 0
L6.64062 51.8594
L15.4375 51.8594
L15.4375 0
z
" id="ArialMT-69"/>
       <path d="
M25.9219 0
L25.9219 63.1406
L2.34375 63.1406
L2.34375 71.5781
L59.0781 71.5781
L59.0781 63.1406
L35.4062 63.1406
L35.4062 0
z
" id="ArialMT-54"/>
       <path d="
M8.20312 0
L8.20312 71.5781
L56.5 71.5781
L56.5 63.1406
L17.6719 63.1406
L17.6719 40.9688
L51.2656 40.9688
L51.2656 32.5156
L17.6719 32.5156
L17.6719 0
z
" id="ArialMT-46"/>
      </defs>
      <g style="fill:#262626;" transform="translate(556.468125 420.49875)rotate(-90.0)scale(0.08 -0.08)">
       <use xlink:href="#ArialMT-54"/>
       <use x="57.333984375" xlink:href="#ArialMT-69"/>
       <use x="79.55078125" xlink:href="#ArialMT-74"/>
       <use x="107.333984375" xlink:href="#ArialMT-20"/>
       <use x="135.1171875" xlink:href="#ArialMT-46"/>
       <use x="196.201171875" xlink:href="#ArialMT-6f"/>
       <use x="251.81640625" xlink:href="#ArialMT-72"/>
       <use x="285.1171875" xlink:href="#ArialMT-20"/>
       <use x="311.150390625" xlink:href="#ArialMT-54"/>
       <use x="361.109375" xlink:href="#ArialMT-61"/>
       <use x="416.724609375" xlink:href="#ArialMT-74"/>
      </g>
     </g>
    </g>
    <g id="xtick_5">
     <g id="line2d_13">
      <path clip-path="url(#pe8a5247557)" d="
M666 378
L666 43.2" style="fill:none;stroke:#ffffff;stroke-linecap:round;"/>
     </g>
     <g id="line2d_14">
      <g>
       <use style="fill:#262626;stroke:#262626;" x="666.0" xlink:href="#m219da94a98" y="378.0"/>
      </g>
     </g>
     <g id="line2d_15">
      <g>
       <use style="fill:#262626;stroke:#262626;" x="666.0" xlink:href="#m219da94a98" y="43.2"/>
      </g>
     </g>
     <g id="text_5">
      <!-- Cooperator -->
      <defs>
       <path d="
M58.7969 25.0938
L68.2656 22.7031
Q65.2812 11.0312 57.5469 4.90625
Q49.8125 -1.21875 38.625 -1.21875
Q27.0469 -1.21875 19.7969 3.48438
Q12.5469 8.20312 8.76562 17.1406
Q4.98438 26.0781 4.98438 36.3281
Q4.98438 47.5156 9.25 55.8281
Q13.5312 64.1562 21.4062 68.4688
Q29.2969 72.7969 38.7656 72.7969
Q49.5156 72.7969 56.8281 67.3281
Q64.1562 61.8594 67.0469 51.9531
L57.7188 49.75
Q55.2188 57.5625 50.4844 61.125
Q45.75 64.7031 38.5781 64.7031
Q30.3281 64.7031 24.7812 60.7344
Q19.2344 56.7812 16.9844 50.1094
Q14.75 43.4531 14.75 36.375
Q14.75 27.25 17.4062 20.4375
Q20.0625 13.625 25.6719 10.25
Q31.2969 6.89062 37.8438 6.89062
Q45.7969 6.89062 51.3125 11.4688
Q56.8438 16.0625 58.7969 25.0938" id="ArialMT-43"/>
       <path d="
M6.59375 -19.875
L6.59375 51.8594
L14.5938 51.8594
L14.5938 45.125
Q17.4375 49.0781 21 51.0469
Q24.5625 53.0312 29.6406 53.0312
Q36.2812 53.0312 41.3594 49.6094
Q46.4375 46.1875 49.0156 39.9531
Q51.6094 33.7344 51.6094 26.3125
Q51.6094 18.3594 48.75 11.9844
Q45.9062 5.60938 40.4531 2.21875
Q35.0156 -1.17188 29 -1.17188
Q24.6094 -1.17188 21.1094 0.6875
Q17.625 2.54688 15.375 5.375
L15.375 -19.875
z

M14.5469 25.6406
Q14.5469 15.625 18.5938 10.8438
Q22.6562 6.0625 28.4219 6.0625
Q34.2812 6.0625 38.4531 11.0156
Q42.625 15.9688 42.625 26.375
Q42.625 36.2812 38.5469 41.2031
Q34.4688 46.1406 28.8125 46.1406
Q23.1875 46.1406 18.8594 40.8906
Q14.5469 35.6406 14.5469 25.6406" id="ArialMT-70"/>
      </defs>
      <g style="fill:#262626;" transform="translate(668.116875 424.73125)rotate(-90.0)scale(0.08 -0.08)">
       <use xlink:href="#ArialMT-43"/>
       <use x="72.216796875" xlink:href="#ArialMT-6f"/>
       <use x="127.83203125" xlink:href="#ArialMT-6f"/>
       <use x="183.447265625" xlink:href="#ArialMT-70"/>
       <use x="239.0625" xlink:href="#ArialMT-65"/>
       <use x="294.677734375" xlink:href="#ArialMT-72"/>
       <use x="327.978515625" xlink:href="#ArialMT-61"/>
       <use x="383.59375" xlink:href="#ArialMT-74"/>
       <use x="411.376953125" xlink:href="#ArialMT-6f"/>
       <use x="466.9921875" xlink:href="#ArialMT-72"/>
      </g>
     </g>
    </g>
   </g>
   <g id="matplotlib.axis_2">
    <g id="ytick_1">
     <g id="line2d_16">
      <path clip-path="url(#pe8a5247557)" d="
M108 378
L777.6 378" style="fill:none;stroke:#ffffff;stroke-linecap:round;"/>
     </g>
     <g id="line2d_17">
      <g>
       <use style="fill:#262626;stroke:#262626;" x="108.0" xlink:href="#m219da94a98" y="378.0"/>
      </g>
     </g>
     <g id="line2d_18">
      <g>
       <use style="fill:#262626;stroke:#262626;" x="777.6" xlink:href="#m219da94a98" y="378.0"/>
      </g>
     </g>
     <g id="text_6">
      <!-- 1.4 -->
      <defs>
       <path d="
M37.25 0
L28.4688 0
L28.4688 56
Q25.2969 52.9844 20.1406 49.9531
Q14.9844 46.9219 10.8906 45.4062
L10.8906 53.9062
Q18.2656 57.375 23.7812 62.2969
Q29.2969 67.2344 31.5938 71.875
L37.25 71.875
z
" id="ArialMT-31"/>
       <path d="
M32.3281 0
L32.3281 17.1406
L1.26562 17.1406
L1.26562 25.2031
L33.9375 71.5781
L41.1094 71.5781
L41.1094 25.2031
L50.7812 25.2031
L50.7812 17.1406
L41.1094 17.1406
L41.1094 0
z

M32.3281 25.2031
L32.3281 57.4688
L9.90625 25.2031
z
" id="ArialMT-34"/>
      </defs>
      <g style="fill:#262626;" transform="translate(91.1375 380.068125)scale(0.08 -0.08)">
       <use xlink:href="#ArialMT-31"/>
       <use x="55.615234375" xlink:href="#ArialMT-2e"/>
       <use x="83.3984375" xlink:href="#ArialMT-34"/>
      </g>
     </g>
    </g>
    <g id="ytick_2">
     <g id="line2d_19">
      <path clip-path="url(#pe8a5247557)" d="
M108 340.8
L777.6 340.8" style="fill:none;stroke:#ffffff;stroke-linecap:round;"/>
     </g>
     <g id="line2d_20">
      <g>
       <use style="fill:#262626;stroke:#262626;" x="108.0" xlink:href="#m219da94a98" y="340.8"/>
      </g>
     </g>
     <g id="line2d_21">
      <g>
       <use style="fill:#262626;stroke:#262626;" x="777.6" xlink:href="#m219da94a98" y="340.8"/>
      </g>
     </g>
     <g id="text_7">
      <!-- 1.6 -->
      <defs>
       <path d="
M49.75 54.0469
L41.0156 53.375
Q39.8438 58.5469 37.7031 60.8906
Q34.125 64.6562 28.9062 64.6562
Q24.7031 64.6562 21.5312 62.3125
Q17.3906 59.2812 14.9844 53.4688
Q12.5938 47.6562 12.5 36.9219
Q15.6719 41.75 20.2656 44.0938
Q24.8594 46.4375 29.8906 46.4375
Q38.6719 46.4375 44.8438 39.9688
Q51.0312 33.5 51.0312 23.25
Q51.0312 16.5 48.125 10.7188
Q45.2188 4.9375 40.1406 1.85938
Q35.0625 -1.21875 28.6094 -1.21875
Q17.625 -1.21875 10.6875 6.85938
Q3.76562 14.9375 3.76562 33.5
Q3.76562 54.25 11.4219 63.6719
Q18.1094 71.875 29.4375 71.875
Q37.8906 71.875 43.2812 67.1406
Q48.6875 62.4062 49.75 54.0469
M13.875 23.1875
Q13.875 18.6562 15.7969 14.5
Q17.7188 10.3594 21.1875 8.17188
Q24.6562 6 28.4688 6
Q34.0312 6 38.0312 10.4844
Q42.0469 14.9844 42.0469 22.7031
Q42.0469 30.125 38.0781 34.3906
Q34.125 38.6719 28.125 38.6719
Q22.1719 38.6719 18.0156 34.3906
Q13.875 30.125 13.875 23.1875" id="ArialMT-36"/>
      </defs>
      <g style="fill:#262626;" transform="translate(91.1175 342.868125)scale(0.08 -0.08)">
       <use xlink:href="#ArialMT-31"/>
       <use x="55.615234375" xlink:href="#ArialMT-2e"/>
       <use x="83.3984375" xlink:href="#ArialMT-36"/>
      </g>
     </g>
    </g>
    <g id="ytick_3">
     <g id="line2d_22">
      <path clip-path="url(#pe8a5247557)" d="
M108 303.6
L777.6 303.6" style="fill:none;stroke:#ffffff;stroke-linecap:round;"/>
     </g>
     <g id="line2d_23">
      <g>
       <use style="fill:#262626;stroke:#262626;" x="108.0" xlink:href="#m219da94a98" y="303.6"/>
      </g>
     </g>
     <g id="line2d_24">
      <g>
       <use style="fill:#262626;stroke:#262626;" x="777.6" xlink:href="#m219da94a98" y="303.6"/>
      </g>
     </g>
     <g id="text_8">
      <!-- 1.8 -->
      <defs>
       <path d="
M17.6719 38.8125
Q12.2031 40.8281 9.5625 44.5312
Q6.9375 48.25 6.9375 53.4219
Q6.9375 61.2344 12.5469 66.5469
Q18.1719 71.875 27.4844 71.875
Q36.8594 71.875 42.5781 66.4219
Q48.2969 60.9844 48.2969 53.1719
Q48.2969 48.1875 45.6719 44.5
Q43.0625 40.8281 37.75 38.8125
Q44.3438 36.6719 47.7812 31.875
Q51.2188 27.0938 51.2188 20.4531
Q51.2188 11.2812 44.7188 5.03125
Q38.2344 -1.21875 27.6406 -1.21875
Q17.0469 -1.21875 10.5469 5.04688
Q4.04688 11.3281 4.04688 20.7031
Q4.04688 27.6875 7.59375 32.3906
Q11.1406 37.1094 17.6719 38.8125
M15.9219 53.7188
Q15.9219 48.6406 19.1875 45.4062
Q22.4688 42.1875 27.6875 42.1875
Q32.7656 42.1875 36.0156 45.375
Q39.2656 48.5781 39.2656 53.2188
Q39.2656 58.0625 35.9062 61.3594
Q32.5625 64.6562 27.5938 64.6562
Q22.5625 64.6562 19.2344 61.4219
Q15.9219 58.2031 15.9219 53.7188
M13.0938 20.6562
Q13.0938 16.8906 14.875 13.375
Q16.6562 9.85938 20.1719 7.92188
Q23.6875 6 27.7344 6
Q34.0312 6 38.125 10.0469
Q42.2344 14.1094 42.2344 20.3594
Q42.2344 26.7031 38.0156 30.8594
Q33.7969 35.0156 27.4375 35.0156
Q21.2344 35.0156 17.1562 30.9062
Q13.0938 26.8125 13.0938 20.6562" id="ArialMT-38"/>
      </defs>
      <g style="fill:#262626;" transform="translate(91.1025 305.668125)scale(0.08 -0.08)">
       <use xlink:href="#ArialMT-31"/>
       <use x="55.615234375" xlink:href="#ArialMT-2e"/>
       <use x="83.3984375" xlink:href="#ArialMT-38"/>
      </g>
     </g>
    </g>
    <g id="ytick_4">
     <g id="line2d_25">
      <path clip-path="url(#pe8a5247557)" d="
M108 266.4
L777.6 266.4" style="fill:none;stroke:#ffffff;stroke-linecap:round;"/>
     </g>
     <g id="line2d_26">
      <g>
       <use style="fill:#262626;stroke:#262626;" x="108.0" xlink:href="#m219da94a98" y="266.4"/>
      </g>
     </g>
     <g id="line2d_27">
      <g>
       <use style="fill:#262626;stroke:#262626;" x="777.6" xlink:href="#m219da94a98" y="266.4"/>
      </g>
     </g>
     <g id="text_9">
      <!-- 2.0 -->
      <defs>
       <path d="
M50.3438 8.45312
L50.3438 0
L3.03125 0
Q2.9375 3.17188 4.04688 6.10938
Q5.85938 10.9375 9.82812 15.625
Q13.8125 20.3125 21.3438 26.4688
Q33.0156 36.0312 37.1094 41.625
Q41.2188 47.2188 41.2188 52.2031
Q41.2188 57.4219 37.4688 61
Q33.7344 64.5938 27.7344 64.5938
Q21.3906 64.5938 17.5781 60.7812
Q13.7656 56.9844 13.7188 50.25
L4.6875 51.1719
Q5.60938 61.2812 11.6562 66.5781
Q17.7188 71.875 27.9375 71.875
Q38.2344 71.875 44.2344 66.1562
Q50.25 60.4531 50.25 52
Q50.25 47.7031 48.4844 43.5469
Q46.7344 39.4062 42.6562 34.8125
Q38.5781 30.2188 29.1094 22.2188
Q21.1875 15.5781 18.9375 13.2031
Q16.7031 10.8438 15.2344 8.45312
z
" id="ArialMT-32"/>
      </defs>
      <g style="fill:#262626;" transform="translate(90.4975 268.468125)scale(0.08 -0.08)">
       <use xlink:href="#ArialMT-32"/>
       <use x="55.615234375" xlink:href="#ArialMT-2e"/>
       <use x="83.3984375" xlink:href="#ArialMT-30"/>
      </g>
     </g>
    </g>
    <g id="ytick_5">
     <g id="line2d_28">
      <path clip-path="url(#pe8a5247557)" d="
M108 229.2
L777.6 229.2" style="fill:none;stroke:#ffffff;stroke-linecap:round;"/>
     </g>
     <g id="line2d_29">
      <g>
       <use style="fill:#262626;stroke:#262626;" x="108.0" xlink:href="#m219da94a98" y="229.2"/>
      </g>
     </g>
     <g id="line2d_30">
      <g>
       <use style="fill:#262626;stroke:#262626;" x="777.6" xlink:href="#m219da94a98" y="229.2"/>
      </g>
     </g>
     <g id="text_10">
      <!-- 2.2 -->
      <g style="fill:#262626;" transform="translate(90.53625 231.268125)scale(0.08 -0.08)">
       <use xlink:href="#ArialMT-32"/>
       <use x="55.615234375" xlink:href="#ArialMT-2e"/>
       <use x="83.3984375" xlink:href="#ArialMT-32"/>
      </g>
     </g>
    </g>
    <g id="ytick_6">
     <g id="line2d_31">
      <path clip-path="url(#pe8a5247557)" d="
M108 192
L777.6 192" style="fill:none;stroke:#ffffff;stroke-linecap:round;"/>
     </g>
     <g id="line2d_32">
      <g>
       <use style="fill:#262626;stroke:#262626;" x="108.0" xlink:href="#m219da94a98" y="192.0"/>
      </g>
     </g>
     <g id="line2d_33">
      <g>
       <use style="fill:#262626;stroke:#262626;" x="777.6" xlink:href="#m219da94a98" y="192.0"/>
      </g>
     </g>
     <g id="text_11">
      <!-- 2.4 -->
      <g style="fill:#262626;" transform="translate(90.50125 194.068125)scale(0.08 -0.08)">
       <use xlink:href="#ArialMT-32"/>
       <use x="55.615234375" xlink:href="#ArialMT-2e"/>
       <use x="83.3984375" xlink:href="#ArialMT-34"/>
      </g>
     </g>
    </g>
    <g id="ytick_7">
     <g id="line2d_34">
      <path clip-path="url(#pe8a5247557)" d="
M108 154.8
L777.6 154.8" style="fill:none;stroke:#ffffff;stroke-linecap:round;"/>
     </g>
     <g id="line2d_35">
      <g>
       <use style="fill:#262626;stroke:#262626;" x="108.0" xlink:href="#m219da94a98" y="154.8"/>
      </g>
     </g>
     <g id="line2d_36">
      <g>
       <use style="fill:#262626;stroke:#262626;" x="777.6" xlink:href="#m219da94a98" y="154.8"/>
      </g>
     </g>
     <g id="text_12">
      <!-- 2.6 -->
      <g style="fill:#262626;" transform="translate(90.48125 156.868125)scale(0.08 -0.08)">
       <use xlink:href="#ArialMT-32"/>
       <use x="55.615234375" xlink:href="#ArialMT-2e"/>
       <use x="83.3984375" xlink:href="#ArialMT-36"/>
      </g>
     </g>
    </g>
    <g id="ytick_8">
     <g id="line2d_37">
      <path clip-path="url(#pe8a5247557)" d="
M108 117.6
L777.6 117.6" style="fill:none;stroke:#ffffff;stroke-linecap:round;"/>
     </g>
     <g id="line2d_38">
      <g>
       <use style="fill:#262626;stroke:#262626;" x="108.0" xlink:href="#m219da94a98" y="117.6"/>
      </g>
     </g>
     <g id="line2d_39">
      <g>
       <use style="fill:#262626;stroke:#262626;" x="777.6" xlink:href="#m219da94a98" y="117.6"/>
      </g>
     </g>
     <g id="text_13">
      <!-- 2.8 -->
      <g style="fill:#262626;" transform="translate(90.46625 119.668125)scale(0.08 -0.08)">
       <use xlink:href="#ArialMT-32"/>
       <use x="55.615234375" xlink:href="#ArialMT-2e"/>
       <use x="83.3984375" xlink:href="#ArialMT-38"/>
      </g>
     </g>
    </g>
    <g id="ytick_9">
     <g id="line2d_40">
      <path clip-path="url(#pe8a5247557)" d="
M108 80.4
L777.6 80.4" style="fill:none;stroke:#ffffff;stroke-linecap:round;"/>
     </g>
     <g id="line2d_41">
      <g>
       <use style="fill:#262626;stroke:#262626;" x="108.0" xlink:href="#m219da94a98" y="80.4"/>
      </g>
     </g>
     <g id="line2d_42">
      <g>
       <use style="fill:#262626;stroke:#262626;" x="777.6" xlink:href="#m219da94a98" y="80.4"/>
      </g>
     </g>
     <g id="text_14">
      <!-- 3.0 -->
      <defs>
       <path d="
M4.20312 18.8906
L12.9844 20.0625
Q14.5 12.5938 18.1406 9.29688
Q21.7812 6 27 6
Q33.2031 6 37.4688 10.2969
Q41.75 14.5938 41.75 20.9531
Q41.75 27 37.7969 30.9219
Q33.8438 34.8594 27.7344 34.8594
Q25.25 34.8594 21.5312 33.8906
L22.5156 41.6094
Q23.3906 41.5 23.9219 41.5
Q29.5469 41.5 34.0312 44.4219
Q38.5312 47.3594 38.5312 53.4688
Q38.5312 58.2969 35.25 61.4688
Q31.9844 64.6562 26.8125 64.6562
Q21.6875 64.6562 18.2656 61.4219
Q14.8438 58.2031 13.875 51.7656
L5.07812 53.3281
Q6.6875 62.1562 12.3906 67.0156
Q18.1094 71.875 26.6094 71.875
Q32.4688 71.875 37.3906 69.3594
Q42.3281 66.8438 44.9375 62.5
Q47.5625 58.1562 47.5625 53.2656
Q47.5625 48.6406 45.0625 44.8281
Q42.5781 41.0156 37.7031 38.7656
Q44.0469 37.3125 47.5625 32.6875
Q51.0781 28.0781 51.0781 21.1406
Q51.0781 11.7656 44.2344 5.25
Q37.4062 -1.26562 26.9531 -1.26562
Q17.5312 -1.26562 11.2969 4.34375
Q5.07812 9.96875 4.20312 18.8906" id="ArialMT-33"/>
      </defs>
      <g style="fill:#262626;" transform="translate(90.59875 82.468125)scale(0.08 -0.08)">
       <use xlink:href="#ArialMT-33"/>
       <use x="55.615234375" xlink:href="#ArialMT-2e"/>
       <use x="83.3984375" xlink:href="#ArialMT-30"/>
      </g>
     </g>
    </g>
    <g id="ytick_10">
     <g id="line2d_43">
      <path clip-path="url(#pe8a5247557)" d="
M108 43.2
L777.6 43.2" style="fill:none;stroke:#ffffff;stroke-linecap:round;"/>
     </g>
     <g id="line2d_44">
      <g>
       <use style="fill:#262626;stroke:#262626;" x="108.0" xlink:href="#m219da94a98" y="43.2"/>
      </g>
     </g>
     <g id="line2d_45">
      <g>
       <use style="fill:#262626;stroke:#262626;" x="777.6" xlink:href="#m219da94a98" y="43.2"/>
      </g>
     </g>
     <g id="text_15">
      <!-- 3.2 -->
      <g style="fill:#262626;" transform="translate(90.6375 45.268125)scale(0.08 -0.08)">
       <use xlink:href="#ArialMT-33"/>
       <use x="55.615234375" xlink:href="#ArialMT-2e"/>
       <use x="83.3984375" xlink:href="#ArialMT-32"/>
      </g>
     </g>
    </g>
   </g>
   <g id="PolyCollection_1">
    <defs>
     <path d="
M228.475 -345.09
L210.725 -345.09
L210.415 -345.24
L210.101 -345.391
L209.781 -345.541
L209.456 -345.691
L209.126 -345.842
L208.789 -345.992
L208.446 -346.142
L208.097 -346.292
L207.741 -346.443
L207.378 -346.593
L207.01 -346.743
L206.634 -346.894
L206.253 -347.044
L205.865 -347.194
L205.472 -347.345
L205.074 -347.495
L204.672 -347.645
L204.265 -347.795
L203.855 -347.946
L203.443 -348.096
L203.03 -348.246
L202.616 -348.397
L202.202 -348.547
L201.79 -348.697
L201.381 -348.848
L200.976 -348.998
L200.575 -349.148
L200.181 -349.298
L199.793 -349.449
L199.413 -349.599
L199.042 -349.749
L198.681 -349.9
L198.33 -350.05
L197.99 -350.2
L197.662 -350.351
L197.346 -350.501
L197.042 -350.651
L196.751 -350.802
L196.472 -350.952
L196.206 -351.102
L195.952 -351.252
L195.71 -351.403
L195.48 -351.553
L195.261 -351.703
L195.052 -351.854
L194.853 -352.004
L194.663 -352.154
L194.481 -352.305
L194.307 -352.455
L194.14 -352.605
L193.979 -352.755
L193.823 -352.906
L193.672 -353.056
L193.525 -353.206
L193.382 -353.357
L193.242 -353.507
L193.105 -353.657
L192.97 -353.808
L192.839 -353.958
L192.711 -354.108
L192.586 -354.258
L192.466 -354.409
L192.35 -354.559
L192.24 -354.709
L192.136 -354.86
L192.04 -355.01
L191.952 -355.16
L191.876 -355.311
L191.81 -355.461
L191.759 -355.611
L191.722 -355.762
L191.702 -355.912
L191.7 -356.062
L191.718 -356.212
L191.758 -356.363
L191.821 -356.513
L191.909 -356.663
L192.023 -356.814
L192.164 -356.964
L192.334 -357.114
L192.533 -357.265
L192.763 -357.415
L193.023 -357.565
L193.315 -357.715
L193.637 -357.866
L193.991 -358.016
L194.376 -358.166
L194.791 -358.317
L195.236 -358.467
L195.709 -358.617
L196.21 -358.768
L196.737 -358.918
L197.288 -359.068
L197.862 -359.218
L198.457 -359.369
L199.071 -359.519
L199.701 -359.669
L200.346 -359.82
L201.003 -359.97
L238.197 -359.97
L238.197 -359.97
L238.854 -359.82
L239.499 -359.669
L240.129 -359.519
L240.743 -359.369
L241.338 -359.218
L241.912 -359.068
L242.463 -358.918
L242.99 -358.768
L243.491 -358.617
L243.964 -358.467
L244.409 -358.317
L244.824 -358.166
L245.209 -358.016
L245.563 -357.866
L245.885 -357.715
L246.177 -357.565
L246.437 -357.415
L246.667 -357.265
L246.866 -357.114
L247.036 -356.964
L247.177 -356.814
L247.291 -356.663
L247.379 -356.513
L247.442 -356.363
L247.482 -356.212
L247.5 -356.062
L247.498 -355.912
L247.478 -355.762
L247.441 -355.611
L247.39 -355.461
L247.324 -355.311
L247.248 -355.16
L247.16 -355.01
L247.064 -354.86
L246.96 -354.709
L246.85 -354.559
L246.734 -354.409
L246.614 -354.258
L246.489 -354.108
L246.361 -353.958
L246.23 -353.808
L246.095 -353.657
L245.958 -353.507
L245.818 -353.357
L245.675 -353.206
L245.528 -353.056
L245.377 -352.906
L245.221 -352.755
L245.06 -352.605
L244.893 -352.455
L244.719 -352.305
L244.537 -352.154
L244.347 -352.004
L244.148 -351.854
L243.939 -351.703
L243.72 -351.553
L243.49 -351.403
L243.248 -351.252
L242.994 -351.102
L242.728 -350.952
L242.449 -350.802
L242.158 -350.651
L241.854 -350.501
L241.538 -350.351
L241.21 -350.2
L240.87 -350.05
L240.519 -349.9
L240.158 -349.749
L239.787 -349.599
L239.407 -349.449
L239.019 -349.298
L238.625 -349.148
L238.224 -348.998
L237.819 -348.848
L237.41 -348.697
L236.998 -348.547
L236.584 -348.397
L236.17 -348.246
L235.757 -348.096
L235.345 -347.946
L234.935 -347.795
L234.528 -347.645
L234.126 -347.495
L233.728 -347.345
L233.335 -347.194
L232.947 -347.044
L232.566 -346.894
L232.19 -346.743
L231.822 -346.593
L231.459 -346.443
L231.103 -346.292
L230.754 -346.142
L230.411 -345.992
L230.074 -345.842
L229.744 -345.691
L229.419 -345.541
L229.099 -345.391
L228.785 -345.24
L228.475 -345.09
z
" id="m9acc8164f8" style="stroke:#000000;stroke-opacity:0.3;stroke-width:0.3;"/>
    </defs>
    <g clip-path="url(#pe8a5247557)">
     <use style="fill:#bfbf00;fill-opacity:0.3;stroke:#000000;stroke-opacity:0.3;stroke-width:0.3;" x="0.0" xlink:href="#m9acc8164f8" y="432.0"/>
    </g>
   </g>
   <g id="PolyCollection_2">
    <defs>
     <path d="
M337.57 -208.845
L324.83 -208.845
L324.63 -209.132
L324.432 -209.418
L324.234 -209.705
L324.035 -209.991
L323.835 -210.278
L323.632 -210.564
L323.426 -210.851
L323.216 -211.137
L323.001 -211.424
L322.778 -211.71
L322.549 -211.997
L322.31 -212.283
L322.062 -212.57
L321.802 -212.856
L321.53 -213.143
L321.244 -213.429
L320.945 -213.716
L320.629 -214.002
L320.298 -214.289
L319.949 -214.575
L319.582 -214.862
L319.197 -215.148
L318.793 -215.435
L318.369 -215.721
L317.926 -216.008
L317.462 -216.294
L316.979 -216.581
L316.477 -216.867
L315.956 -217.154
L315.417 -217.44
L314.86 -217.727
L314.288 -218.013
L313.701 -218.3
L313.101 -218.587
L312.49 -218.873
L311.872 -219.16
L311.247 -219.446
L310.621 -219.733
L309.994 -220.019
L309.372 -220.306
L308.757 -220.592
L308.154 -220.879
L307.567 -221.165
L307 -221.452
L306.458 -221.738
L305.945 -222.025
L305.465 -222.311
L305.023 -222.598
L304.623 -222.884
L304.269 -223.171
L303.965 -223.457
L303.714 -223.744
L303.52 -224.03
L303.385 -224.317
L303.311 -224.603
L303.3 -224.89
L303.353 -225.176
L303.471 -225.463
L303.653 -225.749
L303.899 -226.036
L304.207 -226.322
L304.575 -226.609
L305.001 -226.895
L305.482 -227.182
L306.013 -227.468
L306.591 -227.755
L307.211 -228.042
L307.869 -228.328
L308.559 -228.615
L309.275 -228.901
L310.013 -229.188
L310.767 -229.474
L311.531 -229.761
L312.3 -230.047
L313.069 -230.334
L313.833 -230.62
L314.587 -230.907
L315.328 -231.193
L316.051 -231.48
L316.753 -231.766
L317.431 -232.053
L318.083 -232.339
L318.707 -232.626
L319.301 -232.912
L319.865 -233.199
L320.399 -233.485
L320.902 -233.772
L321.374 -234.058
L321.818 -234.345
L322.233 -234.631
L322.621 -234.918
L322.984 -235.204
L323.324 -235.491
L323.643 -235.777
L323.943 -236.064
L324.225 -236.35
L324.492 -236.637
L324.746 -236.923
L324.989 -237.21
L337.411 -237.21
L337.411 -237.21
L337.654 -236.923
L337.908 -236.637
L338.175 -236.35
L338.457 -236.064
L338.757 -235.777
L339.076 -235.491
L339.416 -235.204
L339.779 -234.918
L340.167 -234.631
L340.582 -234.345
L341.026 -234.058
L341.498 -233.772
L342.001 -233.485
L342.535 -233.199
L343.099 -232.912
L343.693 -232.626
L344.317 -232.339
L344.969 -232.053
L345.647 -231.766
L346.349 -231.48
L347.072 -231.193
L347.813 -230.907
L348.567 -230.62
L349.331 -230.334
L350.1 -230.047
L350.869 -229.761
L351.633 -229.474
L352.387 -229.188
L353.125 -228.901
L353.841 -228.615
L354.531 -228.328
L355.189 -228.042
L355.809 -227.755
L356.387 -227.468
L356.918 -227.182
L357.399 -226.895
L357.825 -226.609
L358.193 -226.322
L358.501 -226.036
L358.747 -225.749
L358.929 -225.463
L359.047 -225.176
L359.1 -224.89
L359.089 -224.603
L359.015 -224.317
L358.88 -224.03
L358.686 -223.744
L358.435 -223.457
L358.131 -223.171
L357.777 -222.884
L357.377 -222.598
L356.935 -222.311
L356.455 -222.025
L355.942 -221.738
L355.4 -221.452
L354.833 -221.165
L354.246 -220.879
L353.643 -220.592
L353.028 -220.306
L352.406 -220.019
L351.779 -219.733
L351.153 -219.446
L350.528 -219.16
L349.91 -218.873
L349.299 -218.587
L348.699 -218.3
L348.112 -218.013
L347.54 -217.727
L346.983 -217.44
L346.444 -217.154
L345.923 -216.867
L345.421 -216.581
L344.938 -216.294
L344.474 -216.008
L344.031 -215.721
L343.607 -215.435
L343.203 -215.148
L342.818 -214.862
L342.451 -214.575
L342.102 -214.289
L341.771 -214.002
L341.455 -213.716
L341.156 -213.429
L340.87 -213.143
L340.598 -212.856
L340.338 -212.57
L340.09 -212.283
L339.851 -211.997
L339.622 -211.71
L339.399 -211.424
L339.184 -211.137
L338.974 -210.851
L338.768 -210.564
L338.565 -210.278
L338.365 -209.991
L338.166 -209.705
L337.968 -209.418
L337.77 -209.132
L337.57 -208.845
z
" id="m7008044007" style="stroke:#000000;stroke-opacity:0.3;stroke-width:0.3;"/>
    </defs>
    <g clip-path="url(#pe8a5247557)">
     <use style="fill:#bfbf00;fill-opacity:0.3;stroke:#000000;stroke-opacity:0.3;stroke-width:0.3;" x="0.0" xlink:href="#m7008044007" y="432.0"/>
    </g>
   </g>
   <g id="PolyCollection_3">
    <defs>
     <path d="
M454.119 -207.683
L431.481 -207.683
L431.094 -207.854
L430.705 -208.025
L430.31 -208.197
L429.909 -208.368
L429.5 -208.54
L429.082 -208.711
L428.654 -208.883
L428.214 -209.054
L427.762 -209.225
L427.296 -209.397
L426.815 -209.568
L426.319 -209.74
L425.808 -209.911
L425.282 -210.083
L424.741 -210.254
L424.186 -210.426
L423.619 -210.597
L423.041 -210.768
L422.455 -210.94
L421.863 -211.111
L421.268 -211.283
L420.675 -211.454
L420.086 -211.626
L419.506 -211.797
L418.939 -211.968
L418.391 -212.14
L417.865 -212.311
L417.367 -212.483
L416.902 -212.654
L416.475 -212.826
L416.09 -212.997
L415.752 -213.169
L415.465 -213.34
L415.233 -213.511
L415.06 -213.683
L414.948 -213.854
L414.9 -214.026
L414.918 -214.197
L415.002 -214.369
L415.154 -214.54
L415.374 -214.712
L415.661 -214.883
L416.013 -215.054
L416.429 -215.226
L416.905 -215.397
L417.44 -215.569
L418.029 -215.74
L418.669 -215.912
L419.354 -216.083
L420.08 -216.254
L420.841 -216.426
L421.633 -216.597
L422.449 -216.769
L423.285 -216.94
L424.134 -217.112
L424.991 -217.283
L425.85 -217.455
L426.706 -217.626
L427.554 -217.797
L428.388 -217.969
L429.206 -218.14
L430.001 -218.312
L430.771 -218.483
L431.512 -218.655
L432.221 -218.826
L432.895 -218.998
L433.532 -219.169
L434.131 -219.34
L434.691 -219.512
L435.209 -219.683
L435.687 -219.855
L436.123 -220.026
L436.519 -220.198
L436.875 -220.369
L437.191 -220.54
L437.47 -220.712
L437.712 -220.883
L437.92 -221.055
L438.096 -221.226
L438.241 -221.398
L438.359 -221.569
L438.45 -221.741
L438.519 -221.912
L438.568 -222.083
L438.599 -222.255
L438.615 -222.426
L438.618 -222.598
L438.612 -222.769
L438.598 -222.941
L438.579 -223.112
L438.557 -223.283
L438.535 -223.455
L438.514 -223.626
L438.497 -223.798
L438.484 -223.969
L438.477 -224.141
L438.478 -224.312
L438.488 -224.484
L438.507 -224.655
L447.093 -224.655
L447.093 -224.655
L447.112 -224.484
L447.122 -224.312
L447.123 -224.141
L447.116 -223.969
L447.103 -223.798
L447.086 -223.626
L447.065 -223.455
L447.043 -223.283
L447.021 -223.112
L447.002 -222.941
L446.988 -222.769
L446.982 -222.598
L446.985 -222.426
L447.001 -222.255
L447.032 -222.083
L447.081 -221.912
L447.15 -221.741
L447.241 -221.569
L447.359 -221.398
L447.504 -221.226
L447.68 -221.055
L447.888 -220.883
L448.13 -220.712
L448.409 -220.54
L448.725 -220.369
L449.081 -220.198
L449.477 -220.026
L449.913 -219.855
L450.391 -219.683
L450.909 -219.512
L451.469 -219.34
L452.068 -219.169
L452.705 -218.998
L453.379 -218.826
L454.088 -218.655
L454.829 -218.483
L455.599 -218.312
L456.394 -218.14
L457.212 -217.969
L458.046 -217.797
L458.894 -217.626
L459.75 -217.455
L460.609 -217.283
L461.466 -217.112
L462.315 -216.94
L463.151 -216.769
L463.967 -216.597
L464.759 -216.426
L465.52 -216.254
L466.246 -216.083
L466.931 -215.912
L467.571 -215.74
L468.16 -215.569
L468.695 -215.397
L469.171 -215.226
L469.587 -215.054
L469.939 -214.883
L470.226 -214.712
L470.446 -214.54
L470.598 -214.369
L470.682 -214.197
L470.7 -214.026
L470.652 -213.854
L470.54 -213.683
L470.367 -213.511
L470.135 -213.34
L469.848 -213.169
L469.51 -212.997
L469.125 -212.826
L468.698 -212.654
L468.233 -212.483
L467.735 -212.311
L467.209 -212.14
L466.661 -211.968
L466.094 -211.797
L465.514 -211.626
L464.925 -211.454
L464.332 -211.283
L463.737 -211.111
L463.145 -210.94
L462.559 -210.768
L461.981 -210.597
L461.414 -210.426
L460.859 -210.254
L460.318 -210.083
L459.792 -209.911
L459.281 -209.74
L458.785 -209.568
L458.304 -209.397
L457.838 -209.225
L457.386 -209.054
L456.946 -208.883
L456.518 -208.711
L456.1 -208.54
L455.691 -208.368
L455.29 -208.197
L454.895 -208.025
L454.506 -207.854
L454.119 -207.683
z
" id="ma3aa319cd8" style="stroke:#000000;stroke-opacity:0.3;stroke-width:0.3;"/>
    </defs>
    <g clip-path="url(#pe8a5247557)">
     <use style="fill:#bfbf00;fill-opacity:0.3;stroke:#000000;stroke-opacity:0.3;stroke-width:0.3;" x="0.0" xlink:href="#ma3aa319cd8" y="432.0"/>
    </g>
   </g>
   <g id="PolyCollection_4">
    <defs>
     <path d="
M558.082 -197.453
L550.718 -197.453
L550.711 -197.549
L550.718 -197.645
L550.736 -197.741
L550.765 -197.838
L550.802 -197.934
L550.847 -198.03
L550.897 -198.127
L550.949 -198.223
L551.001 -198.319
L551.051 -198.415
L551.093 -198.512
L551.127 -198.608
L551.147 -198.704
L551.151 -198.801
L551.134 -198.897
L551.094 -198.993
L551.025 -199.089
L550.924 -199.186
L550.788 -199.282
L550.613 -199.378
L550.395 -199.475
L550.131 -199.571
L549.818 -199.667
L549.454 -199.763
L549.036 -199.86
L548.562 -199.956
L548.031 -200.052
L547.443 -200.149
L546.797 -200.245
L546.094 -200.341
L545.336 -200.437
L544.524 -200.534
L543.661 -200.63
L542.753 -200.726
L541.802 -200.823
L540.816 -200.919
L539.8 -201.015
L538.761 -201.111
L537.708 -201.208
L536.65 -201.304
L535.595 -201.4
L534.553 -201.497
L533.534 -201.593
L532.549 -201.689
L531.607 -201.785
L530.718 -201.882
L529.893 -201.978
L529.14 -202.074
L528.468 -202.171
L527.885 -202.267
L527.397 -202.363
L527.011 -202.459
L526.731 -202.556
L526.56 -202.652
L526.5 -202.748
L526.552 -202.845
L526.714 -202.941
L526.984 -203.037
L527.36 -203.133
L527.835 -203.23
L528.403 -203.326
L529.058 -203.422
L529.791 -203.519
L530.593 -203.615
L531.454 -203.711
L532.365 -203.808
L533.316 -203.904
L534.295 -204
L535.293 -204.096
L536.299 -204.193
L537.305 -204.289
L538.3 -204.385
L539.277 -204.482
L540.227 -204.578
L541.144 -204.674
L542.022 -204.77
L542.857 -204.867
L543.643 -204.963
L544.379 -205.059
L545.061 -205.156
L545.69 -205.252
L546.265 -205.348
L546.787 -205.444
L547.256 -205.541
L547.676 -205.637
L548.048 -205.733
L548.376 -205.83
L548.664 -205.926
L548.914 -206.022
L549.132 -206.118
L549.321 -206.215
L549.485 -206.311
L549.629 -206.407
L549.756 -206.504
L549.87 -206.6
L549.974 -206.696
L550.072 -206.792
L550.167 -206.889
L550.261 -206.985
L558.539 -206.985
L558.539 -206.985
L558.633 -206.889
L558.728 -206.792
L558.826 -206.696
L558.93 -206.6
L559.044 -206.504
L559.171 -206.407
L559.315 -206.311
L559.479 -206.215
L559.668 -206.118
L559.886 -206.022
L560.136 -205.926
L560.424 -205.83
L560.752 -205.733
L561.124 -205.637
L561.544 -205.541
L562.013 -205.444
L562.535 -205.348
L563.11 -205.252
L563.739 -205.156
L564.421 -205.059
L565.157 -204.963
L565.943 -204.867
L566.778 -204.77
L567.656 -204.674
L568.573 -204.578
L569.523 -204.482
L570.5 -204.385
L571.495 -204.289
L572.501 -204.193
L573.507 -204.096
L574.505 -204
L575.484 -203.904
L576.435 -203.808
L577.346 -203.711
L578.207 -203.615
L579.009 -203.519
L579.742 -203.422
L580.397 -203.326
L580.965 -203.23
L581.44 -203.133
L581.816 -203.037
L582.086 -202.941
L582.248 -202.845
L582.3 -202.748
L582.24 -202.652
L582.069 -202.556
L581.789 -202.459
L581.403 -202.363
L580.915 -202.267
L580.332 -202.171
L579.66 -202.074
L578.907 -201.978
L578.082 -201.882
L577.193 -201.785
L576.251 -201.689
L575.266 -201.593
L574.247 -201.497
L573.205 -201.4
L572.15 -201.304
L571.092 -201.208
L570.039 -201.111
L569 -201.015
L567.984 -200.919
L566.998 -200.823
L566.047 -200.726
L565.139 -200.63
L564.276 -200.534
L563.464 -200.437
L562.706 -200.341
L562.003 -200.245
L561.357 -200.149
L560.769 -200.052
L560.238 -199.956
L559.764 -199.86
L559.346 -199.763
L558.982 -199.667
L558.669 -199.571
L558.405 -199.475
L558.187 -199.378
L558.012 -199.282
L557.876 -199.186
L557.775 -199.089
L557.706 -198.993
L557.666 -198.897
L557.649 -198.801
L557.653 -198.704
L557.673 -198.608
L557.707 -198.512
L557.749 -198.415
L557.799 -198.319
L557.851 -198.223
L557.903 -198.127
L557.953 -198.03
L557.998 -197.934
L558.035 -197.838
L558.064 -197.741
L558.082 -197.645
L558.089 -197.549
L558.082 -197.453
z
" id="ma825b8d41e" style="stroke:#000000;stroke-opacity:0.3;stroke-width:0.3;"/>
    </defs>
    <g clip-path="url(#pe8a5247557)">
     <use style="fill:#bfbf00;fill-opacity:0.3;stroke:#000000;stroke-opacity:0.3;stroke-width:0.3;" x="0.0" xlink:href="#ma825b8d41e" y="432.0"/>
    </g>
   </g>
   <g id="PolyCollection_5">
    <defs>
     <path d="
M675.585 -69.81
L656.415 -69.81
L656.153 -69.9016
L655.898 -69.9932
L655.648 -70.0848
L655.405 -70.1764
L655.169 -70.268
L654.938 -70.3595
L654.713 -70.4511
L654.494 -70.5427
L654.28 -70.6343
L654.07 -70.7259
L653.864 -70.8175
L653.662 -70.9091
L653.462 -71.0007
L653.264 -71.0923
L653.067 -71.1839
L652.87 -71.2755
L652.671 -71.367
L652.472 -71.4586
L652.269 -71.5502
L652.063 -71.6418
L651.852 -71.7334
L651.636 -71.825
L651.414 -71.9166
L651.186 -72.0082
L650.949 -72.0998
L650.705 -72.1914
L650.451 -72.283
L650.189 -72.3745
L649.917 -72.4661
L649.634 -72.5577
L649.342 -72.6493
L649.04 -72.7409
L648.727 -72.8325
L648.404 -72.9241
L648.071 -73.0157
L647.729 -73.1073
L647.377 -73.1989
L647.017 -73.2905
L646.648 -73.382
L646.272 -73.4736
L645.889 -73.5652
L645.5 -73.6568
L645.107 -73.7484
L644.71 -73.84
L644.311 -73.9316
L643.91 -74.0232
L643.51 -74.1148
L643.112 -74.2064
L642.717 -74.298
L642.326 -74.3895
L641.942 -74.4811
L641.567 -74.5727
L641.201 -74.6643
L640.847 -74.7559
L640.507 -74.8475
L640.182 -74.9391
L639.874 -75.0307
L639.585 -75.1223
L639.317 -75.2139
L639.072 -75.3055
L638.851 -75.397
L638.655 -75.4886
L638.487 -75.5802
L638.348 -75.6718
L638.238 -75.7634
L638.16 -75.855
L638.113 -75.9466
L638.1 -76.0382
L638.12 -76.1298
L638.175 -76.2214
L638.264 -76.313
L638.387 -76.4045
L638.546 -76.4961
L638.738 -76.5877
L638.965 -76.6793
L639.226 -76.7709
L639.519 -76.8625
L639.844 -76.9541
L640.199 -77.0457
L640.584 -77.1373
L640.998 -77.2289
L641.438 -77.3205
L641.904 -77.412
L642.393 -77.5036
L642.904 -77.5952
L643.434 -77.6868
L643.983 -77.7784
L644.549 -77.87
L645.128 -77.9616
L645.72 -78.0532
L646.322 -78.1448
L646.933 -78.2364
L647.55 -78.328
L648.172 -78.4195
L648.798 -78.5111
L649.424 -78.6027
L650.05 -78.6943
L650.674 -78.7859
L651.295 -78.8775
L680.705 -78.8775
L680.705 -78.8775
L681.326 -78.7859
L681.95 -78.6943
L682.576 -78.6027
L683.202 -78.5111
L683.828 -78.4195
L684.45 -78.328
L685.067 -78.2364
L685.678 -78.1448
L686.28 -78.0532
L686.872 -77.9616
L687.451 -77.87
L688.017 -77.7784
L688.566 -77.6868
L689.096 -77.5952
L689.607 -77.5036
L690.096 -77.412
L690.562 -77.3205
L691.002 -77.2289
L691.416 -77.1373
L691.801 -77.0457
L692.156 -76.9541
L692.481 -76.8625
L692.774 -76.7709
L693.035 -76.6793
L693.262 -76.5877
L693.454 -76.4961
L693.613 -76.4045
L693.736 -76.313
L693.825 -76.2214
L693.88 -76.1298
L693.9 -76.0382
L693.887 -75.9466
L693.84 -75.855
L693.762 -75.7634
L693.652 -75.6718
L693.513 -75.5802
L693.345 -75.4886
L693.149 -75.397
L692.928 -75.3055
L692.683 -75.2139
L692.415 -75.1223
L692.126 -75.0307
L691.818 -74.9391
L691.493 -74.8475
L691.153 -74.7559
L690.799 -74.6643
L690.433 -74.5727
L690.058 -74.4811
L689.674 -74.3895
L689.283 -74.298
L688.888 -74.2064
L688.49 -74.1148
L688.09 -74.0232
L687.689 -73.9316
L687.29 -73.84
L686.893 -73.7484
L686.5 -73.6568
L686.111 -73.5652
L685.728 -73.4736
L685.352 -73.382
L684.983 -73.2905
L684.623 -73.1989
L684.271 -73.1073
L683.929 -73.0157
L683.596 -72.9241
L683.273 -72.8325
L682.96 -72.7409
L682.658 -72.6493
L682.366 -72.5577
L682.083 -72.4661
L681.811 -72.3745
L681.549 -72.283
L681.295 -72.1914
L681.051 -72.0998
L680.814 -72.0082
L680.586 -71.9166
L680.364 -71.825
L680.148 -71.7334
L679.937 -71.6418
L679.731 -71.5502
L679.528 -71.4586
L679.329 -71.367
L679.13 -71.2755
L678.933 -71.1839
L678.736 -71.0923
L678.538 -71.0007
L678.338 -70.9091
L678.136 -70.8175
L677.93 -70.7259
L677.72 -70.6343
L677.506 -70.5427
L677.287 -70.4511
L677.062 -70.3595
L676.831 -70.268
L676.595 -70.1764
L676.352 -70.0848
L676.102 -69.9932
L675.847 -69.9016
L675.585 -69.81
z
" id="mfcc7ee95c6" style="stroke:#000000;stroke-opacity:0.3;stroke-width:0.3;"/>
    </defs>
    <g clip-path="url(#pe8a5247557)">
     <use style="fill:#bfbf00;fill-opacity:0.3;stroke:#000000;stroke-opacity:0.3;stroke-width:0.3;" x="0.0" xlink:href="#mfcc7ee95c6" y="432.0"/>
    </g>
   </g>
   <g id="LineCollection_1">
    <defs>
     <path d="
M205.65 -353.925
L233.55 -353.925" id="C0_0_9b1e0718f9"/>
     <path d="
M317.25 -224.423
L345.15 -224.423" id="C0_1_338bdfb658"/>
     <path d="
M428.85 -214.309
L456.75 -214.309" id="C0_2_0413bbf798"/>
     <path d="
M540.45 -202.8
L568.35 -202.8" id="C0_3_243e711dca"/>
     <path d="
M652.05 -75.7387
L679.95 -75.7387" id="C0_4_0c8d9c56f2"/>
    </defs>
    <g clip-path="url(#pe8a5247557)">
     <use style="fill:none;stroke:#ff0000;stroke-width:1.75;" x="0.0" xlink:href="#C0_0_9b1e0718f9" y="432.0"/>
    </g>
    <g clip-path="url(#pe8a5247557)">
     <use style="fill:none;stroke:#ff0000;stroke-width:1.75;" x="0.0" xlink:href="#C0_1_338bdfb658" y="432.0"/>
    </g>
    <g clip-path="url(#pe8a5247557)">
     <use style="fill:none;stroke:#ff0000;stroke-width:1.75;" x="0.0" xlink:href="#C0_2_0413bbf798" y="432.0"/>
    </g>
    <g clip-path="url(#pe8a5247557)">
     <use style="fill:none;stroke:#ff0000;stroke-width:1.75;" x="0.0" xlink:href="#C0_3_243e711dca" y="432.0"/>
    </g>
    <g clip-path="url(#pe8a5247557)">
     <use style="fill:none;stroke:#ff0000;stroke-width:1.75;" x="0.0" xlink:href="#C0_4_0c8d9c56f2" y="432.0"/>
    </g>
   </g>
   <g id="patch_3">
    <path d="
M108 43.2
L777.6 43.2" style="fill:none;"/>
   </g>
   <g id="patch_4">
    <path d="
M777.6 378
L777.6 43.2" style="fill:none;"/>
   </g>
   <g id="patch_5">
    <path d="
M108 378
L777.6 378" style="fill:none;"/>
   </g>
   <g id="patch_6">
    <path d="
M108 378
L108 43.2" style="fill:none;"/>
   </g>
   <g id="text_16">
    <!-- Mean score per stage game over 200 turns repeated 10 times (5 strategies) -->
    <defs>
     <path d="
M4.98438 -4.29688
L13.5312 -5.5625
Q14.0625 -9.51562 16.5 -11.3281
Q19.7812 -13.7656 25.4375 -13.7656
Q31.5469 -13.7656 34.8594 -11.3281
Q38.1875 -8.89062 39.3594 -4.5
Q40.0469 -1.8125 39.9844 6.78125
Q34.2344 0 25.6406 0
Q14.9375 0 9.07812 7.71875
Q3.21875 15.4375 3.21875 26.2188
Q3.21875 33.6406 5.90625 39.9062
Q8.59375 46.1875 13.6875 49.6094
Q18.7969 53.0312 25.6875 53.0312
Q34.8594 53.0312 40.8281 45.6094
L40.8281 51.8594
L48.9219 51.8594
L48.9219 7.03125
Q48.9219 -5.07812 46.4531 -10.125
Q44 -15.1875 38.6406 -18.1094
Q33.2969 -21.0469 25.4844 -21.0469
Q16.2188 -21.0469 10.5 -16.875
Q4.78125 -12.7031 4.98438 -4.29688
M12.25 26.8594
Q12.25 16.6562 16.2969 11.9688
Q20.3594 7.28125 26.4688 7.28125
Q32.5156 7.28125 36.6094 11.9375
Q40.7188 16.6094 40.7188 26.5625
Q40.7188 36.0781 36.5 40.9062
Q32.2812 45.75 26.3125 45.75
Q20.4531 45.75 16.3438 40.9844
Q12.25 36.2344 12.25 26.8594" id="ArialMT-67"/>
     <path d="
M40.5781 0
L40.5781 7.625
Q34.5156 -1.17188 24.125 -1.17188
Q19.5312 -1.17188 15.5469 0.578125
Q11.5781 2.34375 9.64062 5
Q7.71875 7.67188 6.9375 11.5312
Q6.39062 14.1094 6.39062 19.7344
L6.39062 51.8594
L15.1875 51.8594
L15.1875 23.0938
Q15.1875 16.2188 15.7188 13.8125
Q16.5469 10.3594 19.2344 8.375
Q21.9219 6.39062 25.875 6.39062
Q29.8281 6.39062 33.2969 8.42188
Q36.7656 10.4531 38.2031 13.9375
Q39.6562 17.4375 39.6562 24.0781
L39.6562 51.8594
L48.4375 51.8594
L48.4375 0
z
" id="ArialMT-75"/>
     <path d="
M21 0
L1.26562 51.8594
L10.5469 51.8594
L21.6875 20.7969
Q23.4844 15.7656 25 10.3594
Q26.1719 14.4531 28.2656 20.2188
L39.7969 51.8594
L48.8281 51.8594
L29.2031 0
z
" id="ArialMT-76"/>
     <path d="
M3.07812 15.4844
L11.7656 16.8438
Q12.5 11.625 15.8438 8.84375
Q19.1875 6.0625 25.2031 6.0625
Q31.25 6.0625 34.1719 8.51562
Q37.1094 10.9844 37.1094 14.3125
Q37.1094 17.2812 34.5156 19
Q32.7188 20.1719 25.5312 21.9688
Q15.875 24.4219 12.1406 26.2031
Q8.40625 27.9844 6.46875 31.125
Q4.54688 34.2812 4.54688 38.0938
Q4.54688 41.5469 6.125 44.5
Q7.71875 47.4688 10.4531 49.4219
Q12.5 50.9219 16.0312 51.9688
Q19.5781 53.0312 23.6406 53.0312
Q29.7344 53.0312 34.3438 51.2656
Q38.9688 49.5156 41.1562 46.5
Q43.3594 43.5 44.1875 38.4844
L35.5938 37.3125
Q35.0156 41.3125 32.2031 43.5469
Q29.3906 45.7969 24.2656 45.7969
Q18.2188 45.7969 15.625 43.7969
Q13.0312 41.7969 13.0312 39.1094
Q13.0312 37.4062 14.1094 36.0312
Q15.1875 34.625 17.4844 33.6875
Q18.7969 33.2031 25.25 31.4531
Q34.5781 28.9531 38.25 27.3594
Q41.9375 25.7812 44.0312 22.75
Q46.1406 19.7344 46.1406 15.2344
Q46.1406 10.8438 43.5781 6.95312
Q41.0156 3.07812 36.1719 0.953125
Q31.3438 -1.17188 25.25 -1.17188
Q15.1406 -1.17188 9.84375 3.03125
Q4.54688 7.23438 3.07812 15.4844" id="ArialMT-73"/>
     <path d="
M12.3594 -21.0469
L6.0625 -21.0469
Q20.6562 2.39062 20.6562 25.875
Q20.6562 35.0625 18.5625 44.0938
Q16.8906 51.4219 13.9219 58.1562
Q12.0156 62.5469 6.0625 72.7969
L12.3594 72.7969
Q21.5312 60.5469 25.9219 48.1875
Q29.6875 37.5469 29.6875 25.9219
Q29.6875 12.75 24.625 0.4375
Q19.5781 -11.8594 12.3594 -21.0469" id="ArialMT-29"/>
     <path d="
M23.3906 -21.0469
Q16.1094 -11.8594 11.0781 0.4375
Q6.0625 12.75 6.0625 25.9219
Q6.0625 37.5469 9.8125 48.1875
Q14.2031 60.5469 23.3906 72.7969
L29.6875 72.7969
Q23.7812 62.6406 21.875 58.2969
Q18.8906 51.5625 17.1875 44.2344
Q15.0938 35.1094 15.0938 25.875
Q15.0938 2.39062 29.6875 -21.0469
z
" id="ArialMT-28"/>
     <path d="
M7.42188 0
L7.42188 71.5781
L21.6875 71.5781
L38.625 20.9062
Q40.9688 13.8125 42.0469 10.2969
Q43.2656 14.2031 45.8438 21.7812
L62.9844 71.5781
L75.7344 71.5781
L75.7344 0
L66.6094 0
L66.6094 59.9062
L45.7969 0
L37.25 0
L16.5469 60.9375
L16.5469 0
z
" id="ArialMT-4d"/>
    </defs>
    <g style="fill:#262626;" transform="translate(241.9275 38.2)scale(0.12 -0.12)">
     <use xlink:href="#ArialMT-4d"/>
     <use x="83.30078125" xlink:href="#ArialMT-65"/>
     <use x="138.916015625" xlink:href="#ArialMT-61"/>
     <use x="194.53125" xlink:href="#ArialMT-6e"/>
     <use x="250.146484375" xlink:href="#ArialMT-20"/>
     <use x="277.9296875" xlink:href="#ArialMT-73"/>
     <use x="327.9296875" xlink:href="#ArialMT-63"/>
     <use x="377.9296875" xlink:href="#ArialMT-6f"/>
     <use x="433.544921875" xlink:href="#ArialMT-72"/>
     <use x="466.845703125" xlink:href="#ArialMT-65"/>
     <use x="522.4609375" xlink:href="#ArialMT-20"/>
     <use x="550.244140625" xlink:href="#ArialMT-70"/>
     <use x="605.859375" xlink:href="#ArialMT-65"/>
     <use x="661.474609375" xlink:href="#ArialMT-72"/>
     <use x="694.775390625" xlink:href="#ArialMT-20"/>
     <use x="722.55859375" xlink:href="#ArialMT-73"/>
     <use x="772.55859375" xlink:href="#ArialMT-74"/>
     <use x="800.341796875" xlink:href="#ArialMT-61"/>
     <use x="855.95703125" xlink:href="#ArialMT-67"/>
     <use x="911.572265625" xlink:href="#ArialMT-65"/>
     <use x="967.1875" xlink:href="#ArialMT-20"/>
     <use x="994.970703125" xlink:href="#ArialMT-67"/>
     <use x="1050.5859375" xlink:href="#ArialMT-61"/>
     <use x="1106.20117188" xlink:href="#ArialMT-6d"/>
     <use x="1189.50195312" xlink:href="#ArialMT-65"/>
     <use x="1245.1171875" xlink:href="#ArialMT-20"/>
     <use x="1272.90039062" xlink:href="#ArialMT-6f"/>
     <use x="1328.515625" xlink:href="#ArialMT-76"/>
     <use x="1378.515625" xlink:href="#ArialMT-65"/>
     <use x="1434.13085938" xlink:href="#ArialMT-72"/>
     <use x="1467.43164062" xlink:href="#ArialMT-20"/>
     <use x="1495.21484375" xlink:href="#ArialMT-32"/>
     <use x="1550.83007812" xlink:href="#ArialMT-30"/>
     <use x="1606.4453125" xlink:href="#ArialMT-30"/>
     <use x="1662.06054688" xlink:href="#ArialMT-20"/>
     <use x="1689.84375" xlink:href="#ArialMT-74"/>
     <use x="1717.62695312" xlink:href="#ArialMT-75"/>
     <use x="1773.2421875" xlink:href="#ArialMT-72"/>
     <use x="1806.54296875" xlink:href="#ArialMT-6e"/>
     <use x="1862.15820312" xlink:href="#ArialMT-73"/>
     <use x="1912.15820312" xlink:href="#ArialMT-20"/>
     <use x="1939.94140625" xlink:href="#ArialMT-72"/>
     <use x="1973.2421875" xlink:href="#ArialMT-65"/>
     <use x="2028.85742188" xlink:href="#ArialMT-70"/>
     <use x="2084.47265625" xlink:href="#ArialMT-65"/>
     <use x="2140.08789062" xlink:href="#ArialMT-61"/>
     <use x="2195.703125" xlink:href="#ArialMT-74"/>
     <use x="2223.48632812" xlink:href="#ArialMT-65"/>
     <use x="2279.1015625" xlink:href="#ArialMT-64"/>
     <use x="2334.71679688" xlink:href="#ArialMT-20"/>
     <use x="2362.5" xlink:href="#ArialMT-31"/>
     <use x="2418.11523438" xlink:href="#ArialMT-30"/>
     <use x="2473.73046875" xlink:href="#ArialMT-20"/>
     <use x="2501.51367188" xlink:href="#ArialMT-74"/>
     <use x="2529.296875" xlink:href="#ArialMT-69"/>
     <use x="2551.51367188" xlink:href="#ArialMT-6d"/>
     <use x="2634.81445312" xlink:href="#ArialMT-65"/>
     <use x="2690.4296875" xlink:href="#ArialMT-73"/>
     <use x="2740.4296875" xlink:href="#ArialMT-20"/>
     <use x="2768.21289062" xlink:href="#ArialMT-28"/>
     <use x="2801.51367188" xlink:href="#ArialMT-35"/>
     <use x="2857.12890625" xlink:href="#ArialMT-20"/>
     <use x="2884.91210938" xlink:href="#ArialMT-73"/>
     <use x="2934.91210938" xlink:href="#ArialMT-74"/>
     <use x="2962.6953125" xlink:href="#ArialMT-72"/>
     <use x="2995.99609375" xlink:href="#ArialMT-61"/>
     <use x="3051.61132812" xlink:href="#ArialMT-74"/>
     <use x="3079.39453125" xlink:href="#ArialMT-65"/>
     <use x="3135.00976562" xlink:href="#ArialMT-67"/>
     <use x="3190.625" xlink:href="#ArialMT-69"/>
     <use x="3212.84179688" xlink:href="#ArialMT-65"/>
     <use x="3268.45703125" xlink:href="#ArialMT-73"/>
     <use x="3318.45703125" xlink:href="#ArialMT-29"/>
    </g>
   </g>
  </g>
 </g>
 <defs>
  <clipPath id="pe8a5247557">
   <rect height="334.8" width="669.6" x="108.0" y="43.2"/>
  </clipPath>
 </defs>
</svg>
