<?xml version="1.0" standalone="yes"?>

<svg version="1.1" viewBox="0.0 0.0 960.0 720.0" fill="none" stroke="none" stroke-linecap="square" stroke-miterlimit="10" xmlns="http://www.w3.org/2000/svg" xmlns:xlink="http://www.w3.org/1999/xlink"><clipPath id="p.0"><path d="m0 0l960.0 0l0 720.0l-960.0 0l0 -720.0z" clip-rule="nonzero"></path></clipPath><g clip-path="url(#p.0)"><path fill="#000000" fill-opacity="0.0" d="m0 0l960.0 0l0 720.0l-960.0 0z" fill-rule="nonzero"></path><path fill="#d0e0e3" d="m118.80314 281.40515l0 0c-1.2400284 -11.854492 2.8312302 -23.589691 10.486183 -30.225967c7.6549683 -6.636261 17.551102 -7.00972 25.489136 -0.96191406l0 0c2.811905 -6.892685 7.958481 -11.651611 13.883026 -12.83728c5.92453 -1.1856842 11.931152 1.3411407 16.202988 6.816162l0 0c2.3953705 -6.249359 7.0987244 -10.44812 12.441071 -11.106369c5.342331 -0.65823364 10.567596 2.317215 13.821579 7.8704987l0 0c4.327591 -6.624298 11.212891 -9.413406 17.67659 -7.1604614c6.4637146 2.2529602 11.344879 9.143311 12.531418 17.689575l0 0c5.302017 1.8813324 9.718506 6.663925 12.108353 13.112106c2.389862 6.448181 2.5186462 13.929382 0.35308838 20.510742l0 0c5.2209473 8.839478 6.4422607 20.61795 3.2081604 30.939941c-3.2341003 10.321991 -10.437729 17.636688 -18.922607 19.214417c-0.059814453 9.687561 -4.143997 18.576752 -10.678329 23.241272c-6.5343323 4.6645203 -14.498474 4.3760376 -20.822678 -0.754303c-2.6937714 11.602509 -10.275848 20.139526 -19.47049 21.92276c-9.194656 1.7832031 -18.353546 -3.5070496 -23.5197 -13.585205c-6.332611 4.96756 -13.931244 6.3985596 -21.081757 3.9701843c-7.150528 -2.4283752 -13.250626 -8.511566 -16.924248 -16.877289l0 0c-6.4711456 0.9850769 -12.727852 -3.3763428 -15.664932 -10.919708c-2.937088 -7.5433655 -1.9293137 -16.662903 2.5231628 -22.83258l0 0c-5.7724304 -4.419647 -8.717873 -13.189758 -7.300392 -21.737c1.4174805 -8.547241 6.876671 -14.934814 13.53083 -15.831848z" fill-rule="nonzero"></path><path fill="#000000" fill-opacity="0.0" d="m112.444786 319.43088l0 0c2.7240295 2.0856628 5.8709183 3.0317688 9.01815 2.7113037m4.1222 31.041748c1.3534241 -0.20602417 2.680046 -0.642334 3.9456253 -1.2976379m34.058502 14.204193c-0.95191956 -1.8569946 -1.7489014 -3.841339 -2.3773956 -5.9192505m45.369217 -2.4186401l0 0c0.49111938 -2.115326 0.8093109 -4.2924194 0.94929504 -6.4950256m30.550522 -15.991119c0.06365967 -10.313904 -4.43956 -19.757416 -11.575394 -24.274261m27.289688 -25.879028c-1.1556244 3.512085 -2.919815 6.627594 -5.154251 9.102264m-7.3061066 -42.72603l0 0c0.19689941 1.4182587 0.2880249 2.8578339 0.27211 4.298767m-30.479614 -14.827454l0 0c-1.0795135 1.6524353 -1.9688873 3.4990082 -2.640442 5.4822235m-23.622452 -2.2470703l0 0c-0.57528687 1.500885 -1.0048828 3.089096 -1.2788696 4.728012m-28.807571 1.2932281l0 0c1.6796875 1.2797241 3.233612 2.819992 4.6276703 4.5869904m-40.60253 26.601059l0 0c0.17090607 1.6338501 0.4409485 3.2475586 0.8076019 4.8260193" fill-rule="nonzero"></path><path stroke="#000000" stroke-width="2.0" stroke-linejoin="round" stroke-linecap="butt" d="m118.80314 281.40515l0 0c-1.2400284 -11.854492 2.8312302 -23.589691 10.486183 -30.225967c7.6549683 -6.636261 17.551102 -7.00972 25.489136 -0.96191406l0 0c2.811905 -6.892685 7.958481 -11.651611 13.883026 -12.83728c5.92453 -1.1856842 11.931152 1.3411407 16.202988 6.816162l0 0c2.3953705 -6.249359 7.0987244 -10.44812 12.441071 -11.106369c5.342331 -0.65823364 10.567596 2.317215 13.821579 7.8704987l0 0c4.327591 -6.624298 11.212891 -9.413406 17.67659 -7.1604614c6.4637146 2.2529602 11.344879 9.143311 12.531418 17.689575l0 0c5.302017 1.8813324 9.718506 6.663925 12.108353 13.112106c2.389862 6.448181 2.5186462 13.929382 0.35308838 20.510742l0 0c5.2209473 8.839478 6.4422607 20.61795 3.2081604 30.939941c-3.2341003 10.321991 -10.437729 17.636688 -18.922607 19.214417c-0.059814453 9.687561 -4.143997 18.576752 -10.678329 23.241272c-6.5343323 4.6645203 -14.498474 4.3760376 -20.822678 -0.754303c-2.6937714 11.602509 -10.275848 20.139526 -19.47049 21.92276c-9.194656 1.7832031 -18.353546 -3.5070496 -23.5197 -13.585205c-6.332611 4.96756 -13.931244 6.3985596 -21.081757 3.9701843c-7.150528 -2.4283752 -13.250626 -8.511566 -16.924248 -16.877289l0 0c-6.4711456 0.9850769 -12.727852 -3.3763428 -15.664932 -10.919708c-2.937088 -7.5433655 -1.9293137 -16.662903 2.5231628 -22.83258l0 0c-5.7724304 -4.419647 -8.717873 -13.189758 -7.300392 -21.737c1.4174805 -8.547241 6.876671 -14.934814 13.53083 -15.831848z" fill-rule="nonzero"></path><path stroke="#000000" stroke-width="2.0" stroke-linejoin="round" stroke-linecap="butt" d="m112.444786 319.43088l0 0c2.7240295 2.0856628 5.8709183 3.0317688 9.01815 2.7113037m4.1222 31.041748c1.3534241 -0.20602417 2.680046 -0.642334 3.9456253 -1.2976379m34.058502 14.204193c-0.95191956 -1.8569946 -1.7489014 -3.841339 -2.3773956 -5.9192505m45.369217 -2.4186401l0 0c0.49111938 -2.115326 0.8093109 -4.2924194 0.94929504 -6.4950256m30.550522 -15.991119c0.06365967 -10.313904 -4.43956 -19.757416 -11.575394 -24.274261m27.289688 -25.879028c-1.1556244 3.512085 -2.919815 6.627594 -5.154251 9.102264m-7.3061066 -42.72603l0 0c0.19689941 1.4182587 0.2880249 2.8578339 0.27211 4.298767m-30.479614 -14.827454l0 0c-1.0795135 1.6524353 -1.9688873 3.4990082 -2.640442 5.4822235m-23.622452 -2.2470703l0 0c-0.57528687 1.500885 -1.0048828 3.089096 -1.2788696 4.728012m-28.807571 1.2932281l0 0c1.6796875 1.2797241 3.233612 2.819992 4.6276703 4.5869904m-40.60253 26.601059l0 0c0.17090607 1.6338501 0.4409485 3.2475586 0.8076019 4.8260193" fill-rule="nonzero"></path><path fill="#000000" fill-opacity="0.0" d="m63.90602 355.56042l0 0c0 -97.523926 75.99173 -176.58267 169.73228 -176.58267l0 0c45.01581 0 88.18787 18.604187 120.01886 51.719864c31.830963 33.115677 49.71344 78.03017 49.71344 124.86281l0 0c0 97.523926 -75.99173 176.5827 -169.7323 176.5827l0 0c-93.740555 0 -169.73228 -79.05878 -169.73228 -176.5827z" fill-rule="nonzero"></path><path stroke="#000000" stroke-width="2.0" stroke-linejoin="round" stroke-linecap="butt" d="m63.90602 355.56042l0 0c0 -97.523926 75.99173 -176.58267 169.73228 -176.58267l0 0c45.01581 0 88.18787 18.604187 120.01886 51.719864c31.830963 33.115677 49.71344 78.03017 49.71344 124.86281l0 0c0 97.523926 -75.99173 176.5827 -169.7323 176.5827l0 0c-93.740555 0 -169.73228 -79.05878 -169.73228 -176.5827z" fill-rule="nonzero"></path><path fill="#9fc5e8" d="m283.77454 355.7451l0 0c0 -3.25 2.6346436 -5.8846436 5.8846436 -5.8846436l50.876404 0c1.5606995 0 3.0574646 0.6199951 4.161072 1.7235718c1.1035767 1.1035767 1.7235718 2.6003418 1.7235718 4.161072l0 23.537811c0 3.25 -2.6346436 5.8846436 -5.8846436 5.8846436l-50.876404 0c-3.25 0 -5.8846436 -2.6346436 -5.8846436 -5.8846436z" fill-rule="nonzero"></path><path stroke="#000000" stroke-width="2.0" stroke-linejoin="round" stroke-linecap="butt" d="m283.77454 355.7451l0 0c0 -3.25 2.6346436 -5.8846436 5.8846436 -5.8846436l50.876404 0c1.5606995 0 3.0574646 0.6199951 4.161072 1.7235718c1.1035767 1.1035767 1.7235718 2.6003418 1.7235718 4.161072l0 23.537811c0 3.25 -2.6346436 5.8846436 -5.8846436 5.8846436l-50.876404 0c-3.25 0 -5.8846436 -2.6346436 -5.8846436 -5.8846436z" fill-rule="nonzero"></path><path fill="#000000" fill-opacity="0.0" d="m228.32645 390.796c-1.4942932 6.7156982 -2.5269775 34.807373 -8.965805 40.29416c-6.4388123 5.486786 -22.15738 -12.944031 -29.667099 -7.373413c-7.5097046 5.5706177 -12.8259735 33.99762 -15.391159 40.79715" fill-rule="nonzero"></path><path stroke="#38761d" stroke-width="2.0" stroke-linejoin="round" stroke-linecap="butt" d="m228.32645 390.796c-1.4942932 6.7156982 -2.5269775 34.807373 -8.965805 40.29416c-6.4388123 5.486786 -22.15738 -12.944031 -29.667099 -7.373413c-7.5097046 5.5706177 -12.8259735 33.99762 -15.391159 40.79715" fill-rule="nonzero"></path><path fill="#000000" fill-opacity="0.0" d="m241.39174 401.9643c-6.4013824 2.5210876 -33.99019 7.912384 -38.40825 15.126526c-4.418045 7.2141724 16.234161 19.873383 11.899933 28.158417c-4.3342285 8.285065 -31.587723 17.95993 -37.905273 21.55191" fill-rule="nonzero"></path><path stroke="#38761d" stroke-width="2.0" stroke-linejoin="round" stroke-linecap="butt" d="m241.39174 401.9643c-6.4013824 2.5210876 -33.99019 7.912384 -38.40825 15.126526c-4.418045 7.2141724 16.234161 19.873383 11.899933 28.158417c-4.3342285 8.285065 -31.587723 17.95993 -37.905273 21.55191" fill-rule="nonzero"></path><path fill="#d0e0e3" d="m690.6084 485.9838l0 0c-0.934021 -8.941406 2.1325073 -17.792847 7.8982544 -22.79834c5.765747 -5.005493 13.2196045 -5.287201 19.198608 -0.7255554l0 0c2.11792 -5.198883 5.994385 -8.788391 10.456787 -9.682678c4.4624023 -0.8943176 8.986633 1.0115662 12.204163 5.1411743l0 0c1.8041992 -4.7136536 5.3468018 -7.8806458 9.370728 -8.377136c4.0238647 -0.49649048 7.9595947 1.7478027 10.410522 5.936432l0 0c3.2595215 -4.99646 8.445618 -7.100189 13.314087 -5.400879c4.8685303 1.6993408 8.545044 6.8964844 9.438782 13.342621l0 0c3.9935303 1.4190063 7.3200073 5.0263367 9.120117 9.889954c1.8000488 4.8636475 1.8970337 10.506439 0.26593018 15.47052l0 0c3.932434 6.6672974 4.852356 15.551361 2.4163818 23.336853c-2.435913 7.7855225 -7.8617554 13.302734 -14.2526245 14.492737c-0.045043945 7.307007 -3.1212769 14.01178 -8.042969 17.53009c-4.921753 3.5182495 -10.920349 3.3006592 -15.683777 -0.5689697c-2.0289917 8.751343 -7.739868 15.190491 -14.665344 16.535522c-6.925476 1.3450317 -13.824036 -2.6452026 -17.71521 -10.246826c-4.7697754 3.7468872 -10.493103 4.826233 -15.878906 2.9945679c-5.385803 -1.831604 -9.980469 -6.419922 -12.747437 -12.729919l0 0c-4.8741455 0.743042 -9.586731 -2.5466309 -11.79895 -8.236328c-2.2122192 -5.6896973 -1.453186 -12.568237 1.9004517 -17.221802l0 0c-4.3478394 -3.3335571 -6.566345 -9.948517 -5.4987183 -16.395416c1.067688 -6.446869 5.1795654 -11.2647705 10.191528 -11.941376z" fill-rule="nonzero"></path><path fill="#000000" fill-opacity="0.0" d="m685.8192 514.6652l0 0c2.0517578 1.5731201 4.421997 2.2867432 6.7925415 2.044983m3.1048584 23.413696c1.0194092 -0.15539551 2.0186157 -0.48449707 2.9718628 -0.97875977m25.653137 10.713684c-0.71698 -1.4006348 -1.3173218 -2.8973389 -1.7907104 -4.4646606m34.172424 -1.8242798l0 0c0.36993408 -1.59552 0.60961914 -3.2376099 0.71502686 -4.898987m23.010864 -12.061523c0.047973633 -7.779358 -3.343933 -14.902252 -8.718689 -18.309174m20.55481 -19.519592c-0.87042236 2.6490173 -2.1992188 4.998932 -3.8822021 6.865509m-5.5030518 -32.226685l0 0c0.14831543 1.0697327 0.21697998 2.155548 0.20495605 3.2424011m-22.957458 -11.183807l0 0c-0.8130493 1.2463684 -1.4829712 2.6391602 -1.9887695 4.1350403m-17.792603 -1.6948853l0 0c-0.43328857 1.1320496 -0.756897 2.3299866 -0.96325684 3.566162m-21.69806 0.97543335l0 0c1.2651367 0.9652405 2.435608 2.1270142 3.4855957 3.4598083m-30.582092 20.064209l0 0c0.12872314 1.2323608 0.3320923 2.449524 0.60827637 3.6401062" fill-rule="nonzero"></path><path stroke="#000000" stroke-width="2.0" stroke-linejoin="round" stroke-linecap="butt" d="m690.6084 485.9838l0 0c-0.934021 -8.941406 2.1325073 -17.792847 7.8982544 -22.79834c5.765747 -5.005493 13.2196045 -5.287201 19.198608 -0.7255554l0 0c2.11792 -5.198883 5.994385 -8.788391 10.456787 -9.682678c4.4624023 -0.8943176 8.986633 1.0115662 12.204163 5.1411743l0 0c1.8041992 -4.7136536 5.3468018 -7.8806458 9.370728 -8.377136c4.0238647 -0.49649048 7.9595947 1.7478027 10.410522 5.936432l0 0c3.2595215 -4.99646 8.445618 -7.100189 13.314087 -5.400879c4.8685303 1.6993408 8.545044 6.8964844 9.438782 13.342621l0 0c3.9935303 1.4190063 7.3200073 5.0263367 9.120117 9.889954c1.8000488 4.8636475 1.8970337 10.506439 0.26593018 15.47052l0 0c3.932434 6.6672974 4.852356 15.551361 2.4163818 23.336853c-2.435913 7.7855225 -7.8617554 13.302734 -14.2526245 14.492737c-0.045043945 7.307007 -3.1212769 14.01178 -8.042969 17.53009c-4.921753 3.5182495 -10.920349 3.3006592 -15.683777 -0.5689697c-2.0289917 8.751343 -7.739868 15.190491 -14.665344 16.535522c-6.925476 1.3450317 -13.824036 -2.6452026 -17.71521 -10.246826c-4.7697754 3.7468872 -10.493103 4.826233 -15.878906 2.9945679c-5.385803 -1.831604 -9.980469 -6.419922 -12.747437 -12.729919l0 0c-4.8741455 0.743042 -9.586731 -2.5466309 -11.79895 -8.236328c-2.2122192 -5.6896973 -1.453186 -12.568237 1.9004517 -17.221802l0 0c-4.3478394 -3.3335571 -6.566345 -9.948517 -5.4987183 -16.395416c1.067688 -6.446869 5.1795654 -11.2647705 10.191528 -11.941376z" fill-rule="nonzero"></path><path stroke="#000000" stroke-width="2.0" stroke-linejoin="round" stroke-linecap="butt" d="m685.8192 514.6652l0 0c2.0517578 1.5731201 4.421997 2.2867432 6.7925415 2.044983m3.1048584 23.413696c1.0194092 -0.15539551 2.0186157 -0.48449707 2.9718628 -0.97875977m25.653137 10.713684c-0.71698 -1.4006348 -1.3173218 -2.8973389 -1.7907104 -4.4646606m34.172424 -1.8242798l0 0c0.36993408 -1.59552 0.60961914 -3.2376099 0.71502686 -4.898987m23.010864 -12.061523c0.047973633 -7.779358 -3.343933 -14.902252 -8.718689 -18.309174m20.55481 -19.519592c-0.87042236 2.6490173 -2.1992188 4.998932 -3.8822021 6.865509m-5.5030518 -32.226685l0 0c0.14831543 1.0697327 0.21697998 2.155548 0.20495605 3.2424011m-22.957458 -11.183807l0 0c-0.8130493 1.2463684 -1.4829712 2.6391602 -1.9887695 4.1350403m-17.792603 -1.6948853l0 0c-0.43328857 1.1320496 -0.756897 2.3299866 -0.96325684 3.566162m-21.69806 0.97543335l0 0c1.2651367 0.9652405 2.435608 2.1270142 3.4855957 3.4598083m-30.582092 20.064209l0 0c0.12872314 1.2323608 0.3320923 2.449524 0.60827637 3.6401062" fill-rule="nonzero"></path><path fill="#000000" fill-opacity="0.0" d="m649.25946 541.9123l0 0c0 -73.55682 57.23993 -133.18643 127.84894 -133.18643l0 0c33.907654 0 66.426575 14.0321045 90.40289 39.00943c23.976318 24.977295 37.446045 58.85379 37.446045 94.177l0 0c0 73.556885 -57.23987 133.18646 -127.84894 133.18646l0 0c-70.60901 0 -127.84894 -59.629578 -127.84894 -133.18646z" fill-rule="nonzero"></path><path stroke="#000000" stroke-width="2.0" stroke-linejoin="round" stroke-linecap="butt" d="m649.25946 541.9123l0 0c0 -73.55682 57.23993 -133.18643 127.84894 -133.18643l0 0c33.907654 0 66.426575 14.0321045 90.40289 39.00943c23.976318 24.977295 37.446045 58.85379 37.446045 94.177l0 0c0 73.556885 -57.23987 133.18646 -127.84894 133.18646l0 0c-70.60901 0 -127.84894 -59.629578 -127.84894 -133.18646z" fill-rule="nonzero"></path><path fill="#9fc5e8" d="m814.86597 542.0576l0 0c0 -2.4516602 1.9874268 -4.439087 4.439026 -4.439087l38.312927 0c1.1773071 0 2.3063965 0.4677124 3.138916 1.3001709c0.8324585 0.83251953 1.3001709 1.9616089 1.3001709 3.138916l0 17.755615c0 2.4515991 -1.9874268 4.439026 -4.439087 4.439026l-38.312927 0c-2.4515991 0 -4.439026 -1.9874268 -4.439026 -4.439026z" fill-rule="nonzero"></path><path stroke="#000000" stroke-width="2.0" stroke-linejoin="round" stroke-linecap="butt" d="m814.86597 542.0576l0 0c0 -2.4516602 1.9874268 -4.439087 4.439026 -4.439087l38.312927 0c1.1773071 0 2.3063965 0.4677124 3.138916 1.3001709c0.8324585 0.83251953 1.3001709 1.9616089 1.3001709 3.138916l0 17.755615c0 2.4515991 -1.9874268 4.439026 -4.439087 4.439026l-38.312927 0c-2.4515991 0 -4.439026 -1.9874268 -4.439026 -4.439026z" fill-rule="nonzero"></path><path fill="#000000" fill-opacity="0.0" d="m773.0929 568.48425c-1.1256714 5.0653076 -1.90448 26.253418 -6.7542725 30.391602c-4.8497925 4.1382446 -16.68811 -9.763794 -22.344482 -5.562378c-5.656372 4.201355 -9.661438 25.642273 -11.59375 30.770752" fill-rule="nonzero"></path><path stroke="#38761d" stroke-width="2.0" stroke-linejoin="round" stroke-linecap="butt" d="m773.0929 568.48425c-1.1256714 5.0653076 -1.90448 26.253418 -6.7542725 30.391602c-4.8497925 4.1382446 -16.68811 -9.763794 -22.344482 -5.562378c-5.656372 4.201355 -9.661438 25.642273 -11.59375 30.770752" fill-rule="nonzero"></path><path fill="#000000" fill-opacity="0.0" d="m782.93304 576.90845c-4.821472 1.9013062 -25.601074 5.966736 -28.928894 11.407898c-3.3278809 5.441101 12.2265625 14.990051 8.961792 21.238892c-3.2647095 6.2488403 -23.791931 13.545166 -28.550293 16.254211" fill-rule="nonzero"></path><path stroke="#38761d" stroke-width="2.0" stroke-linejoin="round" stroke-linecap="butt" d="m782.93304 576.90845c-4.821472 1.9013062 -25.601074 5.966736 -28.928894 11.407898c-3.3278809 5.441101 12.2265625 14.990051 8.961792 21.238892c-3.2647095 6.2488403 -23.791931 13.545166 -28.550293 16.254211" fill-rule="nonzero"></path><path fill="#000000" fill-opacity="0.0" d="m530.6706 331.08096c-20.177948 -34.946136 45.505737 -110.64174 146.70868 -169.07086l0 0c101.20288 -58.429115 199.60156 -77.46583 219.77948 -42.519684l0 0c20.177979 34.94615 -45.505737 110.641754 -146.70862 169.07086l0 0c-101.20294 58.42914 -199.60156 77.46585 -219.77954 42.519684z" fill-rule="nonzero"></path><path stroke="#000000" stroke-width="2.0" stroke-linejoin="round" stroke-linecap="butt" d="m530.6706 331.08096c-20.177948 -34.946136 45.505737 -110.64174 146.70868 -169.07086l0 0c101.20288 -58.429115 199.60156 -77.46583 219.77948 -42.519684l0 0c20.177979 34.94615 -45.505737 110.641754 -146.70862 169.07086l0 0c-101.20294 58.42914 -199.60156 77.46585 -219.77954 42.519684z" fill-rule="nonzero"></path><path fill="#434343" d="m596.56805 247.33456l44.812622 -25.859634l12.478821 3.3453522l22.834534 39.55365l0 0l-44.812683 25.85962l-12.47876 -3.345337l-22.834534 -39.55365z" fill-rule="nonzero"></path><path stroke="#434343" stroke-width="2.0" stroke-linejoin="round" stroke-linecap="butt" d="m596.56805 247.33456l44.812622 -25.859634l12.478821 3.3453522l22.834534 39.55365l0 0l-44.812683 25.85962l-12.47876 -3.345337l-22.834534 -39.55365z" fill-rule="nonzero"></path><path fill="#434343" d="m760.9885 180.11917l44.812622 -25.85962l12.478821 3.3453522l22.834534 39.553635l0 0l-44.812622 25.859634l-12.478821 -3.3453522l-22.834534 -39.55365z" fill-rule="nonzero"></path><path stroke="#434343" stroke-width="2.0" stroke-linejoin="round" stroke-linecap="butt" d="m760.9885 180.11917l44.812622 -25.85962l12.478821 3.3453522l22.834534 39.553635l0 0l-44.812622 25.859634l-12.478821 -3.3453522l-22.834534 -39.55365z" fill-rule="nonzero"></path><path fill="#000000" fill-opacity="0.0" d="m724.00543 148.8499c2.0635986 6.562866 15.214355 31.406418 12.381592 39.377167c-2.8327637 7.970764 -25.659851 -0.13140869 -29.378052 8.447357c-3.7182007 8.578766 5.890564 35.854355 7.0687256 43.025238" fill-rule="nonzero"></path><path stroke="#38761d" stroke-width="2.0" stroke-linejoin="round" stroke-linecap="butt" d="m724.00543 148.8499c2.0635986 6.562866 15.214355 31.406418 12.381592 39.377167c-2.8327637 7.970764 -25.659851 -0.13140869 -29.378052 8.447357c-3.7182007 8.578766 5.890564 35.854355 7.0687256 43.025238" fill-rule="nonzero"></path><path fill="#000000" fill-opacity="0.0" d="m740.90375 151.98933c-4.283081 5.3837433 -25.47937 23.846176 -25.698486 32.302505c-0.21917725 8.456314 23.994751 9.093613 24.383606 18.43541c0.38891602 9.341797 -18.375366 31.34613 -22.050415 37.615356" fill-rule="nonzero"></path><path stroke="#38761d" stroke-width="2.0" stroke-linejoin="round" stroke-linecap="butt" d="m740.90375 151.98933c-4.283081 5.3837433 -25.47937 23.846176 -25.698486 32.302505c-0.21917725 8.456314 23.994751 9.093613 24.383606 18.43541c0.38891602 9.341797 -18.375366 31.34613 -22.050415 37.615356" fill-rule="nonzero"></path><path fill="#cfe2f3" d="m696.01416 276.4936l7.6591797 -17.17044l18.703003 1.9578857l3.8999634 18.380463l-16.292664 9.401886z" fill-rule="nonzero"></path><path stroke="#000000" stroke-width="2.0" stroke-linejoin="round" stroke-linecap="butt" d="m696.01416 276.4936l7.6591797 -17.17044l18.703003 1.9578857l3.8999634 18.380463l-16.292664 9.401886z" fill-rule="nonzero"></path></g></svg>

