<?xml version="1.0" encoding="utf-8" standalone="no"?>
<!DOCTYPE svg PUBLIC "-//W3C//DTD SVG 1.1//EN"
  "http://www.w3.org/Graphics/SVG/1.1/DTD/svg11.dtd">
<!-- Created with matplotlib (http://matplotlib.org/) -->
<svg height="288pt" version="1.1" viewBox="0 0 432 288" width="432pt" xmlns="http://www.w3.org/2000/svg" xmlns:xlink="http://www.w3.org/1999/xlink">
 <defs>
  <style type="text/css">
*{stroke-linecap:butt;stroke-linejoin:round;}
  </style>
 </defs>
 <g id="figure_1">
  <g id="patch_1">
   <path d="M 0 288 
L 432 288 
L 432 0 
L 0 0 
z
" style="fill:#ffffff;"/>
  </g>
  <g id="axes_1">
   <g id="patch_2">
    <path d="M 14.3 65.8 
L 101.8 65.8 
L 101.8 20.8 
L 14.3 20.8 
z
" style="fill:#ffffff;"/>
   </g>
   <g id="matplotlib.axis_1"/>
   <g id="matplotlib.axis_2"/>
   <g id="line2d_1">
    <path clip-path="url(#p165bd17c7b)" d="M 18.277273 41.027273 
L 22.254545 41.027273 
L 26.231818 50.118182 
L 30.209091 45.572727 
L 34.186364 45.572727 
L 38.163636 54.663636 
L 42.140909 31.936364 
L 46.118182 27.390909 
L 50.095455 31.936364 
L 54.072727 36.481818 
L 58.05 54.663636 
L 62.027273 31.936364 
L 66.004545 50.118182 
L 69.981818 50.118182 
L 73.959091 50.118182 
L 77.936364 45.572727 
L 81.913636 54.663636 
L 85.890909 31.936364 
L 89.868182 54.663636 
L 93.845455 50.118182 
L 97.822727 54.663636 
" style="fill:none;stroke:#1f77b4;stroke-linecap:square;stroke-width:1.5;"/>
   </g>
   <g id="line2d_2">
    <path clip-path="url(#p165bd17c7b)" d="M 18.277273 41.027273 
L 22.254545 50.118182 
L 26.231818 41.027273 
L 30.209091 41.027273 
L 34.186364 41.027273 
L 38.163636 45.572727 
L 42.140909 59.209091 
L 46.118182 54.663636 
L 50.095455 31.936364 
L 54.072727 63.754545 
L 58.05 45.572727 
L 62.027273 45.572727 
L 66.004545 45.572727 
L 69.981818 36.481818 
L 73.959091 36.481818 
L 77.936364 36.481818 
L 81.913636 50.118182 
L 85.890909 45.572727 
L 89.868182 22.845455 
L 93.845455 31.936364 
L 97.822727 41.027273 
" style="fill:none;stroke:#ff7f0e;stroke-linecap:square;stroke-width:1.5;"/>
   </g>
   <g id="line2d_3">
    <path clip-path="url(#p165bd17c7b)" d="M 18.277273 54.663636 
L 22.254545 45.572727 
L 26.231818 45.572727 
L 30.209091 50.118182 
L 34.186364 41.027273 
L 38.163636 31.936364 
L 42.140909 41.027273 
L 46.118182 50.118182 
L 50.095455 54.663636 
L 54.072727 45.572727 
L 58.05 36.481818 
L 62.027273 45.572727 
L 66.004545 36.481818 
L 69.981818 36.481818 
L 73.959091 50.118182 
L 77.936364 50.118182 
L 81.913636 27.390909 
L 85.890909 45.572727 
L 89.868182 54.663636 
L 93.845455 54.663636 
L 97.822727 41.027273 
" style="fill:none;stroke:#2ca02c;stroke-linecap:square;stroke-width:1.5;"/>
   </g>
   <g id="line2d_4">
    <path clip-path="url(#p165bd17c7b)" d="M 18.277273 45.572727 
L 22.254545 36.481818 
L 26.231818 45.572727 
L 30.209091 45.572727 
L 34.186364 50.118182 
L 38.163636 41.027273 
L 42.140909 36.481818 
L 46.118182 50.118182 
L 50.095455 50.118182 
L 54.072727 31.936364 
L 58.05 36.481818 
L 62.027273 54.663636 
L 66.004545 54.663636 
L 69.981818 59.209091 
L 73.959091 54.663636 
L 77.936364 41.027273 
L 81.913636 45.572727 
L 85.890909 59.209091 
L 89.868182 54.663636 
L 93.845455 41.027273 
L 97.822727 41.027273 
" style="fill:none;stroke:#d62728;stroke-linecap:square;stroke-width:1.5;"/>
   </g>
   <g id="line2d_5">
    <path clip-path="url(#p165bd17c7b)" d="M 18.277273 45.572727 
L 22.254545 54.663636 
L 26.231818 45.572727 
L 30.209091 45.572727 
L 34.186364 50.118182 
L 38.163636 54.663636 
L 42.140909 59.209091 
L 46.118182 45.572727 
L 50.095455 59.209091 
L 54.072727 50.118182 
L 58.05 54.663636 
L 62.027273 50.118182 
L 66.004545 41.027273 
L 69.981818 45.572727 
L 73.959091 36.481818 
L 77.936364 54.663636 
L 81.913636 50.118182 
L 85.890909 45.572727 
L 89.868182 41.027273 
L 93.845455 50.118182 
L 97.822727 50.118182 
" style="fill:none;stroke:#9467bd;stroke-linecap:square;stroke-width:1.5;"/>
   </g>
   <g id="patch_3">
    <path d="M 14.3 65.8 
L 14.3 20.8 
" style="fill:none;stroke:#000000;stroke-linecap:square;stroke-linejoin:miter;stroke-width:0.8;"/>
   </g>
   <g id="patch_4">
    <path d="M 101.8 65.8 
L 101.8 20.8 
" style="fill:none;stroke:#000000;stroke-linecap:square;stroke-linejoin:miter;stroke-width:0.8;"/>
   </g>
   <g id="patch_5">
    <path d="M 14.3 65.8 
L 101.8 65.8 
" style="fill:none;stroke:#000000;stroke-linecap:square;stroke-linejoin:miter;stroke-width:0.8;"/>
   </g>
   <g id="patch_6">
    <path d="M 14.3 20.8 
L 101.8 20.8 
" style="fill:none;stroke:#000000;stroke-linecap:square;stroke-linejoin:miter;stroke-width:0.8;"/>
   </g>
   <g id="text_1">
    <!-- Random seed: 0 -->
    <defs>
     <path d="M 44.390625 34.1875 
Q 47.5625 33.109375 50.5625 29.59375 
Q 53.5625 26.078125 56.59375 19.921875 
L 66.609375 0 
L 56 0 
L 46.6875 18.703125 
Q 43.0625 26.03125 39.671875 28.421875 
Q 36.28125 30.8125 30.421875 30.8125 
L 19.671875 30.8125 
L 19.671875 0 
L 9.8125 0 
L 9.8125 72.90625 
L 32.078125 72.90625 
Q 44.578125 72.90625 50.734375 67.671875 
Q 56.890625 62.453125 56.890625 51.90625 
Q 56.890625 45.015625 53.6875 40.46875 
Q 50.484375 35.9375 44.390625 34.1875 
M 19.671875 64.796875 
L 19.671875 38.921875 
L 32.078125 38.921875 
Q 39.203125 38.921875 42.84375 42.21875 
Q 46.484375 45.515625 46.484375 51.90625 
Q 46.484375 58.296875 42.84375 61.546875 
Q 39.203125 64.796875 32.078125 64.796875 
z
" id="DejaVuSans-52"/>
     <path d="M 34.28125 27.484375 
Q 23.390625 27.484375 19.1875 25 
Q 14.984375 22.515625 14.984375 16.5 
Q 14.984375 11.71875 18.140625 8.90625 
Q 21.296875 6.109375 26.703125 6.109375 
Q 34.1875 6.109375 38.703125 11.40625 
Q 43.21875 16.703125 43.21875 25.484375 
L 43.21875 27.484375 
z
M 52.203125 31.203125 
L 52.203125 0 
L 43.21875 0 
L 43.21875 8.296875 
Q 40.140625 3.328125 35.546875 0.953125 
Q 30.953125 -1.421875 24.3125 -1.421875 
Q 15.921875 -1.421875 10.953125 3.296875 
Q 6 8.015625 6 15.921875 
Q 6 25.140625 12.171875 29.828125 
Q 18.359375 34.515625 30.609375 34.515625 
L 43.21875 34.515625 
L 43.21875 35.40625 
Q 43.21875 41.609375 39.140625 45 
Q 35.0625 48.390625 27.6875 48.390625 
Q 23 48.390625 18.546875 47.265625 
Q 14.109375 46.140625 10.015625 43.890625 
L 10.015625 52.203125 
Q 14.9375 54.109375 19.578125 55.046875 
Q 24.21875 56 28.609375 56 
Q 40.484375 56 46.34375 49.84375 
Q 52.203125 43.703125 52.203125 31.203125 
" id="DejaVuSans-61"/>
     <path d="M 54.890625 33.015625 
L 54.890625 0 
L 45.90625 0 
L 45.90625 32.71875 
Q 45.90625 40.484375 42.875 44.328125 
Q 39.84375 48.1875 33.796875 48.1875 
Q 26.515625 48.1875 22.3125 43.546875 
Q 18.109375 38.921875 18.109375 30.90625 
L 18.109375 0 
L 9.078125 0 
L 9.078125 54.6875 
L 18.109375 54.6875 
L 18.109375 46.1875 
Q 21.34375 51.125 25.703125 53.5625 
Q 30.078125 56 35.796875 56 
Q 45.21875 56 50.046875 50.171875 
Q 54.890625 44.34375 54.890625 33.015625 
" id="DejaVuSans-6e"/>
     <path d="M 45.40625 46.390625 
L 45.40625 75.984375 
L 54.390625 75.984375 
L 54.390625 0 
L 45.40625 0 
L 45.40625 8.203125 
Q 42.578125 3.328125 38.25 0.953125 
Q 33.9375 -1.421875 27.875 -1.421875 
Q 17.96875 -1.421875 11.734375 6.484375 
Q 5.515625 14.40625 5.515625 27.296875 
Q 5.515625 40.1875 11.734375 48.09375 
Q 17.96875 56 27.875 56 
Q 33.9375 56 38.25 53.625 
Q 42.578125 51.265625 45.40625 46.390625 
M 14.796875 27.296875 
Q 14.796875 17.390625 18.875 11.75 
Q 22.953125 6.109375 30.078125 6.109375 
Q 37.203125 6.109375 41.296875 11.75 
Q 45.40625 17.390625 45.40625 27.296875 
Q 45.40625 37.203125 41.296875 42.84375 
Q 37.203125 48.484375 30.078125 48.484375 
Q 22.953125 48.484375 18.875 42.84375 
Q 14.796875 37.203125 14.796875 27.296875 
" id="DejaVuSans-64"/>
     <path d="M 30.609375 48.390625 
Q 23.390625 48.390625 19.1875 42.75 
Q 14.984375 37.109375 14.984375 27.296875 
Q 14.984375 17.484375 19.15625 11.84375 
Q 23.34375 6.203125 30.609375 6.203125 
Q 37.796875 6.203125 41.984375 11.859375 
Q 46.1875 17.53125 46.1875 27.296875 
Q 46.1875 37.015625 41.984375 42.703125 
Q 37.796875 48.390625 30.609375 48.390625 
M 30.609375 56 
Q 42.328125 56 49.015625 48.375 
Q 55.71875 40.765625 55.71875 27.296875 
Q 55.71875 13.875 49.015625 6.21875 
Q 42.328125 -1.421875 30.609375 -1.421875 
Q 18.84375 -1.421875 12.171875 6.21875 
Q 5.515625 13.875 5.515625 27.296875 
Q 5.515625 40.765625 12.171875 48.375 
Q 18.84375 56 30.609375 56 
" id="DejaVuSans-6f"/>
     <path d="M 52 44.1875 
Q 55.375 50.25 60.0625 53.125 
Q 64.75 56 71.09375 56 
Q 79.640625 56 84.28125 50.015625 
Q 88.921875 44.046875 88.921875 33.015625 
L 88.921875 0 
L 79.890625 0 
L 79.890625 32.71875 
Q 79.890625 40.578125 77.09375 44.375 
Q 74.3125 48.1875 68.609375 48.1875 
Q 61.625 48.1875 57.5625 43.546875 
Q 53.515625 38.921875 53.515625 30.90625 
L 53.515625 0 
L 44.484375 0 
L 44.484375 32.71875 
Q 44.484375 40.625 41.703125 44.40625 
Q 38.921875 48.1875 33.109375 48.1875 
Q 26.21875 48.1875 22.15625 43.53125 
Q 18.109375 38.875 18.109375 30.90625 
L 18.109375 0 
L 9.078125 0 
L 9.078125 54.6875 
L 18.109375 54.6875 
L 18.109375 46.1875 
Q 21.1875 51.21875 25.484375 53.609375 
Q 29.78125 56 35.6875 56 
Q 41.65625 56 45.828125 52.96875 
Q 50 49.953125 52 44.1875 
" id="DejaVuSans-6d"/>
     <path id="DejaVuSans-20"/>
     <path d="M 44.28125 53.078125 
L 44.28125 44.578125 
Q 40.484375 46.53125 36.375 47.5 
Q 32.28125 48.484375 27.875 48.484375 
Q 21.1875 48.484375 17.84375 46.4375 
Q 14.5 44.390625 14.5 40.28125 
Q 14.5 37.15625 16.890625 35.375 
Q 19.28125 33.59375 26.515625 31.984375 
L 29.59375 31.296875 
Q 39.15625 29.25 43.1875 25.515625 
Q 47.21875 21.78125 47.21875 15.09375 
Q 47.21875 7.46875 41.1875 3.015625 
Q 35.15625 -1.421875 24.609375 -1.421875 
Q 20.21875 -1.421875 15.453125 -0.5625 
Q 10.6875 0.296875 5.421875 2 
L 5.421875 11.28125 
Q 10.40625 8.6875 15.234375 7.390625 
Q 20.0625 6.109375 24.8125 6.109375 
Q 31.15625 6.109375 34.5625 8.28125 
Q 37.984375 10.453125 37.984375 14.40625 
Q 37.984375 18.0625 35.515625 20.015625 
Q 33.0625 21.96875 24.703125 23.78125 
L 21.578125 24.515625 
Q 13.234375 26.265625 9.515625 29.90625 
Q 5.8125 33.546875 5.8125 39.890625 
Q 5.8125 47.609375 11.28125 51.796875 
Q 16.75 56 26.8125 56 
Q 31.78125 56 36.171875 55.265625 
Q 40.578125 54.546875 44.28125 53.078125 
" id="DejaVuSans-73"/>
     <path d="M 56.203125 29.59375 
L 56.203125 25.203125 
L 14.890625 25.203125 
Q 15.484375 15.921875 20.484375 11.0625 
Q 25.484375 6.203125 34.421875 6.203125 
Q 39.59375 6.203125 44.453125 7.46875 
Q 49.3125 8.734375 54.109375 11.28125 
L 54.109375 2.78125 
Q 49.265625 0.734375 44.1875 -0.34375 
Q 39.109375 -1.421875 33.890625 -1.421875 
Q 20.796875 -1.421875 13.15625 6.1875 
Q 5.515625 13.8125 5.515625 26.8125 
Q 5.515625 40.234375 12.765625 48.109375 
Q 20.015625 56 32.328125 56 
Q 43.359375 56 49.78125 48.890625 
Q 56.203125 41.796875 56.203125 29.59375 
M 47.21875 32.234375 
Q 47.125 39.59375 43.09375 43.984375 
Q 39.0625 48.390625 32.421875 48.390625 
Q 24.90625 48.390625 20.390625 44.140625 
Q 15.875 39.890625 15.1875 32.171875 
z
" id="DejaVuSans-65"/>
     <path d="M 11.71875 12.40625 
L 22.015625 12.40625 
L 22.015625 0 
L 11.71875 0 
z
M 11.71875 51.703125 
L 22.015625 51.703125 
L 22.015625 39.3125 
L 11.71875 39.3125 
z
" id="DejaVuSans-3a"/>
     <path d="M 31.78125 66.40625 
Q 24.171875 66.40625 20.328125 58.90625 
Q 16.5 51.421875 16.5 36.375 
Q 16.5 21.390625 20.328125 13.890625 
Q 24.171875 6.390625 31.78125 6.390625 
Q 39.453125 6.390625 43.28125 13.890625 
Q 47.125 21.390625 47.125 36.375 
Q 47.125 51.421875 43.28125 58.90625 
Q 39.453125 66.40625 31.78125 66.40625 
M 31.78125 74.21875 
Q 44.046875 74.21875 50.515625 64.515625 
Q 56.984375 54.828125 56.984375 36.375 
Q 56.984375 17.96875 50.515625 8.265625 
Q 44.046875 -1.421875 31.78125 -1.421875 
Q 19.53125 -1.421875 13.0625 8.265625 
Q 6.59375 17.96875 6.59375 36.375 
Q 6.59375 54.828125 13.0625 64.515625 
Q 19.53125 74.21875 31.78125 74.21875 
" id="DejaVuSans-30"/>
    </defs>
    <g transform="translate(33.578906 14.8)scale(0.06 -0.06)">
     <use xlink:href="#DejaVuSans-52"/>
     <use x="69.451172" xlink:href="#DejaVuSans-61"/>
     <use x="130.730469" xlink:href="#DejaVuSans-6e"/>
     <use x="194.109375" xlink:href="#DejaVuSans-64"/>
     <use x="257.585938" xlink:href="#DejaVuSans-6f"/>
     <use x="318.767578" xlink:href="#DejaVuSans-6d"/>
     <use x="416.179688" xlink:href="#DejaVuSans-20"/>
     <use x="447.966797" xlink:href="#DejaVuSans-73"/>
     <use x="500.066406" xlink:href="#DejaVuSans-65"/>
     <use x="561.589844" xlink:href="#DejaVuSans-65"/>
     <use x="623.113281" xlink:href="#DejaVuSans-64"/>
     <use x="686.589844" xlink:href="#DejaVuSans-3a"/>
     <use x="720.28125" xlink:href="#DejaVuSans-20"/>
     <use x="752.068359" xlink:href="#DejaVuSans-30"/>
    </g>
   </g>
  </g>
  <g id="axes_2">
   <g id="patch_7">
    <path d="M 119.6 65.8 
L 207.1 65.8 
L 207.1 20.8 
L 119.6 20.8 
z
" style="fill:#ffffff;"/>
   </g>
   <g id="matplotlib.axis_3"/>
   <g id="matplotlib.axis_4"/>
   <g id="line2d_6">
    <path clip-path="url(#p8a1588ce0f)" d="M 123.577273 54.663636 
L 127.554545 63.754545 
L 131.531818 63.754545 
L 135.509091 59.209091 
L 139.486364 63.754545 
L 143.463636 59.209091 
L 147.440909 54.663636 
L 151.418182 50.118182 
L 155.395455 50.118182 
L 159.372727 54.663636 
L 163.35 54.663636 
L 167.327273 45.572727 
L 171.304545 54.663636 
L 175.281818 54.663636 
L 179.259091 59.209091 
L 183.236364 59.209091 
L 187.213636 54.663636 
L 191.190909 36.481818 
L 195.168182 22.845455 
L 199.145455 41.027273 
L 203.122727 45.572727 
" style="fill:none;stroke:#1f77b4;stroke-linecap:square;stroke-width:1.5;"/>
   </g>
   <g id="line2d_7">
    <path clip-path="url(#p8a1588ce0f)" d="M 123.577273 54.663636 
L 127.554545 31.936364 
L 131.531818 31.936364 
L 135.509091 41.027273 
L 139.486364 41.027273 
L 143.463636 45.572727 
L 147.440909 41.027273 
L 151.418182 50.118182 
L 155.395455 50.118182 
L 159.372727 54.663636 
L 163.35 59.209091 
L 167.327273 59.209091 
L 171.304545 50.118182 
L 175.281818 45.572727 
L 179.259091 54.663636 
L 183.236364 54.663636 
L 187.213636 59.209091 
L 191.190909 54.663636 
L 195.168182 50.118182 
L 199.145455 31.936364 
L 203.122727 50.118182 
" style="fill:none;stroke:#ff7f0e;stroke-linecap:square;stroke-width:1.5;"/>
   </g>
   <g id="line2d_8">
    <path clip-path="url(#p8a1588ce0f)" d="M 123.577273 50.118182 
L 127.554545 54.663636 
L 131.531818 50.118182 
L 135.509091 54.663636 
L 139.486364 54.663636 
L 143.463636 50.118182 
L 147.440909 41.027273 
L 151.418182 54.663636 
L 155.395455 45.572727 
L 159.372727 45.572727 
L 163.35 27.390909 
L 167.327273 45.572727 
L 171.304545 54.663636 
L 175.281818 50.118182 
L 179.259091 45.572727 
L 183.236364 45.572727 
L 187.213636 41.027273 
L 191.190909 54.663636 
L 195.168182 59.209091 
L 199.145455 63.754545 
L 203.122727 54.663636 
" style="fill:none;stroke:#2ca02c;stroke-linecap:square;stroke-width:1.5;"/>
   </g>
   <g id="line2d_9">
    <path clip-path="url(#p8a1588ce0f)" d="M 123.577273 54.663636 
L 127.554545 54.663636 
L 131.531818 54.663636 
L 135.509091 45.572727 
L 139.486364 36.481818 
L 143.463636 41.027273 
L 147.440909 54.663636 
L 151.418182 50.118182 
L 155.395455 59.209091 
L 159.372727 45.572727 
L 163.35 59.209091 
L 167.327273 54.663636 
L 171.304545 54.663636 
L 175.281818 54.663636 
L 179.259091 59.209091 
L 183.236364 50.118182 
L 187.213636 50.118182 
L 191.190909 50.118182 
L 195.168182 63.754545 
L 199.145455 59.209091 
L 203.122727 50.118182 
" style="fill:none;stroke:#d62728;stroke-linecap:square;stroke-width:1.5;"/>
   </g>
   <g id="line2d_10">
    <path clip-path="url(#p8a1588ce0f)" d="M 123.577273 36.481818 
L 127.554545 45.572727 
L 131.531818 50.118182 
L 135.509091 50.118182 
L 139.486364 54.663636 
L 143.463636 54.663636 
L 147.440909 59.209091 
L 151.418182 45.572727 
L 155.395455 45.572727 
L 159.372727 50.118182 
L 163.35 50.118182 
L 167.327273 45.572727 
L 171.304545 36.481818 
L 175.281818 45.572727 
L 179.259091 31.936364 
L 183.236364 41.027273 
L 187.213636 45.572727 
L 191.190909 54.663636 
L 195.168182 54.663636 
L 199.145455 54.663636 
L 203.122727 50.118182 
" style="fill:none;stroke:#9467bd;stroke-linecap:square;stroke-width:1.5;"/>
   </g>
   <g id="patch_8">
    <path d="M 119.6 65.8 
L 119.6 20.8 
" style="fill:none;stroke:#000000;stroke-linecap:square;stroke-linejoin:miter;stroke-width:0.8;"/>
   </g>
   <g id="patch_9">
    <path d="M 207.1 65.8 
L 207.1 20.8 
" style="fill:none;stroke:#000000;stroke-linecap:square;stroke-linejoin:miter;stroke-width:0.8;"/>
   </g>
   <g id="patch_10">
    <path d="M 119.6 65.8 
L 207.1 65.8 
" style="fill:none;stroke:#000000;stroke-linecap:square;stroke-linejoin:miter;stroke-width:0.8;"/>
   </g>
   <g id="patch_11">
    <path d="M 119.6 20.8 
L 207.1 20.8 
" style="fill:none;stroke:#000000;stroke-linecap:square;stroke-linejoin:miter;stroke-width:0.8;"/>
   </g>
   <g id="text_2">
    <!-- Random seed: 1 -->
    <defs>
     <path d="M 12.40625 8.296875 
L 28.515625 8.296875 
L 28.515625 63.921875 
L 10.984375 60.40625 
L 10.984375 69.390625 
L 28.421875 72.90625 
L 38.28125 72.90625 
L 38.28125 8.296875 
L 54.390625 8.296875 
L 54.390625 0 
L 12.40625 0 
z
" id="DejaVuSans-31"/>
    </defs>
    <g transform="translate(138.878906 14.8)scale(0.06 -0.06)">
     <use xlink:href="#DejaVuSans-52"/>
     <use x="69.451172" xlink:href="#DejaVuSans-61"/>
     <use x="130.730469" xlink:href="#DejaVuSans-6e"/>
     <use x="194.109375" xlink:href="#DejaVuSans-64"/>
     <use x="257.585938" xlink:href="#DejaVuSans-6f"/>
     <use x="318.767578" xlink:href="#DejaVuSans-6d"/>
     <use x="416.179688" xlink:href="#DejaVuSans-20"/>
     <use x="447.966797" xlink:href="#DejaVuSans-73"/>
     <use x="500.066406" xlink:href="#DejaVuSans-65"/>
     <use x="561.589844" xlink:href="#DejaVuSans-65"/>
     <use x="623.113281" xlink:href="#DejaVuSans-64"/>
     <use x="686.589844" xlink:href="#DejaVuSans-3a"/>
     <use x="720.28125" xlink:href="#DejaVuSans-20"/>
     <use x="752.068359" xlink:href="#DejaVuSans-31"/>
    </g>
   </g>
  </g>
  <g id="axes_3">
   <g id="patch_12">
    <path d="M 224.9 65.8 
L 312.4 65.8 
L 312.4 20.8 
L 224.9 20.8 
z
" style="fill:#ffffff;"/>
   </g>
   <g id="matplotlib.axis_5"/>
   <g id="matplotlib.axis_6"/>
   <g id="line2d_11">
    <path clip-path="url(#p2b53922478)" d="M 228.877273 52.066234 
L 232.854545 40.377922 
L 236.831818 57.91039 
L 240.809091 52.066234 
L 244.786364 28.68961 
L 248.763636 40.377922 
L 252.740909 57.91039 
L 256.718182 46.222078 
L 260.695455 40.377922 
L 264.672727 52.066234 
L 268.65 63.754545 
L 272.627273 57.91039 
L 276.604545 40.377922 
L 280.581818 57.91039 
L 284.559091 63.754545 
L 288.536364 40.377922 
L 292.513636 28.68961 
L 296.490909 40.377922 
L 300.468182 34.533766 
L 304.445455 28.68961 
L 308.422727 22.845455 
" style="fill:none;stroke:#1f77b4;stroke-linecap:square;stroke-width:1.5;"/>
   </g>
   <g id="line2d_12">
    <path clip-path="url(#p2b53922478)" d="M 228.877273 57.91039 
L 232.854545 57.91039 
L 236.831818 40.377922 
L 240.809091 40.377922 
L 244.786364 46.222078 
L 248.763636 46.222078 
L 252.740909 40.377922 
L 256.718182 46.222078 
L 260.695455 46.222078 
L 264.672727 46.222078 
L 268.65 52.066234 
L 272.627273 57.91039 
L 276.604545 40.377922 
L 280.581818 63.754545 
L 284.559091 46.222078 
L 288.536364 52.066234 
L 292.513636 57.91039 
L 296.490909 57.91039 
L 300.468182 46.222078 
L 304.445455 46.222078 
L 308.422727 52.066234 
" style="fill:none;stroke:#ff7f0e;stroke-linecap:square;stroke-width:1.5;"/>
   </g>
   <g id="line2d_13">
    <path clip-path="url(#p2b53922478)" d="M 228.877273 40.377922 
L 232.854545 34.533766 
L 236.831818 40.377922 
L 240.809091 40.377922 
L 244.786364 40.377922 
L 248.763636 34.533766 
L 252.740909 40.377922 
L 256.718182 28.68961 
L 260.695455 40.377922 
L 264.672727 46.222078 
L 268.65 52.066234 
L 272.627273 40.377922 
L 276.604545 52.066234 
L 280.581818 22.845455 
L 284.559091 22.845455 
L 288.536364 34.533766 
L 292.513636 46.222078 
L 296.490909 52.066234 
L 300.468182 46.222078 
L 304.445455 57.91039 
L 308.422727 57.91039 
" style="fill:none;stroke:#2ca02c;stroke-linecap:square;stroke-width:1.5;"/>
   </g>
   <g id="line2d_14">
    <path clip-path="url(#p2b53922478)" d="M 228.877273 34.533766 
L 232.854545 57.91039 
L 236.831818 57.91039 
L 240.809091 52.066234 
L 244.786364 63.754545 
L 248.763636 57.91039 
L 252.740909 46.222078 
L 256.718182 57.91039 
L 260.695455 52.066234 
L 264.672727 57.91039 
L 268.65 40.377922 
L 272.627273 40.377922 
L 276.604545 40.377922 
L 280.581818 34.533766 
L 284.559091 46.222078 
L 288.536364 40.377922 
L 292.513636 46.222078 
L 296.490909 40.377922 
L 300.468182 52.066234 
L 304.445455 46.222078 
L 308.422727 40.377922 
" style="fill:none;stroke:#d62728;stroke-linecap:square;stroke-width:1.5;"/>
   </g>
   <g id="line2d_15">
    <path clip-path="url(#p2b53922478)" d="M 228.877273 46.222078 
L 232.854545 40.377922 
L 236.831818 34.533766 
L 240.809091 46.222078 
L 244.786364 52.066234 
L 248.763636 52.066234 
L 252.740909 46.222078 
L 256.718182 52.066234 
L 260.695455 52.066234 
L 264.672727 28.68961 
L 268.65 22.845455 
L 272.627273 34.533766 
L 276.604545 57.91039 
L 280.581818 52.066234 
L 284.559091 52.066234 
L 288.536364 63.754545 
L 292.513636 52.066234 
L 296.490909 40.377922 
L 300.468182 52.066234 
L 304.445455 52.066234 
L 308.422727 57.91039 
" style="fill:none;stroke:#9467bd;stroke-linecap:square;stroke-width:1.5;"/>
   </g>
   <g id="patch_13">
    <path d="M 224.9 65.8 
L 224.9 20.8 
" style="fill:none;stroke:#000000;stroke-linecap:square;stroke-linejoin:miter;stroke-width:0.8;"/>
   </g>
   <g id="patch_14">
    <path d="M 312.4 65.8 
L 312.4 20.8 
" style="fill:none;stroke:#000000;stroke-linecap:square;stroke-linejoin:miter;stroke-width:0.8;"/>
   </g>
   <g id="patch_15">
    <path d="M 224.9 65.8 
L 312.4 65.8 
" style="fill:none;stroke:#000000;stroke-linecap:square;stroke-linejoin:miter;stroke-width:0.8;"/>
   </g>
   <g id="patch_16">
    <path d="M 224.9 20.8 
L 312.4 20.8 
" style="fill:none;stroke:#000000;stroke-linecap:square;stroke-linejoin:miter;stroke-width:0.8;"/>
   </g>
   <g id="text_3">
    <!-- Random seed: 2 -->
    <defs>
     <path d="M 19.1875 8.296875 
L 53.609375 8.296875 
L 53.609375 0 
L 7.328125 0 
L 7.328125 8.296875 
Q 12.9375 14.109375 22.625 23.890625 
Q 32.328125 33.6875 34.8125 36.53125 
Q 39.546875 41.84375 41.421875 45.53125 
Q 43.3125 49.21875 43.3125 52.78125 
Q 43.3125 58.59375 39.234375 62.25 
Q 35.15625 65.921875 28.609375 65.921875 
Q 23.96875 65.921875 18.8125 64.3125 
Q 13.671875 62.703125 7.8125 59.421875 
L 7.8125 69.390625 
Q 13.765625 71.78125 18.9375 73 
Q 24.125 74.21875 28.421875 74.21875 
Q 39.75 74.21875 46.484375 68.546875 
Q 53.21875 62.890625 53.21875 53.421875 
Q 53.21875 48.921875 51.53125 44.890625 
Q 49.859375 40.875 45.40625 35.40625 
Q 44.1875 33.984375 37.640625 27.21875 
Q 31.109375 20.453125 19.1875 8.296875 
" id="DejaVuSans-32"/>
    </defs>
    <g transform="translate(244.178906 14.8)scale(0.06 -0.06)">
     <use xlink:href="#DejaVuSans-52"/>
     <use x="69.451172" xlink:href="#DejaVuSans-61"/>
     <use x="130.730469" xlink:href="#DejaVuSans-6e"/>
     <use x="194.109375" xlink:href="#DejaVuSans-64"/>
     <use x="257.585938" xlink:href="#DejaVuSans-6f"/>
     <use x="318.767578" xlink:href="#DejaVuSans-6d"/>
     <use x="416.179688" xlink:href="#DejaVuSans-20"/>
     <use x="447.966797" xlink:href="#DejaVuSans-73"/>
     <use x="500.066406" xlink:href="#DejaVuSans-65"/>
     <use x="561.589844" xlink:href="#DejaVuSans-65"/>
     <use x="623.113281" xlink:href="#DejaVuSans-64"/>
     <use x="686.589844" xlink:href="#DejaVuSans-3a"/>
     <use x="720.28125" xlink:href="#DejaVuSans-20"/>
     <use x="752.068359" xlink:href="#DejaVuSans-32"/>
    </g>
   </g>
  </g>
  <g id="axes_4">
   <g id="patch_17">
    <path d="M 330.2 65.8 
L 417.7 65.8 
L 417.7 20.8 
L 330.2 20.8 
z
" style="fill:#ffffff;"/>
   </g>
   <g id="matplotlib.axis_7"/>
   <g id="matplotlib.axis_8"/>
   <g id="line2d_16">
    <path clip-path="url(#p2ea22c4928)" d="M 334.177273 39.209091 
L 338.154545 43.3 
L 342.131818 43.3 
L 346.109091 43.3 
L 350.086364 43.3 
L 354.063636 55.572727 
L 358.040909 43.3 
L 362.018182 47.390909 
L 365.995455 59.663636 
L 369.972727 55.572727 
L 373.95 59.663636 
L 377.927273 55.572727 
L 381.904545 51.481818 
L 385.881818 47.390909 
L 389.859091 55.572727 
L 393.836364 51.481818 
L 397.813636 47.390909 
L 401.790909 51.481818 
L 405.768182 51.481818 
L 409.745455 51.481818 
L 413.722727 43.3 
" style="fill:none;stroke:#1f77b4;stroke-linecap:square;stroke-width:1.5;"/>
   </g>
   <g id="line2d_17">
    <path clip-path="url(#p2ea22c4928)" d="M 334.177273 47.390909 
L 338.154545 47.390909 
L 342.131818 47.390909 
L 346.109091 59.663636 
L 350.086364 51.481818 
L 354.063636 43.3 
L 358.040909 43.3 
L 362.018182 35.118182 
L 365.995455 31.027273 
L 369.972727 26.936364 
L 373.95 35.118182 
L 377.927273 55.572727 
L 381.904545 47.390909 
L 385.881818 55.572727 
L 389.859091 51.481818 
L 393.836364 51.481818 
L 397.813636 51.481818 
L 401.790909 51.481818 
L 405.768182 43.3 
L 409.745455 35.118182 
L 413.722727 43.3 
" style="fill:none;stroke:#ff7f0e;stroke-linecap:square;stroke-width:1.5;"/>
   </g>
   <g id="line2d_18">
    <path clip-path="url(#p2ea22c4928)" d="M 334.177273 43.3 
L 338.154545 47.390909 
L 342.131818 51.481818 
L 346.109091 47.390909 
L 350.086364 59.663636 
L 354.063636 51.481818 
L 358.040909 59.663636 
L 362.018182 63.754545 
L 365.995455 63.754545 
L 369.972727 55.572727 
L 373.95 35.118182 
L 377.927273 22.845455 
L 381.904545 39.209091 
L 385.881818 39.209091 
L 389.859091 39.209091 
L 393.836364 43.3 
L 397.813636 47.390909 
L 401.790909 47.390909 
L 405.768182 55.572727 
L 409.745455 47.390909 
L 413.722727 55.572727 
" style="fill:none;stroke:#2ca02c;stroke-linecap:square;stroke-width:1.5;"/>
   </g>
   <g id="line2d_19">
    <path clip-path="url(#p2ea22c4928)" d="M 334.177273 51.481818 
L 338.154545 47.390909 
L 342.131818 47.390909 
L 346.109091 47.390909 
L 350.086364 55.572727 
L 354.063636 51.481818 
L 358.040909 55.572727 
L 362.018182 55.572727 
L 365.995455 47.390909 
L 369.972727 43.3 
L 373.95 47.390909 
L 377.927273 51.481818 
L 381.904545 55.572727 
L 385.881818 43.3 
L 389.859091 51.481818 
L 393.836364 47.390909 
L 397.813636 51.481818 
L 401.790909 55.572727 
L 405.768182 47.390909 
L 409.745455 55.572727 
L 413.722727 55.572727 
" style="fill:none;stroke:#d62728;stroke-linecap:square;stroke-width:1.5;"/>
   </g>
   <g id="line2d_20">
    <path clip-path="url(#p2ea22c4928)" d="M 334.177273 55.572727 
L 338.154545 51.481818 
L 342.131818 47.390909 
L 346.109091 39.209091 
L 350.086364 26.936364 
L 354.063636 35.118182 
L 358.040909 35.118182 
L 362.018182 35.118182 
L 365.995455 35.118182 
L 369.972727 55.572727 
L 373.95 59.663636 
L 377.927273 51.481818 
L 381.904545 43.3 
L 385.881818 51.481818 
L 389.859091 39.209091 
L 393.836364 43.3 
L 397.813636 39.209091 
L 401.790909 31.027273 
L 405.768182 39.209091 
L 409.745455 47.390909 
L 413.722727 39.209091 
" style="fill:none;stroke:#9467bd;stroke-linecap:square;stroke-width:1.5;"/>
   </g>
   <g id="patch_18">
    <path d="M 330.2 65.8 
L 330.2 20.8 
" style="fill:none;stroke:#000000;stroke-linecap:square;stroke-linejoin:miter;stroke-width:0.8;"/>
   </g>
   <g id="patch_19">
    <path d="M 417.7 65.8 
L 417.7 20.8 
" style="fill:none;stroke:#000000;stroke-linecap:square;stroke-linejoin:miter;stroke-width:0.8;"/>
   </g>
   <g id="patch_20">
    <path d="M 330.2 65.8 
L 417.7 65.8 
" style="fill:none;stroke:#000000;stroke-linecap:square;stroke-linejoin:miter;stroke-width:0.8;"/>
   </g>
   <g id="patch_21">
    <path d="M 330.2 20.8 
L 417.7 20.8 
" style="fill:none;stroke:#000000;stroke-linecap:square;stroke-linejoin:miter;stroke-width:0.8;"/>
   </g>
   <g id="text_4">
    <!-- Random seed: 3 -->
    <defs>
     <path d="M 40.578125 39.3125 
Q 47.65625 37.796875 51.625 33 
Q 55.609375 28.21875 55.609375 21.1875 
Q 55.609375 10.40625 48.1875 4.484375 
Q 40.765625 -1.421875 27.09375 -1.421875 
Q 22.515625 -1.421875 17.65625 -0.515625 
Q 12.796875 0.390625 7.625 2.203125 
L 7.625 11.71875 
Q 11.71875 9.328125 16.59375 8.109375 
Q 21.484375 6.890625 26.8125 6.890625 
Q 36.078125 6.890625 40.9375 10.546875 
Q 45.796875 14.203125 45.796875 21.1875 
Q 45.796875 27.640625 41.28125 31.265625 
Q 36.765625 34.90625 28.71875 34.90625 
L 20.21875 34.90625 
L 20.21875 43.015625 
L 29.109375 43.015625 
Q 36.375 43.015625 40.234375 45.921875 
Q 44.09375 48.828125 44.09375 54.296875 
Q 44.09375 59.90625 40.109375 62.90625 
Q 36.140625 65.921875 28.71875 65.921875 
Q 24.65625 65.921875 20.015625 65.03125 
Q 15.375 64.15625 9.8125 62.3125 
L 9.8125 71.09375 
Q 15.4375 72.65625 20.34375 73.4375 
Q 25.25 74.21875 29.59375 74.21875 
Q 40.828125 74.21875 47.359375 69.109375 
Q 53.90625 64.015625 53.90625 55.328125 
Q 53.90625 49.265625 50.4375 45.09375 
Q 46.96875 40.921875 40.578125 39.3125 
" id="DejaVuSans-33"/>
    </defs>
    <g transform="translate(349.478906 14.8)scale(0.06 -0.06)">
     <use xlink:href="#DejaVuSans-52"/>
     <use x="69.451172" xlink:href="#DejaVuSans-61"/>
     <use x="130.730469" xlink:href="#DejaVuSans-6e"/>
     <use x="194.109375" xlink:href="#DejaVuSans-64"/>
     <use x="257.585938" xlink:href="#DejaVuSans-6f"/>
     <use x="318.767578" xlink:href="#DejaVuSans-6d"/>
     <use x="416.179688" xlink:href="#DejaVuSans-20"/>
     <use x="447.966797" xlink:href="#DejaVuSans-73"/>
     <use x="500.066406" xlink:href="#DejaVuSans-65"/>
     <use x="561.589844" xlink:href="#DejaVuSans-65"/>
     <use x="623.113281" xlink:href="#DejaVuSans-64"/>
     <use x="686.589844" xlink:href="#DejaVuSans-3a"/>
     <use x="720.28125" xlink:href="#DejaVuSans-20"/>
     <use x="752.068359" xlink:href="#DejaVuSans-33"/>
    </g>
   </g>
  </g>
  <g id="axes_5">
   <g id="patch_22">
    <path d="M 14.3 135.1 
L 101.8 135.1 
L 101.8 90.1 
L 14.3 90.1 
z
" style="fill:#ffffff;"/>
   </g>
   <g id="matplotlib.axis_9"/>
   <g id="matplotlib.axis_10"/>
   <g id="line2d_21">
    <path clip-path="url(#pd1de50df9c)" d="M 18.277273 105.781818 
L 22.254545 92.145455 
L 26.231818 105.781818 
L 30.209091 105.781818 
L 34.186364 119.418182 
L 38.163636 119.418182 
L 42.140909 119.418182 
L 46.118182 112.6 
L 50.095455 119.418182 
L 54.072727 133.054545 
L 58.05 105.781818 
L 62.027273 119.418182 
L 66.004545 112.6 
L 69.981818 98.963636 
L 73.959091 112.6 
L 77.936364 112.6 
L 81.913636 98.963636 
L 85.890909 119.418182 
L 89.868182 105.781818 
L 93.845455 126.236364 
L 97.822727 133.054545 
" style="fill:none;stroke:#1f77b4;stroke-linecap:square;stroke-width:1.5;"/>
   </g>
   <g id="line2d_22">
    <path clip-path="url(#pd1de50df9c)" d="M 18.277273 112.6 
L 22.254545 112.6 
L 26.231818 119.418182 
L 30.209091 112.6 
L 34.186364 105.781818 
L 38.163636 112.6 
L 42.140909 112.6 
L 46.118182 126.236364 
L 50.095455 98.963636 
L 54.072727 112.6 
L 58.05 105.781818 
L 62.027273 98.963636 
L 66.004545 98.963636 
L 69.981818 92.145455 
L 73.959091 105.781818 
L 77.936364 126.236364 
L 81.913636 126.236364 
L 85.890909 92.145455 
L 89.868182 98.963636 
L 93.845455 98.963636 
L 97.822727 98.963636 
" style="fill:none;stroke:#ff7f0e;stroke-linecap:square;stroke-width:1.5;"/>
   </g>
   <g id="line2d_23">
    <path clip-path="url(#pd1de50df9c)" d="M 18.277273 98.963636 
L 22.254545 112.6 
L 26.231818 105.781818 
L 30.209091 133.054545 
L 34.186364 133.054545 
L 38.163636 112.6 
L 42.140909 112.6 
L 46.118182 105.781818 
L 50.095455 112.6 
L 54.072727 119.418182 
L 58.05 133.054545 
L 62.027273 105.781818 
L 66.004545 112.6 
L 69.981818 119.418182 
L 73.959091 105.781818 
L 77.936364 105.781818 
L 81.913636 119.418182 
L 85.890909 119.418182 
L 89.868182 133.054545 
L 93.845455 126.236364 
L 97.822727 112.6 
" style="fill:none;stroke:#2ca02c;stroke-linecap:square;stroke-width:1.5;"/>
   </g>
   <g id="line2d_24">
    <path clip-path="url(#pd1de50df9c)" d="M 18.277273 133.054545 
L 22.254545 133.054545 
L 26.231818 119.418182 
L 30.209091 119.418182 
L 34.186364 98.963636 
L 38.163636 98.963636 
L 42.140909 105.781818 
L 46.118182 112.6 
L 50.095455 112.6 
L 54.072727 98.963636 
L 58.05 105.781818 
L 62.027273 112.6 
L 66.004545 119.418182 
L 69.981818 133.054545 
L 73.959091 126.236364 
L 77.936364 119.418182 
L 81.913636 112.6 
L 85.890909 105.781818 
L 89.868182 105.781818 
L 93.845455 105.781818 
L 97.822727 105.781818 
" style="fill:none;stroke:#d62728;stroke-linecap:square;stroke-width:1.5;"/>
   </g>
   <g id="line2d_25">
    <path clip-path="url(#pd1de50df9c)" d="M 18.277273 112.6 
L 22.254545 112.6 
L 26.231818 112.6 
L 30.209091 92.145455 
L 34.186364 105.781818 
L 38.163636 119.418182 
L 42.140909 112.6 
L 46.118182 105.781818 
L 50.095455 119.418182 
L 54.072727 98.963636 
L 58.05 112.6 
L 62.027273 126.236364 
L 66.004545 119.418182 
L 69.981818 119.418182 
L 73.959091 112.6 
L 77.936364 98.963636 
L 81.913636 105.781818 
L 85.890909 126.236364 
L 89.868182 119.418182 
L 93.845455 105.781818 
L 97.822727 112.6 
" style="fill:none;stroke:#9467bd;stroke-linecap:square;stroke-width:1.5;"/>
   </g>
   <g id="patch_23">
    <path d="M 14.3 135.1 
L 14.3 90.1 
" style="fill:none;stroke:#000000;stroke-linecap:square;stroke-linejoin:miter;stroke-width:0.8;"/>
   </g>
   <g id="patch_24">
    <path d="M 101.8 135.1 
L 101.8 90.1 
" style="fill:none;stroke:#000000;stroke-linecap:square;stroke-linejoin:miter;stroke-width:0.8;"/>
   </g>
   <g id="patch_25">
    <path d="M 14.3 135.1 
L 101.8 135.1 
" style="fill:none;stroke:#000000;stroke-linecap:square;stroke-linejoin:miter;stroke-width:0.8;"/>
   </g>
   <g id="patch_26">
    <path d="M 14.3 90.1 
L 101.8 90.1 
" style="fill:none;stroke:#000000;stroke-linecap:square;stroke-linejoin:miter;stroke-width:0.8;"/>
   </g>
   <g id="text_5">
    <!-- Random seed: 4 -->
    <defs>
     <path d="M 37.796875 64.3125 
L 12.890625 25.390625 
L 37.796875 25.390625 
z
M 35.203125 72.90625 
L 47.609375 72.90625 
L 47.609375 25.390625 
L 58.015625 25.390625 
L 58.015625 17.1875 
L 47.609375 17.1875 
L 47.609375 0 
L 37.796875 0 
L 37.796875 17.1875 
L 4.890625 17.1875 
L 4.890625 26.703125 
z
" id="DejaVuSans-34"/>
    </defs>
    <g transform="translate(33.578906 84.1)scale(0.06 -0.06)">
     <use xlink:href="#DejaVuSans-52"/>
     <use x="69.451172" xlink:href="#DejaVuSans-61"/>
     <use x="130.730469" xlink:href="#DejaVuSans-6e"/>
     <use x="194.109375" xlink:href="#DejaVuSans-64"/>
     <use x="257.585938" xlink:href="#DejaVuSans-6f"/>
     <use x="318.767578" xlink:href="#DejaVuSans-6d"/>
     <use x="416.179688" xlink:href="#DejaVuSans-20"/>
     <use x="447.966797" xlink:href="#DejaVuSans-73"/>
     <use x="500.066406" xlink:href="#DejaVuSans-65"/>
     <use x="561.589844" xlink:href="#DejaVuSans-65"/>
     <use x="623.113281" xlink:href="#DejaVuSans-64"/>
     <use x="686.589844" xlink:href="#DejaVuSans-3a"/>
     <use x="720.28125" xlink:href="#DejaVuSans-20"/>
     <use x="752.068359" xlink:href="#DejaVuSans-34"/>
    </g>
   </g>
  </g>
  <g id="axes_6">
   <g id="patch_27">
    <path d="M 119.6 135.1 
L 207.1 135.1 
L 207.1 90.1 
L 119.6 90.1 
z
" style="fill:#ffffff;"/>
   </g>
   <g id="matplotlib.axis_11"/>
   <g id="matplotlib.axis_12"/>
   <g id="line2d_26">
    <path clip-path="url(#p4eba4e3391)" d="M 123.577273 110.327273 
L 127.554545 119.418182 
L 131.531818 114.872727 
L 135.509091 101.236364 
L 139.486364 114.872727 
L 143.463636 114.872727 
L 147.440909 114.872727 
L 151.418182 123.963636 
L 155.395455 128.509091 
L 159.372727 110.327273 
L 163.35 110.327273 
L 167.327273 119.418182 
L 171.304545 114.872727 
L 175.281818 110.327273 
L 179.259091 119.418182 
L 183.236364 110.327273 
L 187.213636 114.872727 
L 191.190909 119.418182 
L 195.168182 110.327273 
L 199.145455 114.872727 
L 203.122727 119.418182 
" style="fill:none;stroke:#1f77b4;stroke-linecap:square;stroke-width:1.5;"/>
   </g>
   <g id="line2d_27">
    <path clip-path="url(#p4eba4e3391)" d="M 123.577273 110.327273 
L 127.554545 105.781818 
L 131.531818 110.327273 
L 135.509091 123.963636 
L 139.486364 114.872727 
L 143.463636 110.327273 
L 147.440909 119.418182 
L 151.418182 105.781818 
L 155.395455 114.872727 
L 159.372727 119.418182 
L 163.35 128.509091 
L 167.327273 119.418182 
L 171.304545 123.963636 
L 175.281818 114.872727 
L 179.259091 110.327273 
L 183.236364 119.418182 
L 187.213636 119.418182 
L 191.190909 105.781818 
L 195.168182 114.872727 
L 199.145455 119.418182 
L 203.122727 110.327273 
" style="fill:none;stroke:#ff7f0e;stroke-linecap:square;stroke-width:1.5;"/>
   </g>
   <g id="line2d_28">
    <path clip-path="url(#p4eba4e3391)" d="M 123.577273 123.963636 
L 127.554545 110.327273 
L 131.531818 119.418182 
L 135.509091 114.872727 
L 139.486364 119.418182 
L 143.463636 110.327273 
L 147.440909 114.872727 
L 151.418182 105.781818 
L 155.395455 92.145455 
L 159.372727 105.781818 
L 163.35 101.236364 
L 167.327273 105.781818 
L 171.304545 92.145455 
L 175.281818 105.781818 
L 179.259091 114.872727 
L 183.236364 110.327273 
L 187.213636 105.781818 
L 191.190909 110.327273 
L 195.168182 110.327273 
L 199.145455 114.872727 
L 203.122727 105.781818 
" style="fill:none;stroke:#2ca02c;stroke-linecap:square;stroke-width:1.5;"/>
   </g>
   <g id="line2d_29">
    <path clip-path="url(#p4eba4e3391)" d="M 123.577273 114.872727 
L 127.554545 114.872727 
L 131.531818 101.236364 
L 135.509091 114.872727 
L 139.486364 110.327273 
L 143.463636 123.963636 
L 147.440909 110.327273 
L 151.418182 114.872727 
L 155.395455 119.418182 
L 159.372727 114.872727 
L 163.35 119.418182 
L 167.327273 114.872727 
L 171.304545 133.054545 
L 175.281818 123.963636 
L 179.259091 123.963636 
L 183.236364 123.963636 
L 187.213636 119.418182 
L 191.190909 119.418182 
L 195.168182 119.418182 
L 199.145455 114.872727 
L 203.122727 123.963636 
" style="fill:none;stroke:#d62728;stroke-linecap:square;stroke-width:1.5;"/>
   </g>
   <g id="line2d_30">
    <path clip-path="url(#p4eba4e3391)" d="M 123.577273 114.872727 
L 127.554545 123.963636 
L 131.531818 128.509091 
L 135.509091 119.418182 
L 139.486364 114.872727 
L 143.463636 114.872727 
L 147.440909 114.872727 
L 151.418182 123.963636 
L 155.395455 119.418182 
L 159.372727 123.963636 
L 163.35 114.872727 
L 167.327273 114.872727 
L 171.304545 110.327273 
L 175.281818 119.418182 
L 179.259091 105.781818 
L 183.236364 110.327273 
L 187.213636 114.872727 
L 191.190909 119.418182 
L 195.168182 119.418182 
L 199.145455 110.327273 
L 203.122727 114.872727 
" style="fill:none;stroke:#9467bd;stroke-linecap:square;stroke-width:1.5;"/>
   </g>
   <g id="patch_28">
    <path d="M 119.6 135.1 
L 119.6 90.1 
" style="fill:none;stroke:#000000;stroke-linecap:square;stroke-linejoin:miter;stroke-width:0.8;"/>
   </g>
   <g id="patch_29">
    <path d="M 207.1 135.1 
L 207.1 90.1 
" style="fill:none;stroke:#000000;stroke-linecap:square;stroke-linejoin:miter;stroke-width:0.8;"/>
   </g>
   <g id="patch_30">
    <path d="M 119.6 135.1 
L 207.1 135.1 
" style="fill:none;stroke:#000000;stroke-linecap:square;stroke-linejoin:miter;stroke-width:0.8;"/>
   </g>
   <g id="patch_31">
    <path d="M 119.6 90.1 
L 207.1 90.1 
" style="fill:none;stroke:#000000;stroke-linecap:square;stroke-linejoin:miter;stroke-width:0.8;"/>
   </g>
   <g id="text_6">
    <!-- Random seed: 5 -->
    <defs>
     <path d="M 10.796875 72.90625 
L 49.515625 72.90625 
L 49.515625 64.59375 
L 19.828125 64.59375 
L 19.828125 46.734375 
Q 21.96875 47.46875 24.109375 47.828125 
Q 26.265625 48.1875 28.421875 48.1875 
Q 40.625 48.1875 47.75 41.5 
Q 54.890625 34.8125 54.890625 23.390625 
Q 54.890625 11.625 47.5625 5.09375 
Q 40.234375 -1.421875 26.90625 -1.421875 
Q 22.3125 -1.421875 17.546875 -0.640625 
Q 12.796875 0.140625 7.71875 1.703125 
L 7.71875 11.625 
Q 12.109375 9.234375 16.796875 8.0625 
Q 21.484375 6.890625 26.703125 6.890625 
Q 35.15625 6.890625 40.078125 11.328125 
Q 45.015625 15.765625 45.015625 23.390625 
Q 45.015625 31 40.078125 35.4375 
Q 35.15625 39.890625 26.703125 39.890625 
Q 22.75 39.890625 18.8125 39.015625 
Q 14.890625 38.140625 10.796875 36.28125 
z
" id="DejaVuSans-35"/>
    </defs>
    <g transform="translate(138.878906 84.1)scale(0.06 -0.06)">
     <use xlink:href="#DejaVuSans-52"/>
     <use x="69.451172" xlink:href="#DejaVuSans-61"/>
     <use x="130.730469" xlink:href="#DejaVuSans-6e"/>
     <use x="194.109375" xlink:href="#DejaVuSans-64"/>
     <use x="257.585938" xlink:href="#DejaVuSans-6f"/>
     <use x="318.767578" xlink:href="#DejaVuSans-6d"/>
     <use x="416.179688" xlink:href="#DejaVuSans-20"/>
     <use x="447.966797" xlink:href="#DejaVuSans-73"/>
     <use x="500.066406" xlink:href="#DejaVuSans-65"/>
     <use x="561.589844" xlink:href="#DejaVuSans-65"/>
     <use x="623.113281" xlink:href="#DejaVuSans-64"/>
     <use x="686.589844" xlink:href="#DejaVuSans-3a"/>
     <use x="720.28125" xlink:href="#DejaVuSans-20"/>
     <use x="752.068359" xlink:href="#DejaVuSans-35"/>
    </g>
   </g>
  </g>
  <g id="axes_7">
   <g id="patch_32">
    <path d="M 224.9 135.1 
L 312.4 135.1 
L 312.4 90.1 
L 224.9 90.1 
z
" style="fill:#ffffff;"/>
   </g>
   <g id="matplotlib.axis_13"/>
   <g id="matplotlib.axis_14"/>
   <g id="line2d_31">
    <path clip-path="url(#p0952992835)" d="M 228.877273 128.963636 
L 232.854545 133.054545 
L 236.831818 124.872727 
L 240.809091 124.872727 
L 244.786364 128.963636 
L 248.763636 112.6 
L 252.740909 108.509091 
L 256.718182 108.509091 
L 260.695455 124.872727 
L 264.672727 124.872727 
L 268.65 116.690909 
L 272.627273 124.872727 
L 276.604545 128.963636 
L 280.581818 120.781818 
L 284.559091 120.781818 
L 288.536364 120.781818 
L 292.513636 124.872727 
L 296.490909 133.054545 
L 300.468182 128.963636 
L 304.445455 124.872727 
L 308.422727 116.690909 
" style="fill:none;stroke:#1f77b4;stroke-linecap:square;stroke-width:1.5;"/>
   </g>
   <g id="line2d_32">
    <path clip-path="url(#p0952992835)" d="M 228.877273 112.6 
L 232.854545 112.6 
L 236.831818 133.054545 
L 240.809091 133.054545 
L 244.786364 128.963636 
L 248.763636 133.054545 
L 252.740909 124.872727 
L 256.718182 112.6 
L 260.695455 92.145455 
L 264.672727 112.6 
L 268.65 108.509091 
L 272.627273 116.690909 
L 276.604545 128.963636 
L 280.581818 133.054545 
L 284.559091 124.872727 
L 288.536364 120.781818 
L 292.513636 112.6 
L 296.490909 108.509091 
L 300.468182 108.509091 
L 304.445455 116.690909 
L 308.422727 116.690909 
" style="fill:none;stroke:#ff7f0e;stroke-linecap:square;stroke-width:1.5;"/>
   </g>
   <g id="line2d_33">
    <path clip-path="url(#p0952992835)" d="M 228.877273 116.690909 
L 232.854545 100.327273 
L 236.831818 104.418182 
L 240.809091 104.418182 
L 244.786364 116.690909 
L 248.763636 128.963636 
L 252.740909 133.054545 
L 256.718182 128.963636 
L 260.695455 128.963636 
L 264.672727 112.6 
L 268.65 116.690909 
L 272.627273 116.690909 
L 276.604545 104.418182 
L 280.581818 112.6 
L 284.559091 116.690909 
L 288.536364 116.690909 
L 292.513636 124.872727 
L 296.490909 116.690909 
L 300.468182 112.6 
L 304.445455 116.690909 
L 308.422727 120.781818 
" style="fill:none;stroke:#2ca02c;stroke-linecap:square;stroke-width:1.5;"/>
   </g>
   <g id="line2d_34">
    <path clip-path="url(#p0952992835)" d="M 228.877273 128.963636 
L 232.854545 133.054545 
L 236.831818 112.6 
L 240.809091 116.690909 
L 244.786364 124.872727 
L 248.763636 128.963636 
L 252.740909 120.781818 
L 256.718182 133.054545 
L 260.695455 133.054545 
L 264.672727 124.872727 
L 268.65 128.963636 
L 272.627273 124.872727 
L 276.604545 120.781818 
L 280.581818 124.872727 
L 284.559091 120.781818 
L 288.536364 128.963636 
L 292.513636 120.781818 
L 296.490909 120.781818 
L 300.468182 128.963636 
L 304.445455 124.872727 
L 308.422727 128.963636 
" style="fill:none;stroke:#d62728;stroke-linecap:square;stroke-width:1.5;"/>
   </g>
   <g id="line2d_35">
    <path clip-path="url(#p0952992835)" d="M 228.877273 116.690909 
L 232.854545 124.872727 
L 236.831818 128.963636 
L 240.809091 124.872727 
L 244.786364 104.418182 
L 248.763636 100.327273 
L 252.740909 116.690909 
L 256.718182 120.781818 
L 260.695455 124.872727 
L 264.672727 128.963636 
L 268.65 133.054545 
L 272.627273 120.781818 
L 276.604545 120.781818 
L 280.581818 112.6 
L 284.559091 120.781818 
L 288.536364 116.690909 
L 292.513636 120.781818 
L 296.490909 124.872727 
L 300.468182 124.872727 
L 304.445455 120.781818 
L 308.422727 120.781818 
" style="fill:none;stroke:#9467bd;stroke-linecap:square;stroke-width:1.5;"/>
   </g>
   <g id="patch_33">
    <path d="M 224.9 135.1 
L 224.9 90.1 
" style="fill:none;stroke:#000000;stroke-linecap:square;stroke-linejoin:miter;stroke-width:0.8;"/>
   </g>
   <g id="patch_34">
    <path d="M 312.4 135.1 
L 312.4 90.1 
" style="fill:none;stroke:#000000;stroke-linecap:square;stroke-linejoin:miter;stroke-width:0.8;"/>
   </g>
   <g id="patch_35">
    <path d="M 224.9 135.1 
L 312.4 135.1 
" style="fill:none;stroke:#000000;stroke-linecap:square;stroke-linejoin:miter;stroke-width:0.8;"/>
   </g>
   <g id="patch_36">
    <path d="M 224.9 90.1 
L 312.4 90.1 
" style="fill:none;stroke:#000000;stroke-linecap:square;stroke-linejoin:miter;stroke-width:0.8;"/>
   </g>
   <g id="text_7">
    <!-- Random seed: 6 -->
    <defs>
     <path d="M 33.015625 40.375 
Q 26.375 40.375 22.484375 35.828125 
Q 18.609375 31.296875 18.609375 23.390625 
Q 18.609375 15.53125 22.484375 10.953125 
Q 26.375 6.390625 33.015625 6.390625 
Q 39.65625 6.390625 43.53125 10.953125 
Q 47.40625 15.53125 47.40625 23.390625 
Q 47.40625 31.296875 43.53125 35.828125 
Q 39.65625 40.375 33.015625 40.375 
M 52.59375 71.296875 
L 52.59375 62.3125 
Q 48.875 64.0625 45.09375 64.984375 
Q 41.3125 65.921875 37.59375 65.921875 
Q 27.828125 65.921875 22.671875 59.328125 
Q 17.53125 52.734375 16.796875 39.40625 
Q 19.671875 43.65625 24.015625 45.921875 
Q 28.375 48.1875 33.59375 48.1875 
Q 44.578125 48.1875 50.953125 41.515625 
Q 57.328125 34.859375 57.328125 23.390625 
Q 57.328125 12.15625 50.6875 5.359375 
Q 44.046875 -1.421875 33.015625 -1.421875 
Q 20.359375 -1.421875 13.671875 8.265625 
Q 6.984375 17.96875 6.984375 36.375 
Q 6.984375 53.65625 15.1875 63.9375 
Q 23.390625 74.21875 37.203125 74.21875 
Q 40.921875 74.21875 44.703125 73.484375 
Q 48.484375 72.75 52.59375 71.296875 
" id="DejaVuSans-36"/>
    </defs>
    <g transform="translate(244.178906 84.1)scale(0.06 -0.06)">
     <use xlink:href="#DejaVuSans-52"/>
     <use x="69.451172" xlink:href="#DejaVuSans-61"/>
     <use x="130.730469" xlink:href="#DejaVuSans-6e"/>
     <use x="194.109375" xlink:href="#DejaVuSans-64"/>
     <use x="257.585938" xlink:href="#DejaVuSans-6f"/>
     <use x="318.767578" xlink:href="#DejaVuSans-6d"/>
     <use x="416.179688" xlink:href="#DejaVuSans-20"/>
     <use x="447.966797" xlink:href="#DejaVuSans-73"/>
     <use x="500.066406" xlink:href="#DejaVuSans-65"/>
     <use x="561.589844" xlink:href="#DejaVuSans-65"/>
     <use x="623.113281" xlink:href="#DejaVuSans-64"/>
     <use x="686.589844" xlink:href="#DejaVuSans-3a"/>
     <use x="720.28125" xlink:href="#DejaVuSans-20"/>
     <use x="752.068359" xlink:href="#DejaVuSans-36"/>
    </g>
   </g>
  </g>
  <g id="axes_8">
   <g id="patch_37">
    <path d="M 330.2 135.1 
L 417.7 135.1 
L 417.7 90.1 
L 330.2 90.1 
z
" style="fill:#ffffff;"/>
   </g>
   <g id="matplotlib.axis_15"/>
   <g id="matplotlib.axis_16"/>
   <g id="line2d_36">
    <path clip-path="url(#pa848128935)" d="M 334.177273 115.522078 
L 338.154545 97.98961 
L 342.131818 109.677922 
L 346.109091 121.366234 
L 350.086364 121.366234 
L 354.063636 121.366234 
L 358.040909 133.054545 
L 362.018182 109.677922 
L 365.995455 109.677922 
L 369.972727 109.677922 
L 373.95 109.677922 
L 377.927273 115.522078 
L 381.904545 127.21039 
L 385.881818 121.366234 
L 389.859091 115.522078 
L 393.836364 103.833766 
L 397.813636 121.366234 
L 401.790909 109.677922 
L 405.768182 109.677922 
L 409.745455 115.522078 
L 413.722727 103.833766 
" style="fill:none;stroke:#1f77b4;stroke-linecap:square;stroke-width:1.5;"/>
   </g>
   <g id="line2d_37">
    <path clip-path="url(#pa848128935)" d="M 334.177273 121.366234 
L 338.154545 127.21039 
L 342.131818 121.366234 
L 346.109091 115.522078 
L 350.086364 121.366234 
L 354.063636 115.522078 
L 358.040909 115.522078 
L 362.018182 127.21039 
L 365.995455 121.366234 
L 369.972727 121.366234 
L 373.95 115.522078 
L 377.927273 109.677922 
L 381.904545 133.054545 
L 385.881818 127.21039 
L 389.859091 127.21039 
L 393.836364 127.21039 
L 397.813636 121.366234 
L 401.790909 127.21039 
L 405.768182 121.366234 
L 409.745455 121.366234 
L 413.722727 121.366234 
" style="fill:none;stroke:#ff7f0e;stroke-linecap:square;stroke-width:1.5;"/>
   </g>
   <g id="line2d_38">
    <path clip-path="url(#pa848128935)" d="M 334.177273 121.366234 
L 338.154545 127.21039 
L 342.131818 127.21039 
L 346.109091 121.366234 
L 350.086364 121.366234 
L 354.063636 115.522078 
L 358.040909 121.366234 
L 362.018182 109.677922 
L 365.995455 109.677922 
L 369.972727 115.522078 
L 373.95 115.522078 
L 377.927273 127.21039 
L 381.904545 109.677922 
L 385.881818 121.366234 
L 389.859091 121.366234 
L 393.836364 109.677922 
L 397.813636 127.21039 
L 401.790909 127.21039 
L 405.768182 121.366234 
L 409.745455 127.21039 
L 413.722727 121.366234 
" style="fill:none;stroke:#2ca02c;stroke-linecap:square;stroke-width:1.5;"/>
   </g>
   <g id="line2d_39">
    <path clip-path="url(#pa848128935)" d="M 334.177273 115.522078 
L 338.154545 115.522078 
L 342.131818 103.833766 
L 346.109091 92.145455 
L 350.086364 97.98961 
L 354.063636 103.833766 
L 358.040909 97.98961 
L 362.018182 109.677922 
L 365.995455 115.522078 
L 369.972727 127.21039 
L 373.95 121.366234 
L 377.927273 115.522078 
L 381.904545 103.833766 
L 385.881818 97.98961 
L 389.859091 92.145455 
L 393.836364 109.677922 
L 397.813636 115.522078 
L 401.790909 115.522078 
L 405.768182 127.21039 
L 409.745455 115.522078 
L 413.722727 121.366234 
" style="fill:none;stroke:#d62728;stroke-linecap:square;stroke-width:1.5;"/>
   </g>
   <g id="line2d_40">
    <path clip-path="url(#pa848128935)" d="M 334.177273 103.833766 
L 338.154545 109.677922 
L 342.131818 115.522078 
L 346.109091 127.21039 
L 350.086364 115.522078 
L 354.063636 121.366234 
L 358.040909 109.677922 
L 362.018182 121.366234 
L 365.995455 121.366234 
L 369.972727 103.833766 
L 373.95 115.522078 
L 377.927273 109.677922 
L 381.904545 103.833766 
L 385.881818 109.677922 
L 389.859091 121.366234 
L 393.836364 127.21039 
L 397.813636 92.145455 
L 401.790909 97.98961 
L 405.768182 97.98961 
L 409.745455 97.98961 
L 413.722727 109.677922 
" style="fill:none;stroke:#9467bd;stroke-linecap:square;stroke-width:1.5;"/>
   </g>
   <g id="patch_38">
    <path d="M 330.2 135.1 
L 330.2 90.1 
" style="fill:none;stroke:#000000;stroke-linecap:square;stroke-linejoin:miter;stroke-width:0.8;"/>
   </g>
   <g id="patch_39">
    <path d="M 417.7 135.1 
L 417.7 90.1 
" style="fill:none;stroke:#000000;stroke-linecap:square;stroke-linejoin:miter;stroke-width:0.8;"/>
   </g>
   <g id="patch_40">
    <path d="M 330.2 135.1 
L 417.7 135.1 
" style="fill:none;stroke:#000000;stroke-linecap:square;stroke-linejoin:miter;stroke-width:0.8;"/>
   </g>
   <g id="patch_41">
    <path d="M 330.2 90.1 
L 417.7 90.1 
" style="fill:none;stroke:#000000;stroke-linecap:square;stroke-linejoin:miter;stroke-width:0.8;"/>
   </g>
   <g id="text_8">
    <!-- Random seed: 7 -->
    <defs>
     <path d="M 8.203125 72.90625 
L 55.078125 72.90625 
L 55.078125 68.703125 
L 28.609375 0 
L 18.3125 0 
L 43.21875 64.59375 
L 8.203125 64.59375 
z
" id="DejaVuSans-37"/>
    </defs>
    <g transform="translate(349.478906 84.1)scale(0.06 -0.06)">
     <use xlink:href="#DejaVuSans-52"/>
     <use x="69.451172" xlink:href="#DejaVuSans-61"/>
     <use x="130.730469" xlink:href="#DejaVuSans-6e"/>
     <use x="194.109375" xlink:href="#DejaVuSans-64"/>
     <use x="257.585938" xlink:href="#DejaVuSans-6f"/>
     <use x="318.767578" xlink:href="#DejaVuSans-6d"/>
     <use x="416.179688" xlink:href="#DejaVuSans-20"/>
     <use x="447.966797" xlink:href="#DejaVuSans-73"/>
     <use x="500.066406" xlink:href="#DejaVuSans-65"/>
     <use x="561.589844" xlink:href="#DejaVuSans-65"/>
     <use x="623.113281" xlink:href="#DejaVuSans-64"/>
     <use x="686.589844" xlink:href="#DejaVuSans-3a"/>
     <use x="720.28125" xlink:href="#DejaVuSans-20"/>
     <use x="752.068359" xlink:href="#DejaVuSans-37"/>
    </g>
   </g>
  </g>
  <g id="axes_9">
   <g id="patch_42">
    <path d="M 14.3 204.4 
L 101.8 204.4 
L 101.8 159.4 
L 14.3 159.4 
z
" style="fill:#ffffff;"/>
   </g>
   <g id="matplotlib.axis_17"/>
   <g id="matplotlib.axis_18"/>
   <g id="line2d_41">
    <path clip-path="url(#p97c52a6eec)" d="M 18.277273 185.990909 
L 22.254545 194.172727 
L 26.231818 190.081818 
L 30.209091 181.9 
L 34.186364 173.718182 
L 38.163636 173.718182 
L 42.140909 177.809091 
L 46.118182 185.990909 
L 50.095455 169.627273 
L 54.072727 185.990909 
L 58.05 190.081818 
L 62.027273 194.172727 
L 66.004545 202.354545 
L 69.981818 198.263636 
L 73.959091 190.081818 
L 77.936364 190.081818 
L 81.913636 177.809091 
L 85.890909 173.718182 
L 89.868182 181.9 
L 93.845455 198.263636 
L 97.822727 194.172727 
" style="fill:none;stroke:#1f77b4;stroke-linecap:square;stroke-width:1.5;"/>
   </g>
   <g id="line2d_42">
    <path clip-path="url(#p97c52a6eec)" d="M 18.277273 185.990909 
L 22.254545 181.9 
L 26.231818 190.081818 
L 30.209091 194.172727 
L 34.186364 194.172727 
L 38.163636 185.990909 
L 42.140909 190.081818 
L 46.118182 185.990909 
L 50.095455 177.809091 
L 54.072727 177.809091 
L 58.05 173.718182 
L 62.027273 181.9 
L 66.004545 190.081818 
L 69.981818 194.172727 
L 73.959091 181.9 
L 77.936364 190.081818 
L 81.913636 185.990909 
L 85.890909 194.172727 
L 89.868182 198.263636 
L 93.845455 177.809091 
L 97.822727 190.081818 
" style="fill:none;stroke:#ff7f0e;stroke-linecap:square;stroke-width:1.5;"/>
   </g>
   <g id="line2d_43">
    <path clip-path="url(#p97c52a6eec)" d="M 18.277273 185.990909 
L 22.254545 185.990909 
L 26.231818 161.445455 
L 30.209091 173.718182 
L 34.186364 181.9 
L 38.163636 185.990909 
L 42.140909 185.990909 
L 46.118182 177.809091 
L 50.095455 194.172727 
L 54.072727 190.081818 
L 58.05 194.172727 
L 62.027273 185.990909 
L 66.004545 181.9 
L 69.981818 181.9 
L 73.959091 181.9 
L 77.936364 169.627273 
L 81.913636 181.9 
L 85.890909 181.9 
L 89.868182 185.990909 
L 93.845455 185.990909 
L 97.822727 165.536364 
" style="fill:none;stroke:#2ca02c;stroke-linecap:square;stroke-width:1.5;"/>
   </g>
   <g id="line2d_44">
    <path clip-path="url(#p97c52a6eec)" d="M 18.277273 181.9 
L 22.254545 173.718182 
L 26.231818 190.081818 
L 30.209091 190.081818 
L 34.186364 185.990909 
L 38.163636 194.172727 
L 42.140909 198.263636 
L 46.118182 190.081818 
L 50.095455 194.172727 
L 54.072727 185.990909 
L 58.05 185.990909 
L 62.027273 190.081818 
L 66.004545 181.9 
L 69.981818 181.9 
L 73.959091 185.990909 
L 77.936364 185.990909 
L 81.913636 185.990909 
L 85.890909 181.9 
L 89.868182 181.9 
L 93.845455 177.809091 
L 97.822727 190.081818 
" style="fill:none;stroke:#d62728;stroke-linecap:square;stroke-width:1.5;"/>
   </g>
   <g id="line2d_45">
    <path clip-path="url(#p97c52a6eec)" d="M 18.277273 190.081818 
L 22.254545 194.172727 
L 26.231818 198.263636 
L 30.209091 190.081818 
L 34.186364 194.172727 
L 38.163636 190.081818 
L 42.140909 177.809091 
L 46.118182 190.081818 
L 50.095455 194.172727 
L 54.072727 190.081818 
L 58.05 185.990909 
L 62.027273 177.809091 
L 66.004545 173.718182 
L 69.981818 173.718182 
L 73.959091 190.081818 
L 77.936364 194.172727 
L 81.913636 198.263636 
L 85.890909 198.263636 
L 89.868182 181.9 
L 93.845455 190.081818 
L 97.822727 190.081818 
" style="fill:none;stroke:#9467bd;stroke-linecap:square;stroke-width:1.5;"/>
   </g>
   <g id="patch_43">
    <path d="M 14.3 204.4 
L 14.3 159.4 
" style="fill:none;stroke:#000000;stroke-linecap:square;stroke-linejoin:miter;stroke-width:0.8;"/>
   </g>
   <g id="patch_44">
    <path d="M 101.8 204.4 
L 101.8 159.4 
" style="fill:none;stroke:#000000;stroke-linecap:square;stroke-linejoin:miter;stroke-width:0.8;"/>
   </g>
   <g id="patch_45">
    <path d="M 14.3 204.4 
L 101.8 204.4 
" style="fill:none;stroke:#000000;stroke-linecap:square;stroke-linejoin:miter;stroke-width:0.8;"/>
   </g>
   <g id="patch_46">
    <path d="M 14.3 159.4 
L 101.8 159.4 
" style="fill:none;stroke:#000000;stroke-linecap:square;stroke-linejoin:miter;stroke-width:0.8;"/>
   </g>
   <g id="text_9">
    <!-- Random seed: 8 -->
    <defs>
     <path d="M 31.78125 34.625 
Q 24.75 34.625 20.71875 30.859375 
Q 16.703125 27.09375 16.703125 20.515625 
Q 16.703125 13.921875 20.71875 10.15625 
Q 24.75 6.390625 31.78125 6.390625 
Q 38.8125 6.390625 42.859375 10.171875 
Q 46.921875 13.96875 46.921875 20.515625 
Q 46.921875 27.09375 42.890625 30.859375 
Q 38.875 34.625 31.78125 34.625 
M 21.921875 38.8125 
Q 15.578125 40.375 12.03125 44.71875 
Q 8.5 49.078125 8.5 55.328125 
Q 8.5 64.0625 14.71875 69.140625 
Q 20.953125 74.21875 31.78125 74.21875 
Q 42.671875 74.21875 48.875 69.140625 
Q 55.078125 64.0625 55.078125 55.328125 
Q 55.078125 49.078125 51.53125 44.71875 
Q 48 40.375 41.703125 38.8125 
Q 48.828125 37.15625 52.796875 32.3125 
Q 56.78125 27.484375 56.78125 20.515625 
Q 56.78125 9.90625 50.3125 4.234375 
Q 43.84375 -1.421875 31.78125 -1.421875 
Q 19.734375 -1.421875 13.25 4.234375 
Q 6.78125 9.90625 6.78125 20.515625 
Q 6.78125 27.484375 10.78125 32.3125 
Q 14.796875 37.15625 21.921875 38.8125 
M 18.3125 54.390625 
Q 18.3125 48.734375 21.84375 45.5625 
Q 25.390625 42.390625 31.78125 42.390625 
Q 38.140625 42.390625 41.71875 45.5625 
Q 45.3125 48.734375 45.3125 54.390625 
Q 45.3125 60.0625 41.71875 63.234375 
Q 38.140625 66.40625 31.78125 66.40625 
Q 25.390625 66.40625 21.84375 63.234375 
Q 18.3125 60.0625 18.3125 54.390625 
" id="DejaVuSans-38"/>
    </defs>
    <g transform="translate(33.578906 153.4)scale(0.06 -0.06)">
     <use xlink:href="#DejaVuSans-52"/>
     <use x="69.451172" xlink:href="#DejaVuSans-61"/>
     <use x="130.730469" xlink:href="#DejaVuSans-6e"/>
     <use x="194.109375" xlink:href="#DejaVuSans-64"/>
     <use x="257.585938" xlink:href="#DejaVuSans-6f"/>
     <use x="318.767578" xlink:href="#DejaVuSans-6d"/>
     <use x="416.179688" xlink:href="#DejaVuSans-20"/>
     <use x="447.966797" xlink:href="#DejaVuSans-73"/>
     <use x="500.066406" xlink:href="#DejaVuSans-65"/>
     <use x="561.589844" xlink:href="#DejaVuSans-65"/>
     <use x="623.113281" xlink:href="#DejaVuSans-64"/>
     <use x="686.589844" xlink:href="#DejaVuSans-3a"/>
     <use x="720.28125" xlink:href="#DejaVuSans-20"/>
     <use x="752.068359" xlink:href="#DejaVuSans-38"/>
    </g>
   </g>
  </g>
  <g id="axes_10">
   <g id="patch_47">
    <path d="M 119.6 204.4 
L 207.1 204.4 
L 207.1 159.4 
L 119.6 159.4 
z
" style="fill:#ffffff;"/>
   </g>
   <g id="matplotlib.axis_19"/>
   <g id="matplotlib.axis_20"/>
   <g id="line2d_46">
    <path clip-path="url(#pf09449228d)" d="M 123.577273 176.786364 
L 127.554545 187.013636 
L 131.531818 176.786364 
L 135.509091 181.9 
L 139.486364 181.9 
L 143.463636 187.013636 
L 147.440909 181.9 
L 151.418182 192.127273 
L 155.395455 192.127273 
L 159.372727 192.127273 
L 163.35 171.672727 
L 167.327273 181.9 
L 171.304545 181.9 
L 175.281818 187.013636 
L 179.259091 181.9 
L 183.236364 192.127273 
L 187.213636 197.240909 
L 191.190909 202.354545 
L 195.168182 202.354545 
L 199.145455 197.240909 
L 203.122727 187.013636 
" style="fill:none;stroke:#1f77b4;stroke-linecap:square;stroke-width:1.5;"/>
   </g>
   <g id="line2d_47">
    <path clip-path="url(#pf09449228d)" d="M 123.577273 192.127273 
L 127.554545 197.240909 
L 131.531818 202.354545 
L 135.509091 192.127273 
L 139.486364 187.013636 
L 143.463636 187.013636 
L 147.440909 187.013636 
L 151.418182 187.013636 
L 155.395455 187.013636 
L 159.372727 192.127273 
L 163.35 192.127273 
L 167.327273 197.240909 
L 171.304545 187.013636 
L 175.281818 176.786364 
L 179.259091 187.013636 
L 183.236364 197.240909 
L 187.213636 192.127273 
L 191.190909 187.013636 
L 195.168182 181.9 
L 199.145455 181.9 
L 203.122727 202.354545 
" style="fill:none;stroke:#ff7f0e;stroke-linecap:square;stroke-width:1.5;"/>
   </g>
   <g id="line2d_48">
    <path clip-path="url(#pf09449228d)" d="M 123.577273 192.127273 
L 127.554545 187.013636 
L 131.531818 187.013636 
L 135.509091 187.013636 
L 139.486364 197.240909 
L 143.463636 192.127273 
L 147.440909 181.9 
L 151.418182 176.786364 
L 155.395455 166.559091 
L 159.372727 161.445455 
L 163.35 192.127273 
L 167.327273 187.013636 
L 171.304545 197.240909 
L 175.281818 192.127273 
L 179.259091 187.013636 
L 183.236364 181.9 
L 187.213636 181.9 
L 191.190909 192.127273 
L 195.168182 187.013636 
L 199.145455 187.013636 
L 203.122727 176.786364 
" style="fill:none;stroke:#2ca02c;stroke-linecap:square;stroke-width:1.5;"/>
   </g>
   <g id="line2d_49">
    <path clip-path="url(#pf09449228d)" d="M 123.577273 187.013636 
L 127.554545 181.9 
L 131.531818 187.013636 
L 135.509091 192.127273 
L 139.486364 192.127273 
L 143.463636 181.9 
L 147.440909 197.240909 
L 151.418182 181.9 
L 155.395455 192.127273 
L 159.372727 197.240909 
L 163.35 192.127273 
L 167.327273 181.9 
L 171.304545 171.672727 
L 175.281818 176.786364 
L 179.259091 181.9 
L 183.236364 181.9 
L 187.213636 187.013636 
L 191.190909 181.9 
L 195.168182 171.672727 
L 199.145455 171.672727 
L 203.122727 171.672727 
" style="fill:none;stroke:#d62728;stroke-linecap:square;stroke-width:1.5;"/>
   </g>
   <g id="line2d_50">
    <path clip-path="url(#pf09449228d)" d="M 123.577273 187.013636 
L 127.554545 181.9 
L 131.531818 181.9 
L 135.509091 181.9 
L 139.486364 176.786364 
L 143.463636 187.013636 
L 147.440909 187.013636 
L 151.418182 197.240909 
L 155.395455 197.240909 
L 159.372727 192.127273 
L 163.35 187.013636 
L 167.327273 187.013636 
L 171.304545 197.240909 
L 175.281818 202.354545 
L 179.259091 197.240909 
L 183.236364 181.9 
L 187.213636 176.786364 
L 191.190909 171.672727 
L 195.168182 192.127273 
L 199.145455 197.240909 
L 203.122727 197.240909 
" style="fill:none;stroke:#9467bd;stroke-linecap:square;stroke-width:1.5;"/>
   </g>
   <g id="patch_48">
    <path d="M 119.6 204.4 
L 119.6 159.4 
" style="fill:none;stroke:#000000;stroke-linecap:square;stroke-linejoin:miter;stroke-width:0.8;"/>
   </g>
   <g id="patch_49">
    <path d="M 207.1 204.4 
L 207.1 159.4 
" style="fill:none;stroke:#000000;stroke-linecap:square;stroke-linejoin:miter;stroke-width:0.8;"/>
   </g>
   <g id="patch_50">
    <path d="M 119.6 204.4 
L 207.1 204.4 
" style="fill:none;stroke:#000000;stroke-linecap:square;stroke-linejoin:miter;stroke-width:0.8;"/>
   </g>
   <g id="patch_51">
    <path d="M 119.6 159.4 
L 207.1 159.4 
" style="fill:none;stroke:#000000;stroke-linecap:square;stroke-linejoin:miter;stroke-width:0.8;"/>
   </g>
   <g id="text_10">
    <!-- Random seed: 9 -->
    <defs>
     <path d="M 10.984375 1.515625 
L 10.984375 10.5 
Q 14.703125 8.734375 18.5 7.8125 
Q 22.3125 6.890625 25.984375 6.890625 
Q 35.75 6.890625 40.890625 13.453125 
Q 46.046875 20.015625 46.78125 33.40625 
Q 43.953125 29.203125 39.59375 26.953125 
Q 35.25 24.703125 29.984375 24.703125 
Q 19.046875 24.703125 12.671875 31.3125 
Q 6.296875 37.9375 6.296875 49.421875 
Q 6.296875 60.640625 12.9375 67.421875 
Q 19.578125 74.21875 30.609375 74.21875 
Q 43.265625 74.21875 49.921875 64.515625 
Q 56.59375 54.828125 56.59375 36.375 
Q 56.59375 19.140625 48.40625 8.859375 
Q 40.234375 -1.421875 26.421875 -1.421875 
Q 22.703125 -1.421875 18.890625 -0.6875 
Q 15.09375 0.046875 10.984375 1.515625 
M 30.609375 32.421875 
Q 37.25 32.421875 41.125 36.953125 
Q 45.015625 41.5 45.015625 49.421875 
Q 45.015625 57.28125 41.125 61.84375 
Q 37.25 66.40625 30.609375 66.40625 
Q 23.96875 66.40625 20.09375 61.84375 
Q 16.21875 57.28125 16.21875 49.421875 
Q 16.21875 41.5 20.09375 36.953125 
Q 23.96875 32.421875 30.609375 32.421875 
" id="DejaVuSans-39"/>
    </defs>
    <g transform="translate(138.878906 153.4)scale(0.06 -0.06)">
     <use xlink:href="#DejaVuSans-52"/>
     <use x="69.451172" xlink:href="#DejaVuSans-61"/>
     <use x="130.730469" xlink:href="#DejaVuSans-6e"/>
     <use x="194.109375" xlink:href="#DejaVuSans-64"/>
     <use x="257.585938" xlink:href="#DejaVuSans-6f"/>
     <use x="318.767578" xlink:href="#DejaVuSans-6d"/>
     <use x="416.179688" xlink:href="#DejaVuSans-20"/>
     <use x="447.966797" xlink:href="#DejaVuSans-73"/>
     <use x="500.066406" xlink:href="#DejaVuSans-65"/>
     <use x="561.589844" xlink:href="#DejaVuSans-65"/>
     <use x="623.113281" xlink:href="#DejaVuSans-64"/>
     <use x="686.589844" xlink:href="#DejaVuSans-3a"/>
     <use x="720.28125" xlink:href="#DejaVuSans-20"/>
     <use x="752.068359" xlink:href="#DejaVuSans-39"/>
    </g>
   </g>
  </g>
  <g id="axes_11">
   <g id="patch_52">
    <path d="M 224.9 204.4 
L 312.4 204.4 
L 312.4 159.4 
L 224.9 159.4 
z
" style="fill:#ffffff;"/>
   </g>
   <g id="matplotlib.axis_21"/>
   <g id="matplotlib.axis_22"/>
   <g id="line2d_51">
    <path clip-path="url(#p8a3bc0641b)" d="M 228.877273 175.081818 
L 232.854545 184.172727 
L 236.831818 184.172727 
L 240.809091 184.172727 
L 244.786364 188.718182 
L 248.763636 197.809091 
L 252.740909 179.627273 
L 256.718182 184.172727 
L 260.695455 175.081818 
L 264.672727 188.718182 
L 268.65 179.627273 
L 272.627273 184.172727 
L 276.604545 175.081818 
L 280.581818 170.536364 
L 284.559091 179.627273 
L 288.536364 193.263636 
L 292.513636 197.809091 
L 296.490909 188.718182 
L 300.468182 197.809091 
L 304.445455 188.718182 
L 308.422727 175.081818 
" style="fill:none;stroke:#1f77b4;stroke-linecap:square;stroke-width:1.5;"/>
   </g>
   <g id="line2d_52">
    <path clip-path="url(#p8a3bc0641b)" d="M 228.877273 179.627273 
L 232.854545 179.627273 
L 236.831818 179.627273 
L 240.809091 179.627273 
L 244.786364 170.536364 
L 248.763636 170.536364 
L 252.740909 193.263636 
L 256.718182 193.263636 
L 260.695455 193.263636 
L 264.672727 197.809091 
L 268.65 197.809091 
L 272.627273 193.263636 
L 276.604545 188.718182 
L 280.581818 193.263636 
L 284.559091 179.627273 
L 288.536364 165.990909 
L 292.513636 175.081818 
L 296.490909 188.718182 
L 300.468182 184.172727 
L 304.445455 193.263636 
L 308.422727 197.809091 
" style="fill:none;stroke:#ff7f0e;stroke-linecap:square;stroke-width:1.5;"/>
   </g>
   <g id="line2d_53">
    <path clip-path="url(#p8a3bc0641b)" d="M 228.877273 193.263636 
L 232.854545 193.263636 
L 236.831818 188.718182 
L 240.809091 197.809091 
L 244.786364 193.263636 
L 248.763636 188.718182 
L 252.740909 184.172727 
L 256.718182 188.718182 
L 260.695455 179.627273 
L 264.672727 175.081818 
L 268.65 188.718182 
L 272.627273 193.263636 
L 276.604545 202.354545 
L 280.581818 188.718182 
L 284.559091 184.172727 
L 288.536364 188.718182 
L 292.513636 179.627273 
L 296.490909 184.172727 
L 300.468182 175.081818 
L 304.445455 175.081818 
L 308.422727 175.081818 
" style="fill:none;stroke:#2ca02c;stroke-linecap:square;stroke-width:1.5;"/>
   </g>
   <g id="line2d_54">
    <path clip-path="url(#p8a3bc0641b)" d="M 228.877273 188.718182 
L 232.854545 184.172727 
L 236.831818 193.263636 
L 240.809091 184.172727 
L 244.786364 184.172727 
L 248.763636 184.172727 
L 252.740909 165.990909 
L 256.718182 161.445455 
L 260.695455 179.627273 
L 264.672727 179.627273 
L 268.65 179.627273 
L 272.627273 175.081818 
L 276.604545 170.536364 
L 280.581818 184.172727 
L 284.559091 184.172727 
L 288.536364 188.718182 
L 292.513636 193.263636 
L 296.490909 184.172727 
L 300.468182 184.172727 
L 304.445455 179.627273 
L 308.422727 188.718182 
" style="fill:none;stroke:#d62728;stroke-linecap:square;stroke-width:1.5;"/>
   </g>
   <g id="line2d_55">
    <path clip-path="url(#p8a3bc0641b)" d="M 228.877273 184.172727 
L 232.854545 179.627273 
L 236.831818 175.081818 
L 240.809091 175.081818 
L 244.786364 184.172727 
L 248.763636 179.627273 
L 252.740909 197.809091 
L 256.718182 193.263636 
L 260.695455 193.263636 
L 264.672727 179.627273 
L 268.65 175.081818 
L 272.627273 175.081818 
L 276.604545 184.172727 
L 280.581818 184.172727 
L 284.559091 193.263636 
L 288.536364 184.172727 
L 292.513636 175.081818 
L 296.490909 175.081818 
L 300.468182 179.627273 
L 304.445455 184.172727 
L 308.422727 184.172727 
" style="fill:none;stroke:#9467bd;stroke-linecap:square;stroke-width:1.5;"/>
   </g>
   <g id="patch_53">
    <path d="M 224.9 204.4 
L 224.9 159.4 
" style="fill:none;stroke:#000000;stroke-linecap:square;stroke-linejoin:miter;stroke-width:0.8;"/>
   </g>
   <g id="patch_54">
    <path d="M 312.4 204.4 
L 312.4 159.4 
" style="fill:none;stroke:#000000;stroke-linecap:square;stroke-linejoin:miter;stroke-width:0.8;"/>
   </g>
   <g id="patch_55">
    <path d="M 224.9 204.4 
L 312.4 204.4 
" style="fill:none;stroke:#000000;stroke-linecap:square;stroke-linejoin:miter;stroke-width:0.8;"/>
   </g>
   <g id="patch_56">
    <path d="M 224.9 159.4 
L 312.4 159.4 
" style="fill:none;stroke:#000000;stroke-linecap:square;stroke-linejoin:miter;stroke-width:0.8;"/>
   </g>
   <g id="text_11">
    <!-- Random seed: 10 -->
    <g transform="translate(242.270156 153.4)scale(0.06 -0.06)">
     <use xlink:href="#DejaVuSans-52"/>
     <use x="69.451172" xlink:href="#DejaVuSans-61"/>
     <use x="130.730469" xlink:href="#DejaVuSans-6e"/>
     <use x="194.109375" xlink:href="#DejaVuSans-64"/>
     <use x="257.585938" xlink:href="#DejaVuSans-6f"/>
     <use x="318.767578" xlink:href="#DejaVuSans-6d"/>
     <use x="416.179688" xlink:href="#DejaVuSans-20"/>
     <use x="447.966797" xlink:href="#DejaVuSans-73"/>
     <use x="500.066406" xlink:href="#DejaVuSans-65"/>
     <use x="561.589844" xlink:href="#DejaVuSans-65"/>
     <use x="623.113281" xlink:href="#DejaVuSans-64"/>
     <use x="686.589844" xlink:href="#DejaVuSans-3a"/>
     <use x="720.28125" xlink:href="#DejaVuSans-20"/>
     <use x="752.068359" xlink:href="#DejaVuSans-31"/>
     <use x="815.691406" xlink:href="#DejaVuSans-30"/>
    </g>
   </g>
  </g>
  <g id="axes_12">
   <g id="patch_57">
    <path d="M 330.2 204.4 
L 417.7 204.4 
L 417.7 159.4 
L 330.2 159.4 
z
" style="fill:#ffffff;"/>
   </g>
   <g id="matplotlib.axis_23"/>
   <g id="matplotlib.axis_24"/>
   <g id="line2d_56">
    <path clip-path="url(#p50063fb960)" d="M 334.177273 187.013636 
L 338.154545 187.013636 
L 342.131818 187.013636 
L 346.109091 176.786364 
L 350.086364 197.240909 
L 354.063636 197.240909 
L 358.040909 192.127273 
L 362.018182 192.127273 
L 365.995455 192.127273 
L 369.972727 187.013636 
L 373.95 181.9 
L 377.927273 176.786364 
L 381.904545 197.240909 
L 385.881818 197.240909 
L 389.859091 192.127273 
L 393.836364 187.013636 
L 397.813636 187.013636 
L 401.790909 181.9 
L 405.768182 187.013636 
L 409.745455 187.013636 
L 413.722727 192.127273 
" style="fill:none;stroke:#1f77b4;stroke-linecap:square;stroke-width:1.5;"/>
   </g>
   <g id="line2d_57">
    <path clip-path="url(#p50063fb960)" d="M 334.177273 181.9 
L 338.154545 187.013636 
L 342.131818 187.013636 
L 346.109091 181.9 
L 350.086364 171.672727 
L 354.063636 171.672727 
L 358.040909 181.9 
L 362.018182 197.240909 
L 365.995455 197.240909 
L 369.972727 192.127273 
L 373.95 187.013636 
L 377.927273 181.9 
L 381.904545 171.672727 
L 385.881818 181.9 
L 389.859091 197.240909 
L 393.836364 202.354545 
L 397.813636 187.013636 
L 401.790909 192.127273 
L 405.768182 197.240909 
L 409.745455 187.013636 
L 413.722727 171.672727 
" style="fill:none;stroke:#ff7f0e;stroke-linecap:square;stroke-width:1.5;"/>
   </g>
   <g id="line2d_58">
    <path clip-path="url(#p50063fb960)" d="M 334.177273 192.127273 
L 338.154545 192.127273 
L 342.131818 181.9 
L 346.109091 187.013636 
L 350.086364 181.9 
L 354.063636 181.9 
L 358.040909 176.786364 
L 362.018182 161.445455 
L 365.995455 161.445455 
L 369.972727 166.559091 
L 373.95 181.9 
L 377.927273 197.240909 
L 381.904545 192.127273 
L 385.881818 192.127273 
L 389.859091 166.559091 
L 393.836364 181.9 
L 397.813636 181.9 
L 401.790909 181.9 
L 405.768182 187.013636 
L 409.745455 192.127273 
L 413.722727 192.127273 
" style="fill:none;stroke:#2ca02c;stroke-linecap:square;stroke-width:1.5;"/>
   </g>
   <g id="line2d_59">
    <path clip-path="url(#p50063fb960)" d="M 334.177273 197.240909 
L 338.154545 176.786364 
L 342.131818 181.9 
L 346.109091 197.240909 
L 350.086364 192.127273 
L 354.063636 192.127273 
L 358.040909 187.013636 
L 362.018182 181.9 
L 365.995455 192.127273 
L 369.972727 192.127273 
L 373.95 192.127273 
L 377.927273 187.013636 
L 381.904545 187.013636 
L 385.881818 171.672727 
L 389.859091 192.127273 
L 393.836364 192.127273 
L 397.813636 197.240909 
L 401.790909 197.240909 
L 405.768182 197.240909 
L 409.745455 187.013636 
L 413.722727 181.9 
" style="fill:none;stroke:#d62728;stroke-linecap:square;stroke-width:1.5;"/>
   </g>
   <g id="line2d_60">
    <path clip-path="url(#p50063fb960)" d="M 334.177273 176.786364 
L 338.154545 192.127273 
L 342.131818 197.240909 
L 346.109091 192.127273 
L 350.086364 192.127273 
L 354.063636 192.127273 
L 358.040909 197.240909 
L 362.018182 202.354545 
L 365.995455 192.127273 
L 369.972727 197.240909 
L 373.95 192.127273 
L 377.927273 192.127273 
L 381.904545 187.013636 
L 385.881818 192.127273 
L 389.859091 187.013636 
L 393.836364 171.672727 
L 397.813636 181.9 
L 401.790909 181.9 
L 405.768182 166.559091 
L 409.745455 181.9 
L 413.722727 197.240909 
" style="fill:none;stroke:#9467bd;stroke-linecap:square;stroke-width:1.5;"/>
   </g>
   <g id="patch_58">
    <path d="M 330.2 204.4 
L 330.2 159.4 
" style="fill:none;stroke:#000000;stroke-linecap:square;stroke-linejoin:miter;stroke-width:0.8;"/>
   </g>
   <g id="patch_59">
    <path d="M 417.7 204.4 
L 417.7 159.4 
" style="fill:none;stroke:#000000;stroke-linecap:square;stroke-linejoin:miter;stroke-width:0.8;"/>
   </g>
   <g id="patch_60">
    <path d="M 330.2 204.4 
L 417.7 204.4 
" style="fill:none;stroke:#000000;stroke-linecap:square;stroke-linejoin:miter;stroke-width:0.8;"/>
   </g>
   <g id="patch_61">
    <path d="M 330.2 159.4 
L 417.7 159.4 
" style="fill:none;stroke:#000000;stroke-linecap:square;stroke-linejoin:miter;stroke-width:0.8;"/>
   </g>
   <g id="text_12">
    <!-- Random seed: 11 -->
    <g transform="translate(347.570156 153.4)scale(0.06 -0.06)">
     <use xlink:href="#DejaVuSans-52"/>
     <use x="69.451172" xlink:href="#DejaVuSans-61"/>
     <use x="130.730469" xlink:href="#DejaVuSans-6e"/>
     <use x="194.109375" xlink:href="#DejaVuSans-64"/>
     <use x="257.585938" xlink:href="#DejaVuSans-6f"/>
     <use x="318.767578" xlink:href="#DejaVuSans-6d"/>
     <use x="416.179688" xlink:href="#DejaVuSans-20"/>
     <use x="447.966797" xlink:href="#DejaVuSans-73"/>
     <use x="500.066406" xlink:href="#DejaVuSans-65"/>
     <use x="561.589844" xlink:href="#DejaVuSans-65"/>
     <use x="623.113281" xlink:href="#DejaVuSans-64"/>
     <use x="686.589844" xlink:href="#DejaVuSans-3a"/>
     <use x="720.28125" xlink:href="#DejaVuSans-20"/>
     <use x="752.068359" xlink:href="#DejaVuSans-31"/>
     <use x="815.691406" xlink:href="#DejaVuSans-31"/>
    </g>
   </g>
  </g>
  <g id="axes_13">
   <g id="patch_62">
    <path d="M 14.3 273.7 
L 101.8 273.7 
L 101.8 228.7 
L 14.3 228.7 
z
" style="fill:#ffffff;"/>
   </g>
   <g id="matplotlib.axis_25"/>
   <g id="matplotlib.axis_26"/>
   <g id="line2d_61">
    <path clip-path="url(#p4f29214dfd)" d="M 18.277273 261.427273 
L 22.254545 256.313636 
L 26.231818 256.313636 
L 30.209091 256.313636 
L 34.186364 251.2 
L 38.163636 246.086364 
L 42.140909 261.427273 
L 46.118182 266.540909 
L 50.095455 271.654545 
L 54.072727 266.540909 
L 58.05 256.313636 
L 62.027273 256.313636 
L 66.004545 256.313636 
L 69.981818 246.086364 
L 73.959091 240.972727 
L 77.936364 235.859091 
L 81.913636 235.859091 
L 85.890909 256.313636 
L 89.868182 251.2 
L 93.845455 251.2 
L 97.822727 266.540909 
" style="fill:none;stroke:#1f77b4;stroke-linecap:square;stroke-width:1.5;"/>
   </g>
   <g id="line2d_62">
    <path clip-path="url(#p4f29214dfd)" d="M 18.277273 256.313636 
L 22.254545 251.2 
L 26.231818 266.540909 
L 30.209091 261.427273 
L 34.186364 261.427273 
L 38.163636 261.427273 
L 42.140909 261.427273 
L 46.118182 256.313636 
L 50.095455 256.313636 
L 54.072727 251.2 
L 58.05 256.313636 
L 62.027273 266.540909 
L 66.004545 256.313636 
L 69.981818 256.313636 
L 73.959091 261.427273 
L 77.936364 261.427273 
L 81.913636 246.086364 
L 85.890909 230.745455 
L 89.868182 230.745455 
L 93.845455 240.972727 
L 97.822727 251.2 
" style="fill:none;stroke:#ff7f0e;stroke-linecap:square;stroke-width:1.5;"/>
   </g>
   <g id="line2d_63">
    <path clip-path="url(#p4f29214dfd)" d="M 18.277273 256.313636 
L 22.254545 256.313636 
L 26.231818 256.313636 
L 30.209091 256.313636 
L 34.186364 261.427273 
L 38.163636 266.540909 
L 42.140909 256.313636 
L 46.118182 251.2 
L 50.095455 256.313636 
L 54.072727 251.2 
L 58.05 246.086364 
L 62.027273 240.972727 
L 66.004545 251.2 
L 69.981818 251.2 
L 73.959091 251.2 
L 77.936364 251.2 
L 81.913636 266.540909 
L 85.890909 266.540909 
L 89.868182 266.540909 
L 93.845455 256.313636 
L 97.822727 266.540909 
" style="fill:none;stroke:#2ca02c;stroke-linecap:square;stroke-width:1.5;"/>
   </g>
   <g id="line2d_64">
    <path clip-path="url(#p4f29214dfd)" d="M 18.277273 246.086364 
L 22.254545 256.313636 
L 26.231818 240.972727 
L 30.209091 235.859091 
L 34.186364 240.972727 
L 38.163636 246.086364 
L 42.140909 251.2 
L 46.118182 251.2 
L 50.095455 235.859091 
L 54.072727 256.313636 
L 58.05 256.313636 
L 62.027273 266.540909 
L 66.004545 251.2 
L 69.981818 261.427273 
L 73.959091 261.427273 
L 77.936364 271.654545 
L 81.913636 271.654545 
L 85.890909 271.654545 
L 89.868182 271.654545 
L 93.845455 271.654545 
L 97.822727 251.2 
" style="fill:none;stroke:#d62728;stroke-linecap:square;stroke-width:1.5;"/>
   </g>
   <g id="line2d_65">
    <path clip-path="url(#p4f29214dfd)" d="M 18.277273 261.427273 
L 22.254545 261.427273 
L 26.231818 261.427273 
L 30.209091 271.654545 
L 34.186364 266.540909 
L 38.163636 261.427273 
L 42.140909 251.2 
L 46.118182 256.313636 
L 50.095455 261.427273 
L 54.072727 256.313636 
L 58.05 266.540909 
L 62.027273 251.2 
L 66.004545 266.540909 
L 69.981818 266.540909 
L 73.959091 266.540909 
L 77.936364 261.427273 
L 81.913636 261.427273 
L 85.890909 256.313636 
L 89.868182 261.427273 
L 93.845455 261.427273 
L 97.822727 246.086364 
" style="fill:none;stroke:#9467bd;stroke-linecap:square;stroke-width:1.5;"/>
   </g>
   <g id="patch_63">
    <path d="M 14.3 273.7 
L 14.3 228.7 
" style="fill:none;stroke:#000000;stroke-linecap:square;stroke-linejoin:miter;stroke-width:0.8;"/>
   </g>
   <g id="patch_64">
    <path d="M 101.8 273.7 
L 101.8 228.7 
" style="fill:none;stroke:#000000;stroke-linecap:square;stroke-linejoin:miter;stroke-width:0.8;"/>
   </g>
   <g id="patch_65">
    <path d="M 14.3 273.7 
L 101.8 273.7 
" style="fill:none;stroke:#000000;stroke-linecap:square;stroke-linejoin:miter;stroke-width:0.8;"/>
   </g>
   <g id="patch_66">
    <path d="M 14.3 228.7 
L 101.8 228.7 
" style="fill:none;stroke:#000000;stroke-linecap:square;stroke-linejoin:miter;stroke-width:0.8;"/>
   </g>
   <g id="text_13">
    <!-- Random seed: 12 -->
    <g transform="translate(31.670156 222.7)scale(0.06 -0.06)">
     <use xlink:href="#DejaVuSans-52"/>
     <use x="69.451172" xlink:href="#DejaVuSans-61"/>
     <use x="130.730469" xlink:href="#DejaVuSans-6e"/>
     <use x="194.109375" xlink:href="#DejaVuSans-64"/>
     <use x="257.585938" xlink:href="#DejaVuSans-6f"/>
     <use x="318.767578" xlink:href="#DejaVuSans-6d"/>
     <use x="416.179688" xlink:href="#DejaVuSans-20"/>
     <use x="447.966797" xlink:href="#DejaVuSans-73"/>
     <use x="500.066406" xlink:href="#DejaVuSans-65"/>
     <use x="561.589844" xlink:href="#DejaVuSans-65"/>
     <use x="623.113281" xlink:href="#DejaVuSans-64"/>
     <use x="686.589844" xlink:href="#DejaVuSans-3a"/>
     <use x="720.28125" xlink:href="#DejaVuSans-20"/>
     <use x="752.068359" xlink:href="#DejaVuSans-31"/>
     <use x="815.691406" xlink:href="#DejaVuSans-32"/>
    </g>
   </g>
  </g>
  <g id="axes_14">
   <g id="patch_67">
    <path d="M 119.6 273.7 
L 207.1 273.7 
L 207.1 228.7 
L 119.6 228.7 
z
" style="fill:#ffffff;"/>
   </g>
   <g id="matplotlib.axis_27"/>
   <g id="matplotlib.axis_28"/>
   <g id="line2d_66">
    <path clip-path="url(#p46172f3f3e)" d="M 123.577273 258.018182 
L 127.554545 253.472727 
L 131.531818 244.381818 
L 135.509091 248.927273 
L 139.486364 248.927273 
L 143.463636 248.927273 
L 147.440909 248.927273 
L 151.418182 244.381818 
L 155.395455 258.018182 
L 159.372727 253.472727 
L 163.35 248.927273 
L 167.327273 258.018182 
L 171.304545 258.018182 
L 175.281818 258.018182 
L 179.259091 253.472727 
L 183.236364 244.381818 
L 187.213636 258.018182 
L 191.190909 258.018182 
L 195.168182 253.472727 
L 199.145455 239.836364 
L 203.122727 239.836364 
" style="fill:none;stroke:#1f77b4;stroke-linecap:square;stroke-width:1.5;"/>
   </g>
   <g id="line2d_67">
    <path clip-path="url(#p46172f3f3e)" d="M 123.577273 262.563636 
L 127.554545 253.472727 
L 131.531818 262.563636 
L 135.509091 262.563636 
L 139.486364 271.654545 
L 143.463636 258.018182 
L 147.440909 258.018182 
L 151.418182 258.018182 
L 155.395455 244.381818 
L 159.372727 248.927273 
L 163.35 248.927273 
L 167.327273 244.381818 
L 171.304545 244.381818 
L 175.281818 258.018182 
L 179.259091 258.018182 
L 183.236364 258.018182 
L 187.213636 248.927273 
L 191.190909 248.927273 
L 195.168182 253.472727 
L 199.145455 258.018182 
L 203.122727 248.927273 
" style="fill:none;stroke:#ff7f0e;stroke-linecap:square;stroke-width:1.5;"/>
   </g>
   <g id="line2d_68">
    <path clip-path="url(#p46172f3f3e)" d="M 123.577273 235.290909 
L 127.554545 248.927273 
L 131.531818 244.381818 
L 135.509091 258.018182 
L 139.486364 262.563636 
L 143.463636 258.018182 
L 147.440909 253.472727 
L 151.418182 271.654545 
L 155.395455 271.654545 
L 159.372727 258.018182 
L 163.35 262.563636 
L 167.327273 267.109091 
L 171.304545 262.563636 
L 175.281818 253.472727 
L 179.259091 258.018182 
L 183.236364 258.018182 
L 187.213636 262.563636 
L 191.190909 248.927273 
L 195.168182 253.472727 
L 199.145455 258.018182 
L 203.122727 267.109091 
" style="fill:none;stroke:#2ca02c;stroke-linecap:square;stroke-width:1.5;"/>
   </g>
   <g id="line2d_69">
    <path clip-path="url(#p46172f3f3e)" d="M 123.577273 258.018182 
L 127.554545 258.018182 
L 131.531818 253.472727 
L 135.509091 244.381818 
L 139.486364 230.745455 
L 143.463636 253.472727 
L 147.440909 258.018182 
L 151.418182 248.927273 
L 155.395455 244.381818 
L 159.372727 253.472727 
L 163.35 262.563636 
L 167.327273 258.018182 
L 171.304545 235.290909 
L 175.281818 235.290909 
L 179.259091 244.381818 
L 183.236364 244.381818 
L 187.213636 244.381818 
L 191.190909 258.018182 
L 195.168182 253.472727 
L 199.145455 253.472727 
L 203.122727 248.927273 
" style="fill:none;stroke:#d62728;stroke-linecap:square;stroke-width:1.5;"/>
   </g>
   <g id="line2d_70">
    <path clip-path="url(#p46172f3f3e)" d="M 123.577273 253.472727 
L 127.554545 253.472727 
L 131.531818 262.563636 
L 135.509091 253.472727 
L 139.486364 253.472727 
L 143.463636 248.927273 
L 147.440909 248.927273 
L 151.418182 244.381818 
L 155.395455 248.927273 
L 159.372727 253.472727 
L 163.35 244.381818 
L 167.327273 239.836364 
L 171.304545 267.109091 
L 175.281818 262.563636 
L 179.259091 253.472727 
L 183.236364 262.563636 
L 187.213636 253.472727 
L 191.190909 253.472727 
L 195.168182 253.472727 
L 199.145455 258.018182 
L 203.122727 262.563636 
" style="fill:none;stroke:#9467bd;stroke-linecap:square;stroke-width:1.5;"/>
   </g>
   <g id="patch_68">
    <path d="M 119.6 273.7 
L 119.6 228.7 
" style="fill:none;stroke:#000000;stroke-linecap:square;stroke-linejoin:miter;stroke-width:0.8;"/>
   </g>
   <g id="patch_69">
    <path d="M 207.1 273.7 
L 207.1 228.7 
" style="fill:none;stroke:#000000;stroke-linecap:square;stroke-linejoin:miter;stroke-width:0.8;"/>
   </g>
   <g id="patch_70">
    <path d="M 119.6 273.7 
L 207.1 273.7 
" style="fill:none;stroke:#000000;stroke-linecap:square;stroke-linejoin:miter;stroke-width:0.8;"/>
   </g>
   <g id="patch_71">
    <path d="M 119.6 228.7 
L 207.1 228.7 
" style="fill:none;stroke:#000000;stroke-linecap:square;stroke-linejoin:miter;stroke-width:0.8;"/>
   </g>
   <g id="text_14">
    <!-- Random seed: 13 -->
    <g transform="translate(136.970156 222.7)scale(0.06 -0.06)">
     <use xlink:href="#DejaVuSans-52"/>
     <use x="69.451172" xlink:href="#DejaVuSans-61"/>
     <use x="130.730469" xlink:href="#DejaVuSans-6e"/>
     <use x="194.109375" xlink:href="#DejaVuSans-64"/>
     <use x="257.585938" xlink:href="#DejaVuSans-6f"/>
     <use x="318.767578" xlink:href="#DejaVuSans-6d"/>
     <use x="416.179688" xlink:href="#DejaVuSans-20"/>
     <use x="447.966797" xlink:href="#DejaVuSans-73"/>
     <use x="500.066406" xlink:href="#DejaVuSans-65"/>
     <use x="561.589844" xlink:href="#DejaVuSans-65"/>
     <use x="623.113281" xlink:href="#DejaVuSans-64"/>
     <use x="686.589844" xlink:href="#DejaVuSans-3a"/>
     <use x="720.28125" xlink:href="#DejaVuSans-20"/>
     <use x="752.068359" xlink:href="#DejaVuSans-31"/>
     <use x="815.691406" xlink:href="#DejaVuSans-33"/>
    </g>
   </g>
  </g>
  <g id="axes_15">
   <g id="patch_72">
    <path d="M 224.9 273.7 
L 312.4 273.7 
L 312.4 228.7 
L 224.9 228.7 
z
" style="fill:#ffffff;"/>
   </g>
   <g id="matplotlib.axis_29"/>
   <g id="matplotlib.axis_30"/>
   <g id="line2d_71">
    <path clip-path="url(#p0310e59a44)" d="M 228.877273 237.563636 
L 232.854545 230.745455 
L 236.831818 251.2 
L 240.809091 258.018182 
L 244.786364 258.018182 
L 248.763636 251.2 
L 252.740909 264.836364 
L 256.718182 251.2 
L 260.695455 251.2 
L 264.672727 244.381818 
L 268.65 244.381818 
L 272.627273 251.2 
L 276.604545 244.381818 
L 280.581818 244.381818 
L 284.559091 251.2 
L 288.536364 237.563636 
L 292.513636 244.381818 
L 296.490909 251.2 
L 300.468182 251.2 
L 304.445455 258.018182 
L 308.422727 258.018182 
" style="fill:none;stroke:#1f77b4;stroke-linecap:square;stroke-width:1.5;"/>
   </g>
   <g id="line2d_72">
    <path clip-path="url(#p0310e59a44)" d="M 228.877273 258.018182 
L 232.854545 258.018182 
L 236.831818 230.745455 
L 240.809091 230.745455 
L 244.786364 237.563636 
L 248.763636 258.018182 
L 252.740909 258.018182 
L 256.718182 264.836364 
L 260.695455 258.018182 
L 264.672727 264.836364 
L 268.65 271.654545 
L 272.627273 258.018182 
L 276.604545 251.2 
L 280.581818 237.563636 
L 284.559091 251.2 
L 288.536364 264.836364 
L 292.513636 251.2 
L 296.490909 258.018182 
L 300.468182 264.836364 
L 304.445455 258.018182 
L 308.422727 258.018182 
" style="fill:none;stroke:#ff7f0e;stroke-linecap:square;stroke-width:1.5;"/>
   </g>
   <g id="line2d_73">
    <path clip-path="url(#p0310e59a44)" d="M 228.877273 244.381818 
L 232.854545 251.2 
L 236.831818 271.654545 
L 240.809091 271.654545 
L 244.786364 258.018182 
L 248.763636 251.2 
L 252.740909 244.381818 
L 256.718182 244.381818 
L 260.695455 230.745455 
L 264.672727 237.563636 
L 268.65 244.381818 
L 272.627273 244.381818 
L 276.604545 258.018182 
L 280.581818 271.654545 
L 284.559091 271.654545 
L 288.536364 258.018182 
L 292.513636 251.2 
L 296.490909 244.381818 
L 300.468182 244.381818 
L 304.445455 251.2 
L 308.422727 244.381818 
" style="fill:none;stroke:#2ca02c;stroke-linecap:square;stroke-width:1.5;"/>
   </g>
   <g id="line2d_74">
    <path clip-path="url(#p0310e59a44)" d="M 228.877273 264.836364 
L 232.854545 264.836364 
L 236.831818 258.018182 
L 240.809091 251.2 
L 244.786364 244.381818 
L 248.763636 230.745455 
L 252.740909 230.745455 
L 256.718182 244.381818 
L 260.695455 251.2 
L 264.672727 258.018182 
L 268.65 244.381818 
L 272.627273 258.018182 
L 276.604545 264.836364 
L 280.581818 264.836364 
L 284.559091 237.563636 
L 288.536364 244.381818 
L 292.513636 264.836364 
L 296.490909 244.381818 
L 300.468182 258.018182 
L 304.445455 237.563636 
L 308.422727 251.2 
" style="fill:none;stroke:#d62728;stroke-linecap:square;stroke-width:1.5;"/>
   </g>
   <g id="line2d_75">
    <path clip-path="url(#p0310e59a44)" d="M 228.877273 251.2 
L 232.854545 251.2 
L 236.831818 244.381818 
L 240.809091 244.381818 
L 244.786364 258.018182 
L 248.763636 264.836364 
L 252.740909 258.018182 
L 256.718182 251.2 
L 260.695455 264.836364 
L 264.672727 251.2 
L 268.65 251.2 
L 272.627273 244.381818 
L 276.604545 237.563636 
L 280.581818 237.563636 
L 284.559091 244.381818 
L 288.536364 251.2 
L 292.513636 244.381818 
L 296.490909 258.018182 
L 300.468182 237.563636 
L 304.445455 251.2 
L 308.422727 244.381818 
" style="fill:none;stroke:#9467bd;stroke-linecap:square;stroke-width:1.5;"/>
   </g>
   <g id="patch_73">
    <path d="M 224.9 273.7 
L 224.9 228.7 
" style="fill:none;stroke:#000000;stroke-linecap:square;stroke-linejoin:miter;stroke-width:0.8;"/>
   </g>
   <g id="patch_74">
    <path d="M 312.4 273.7 
L 312.4 228.7 
" style="fill:none;stroke:#000000;stroke-linecap:square;stroke-linejoin:miter;stroke-width:0.8;"/>
   </g>
   <g id="patch_75">
    <path d="M 224.9 273.7 
L 312.4 273.7 
" style="fill:none;stroke:#000000;stroke-linecap:square;stroke-linejoin:miter;stroke-width:0.8;"/>
   </g>
   <g id="patch_76">
    <path d="M 224.9 228.7 
L 312.4 228.7 
" style="fill:none;stroke:#000000;stroke-linecap:square;stroke-linejoin:miter;stroke-width:0.8;"/>
   </g>
   <g id="text_15">
    <!-- Random seed: 14 -->
    <g transform="translate(242.270156 222.7)scale(0.06 -0.06)">
     <use xlink:href="#DejaVuSans-52"/>
     <use x="69.451172" xlink:href="#DejaVuSans-61"/>
     <use x="130.730469" xlink:href="#DejaVuSans-6e"/>
     <use x="194.109375" xlink:href="#DejaVuSans-64"/>
     <use x="257.585938" xlink:href="#DejaVuSans-6f"/>
     <use x="318.767578" xlink:href="#DejaVuSans-6d"/>
     <use x="416.179688" xlink:href="#DejaVuSans-20"/>
     <use x="447.966797" xlink:href="#DejaVuSans-73"/>
     <use x="500.066406" xlink:href="#DejaVuSans-65"/>
     <use x="561.589844" xlink:href="#DejaVuSans-65"/>
     <use x="623.113281" xlink:href="#DejaVuSans-64"/>
     <use x="686.589844" xlink:href="#DejaVuSans-3a"/>
     <use x="720.28125" xlink:href="#DejaVuSans-20"/>
     <use x="752.068359" xlink:href="#DejaVuSans-31"/>
     <use x="815.691406" xlink:href="#DejaVuSans-34"/>
    </g>
   </g>
  </g>
  <g id="axes_16">
   <g id="patch_77">
    <path d="M 330.2 273.7 
L 417.7 273.7 
L 417.7 228.7 
L 330.2 228.7 
z
" style="fill:#ffffff;"/>
   </g>
   <g id="matplotlib.axis_31"/>
   <g id="matplotlib.axis_32"/>
   <g id="line2d_76">
    <path clip-path="url(#p528cbd5ee6)" d="M 334.177273 248.277922 
L 338.154545 236.58961 
L 342.131818 236.58961 
L 346.109091 248.277922 
L 350.086364 242.433766 
L 354.063636 254.122078 
L 358.040909 248.277922 
L 362.018182 259.966234 
L 365.995455 254.122078 
L 369.972727 248.277922 
L 373.95 242.433766 
L 377.927273 242.433766 
L 381.904545 254.122078 
L 385.881818 254.122078 
L 389.859091 248.277922 
L 393.836364 265.81039 
L 397.813636 259.966234 
L 401.790909 242.433766 
L 405.768182 254.122078 
L 409.745455 248.277922 
L 413.722727 259.966234 
" style="fill:none;stroke:#1f77b4;stroke-linecap:square;stroke-width:1.5;"/>
   </g>
   <g id="line2d_77">
    <path clip-path="url(#p528cbd5ee6)" d="M 334.177273 254.122078 
L 338.154545 259.966234 
L 342.131818 259.966234 
L 346.109091 254.122078 
L 350.086364 265.81039 
L 354.063636 259.966234 
L 358.040909 248.277922 
L 362.018182 242.433766 
L 365.995455 254.122078 
L 369.972727 259.966234 
L 373.95 265.81039 
L 377.927273 254.122078 
L 381.904545 242.433766 
L 385.881818 265.81039 
L 389.859091 259.966234 
L 393.836364 265.81039 
L 397.813636 259.966234 
L 401.790909 271.654545 
L 405.768182 259.966234 
L 409.745455 259.966234 
L 413.722727 242.433766 
" style="fill:none;stroke:#ff7f0e;stroke-linecap:square;stroke-width:1.5;"/>
   </g>
   <g id="line2d_78">
    <path clip-path="url(#p528cbd5ee6)" d="M 334.177273 259.966234 
L 338.154545 265.81039 
L 342.131818 248.277922 
L 346.109091 248.277922 
L 350.086364 248.277922 
L 354.063636 265.81039 
L 358.040909 265.81039 
L 362.018182 259.966234 
L 365.995455 254.122078 
L 369.972727 242.433766 
L 373.95 259.966234 
L 377.927273 271.654545 
L 381.904545 265.81039 
L 385.881818 265.81039 
L 389.859091 265.81039 
L 393.836364 242.433766 
L 397.813636 236.58961 
L 401.790909 242.433766 
L 405.768182 254.122078 
L 409.745455 248.277922 
L 413.722727 259.966234 
" style="fill:none;stroke:#2ca02c;stroke-linecap:square;stroke-width:1.5;"/>
   </g>
   <g id="line2d_79">
    <path clip-path="url(#p528cbd5ee6)" d="M 334.177273 259.966234 
L 338.154545 254.122078 
L 342.131818 259.966234 
L 346.109091 265.81039 
L 350.086364 254.122078 
L 354.063636 248.277922 
L 358.040909 236.58961 
L 362.018182 242.433766 
L 365.995455 248.277922 
L 369.972727 259.966234 
L 373.95 259.966234 
L 377.927273 242.433766 
L 381.904545 242.433766 
L 385.881818 230.745455 
L 389.859091 242.433766 
L 393.836364 248.277922 
L 397.813636 254.122078 
L 401.790909 254.122078 
L 405.768182 242.433766 
L 409.745455 259.966234 
L 413.722727 254.122078 
" style="fill:none;stroke:#d62728;stroke-linecap:square;stroke-width:1.5;"/>
   </g>
   <g id="line2d_80">
    <path clip-path="url(#p528cbd5ee6)" d="M 334.177273 248.277922 
L 338.154545 254.122078 
L 342.131818 265.81039 
L 346.109091 254.122078 
L 350.086364 259.966234 
L 354.063636 242.433766 
L 358.040909 271.654545 
L 362.018182 265.81039 
L 365.995455 259.966234 
L 369.972727 259.966234 
L 373.95 242.433766 
L 377.927273 259.966234 
L 381.904545 265.81039 
L 385.881818 254.122078 
L 389.859091 254.122078 
L 393.836364 248.277922 
L 397.813636 259.966234 
L 401.790909 259.966234 
L 405.768182 259.966234 
L 409.745455 254.122078 
L 413.722727 254.122078 
" style="fill:none;stroke:#9467bd;stroke-linecap:square;stroke-width:1.5;"/>
   </g>
   <g id="patch_78">
    <path d="M 330.2 273.7 
L 330.2 228.7 
" style="fill:none;stroke:#000000;stroke-linecap:square;stroke-linejoin:miter;stroke-width:0.8;"/>
   </g>
   <g id="patch_79">
    <path d="M 417.7 273.7 
L 417.7 228.7 
" style="fill:none;stroke:#000000;stroke-linecap:square;stroke-linejoin:miter;stroke-width:0.8;"/>
   </g>
   <g id="patch_80">
    <path d="M 330.2 273.7 
L 417.7 273.7 
" style="fill:none;stroke:#000000;stroke-linecap:square;stroke-linejoin:miter;stroke-width:0.8;"/>
   </g>
   <g id="patch_81">
    <path d="M 330.2 228.7 
L 417.7 228.7 
" style="fill:none;stroke:#000000;stroke-linecap:square;stroke-linejoin:miter;stroke-width:0.8;"/>
   </g>
   <g id="text_16">
    <!-- Random seed: 15 -->
    <g transform="translate(347.570156 222.7)scale(0.06 -0.06)">
     <use xlink:href="#DejaVuSans-52"/>
     <use x="69.451172" xlink:href="#DejaVuSans-61"/>
     <use x="130.730469" xlink:href="#DejaVuSans-6e"/>
     <use x="194.109375" xlink:href="#DejaVuSans-64"/>
     <use x="257.585938" xlink:href="#DejaVuSans-6f"/>
     <use x="318.767578" xlink:href="#DejaVuSans-6d"/>
     <use x="416.179688" xlink:href="#DejaVuSans-20"/>
     <use x="447.966797" xlink:href="#DejaVuSans-73"/>
     <use x="500.066406" xlink:href="#DejaVuSans-65"/>
     <use x="561.589844" xlink:href="#DejaVuSans-65"/>
     <use x="623.113281" xlink:href="#DejaVuSans-64"/>
     <use x="686.589844" xlink:href="#DejaVuSans-3a"/>
     <use x="720.28125" xlink:href="#DejaVuSans-20"/>
     <use x="752.068359" xlink:href="#DejaVuSans-31"/>
     <use x="815.691406" xlink:href="#DejaVuSans-35"/>
    </g>
   </g>
  </g>
 </g>
 <defs>
  <clipPath id="p165bd17c7b">
   <rect height="45" width="87.5" x="14.3" y="20.8"/>
  </clipPath>
  <clipPath id="p8a1588ce0f">
   <rect height="45" width="87.5" x="119.6" y="20.8"/>
  </clipPath>
  <clipPath id="p2b53922478">
   <rect height="45" width="87.5" x="224.9" y="20.8"/>
  </clipPath>
  <clipPath id="p2ea22c4928">
   <rect height="45" width="87.5" x="330.2" y="20.8"/>
  </clipPath>
  <clipPath id="pd1de50df9c">
   <rect height="45" width="87.5" x="14.3" y="90.1"/>
  </clipPath>
  <clipPath id="p4eba4e3391">
   <rect height="45" width="87.5" x="119.6" y="90.1"/>
  </clipPath>
  <clipPath id="p0952992835">
   <rect height="45" width="87.5" x="224.9" y="90.1"/>
  </clipPath>
  <clipPath id="pa848128935">
   <rect height="45" width="87.5" x="330.2" y="90.1"/>
  </clipPath>
  <clipPath id="p97c52a6eec">
   <rect height="45" width="87.5" x="14.3" y="159.4"/>
  </clipPath>
  <clipPath id="pf09449228d">
   <rect height="45" width="87.5" x="119.6" y="159.4"/>
  </clipPath>
  <clipPath id="p8a3bc0641b">
   <rect height="45" width="87.5" x="224.9" y="159.4"/>
  </clipPath>
  <clipPath id="p50063fb960">
   <rect height="45" width="87.5" x="330.2" y="159.4"/>
  </clipPath>
  <clipPath id="p4f29214dfd">
   <rect height="45" width="87.5" x="14.3" y="228.7"/>
  </clipPath>
  <clipPath id="p46172f3f3e">
   <rect height="45" width="87.5" x="119.6" y="228.7"/>
  </clipPath>
  <clipPath id="p0310e59a44">
   <rect height="45" width="87.5" x="224.9" y="228.7"/>
  </clipPath>
  <clipPath id="p528cbd5ee6">
   <rect height="45" width="87.5" x="330.2" y="228.7"/>
  </clipPath>
 </defs>
</svg>
