<?xml version="1.0" encoding="utf-8" standalone="no"?>
<!DOCTYPE svg PUBLIC "-//W3C//DTD SVG 1.1//EN"
  "http://www.w3.org/Graphics/SVG/1.1/DTD/svg11.dtd">
<!-- Created with matplotlib (http://matplotlib.org/) -->
<svg height="288pt" version="1.1" viewBox="0 0 432 288" width="432pt" xmlns="http://www.w3.org/2000/svg" xmlns:xlink="http://www.w3.org/1999/xlink">
 <defs>
  <style type="text/css">
*{stroke-linecap:butt;stroke-linejoin:round;}
  </style>
 </defs>
 <g id="figure_1">
  <g id="patch_1">
   <path d="M 0 288 
L 432 288 
L 432 0 
L 0 0 
z
" style="fill:#ffffff;"/>
  </g>
  <g id="axes_1">
   <g id="patch_2">
    <path d="M 14.3 65.8 
L 101.8 65.8 
L 101.8 20.8 
L 14.3 20.8 
z
" style="fill:#ffffff;"/>
   </g>
   <g id="matplotlib.axis_1"/>
   <g id="matplotlib.axis_2"/>
   <g id="line2d_1">
    <path clip-path="url(#p5163b4586a)" d="M 18.277273 49.436364 
L 22.254545 41.254545 
L 26.231818 35.118182 
L 30.209091 24.890909 
L 34.186364 24.890909 
L 38.163636 24.890909 
L 42.140909 24.890909 
L 46.118182 24.890909 
L 50.095455 22.845455 
L 54.072727 22.845455 
L 58.05 22.845455 
L 62.027273 22.845455 
L 66.004545 22.845455 
L 69.981818 22.845455 
L 73.959091 22.845455 
L 77.936364 22.845455 
L 81.913636 22.845455 
L 85.890909 22.845455 
L 89.868182 22.845455 
L 93.845455 22.845455 
L 97.822727 22.845455 
" style="fill:none;stroke:#1f77b4;stroke-linecap:square;stroke-width:1.5;"/>
   </g>
   <g id="line2d_2">
    <path clip-path="url(#p5163b4586a)" d="M 18.277273 47.390909 
L 22.254545 51.481818 
L 26.231818 51.481818 
L 30.209091 61.709091 
L 34.186364 61.709091 
L 38.163636 61.709091 
L 42.140909 61.709091 
L 46.118182 61.709091 
L 50.095455 63.754545 
L 54.072727 63.754545 
L 58.05 63.754545 
L 62.027273 63.754545 
L 66.004545 63.754545 
L 69.981818 63.754545 
L 73.959091 63.754545 
L 77.936364 63.754545 
L 81.913636 63.754545 
L 85.890909 63.754545 
L 89.868182 63.754545 
L 93.845455 63.754545 
L 97.822727 63.754545 
" style="fill:none;stroke:#ff7f0e;stroke-linecap:square;stroke-width:1.5;"/>
   </g>
   <g id="line2d_3">
    <path clip-path="url(#p5163b4586a)" d="M 18.277273 53.527273 
L 22.254545 57.618182 
L 26.231818 63.754545 
L 30.209091 63.754545 
L 34.186364 63.754545 
L 38.163636 63.754545 
L 42.140909 63.754545 
L 46.118182 63.754545 
L 50.095455 63.754545 
L 54.072727 63.754545 
L 58.05 63.754545 
L 62.027273 63.754545 
L 66.004545 63.754545 
L 69.981818 63.754545 
L 73.959091 63.754545 
L 77.936364 63.754545 
L 81.913636 63.754545 
L 85.890909 63.754545 
L 89.868182 63.754545 
L 93.845455 63.754545 
L 97.822727 63.754545 
" style="fill:none;stroke:#2ca02c;stroke-linecap:square;stroke-width:1.5;"/>
   </g>
   <g id="patch_3">
    <path d="M 14.3 65.8 
L 14.3 20.8 
" style="fill:none;stroke:#000000;stroke-linecap:square;stroke-linejoin:miter;stroke-width:0.8;"/>
   </g>
   <g id="patch_4">
    <path d="M 101.8 65.8 
L 101.8 20.8 
" style="fill:none;stroke:#000000;stroke-linecap:square;stroke-linejoin:miter;stroke-width:0.8;"/>
   </g>
   <g id="patch_5">
    <path d="M 14.3 65.8 
L 101.8 65.8 
" style="fill:none;stroke:#000000;stroke-linecap:square;stroke-linejoin:miter;stroke-width:0.8;"/>
   </g>
   <g id="patch_6">
    <path d="M 14.3 20.8 
L 101.8 20.8 
" style="fill:none;stroke:#000000;stroke-linecap:square;stroke-linejoin:miter;stroke-width:0.8;"/>
   </g>
   <g id="text_1">
    <!-- Random seed: 0 -->
    <defs>
     <path d="M 44.390625 34.1875 
Q 47.5625 33.109375 50.5625 29.59375 
Q 53.5625 26.078125 56.59375 19.921875 
L 66.609375 0 
L 56 0 
L 46.6875 18.703125 
Q 43.0625 26.03125 39.671875 28.421875 
Q 36.28125 30.8125 30.421875 30.8125 
L 19.671875 30.8125 
L 19.671875 0 
L 9.8125 0 
L 9.8125 72.90625 
L 32.078125 72.90625 
Q 44.578125 72.90625 50.734375 67.671875 
Q 56.890625 62.453125 56.890625 51.90625 
Q 56.890625 45.015625 53.6875 40.46875 
Q 50.484375 35.9375 44.390625 34.1875 
M 19.671875 64.796875 
L 19.671875 38.921875 
L 32.078125 38.921875 
Q 39.203125 38.921875 42.84375 42.21875 
Q 46.484375 45.515625 46.484375 51.90625 
Q 46.484375 58.296875 42.84375 61.546875 
Q 39.203125 64.796875 32.078125 64.796875 
z
" id="DejaVuSans-52"/>
     <path d="M 34.28125 27.484375 
Q 23.390625 27.484375 19.1875 25 
Q 14.984375 22.515625 14.984375 16.5 
Q 14.984375 11.71875 18.140625 8.90625 
Q 21.296875 6.109375 26.703125 6.109375 
Q 34.1875 6.109375 38.703125 11.40625 
Q 43.21875 16.703125 43.21875 25.484375 
L 43.21875 27.484375 
z
M 52.203125 31.203125 
L 52.203125 0 
L 43.21875 0 
L 43.21875 8.296875 
Q 40.140625 3.328125 35.546875 0.953125 
Q 30.953125 -1.421875 24.3125 -1.421875 
Q 15.921875 -1.421875 10.953125 3.296875 
Q 6 8.015625 6 15.921875 
Q 6 25.140625 12.171875 29.828125 
Q 18.359375 34.515625 30.609375 34.515625 
L 43.21875 34.515625 
L 43.21875 35.40625 
Q 43.21875 41.609375 39.140625 45 
Q 35.0625 48.390625 27.6875 48.390625 
Q 23 48.390625 18.546875 47.265625 
Q 14.109375 46.140625 10.015625 43.890625 
L 10.015625 52.203125 
Q 14.9375 54.109375 19.578125 55.046875 
Q 24.21875 56 28.609375 56 
Q 40.484375 56 46.34375 49.84375 
Q 52.203125 43.703125 52.203125 31.203125 
" id="DejaVuSans-61"/>
     <path d="M 54.890625 33.015625 
L 54.890625 0 
L 45.90625 0 
L 45.90625 32.71875 
Q 45.90625 40.484375 42.875 44.328125 
Q 39.84375 48.1875 33.796875 48.1875 
Q 26.515625 48.1875 22.3125 43.546875 
Q 18.109375 38.921875 18.109375 30.90625 
L 18.109375 0 
L 9.078125 0 
L 9.078125 54.6875 
L 18.109375 54.6875 
L 18.109375 46.1875 
Q 21.34375 51.125 25.703125 53.5625 
Q 30.078125 56 35.796875 56 
Q 45.21875 56 50.046875 50.171875 
Q 54.890625 44.34375 54.890625 33.015625 
" id="DejaVuSans-6e"/>
     <path d="M 45.40625 46.390625 
L 45.40625 75.984375 
L 54.390625 75.984375 
L 54.390625 0 
L 45.40625 0 
L 45.40625 8.203125 
Q 42.578125 3.328125 38.25 0.953125 
Q 33.9375 -1.421875 27.875 -1.421875 
Q 17.96875 -1.421875 11.734375 6.484375 
Q 5.515625 14.40625 5.515625 27.296875 
Q 5.515625 40.1875 11.734375 48.09375 
Q 17.96875 56 27.875 56 
Q 33.9375 56 38.25 53.625 
Q 42.578125 51.265625 45.40625 46.390625 
M 14.796875 27.296875 
Q 14.796875 17.390625 18.875 11.75 
Q 22.953125 6.109375 30.078125 6.109375 
Q 37.203125 6.109375 41.296875 11.75 
Q 45.40625 17.390625 45.40625 27.296875 
Q 45.40625 37.203125 41.296875 42.84375 
Q 37.203125 48.484375 30.078125 48.484375 
Q 22.953125 48.484375 18.875 42.84375 
Q 14.796875 37.203125 14.796875 27.296875 
" id="DejaVuSans-64"/>
     <path d="M 30.609375 48.390625 
Q 23.390625 48.390625 19.1875 42.75 
Q 14.984375 37.109375 14.984375 27.296875 
Q 14.984375 17.484375 19.15625 11.84375 
Q 23.34375 6.203125 30.609375 6.203125 
Q 37.796875 6.203125 41.984375 11.859375 
Q 46.1875 17.53125 46.1875 27.296875 
Q 46.1875 37.015625 41.984375 42.703125 
Q 37.796875 48.390625 30.609375 48.390625 
M 30.609375 56 
Q 42.328125 56 49.015625 48.375 
Q 55.71875 40.765625 55.71875 27.296875 
Q 55.71875 13.875 49.015625 6.21875 
Q 42.328125 -1.421875 30.609375 -1.421875 
Q 18.84375 -1.421875 12.171875 6.21875 
Q 5.515625 13.875 5.515625 27.296875 
Q 5.515625 40.765625 12.171875 48.375 
Q 18.84375 56 30.609375 56 
" id="DejaVuSans-6f"/>
     <path d="M 52 44.1875 
Q 55.375 50.25 60.0625 53.125 
Q 64.75 56 71.09375 56 
Q 79.640625 56 84.28125 50.015625 
Q 88.921875 44.046875 88.921875 33.015625 
L 88.921875 0 
L 79.890625 0 
L 79.890625 32.71875 
Q 79.890625 40.578125 77.09375 44.375 
Q 74.3125 48.1875 68.609375 48.1875 
Q 61.625 48.1875 57.5625 43.546875 
Q 53.515625 38.921875 53.515625 30.90625 
L 53.515625 0 
L 44.484375 0 
L 44.484375 32.71875 
Q 44.484375 40.625 41.703125 44.40625 
Q 38.921875 48.1875 33.109375 48.1875 
Q 26.21875 48.1875 22.15625 43.53125 
Q 18.109375 38.875 18.109375 30.90625 
L 18.109375 0 
L 9.078125 0 
L 9.078125 54.6875 
L 18.109375 54.6875 
L 18.109375 46.1875 
Q 21.1875 51.21875 25.484375 53.609375 
Q 29.78125 56 35.6875 56 
Q 41.65625 56 45.828125 52.96875 
Q 50 49.953125 52 44.1875 
" id="DejaVuSans-6d"/>
     <path id="DejaVuSans-20"/>
     <path d="M 44.28125 53.078125 
L 44.28125 44.578125 
Q 40.484375 46.53125 36.375 47.5 
Q 32.28125 48.484375 27.875 48.484375 
Q 21.1875 48.484375 17.84375 46.4375 
Q 14.5 44.390625 14.5 40.28125 
Q 14.5 37.15625 16.890625 35.375 
Q 19.28125 33.59375 26.515625 31.984375 
L 29.59375 31.296875 
Q 39.15625 29.25 43.1875 25.515625 
Q 47.21875 21.78125 47.21875 15.09375 
Q 47.21875 7.46875 41.1875 3.015625 
Q 35.15625 -1.421875 24.609375 -1.421875 
Q 20.21875 -1.421875 15.453125 -0.5625 
Q 10.6875 0.296875 5.421875 2 
L 5.421875 11.28125 
Q 10.40625 8.6875 15.234375 7.390625 
Q 20.0625 6.109375 24.8125 6.109375 
Q 31.15625 6.109375 34.5625 8.28125 
Q 37.984375 10.453125 37.984375 14.40625 
Q 37.984375 18.0625 35.515625 20.015625 
Q 33.0625 21.96875 24.703125 23.78125 
L 21.578125 24.515625 
Q 13.234375 26.265625 9.515625 29.90625 
Q 5.8125 33.546875 5.8125 39.890625 
Q 5.8125 47.609375 11.28125 51.796875 
Q 16.75 56 26.8125 56 
Q 31.78125 56 36.171875 55.265625 
Q 40.578125 54.546875 44.28125 53.078125 
" id="DejaVuSans-73"/>
     <path d="M 56.203125 29.59375 
L 56.203125 25.203125 
L 14.890625 25.203125 
Q 15.484375 15.921875 20.484375 11.0625 
Q 25.484375 6.203125 34.421875 6.203125 
Q 39.59375 6.203125 44.453125 7.46875 
Q 49.3125 8.734375 54.109375 11.28125 
L 54.109375 2.78125 
Q 49.265625 0.734375 44.1875 -0.34375 
Q 39.109375 -1.421875 33.890625 -1.421875 
Q 20.796875 -1.421875 13.15625 6.1875 
Q 5.515625 13.8125 5.515625 26.8125 
Q 5.515625 40.234375 12.765625 48.109375 
Q 20.015625 56 32.328125 56 
Q 43.359375 56 49.78125 48.890625 
Q 56.203125 41.796875 56.203125 29.59375 
M 47.21875 32.234375 
Q 47.125 39.59375 43.09375 43.984375 
Q 39.0625 48.390625 32.421875 48.390625 
Q 24.90625 48.390625 20.390625 44.140625 
Q 15.875 39.890625 15.1875 32.171875 
z
" id="DejaVuSans-65"/>
     <path d="M 11.71875 12.40625 
L 22.015625 12.40625 
L 22.015625 0 
L 11.71875 0 
z
M 11.71875 51.703125 
L 22.015625 51.703125 
L 22.015625 39.3125 
L 11.71875 39.3125 
z
" id="DejaVuSans-3a"/>
     <path d="M 31.78125 66.40625 
Q 24.171875 66.40625 20.328125 58.90625 
Q 16.5 51.421875 16.5 36.375 
Q 16.5 21.390625 20.328125 13.890625 
Q 24.171875 6.390625 31.78125 6.390625 
Q 39.453125 6.390625 43.28125 13.890625 
Q 47.125 21.390625 47.125 36.375 
Q 47.125 51.421875 43.28125 58.90625 
Q 39.453125 66.40625 31.78125 66.40625 
M 31.78125 74.21875 
Q 44.046875 74.21875 50.515625 64.515625 
Q 56.984375 54.828125 56.984375 36.375 
Q 56.984375 17.96875 50.515625 8.265625 
Q 44.046875 -1.421875 31.78125 -1.421875 
Q 19.53125 -1.421875 13.0625 8.265625 
Q 6.59375 17.96875 6.59375 36.375 
Q 6.59375 54.828125 13.0625 64.515625 
Q 19.53125 74.21875 31.78125 74.21875 
" id="DejaVuSans-30"/>
    </defs>
    <g transform="translate(33.578906 14.8)scale(0.06 -0.06)">
     <use xlink:href="#DejaVuSans-52"/>
     <use x="69.451172" xlink:href="#DejaVuSans-61"/>
     <use x="130.730469" xlink:href="#DejaVuSans-6e"/>
     <use x="194.109375" xlink:href="#DejaVuSans-64"/>
     <use x="257.585938" xlink:href="#DejaVuSans-6f"/>
     <use x="318.767578" xlink:href="#DejaVuSans-6d"/>
     <use x="416.179688" xlink:href="#DejaVuSans-20"/>
     <use x="447.966797" xlink:href="#DejaVuSans-73"/>
     <use x="500.066406" xlink:href="#DejaVuSans-65"/>
     <use x="561.589844" xlink:href="#DejaVuSans-65"/>
     <use x="623.113281" xlink:href="#DejaVuSans-64"/>
     <use x="686.589844" xlink:href="#DejaVuSans-3a"/>
     <use x="720.28125" xlink:href="#DejaVuSans-20"/>
     <use x="752.068359" xlink:href="#DejaVuSans-30"/>
    </g>
   </g>
  </g>
  <g id="axes_2">
   <g id="patch_7">
    <path d="M 119.6 65.8 
L 207.1 65.8 
L 207.1 20.8 
L 119.6 20.8 
z
" style="fill:#ffffff;"/>
   </g>
   <g id="matplotlib.axis_3"/>
   <g id="matplotlib.axis_4"/>
   <g id="line2d_4">
    <path clip-path="url(#pd6d5aa2b96)" d="M 123.577273 45.345455 
L 127.554545 43.3 
L 131.531818 35.118182 
L 135.509091 33.072727 
L 139.486364 26.936364 
L 143.463636 22.845455 
L 147.440909 22.845455 
L 151.418182 22.845455 
L 155.395455 22.845455 
L 159.372727 22.845455 
L 163.35 22.845455 
L 167.327273 22.845455 
L 171.304545 22.845455 
L 175.281818 22.845455 
L 179.259091 22.845455 
L 183.236364 22.845455 
L 187.213636 22.845455 
L 191.190909 22.845455 
L 195.168182 22.845455 
L 199.145455 22.845455 
L 203.122727 22.845455 
" style="fill:none;stroke:#1f77b4;stroke-linecap:square;stroke-width:1.5;"/>
   </g>
   <g id="line2d_5">
    <path clip-path="url(#pd6d5aa2b96)" d="M 123.577273 49.436364 
L 127.554545 45.345455 
L 131.531818 51.481818 
L 135.509091 53.527273 
L 139.486364 59.663636 
L 143.463636 63.754545 
L 147.440909 63.754545 
L 151.418182 63.754545 
L 155.395455 63.754545 
L 159.372727 63.754545 
L 163.35 63.754545 
L 167.327273 63.754545 
L 171.304545 63.754545 
L 175.281818 63.754545 
L 179.259091 63.754545 
L 183.236364 63.754545 
L 187.213636 63.754545 
L 191.190909 63.754545 
L 195.168182 63.754545 
L 199.145455 63.754545 
L 203.122727 63.754545 
" style="fill:none;stroke:#ff7f0e;stroke-linecap:square;stroke-width:1.5;"/>
   </g>
   <g id="line2d_6">
    <path clip-path="url(#pd6d5aa2b96)" d="M 123.577273 55.572727 
L 127.554545 61.709091 
L 131.531818 63.754545 
L 135.509091 63.754545 
L 139.486364 63.754545 
L 143.463636 63.754545 
L 147.440909 63.754545 
L 151.418182 63.754545 
L 155.395455 63.754545 
L 159.372727 63.754545 
L 163.35 63.754545 
L 167.327273 63.754545 
L 171.304545 63.754545 
L 175.281818 63.754545 
L 179.259091 63.754545 
L 183.236364 63.754545 
L 187.213636 63.754545 
L 191.190909 63.754545 
L 195.168182 63.754545 
L 199.145455 63.754545 
L 203.122727 63.754545 
" style="fill:none;stroke:#2ca02c;stroke-linecap:square;stroke-width:1.5;"/>
   </g>
   <g id="patch_8">
    <path d="M 119.6 65.8 
L 119.6 20.8 
" style="fill:none;stroke:#000000;stroke-linecap:square;stroke-linejoin:miter;stroke-width:0.8;"/>
   </g>
   <g id="patch_9">
    <path d="M 207.1 65.8 
L 207.1 20.8 
" style="fill:none;stroke:#000000;stroke-linecap:square;stroke-linejoin:miter;stroke-width:0.8;"/>
   </g>
   <g id="patch_10">
    <path d="M 119.6 65.8 
L 207.1 65.8 
" style="fill:none;stroke:#000000;stroke-linecap:square;stroke-linejoin:miter;stroke-width:0.8;"/>
   </g>
   <g id="patch_11">
    <path d="M 119.6 20.8 
L 207.1 20.8 
" style="fill:none;stroke:#000000;stroke-linecap:square;stroke-linejoin:miter;stroke-width:0.8;"/>
   </g>
   <g id="text_2">
    <!-- Random seed: 1 -->
    <defs>
     <path d="M 12.40625 8.296875 
L 28.515625 8.296875 
L 28.515625 63.921875 
L 10.984375 60.40625 
L 10.984375 69.390625 
L 28.421875 72.90625 
L 38.28125 72.90625 
L 38.28125 8.296875 
L 54.390625 8.296875 
L 54.390625 0 
L 12.40625 0 
z
" id="DejaVuSans-31"/>
    </defs>
    <g transform="translate(138.878906 14.8)scale(0.06 -0.06)">
     <use xlink:href="#DejaVuSans-52"/>
     <use x="69.451172" xlink:href="#DejaVuSans-61"/>
     <use x="130.730469" xlink:href="#DejaVuSans-6e"/>
     <use x="194.109375" xlink:href="#DejaVuSans-64"/>
     <use x="257.585938" xlink:href="#DejaVuSans-6f"/>
     <use x="318.767578" xlink:href="#DejaVuSans-6d"/>
     <use x="416.179688" xlink:href="#DejaVuSans-20"/>
     <use x="447.966797" xlink:href="#DejaVuSans-73"/>
     <use x="500.066406" xlink:href="#DejaVuSans-65"/>
     <use x="561.589844" xlink:href="#DejaVuSans-65"/>
     <use x="623.113281" xlink:href="#DejaVuSans-64"/>
     <use x="686.589844" xlink:href="#DejaVuSans-3a"/>
     <use x="720.28125" xlink:href="#DejaVuSans-20"/>
     <use x="752.068359" xlink:href="#DejaVuSans-31"/>
    </g>
   </g>
  </g>
  <g id="axes_3">
   <g id="patch_12">
    <path d="M 224.9 65.8 
L 312.4 65.8 
L 312.4 20.8 
L 224.9 20.8 
z
" style="fill:#ffffff;"/>
   </g>
   <g id="matplotlib.axis_5"/>
   <g id="matplotlib.axis_6"/>
   <g id="line2d_7">
    <path clip-path="url(#p531549d15c)" d="M 228.877273 49.436364 
L 232.854545 37.163636 
L 236.831818 33.072727 
L 240.809091 33.072727 
L 244.786364 28.981818 
L 248.763636 26.936364 
L 252.740909 26.936364 
L 256.718182 26.936364 
L 260.695455 26.936364 
L 264.672727 26.936364 
L 268.65 24.890909 
L 272.627273 22.845455 
L 276.604545 22.845455 
L 280.581818 22.845455 
L 284.559091 22.845455 
L 288.536364 22.845455 
L 292.513636 22.845455 
L 296.490909 22.845455 
L 300.468182 22.845455 
L 304.445455 22.845455 
L 308.422727 22.845455 
" style="fill:none;stroke:#1f77b4;stroke-linecap:square;stroke-width:1.5;"/>
   </g>
   <g id="line2d_8">
    <path clip-path="url(#p531549d15c)" d="M 228.877273 53.527273 
L 232.854545 53.527273 
L 236.831818 55.572727 
L 240.809091 55.572727 
L 244.786364 59.663636 
L 248.763636 61.709091 
L 252.740909 61.709091 
L 256.718182 59.663636 
L 260.695455 59.663636 
L 264.672727 59.663636 
L 268.65 61.709091 
L 272.627273 63.754545 
L 276.604545 63.754545 
L 280.581818 63.754545 
L 284.559091 63.754545 
L 288.536364 63.754545 
L 292.513636 63.754545 
L 296.490909 63.754545 
L 300.468182 63.754545 
L 304.445455 63.754545 
L 308.422727 63.754545 
" style="fill:none;stroke:#ff7f0e;stroke-linecap:square;stroke-width:1.5;"/>
   </g>
   <g id="line2d_9">
    <path clip-path="url(#p531549d15c)" d="M 228.877273 47.390909 
L 232.854545 59.663636 
L 236.831818 61.709091 
L 240.809091 61.709091 
L 244.786364 61.709091 
L 248.763636 61.709091 
L 252.740909 61.709091 
L 256.718182 63.754545 
L 260.695455 63.754545 
L 264.672727 63.754545 
L 268.65 63.754545 
L 272.627273 63.754545 
L 276.604545 63.754545 
L 280.581818 63.754545 
L 284.559091 63.754545 
L 288.536364 63.754545 
L 292.513636 63.754545 
L 296.490909 63.754545 
L 300.468182 63.754545 
L 304.445455 63.754545 
L 308.422727 63.754545 
" style="fill:none;stroke:#2ca02c;stroke-linecap:square;stroke-width:1.5;"/>
   </g>
   <g id="patch_13">
    <path d="M 224.9 65.8 
L 224.9 20.8 
" style="fill:none;stroke:#000000;stroke-linecap:square;stroke-linejoin:miter;stroke-width:0.8;"/>
   </g>
   <g id="patch_14">
    <path d="M 312.4 65.8 
L 312.4 20.8 
" style="fill:none;stroke:#000000;stroke-linecap:square;stroke-linejoin:miter;stroke-width:0.8;"/>
   </g>
   <g id="patch_15">
    <path d="M 224.9 65.8 
L 312.4 65.8 
" style="fill:none;stroke:#000000;stroke-linecap:square;stroke-linejoin:miter;stroke-width:0.8;"/>
   </g>
   <g id="patch_16">
    <path d="M 224.9 20.8 
L 312.4 20.8 
" style="fill:none;stroke:#000000;stroke-linecap:square;stroke-linejoin:miter;stroke-width:0.8;"/>
   </g>
   <g id="text_3">
    <!-- Random seed: 2 -->
    <defs>
     <path d="M 19.1875 8.296875 
L 53.609375 8.296875 
L 53.609375 0 
L 7.328125 0 
L 7.328125 8.296875 
Q 12.9375 14.109375 22.625 23.890625 
Q 32.328125 33.6875 34.8125 36.53125 
Q 39.546875 41.84375 41.421875 45.53125 
Q 43.3125 49.21875 43.3125 52.78125 
Q 43.3125 58.59375 39.234375 62.25 
Q 35.15625 65.921875 28.609375 65.921875 
Q 23.96875 65.921875 18.8125 64.3125 
Q 13.671875 62.703125 7.8125 59.421875 
L 7.8125 69.390625 
Q 13.765625 71.78125 18.9375 73 
Q 24.125 74.21875 28.421875 74.21875 
Q 39.75 74.21875 46.484375 68.546875 
Q 53.21875 62.890625 53.21875 53.421875 
Q 53.21875 48.921875 51.53125 44.890625 
Q 49.859375 40.875 45.40625 35.40625 
Q 44.1875 33.984375 37.640625 27.21875 
Q 31.109375 20.453125 19.1875 8.296875 
" id="DejaVuSans-32"/>
    </defs>
    <g transform="translate(244.178906 14.8)scale(0.06 -0.06)">
     <use xlink:href="#DejaVuSans-52"/>
     <use x="69.451172" xlink:href="#DejaVuSans-61"/>
     <use x="130.730469" xlink:href="#DejaVuSans-6e"/>
     <use x="194.109375" xlink:href="#DejaVuSans-64"/>
     <use x="257.585938" xlink:href="#DejaVuSans-6f"/>
     <use x="318.767578" xlink:href="#DejaVuSans-6d"/>
     <use x="416.179688" xlink:href="#DejaVuSans-20"/>
     <use x="447.966797" xlink:href="#DejaVuSans-73"/>
     <use x="500.066406" xlink:href="#DejaVuSans-65"/>
     <use x="561.589844" xlink:href="#DejaVuSans-65"/>
     <use x="623.113281" xlink:href="#DejaVuSans-64"/>
     <use x="686.589844" xlink:href="#DejaVuSans-3a"/>
     <use x="720.28125" xlink:href="#DejaVuSans-20"/>
     <use x="752.068359" xlink:href="#DejaVuSans-32"/>
    </g>
   </g>
  </g>
  <g id="axes_4">
   <g id="patch_17">
    <path d="M 330.2 65.8 
L 417.7 65.8 
L 417.7 20.8 
L 330.2 20.8 
z
" style="fill:#ffffff;"/>
   </g>
   <g id="matplotlib.axis_7"/>
   <g id="matplotlib.axis_8"/>
   <g id="line2d_10">
    <path clip-path="url(#p1fdfaea494)" d="M 334.177273 47.390909 
L 338.154545 41.254545 
L 342.131818 35.118182 
L 346.109091 28.981818 
L 350.086364 28.981818 
L 354.063636 22.845455 
L 358.040909 22.845455 
L 362.018182 22.845455 
L 365.995455 22.845455 
L 369.972727 22.845455 
L 373.95 22.845455 
L 377.927273 22.845455 
L 381.904545 22.845455 
L 385.881818 22.845455 
L 389.859091 22.845455 
L 393.836364 22.845455 
L 397.813636 22.845455 
L 401.790909 22.845455 
L 405.768182 22.845455 
L 409.745455 22.845455 
L 413.722727 22.845455 
" style="fill:none;stroke:#1f77b4;stroke-linecap:square;stroke-width:1.5;"/>
   </g>
   <g id="line2d_11">
    <path clip-path="url(#p1fdfaea494)" d="M 334.177273 49.436364 
L 338.154545 51.481818 
L 342.131818 53.527273 
L 346.109091 57.618182 
L 350.086364 57.618182 
L 354.063636 63.754545 
L 358.040909 63.754545 
L 362.018182 63.754545 
L 365.995455 63.754545 
L 369.972727 63.754545 
L 373.95 63.754545 
L 377.927273 63.754545 
L 381.904545 63.754545 
L 385.881818 63.754545 
L 389.859091 63.754545 
L 393.836364 63.754545 
L 397.813636 63.754545 
L 401.790909 63.754545 
L 405.768182 63.754545 
L 409.745455 63.754545 
L 413.722727 63.754545 
" style="fill:none;stroke:#ff7f0e;stroke-linecap:square;stroke-width:1.5;"/>
   </g>
   <g id="line2d_12">
    <path clip-path="url(#p1fdfaea494)" d="M 334.177273 53.527273 
L 338.154545 57.618182 
L 342.131818 61.709091 
L 346.109091 63.754545 
L 350.086364 63.754545 
L 354.063636 63.754545 
L 358.040909 63.754545 
L 362.018182 63.754545 
L 365.995455 63.754545 
L 369.972727 63.754545 
L 373.95 63.754545 
L 377.927273 63.754545 
L 381.904545 63.754545 
L 385.881818 63.754545 
L 389.859091 63.754545 
L 393.836364 63.754545 
L 397.813636 63.754545 
L 401.790909 63.754545 
L 405.768182 63.754545 
L 409.745455 63.754545 
L 413.722727 63.754545 
" style="fill:none;stroke:#2ca02c;stroke-linecap:square;stroke-width:1.5;"/>
   </g>
   <g id="patch_18">
    <path d="M 330.2 65.8 
L 330.2 20.8 
" style="fill:none;stroke:#000000;stroke-linecap:square;stroke-linejoin:miter;stroke-width:0.8;"/>
   </g>
   <g id="patch_19">
    <path d="M 417.7 65.8 
L 417.7 20.8 
" style="fill:none;stroke:#000000;stroke-linecap:square;stroke-linejoin:miter;stroke-width:0.8;"/>
   </g>
   <g id="patch_20">
    <path d="M 330.2 65.8 
L 417.7 65.8 
" style="fill:none;stroke:#000000;stroke-linecap:square;stroke-linejoin:miter;stroke-width:0.8;"/>
   </g>
   <g id="patch_21">
    <path d="M 330.2 20.8 
L 417.7 20.8 
" style="fill:none;stroke:#000000;stroke-linecap:square;stroke-linejoin:miter;stroke-width:0.8;"/>
   </g>
   <g id="text_4">
    <!-- Random seed: 3 -->
    <defs>
     <path d="M 40.578125 39.3125 
Q 47.65625 37.796875 51.625 33 
Q 55.609375 28.21875 55.609375 21.1875 
Q 55.609375 10.40625 48.1875 4.484375 
Q 40.765625 -1.421875 27.09375 -1.421875 
Q 22.515625 -1.421875 17.65625 -0.515625 
Q 12.796875 0.390625 7.625 2.203125 
L 7.625 11.71875 
Q 11.71875 9.328125 16.59375 8.109375 
Q 21.484375 6.890625 26.8125 6.890625 
Q 36.078125 6.890625 40.9375 10.546875 
Q 45.796875 14.203125 45.796875 21.1875 
Q 45.796875 27.640625 41.28125 31.265625 
Q 36.765625 34.90625 28.71875 34.90625 
L 20.21875 34.90625 
L 20.21875 43.015625 
L 29.109375 43.015625 
Q 36.375 43.015625 40.234375 45.921875 
Q 44.09375 48.828125 44.09375 54.296875 
Q 44.09375 59.90625 40.109375 62.90625 
Q 36.140625 65.921875 28.71875 65.921875 
Q 24.65625 65.921875 20.015625 65.03125 
Q 15.375 64.15625 9.8125 62.3125 
L 9.8125 71.09375 
Q 15.4375 72.65625 20.34375 73.4375 
Q 25.25 74.21875 29.59375 74.21875 
Q 40.828125 74.21875 47.359375 69.109375 
Q 53.90625 64.015625 53.90625 55.328125 
Q 53.90625 49.265625 50.4375 45.09375 
Q 46.96875 40.921875 40.578125 39.3125 
" id="DejaVuSans-33"/>
    </defs>
    <g transform="translate(349.478906 14.8)scale(0.06 -0.06)">
     <use xlink:href="#DejaVuSans-52"/>
     <use x="69.451172" xlink:href="#DejaVuSans-61"/>
     <use x="130.730469" xlink:href="#DejaVuSans-6e"/>
     <use x="194.109375" xlink:href="#DejaVuSans-64"/>
     <use x="257.585938" xlink:href="#DejaVuSans-6f"/>
     <use x="318.767578" xlink:href="#DejaVuSans-6d"/>
     <use x="416.179688" xlink:href="#DejaVuSans-20"/>
     <use x="447.966797" xlink:href="#DejaVuSans-73"/>
     <use x="500.066406" xlink:href="#DejaVuSans-65"/>
     <use x="561.589844" xlink:href="#DejaVuSans-65"/>
     <use x="623.113281" xlink:href="#DejaVuSans-64"/>
     <use x="686.589844" xlink:href="#DejaVuSans-3a"/>
     <use x="720.28125" xlink:href="#DejaVuSans-20"/>
     <use x="752.068359" xlink:href="#DejaVuSans-33"/>
    </g>
   </g>
  </g>
  <g id="axes_5">
   <g id="patch_22">
    <path d="M 14.3 135.1 
L 101.8 135.1 
L 101.8 90.1 
L 14.3 90.1 
z
" style="fill:#ffffff;"/>
   </g>
   <g id="matplotlib.axis_9"/>
   <g id="matplotlib.axis_10"/>
   <g id="line2d_13">
    <path clip-path="url(#p73ef63dc00)" d="M 18.277273 120.781818 
L 22.254545 110.554545 
L 26.231818 104.418182 
L 30.209091 102.372727 
L 34.186364 94.190909 
L 38.163636 92.145455 
L 42.140909 92.145455 
L 46.118182 92.145455 
L 50.095455 92.145455 
L 54.072727 92.145455 
L 58.05 92.145455 
L 62.027273 92.145455 
L 66.004545 92.145455 
L 69.981818 92.145455 
L 73.959091 92.145455 
L 77.936364 92.145455 
L 81.913636 92.145455 
L 85.890909 92.145455 
L 89.868182 92.145455 
L 93.845455 92.145455 
L 97.822727 92.145455 
" style="fill:none;stroke:#1f77b4;stroke-linecap:square;stroke-width:1.5;"/>
   </g>
   <g id="line2d_14">
    <path clip-path="url(#p73ef63dc00)" d="M 18.277273 122.827273 
L 22.254545 118.736364 
L 26.231818 122.827273 
L 30.209091 122.827273 
L 34.186364 131.009091 
L 38.163636 133.054545 
L 42.140909 133.054545 
L 46.118182 133.054545 
L 50.095455 133.054545 
L 54.072727 133.054545 
L 58.05 133.054545 
L 62.027273 133.054545 
L 66.004545 133.054545 
L 69.981818 133.054545 
L 73.959091 133.054545 
L 77.936364 133.054545 
L 81.913636 133.054545 
L 85.890909 133.054545 
L 89.868182 133.054545 
L 93.845455 133.054545 
L 97.822727 133.054545 
" style="fill:none;stroke:#ff7f0e;stroke-linecap:square;stroke-width:1.5;"/>
   </g>
   <g id="line2d_15">
    <path clip-path="url(#p73ef63dc00)" d="M 18.277273 114.645455 
L 22.254545 128.963636 
L 26.231818 131.009091 
L 30.209091 133.054545 
L 34.186364 133.054545 
L 38.163636 133.054545 
L 42.140909 133.054545 
L 46.118182 133.054545 
L 50.095455 133.054545 
L 54.072727 133.054545 
L 58.05 133.054545 
L 62.027273 133.054545 
L 66.004545 133.054545 
L 69.981818 133.054545 
L 73.959091 133.054545 
L 77.936364 133.054545 
L 81.913636 133.054545 
L 85.890909 133.054545 
L 89.868182 133.054545 
L 93.845455 133.054545 
L 97.822727 133.054545 
" style="fill:none;stroke:#2ca02c;stroke-linecap:square;stroke-width:1.5;"/>
   </g>
   <g id="patch_23">
    <path d="M 14.3 135.1 
L 14.3 90.1 
" style="fill:none;stroke:#000000;stroke-linecap:square;stroke-linejoin:miter;stroke-width:0.8;"/>
   </g>
   <g id="patch_24">
    <path d="M 101.8 135.1 
L 101.8 90.1 
" style="fill:none;stroke:#000000;stroke-linecap:square;stroke-linejoin:miter;stroke-width:0.8;"/>
   </g>
   <g id="patch_25">
    <path d="M 14.3 135.1 
L 101.8 135.1 
" style="fill:none;stroke:#000000;stroke-linecap:square;stroke-linejoin:miter;stroke-width:0.8;"/>
   </g>
   <g id="patch_26">
    <path d="M 14.3 90.1 
L 101.8 90.1 
" style="fill:none;stroke:#000000;stroke-linecap:square;stroke-linejoin:miter;stroke-width:0.8;"/>
   </g>
   <g id="text_5">
    <!-- Random seed: 4 -->
    <defs>
     <path d="M 37.796875 64.3125 
L 12.890625 25.390625 
L 37.796875 25.390625 
z
M 35.203125 72.90625 
L 47.609375 72.90625 
L 47.609375 25.390625 
L 58.015625 25.390625 
L 58.015625 17.1875 
L 47.609375 17.1875 
L 47.609375 0 
L 37.796875 0 
L 37.796875 17.1875 
L 4.890625 17.1875 
L 4.890625 26.703125 
z
" id="DejaVuSans-34"/>
    </defs>
    <g transform="translate(33.578906 84.1)scale(0.06 -0.06)">
     <use xlink:href="#DejaVuSans-52"/>
     <use x="69.451172" xlink:href="#DejaVuSans-61"/>
     <use x="130.730469" xlink:href="#DejaVuSans-6e"/>
     <use x="194.109375" xlink:href="#DejaVuSans-64"/>
     <use x="257.585938" xlink:href="#DejaVuSans-6f"/>
     <use x="318.767578" xlink:href="#DejaVuSans-6d"/>
     <use x="416.179688" xlink:href="#DejaVuSans-20"/>
     <use x="447.966797" xlink:href="#DejaVuSans-73"/>
     <use x="500.066406" xlink:href="#DejaVuSans-65"/>
     <use x="561.589844" xlink:href="#DejaVuSans-65"/>
     <use x="623.113281" xlink:href="#DejaVuSans-64"/>
     <use x="686.589844" xlink:href="#DejaVuSans-3a"/>
     <use x="720.28125" xlink:href="#DejaVuSans-20"/>
     <use x="752.068359" xlink:href="#DejaVuSans-34"/>
    </g>
   </g>
  </g>
  <g id="axes_6">
   <g id="patch_27">
    <path d="M 119.6 135.1 
L 207.1 135.1 
L 207.1 90.1 
L 119.6 90.1 
z
" style="fill:#ffffff;"/>
   </g>
   <g id="matplotlib.axis_11"/>
   <g id="matplotlib.axis_12"/>
   <g id="line2d_16">
    <path clip-path="url(#p3e5bc9827a)" d="M 123.577273 116.690909 
L 127.554545 106.463636 
L 131.531818 102.372727 
L 135.509091 98.281818 
L 139.486364 94.190909 
L 143.463636 92.145455 
L 147.440909 92.145455 
L 151.418182 92.145455 
L 155.395455 92.145455 
L 159.372727 92.145455 
L 163.35 92.145455 
L 167.327273 92.145455 
L 171.304545 92.145455 
L 175.281818 92.145455 
L 179.259091 92.145455 
L 183.236364 92.145455 
L 187.213636 92.145455 
L 191.190909 92.145455 
L 195.168182 92.145455 
L 199.145455 92.145455 
L 203.122727 92.145455 
" style="fill:none;stroke:#1f77b4;stroke-linecap:square;stroke-width:1.5;"/>
   </g>
   <g id="line2d_17">
    <path clip-path="url(#p3e5bc9827a)" d="M 123.577273 120.781818 
L 127.554545 122.827273 
L 131.531818 124.872727 
L 135.509091 128.963636 
L 139.486364 131.009091 
L 143.463636 133.054545 
L 147.440909 133.054545 
L 151.418182 133.054545 
L 155.395455 133.054545 
L 159.372727 133.054545 
L 163.35 133.054545 
L 167.327273 133.054545 
L 171.304545 133.054545 
L 175.281818 133.054545 
L 179.259091 133.054545 
L 183.236364 133.054545 
L 187.213636 133.054545 
L 191.190909 133.054545 
L 195.168182 133.054545 
L 199.145455 133.054545 
L 203.122727 133.054545 
" style="fill:none;stroke:#ff7f0e;stroke-linecap:square;stroke-width:1.5;"/>
   </g>
   <g id="line2d_18">
    <path clip-path="url(#p3e5bc9827a)" d="M 123.577273 120.781818 
L 127.554545 128.963636 
L 131.531818 131.009091 
L 135.509091 131.009091 
L 139.486364 133.054545 
L 143.463636 133.054545 
L 147.440909 133.054545 
L 151.418182 133.054545 
L 155.395455 133.054545 
L 159.372727 133.054545 
L 163.35 133.054545 
L 167.327273 133.054545 
L 171.304545 133.054545 
L 175.281818 133.054545 
L 179.259091 133.054545 
L 183.236364 133.054545 
L 187.213636 133.054545 
L 191.190909 133.054545 
L 195.168182 133.054545 
L 199.145455 133.054545 
L 203.122727 133.054545 
" style="fill:none;stroke:#2ca02c;stroke-linecap:square;stroke-width:1.5;"/>
   </g>
   <g id="patch_28">
    <path d="M 119.6 135.1 
L 119.6 90.1 
" style="fill:none;stroke:#000000;stroke-linecap:square;stroke-linejoin:miter;stroke-width:0.8;"/>
   </g>
   <g id="patch_29">
    <path d="M 207.1 135.1 
L 207.1 90.1 
" style="fill:none;stroke:#000000;stroke-linecap:square;stroke-linejoin:miter;stroke-width:0.8;"/>
   </g>
   <g id="patch_30">
    <path d="M 119.6 135.1 
L 207.1 135.1 
" style="fill:none;stroke:#000000;stroke-linecap:square;stroke-linejoin:miter;stroke-width:0.8;"/>
   </g>
   <g id="patch_31">
    <path d="M 119.6 90.1 
L 207.1 90.1 
" style="fill:none;stroke:#000000;stroke-linecap:square;stroke-linejoin:miter;stroke-width:0.8;"/>
   </g>
   <g id="text_6">
    <!-- Random seed: 5 -->
    <defs>
     <path d="M 10.796875 72.90625 
L 49.515625 72.90625 
L 49.515625 64.59375 
L 19.828125 64.59375 
L 19.828125 46.734375 
Q 21.96875 47.46875 24.109375 47.828125 
Q 26.265625 48.1875 28.421875 48.1875 
Q 40.625 48.1875 47.75 41.5 
Q 54.890625 34.8125 54.890625 23.390625 
Q 54.890625 11.625 47.5625 5.09375 
Q 40.234375 -1.421875 26.90625 -1.421875 
Q 22.3125 -1.421875 17.546875 -0.640625 
Q 12.796875 0.140625 7.71875 1.703125 
L 7.71875 11.625 
Q 12.109375 9.234375 16.796875 8.0625 
Q 21.484375 6.890625 26.703125 6.890625 
Q 35.15625 6.890625 40.078125 11.328125 
Q 45.015625 15.765625 45.015625 23.390625 
Q 45.015625 31 40.078125 35.4375 
Q 35.15625 39.890625 26.703125 39.890625 
Q 22.75 39.890625 18.8125 39.015625 
Q 14.890625 38.140625 10.796875 36.28125 
z
" id="DejaVuSans-35"/>
    </defs>
    <g transform="translate(138.878906 84.1)scale(0.06 -0.06)">
     <use xlink:href="#DejaVuSans-52"/>
     <use x="69.451172" xlink:href="#DejaVuSans-61"/>
     <use x="130.730469" xlink:href="#DejaVuSans-6e"/>
     <use x="194.109375" xlink:href="#DejaVuSans-64"/>
     <use x="257.585938" xlink:href="#DejaVuSans-6f"/>
     <use x="318.767578" xlink:href="#DejaVuSans-6d"/>
     <use x="416.179688" xlink:href="#DejaVuSans-20"/>
     <use x="447.966797" xlink:href="#DejaVuSans-73"/>
     <use x="500.066406" xlink:href="#DejaVuSans-65"/>
     <use x="561.589844" xlink:href="#DejaVuSans-65"/>
     <use x="623.113281" xlink:href="#DejaVuSans-64"/>
     <use x="686.589844" xlink:href="#DejaVuSans-3a"/>
     <use x="720.28125" xlink:href="#DejaVuSans-20"/>
     <use x="752.068359" xlink:href="#DejaVuSans-35"/>
    </g>
   </g>
  </g>
  <g id="axes_7">
   <g id="patch_32">
    <path d="M 224.9 135.1 
L 312.4 135.1 
L 312.4 90.1 
L 224.9 90.1 
z
" style="fill:#ffffff;"/>
   </g>
   <g id="matplotlib.axis_13"/>
   <g id="matplotlib.axis_14"/>
   <g id="line2d_19">
    <path clip-path="url(#p436d3b65eb)" d="M 228.877273 122.827273 
L 232.854545 112.6 
L 236.831818 112.6 
L 240.809091 110.554545 
L 244.786364 106.463636 
L 248.763636 102.372727 
L 252.740909 98.281818 
L 256.718182 98.281818 
L 260.695455 96.236364 
L 264.672727 96.236364 
L 268.65 96.236364 
L 272.627273 94.190909 
L 276.604545 94.190909 
L 280.581818 94.190909 
L 284.559091 92.145455 
L 288.536364 92.145455 
L 292.513636 92.145455 
L 296.490909 92.145455 
L 300.468182 92.145455 
L 304.445455 92.145455 
L 308.422727 92.145455 
" style="fill:none;stroke:#1f77b4;stroke-linecap:square;stroke-width:1.5;"/>
   </g>
   <g id="line2d_20">
    <path clip-path="url(#p436d3b65eb)" d="M 228.877273 116.690909 
L 232.854545 116.690909 
L 236.831818 114.645455 
L 240.809091 116.690909 
L 244.786364 118.736364 
L 248.763636 122.827273 
L 252.740909 126.918182 
L 256.718182 126.918182 
L 260.695455 128.963636 
L 264.672727 128.963636 
L 268.65 128.963636 
L 272.627273 131.009091 
L 276.604545 131.009091 
L 280.581818 131.009091 
L 284.559091 133.054545 
L 288.536364 133.054545 
L 292.513636 133.054545 
L 296.490909 133.054545 
L 300.468182 133.054545 
L 304.445455 133.054545 
L 308.422727 133.054545 
" style="fill:none;stroke:#ff7f0e;stroke-linecap:square;stroke-width:1.5;"/>
   </g>
   <g id="line2d_21">
    <path clip-path="url(#p436d3b65eb)" d="M 228.877273 118.736364 
L 232.854545 128.963636 
L 236.831818 131.009091 
L 240.809091 131.009091 
L 244.786364 133.054545 
L 248.763636 133.054545 
L 252.740909 133.054545 
L 256.718182 133.054545 
L 260.695455 133.054545 
L 264.672727 133.054545 
L 268.65 133.054545 
L 272.627273 133.054545 
L 276.604545 133.054545 
L 280.581818 133.054545 
L 284.559091 133.054545 
L 288.536364 133.054545 
L 292.513636 133.054545 
L 296.490909 133.054545 
L 300.468182 133.054545 
L 304.445455 133.054545 
L 308.422727 133.054545 
" style="fill:none;stroke:#2ca02c;stroke-linecap:square;stroke-width:1.5;"/>
   </g>
   <g id="patch_33">
    <path d="M 224.9 135.1 
L 224.9 90.1 
" style="fill:none;stroke:#000000;stroke-linecap:square;stroke-linejoin:miter;stroke-width:0.8;"/>
   </g>
   <g id="patch_34">
    <path d="M 312.4 135.1 
L 312.4 90.1 
" style="fill:none;stroke:#000000;stroke-linecap:square;stroke-linejoin:miter;stroke-width:0.8;"/>
   </g>
   <g id="patch_35">
    <path d="M 224.9 135.1 
L 312.4 135.1 
" style="fill:none;stroke:#000000;stroke-linecap:square;stroke-linejoin:miter;stroke-width:0.8;"/>
   </g>
   <g id="patch_36">
    <path d="M 224.9 90.1 
L 312.4 90.1 
" style="fill:none;stroke:#000000;stroke-linecap:square;stroke-linejoin:miter;stroke-width:0.8;"/>
   </g>
   <g id="text_7">
    <!-- Random seed: 6 -->
    <defs>
     <path d="M 33.015625 40.375 
Q 26.375 40.375 22.484375 35.828125 
Q 18.609375 31.296875 18.609375 23.390625 
Q 18.609375 15.53125 22.484375 10.953125 
Q 26.375 6.390625 33.015625 6.390625 
Q 39.65625 6.390625 43.53125 10.953125 
Q 47.40625 15.53125 47.40625 23.390625 
Q 47.40625 31.296875 43.53125 35.828125 
Q 39.65625 40.375 33.015625 40.375 
M 52.59375 71.296875 
L 52.59375 62.3125 
Q 48.875 64.0625 45.09375 64.984375 
Q 41.3125 65.921875 37.59375 65.921875 
Q 27.828125 65.921875 22.671875 59.328125 
Q 17.53125 52.734375 16.796875 39.40625 
Q 19.671875 43.65625 24.015625 45.921875 
Q 28.375 48.1875 33.59375 48.1875 
Q 44.578125 48.1875 50.953125 41.515625 
Q 57.328125 34.859375 57.328125 23.390625 
Q 57.328125 12.15625 50.6875 5.359375 
Q 44.046875 -1.421875 33.015625 -1.421875 
Q 20.359375 -1.421875 13.671875 8.265625 
Q 6.984375 17.96875 6.984375 36.375 
Q 6.984375 53.65625 15.1875 63.9375 
Q 23.390625 74.21875 37.203125 74.21875 
Q 40.921875 74.21875 44.703125 73.484375 
Q 48.484375 72.75 52.59375 71.296875 
" id="DejaVuSans-36"/>
    </defs>
    <g transform="translate(244.178906 84.1)scale(0.06 -0.06)">
     <use xlink:href="#DejaVuSans-52"/>
     <use x="69.451172" xlink:href="#DejaVuSans-61"/>
     <use x="130.730469" xlink:href="#DejaVuSans-6e"/>
     <use x="194.109375" xlink:href="#DejaVuSans-64"/>
     <use x="257.585938" xlink:href="#DejaVuSans-6f"/>
     <use x="318.767578" xlink:href="#DejaVuSans-6d"/>
     <use x="416.179688" xlink:href="#DejaVuSans-20"/>
     <use x="447.966797" xlink:href="#DejaVuSans-73"/>
     <use x="500.066406" xlink:href="#DejaVuSans-65"/>
     <use x="561.589844" xlink:href="#DejaVuSans-65"/>
     <use x="623.113281" xlink:href="#DejaVuSans-64"/>
     <use x="686.589844" xlink:href="#DejaVuSans-3a"/>
     <use x="720.28125" xlink:href="#DejaVuSans-20"/>
     <use x="752.068359" xlink:href="#DejaVuSans-36"/>
    </g>
   </g>
  </g>
  <g id="axes_8">
   <g id="patch_37">
    <path d="M 330.2 135.1 
L 417.7 135.1 
L 417.7 90.1 
L 330.2 90.1 
z
" style="fill:#ffffff;"/>
   </g>
   <g id="matplotlib.axis_15"/>
   <g id="matplotlib.axis_16"/>
   <g id="line2d_22">
    <path clip-path="url(#p22c0d50c03)" d="M 334.177273 114.645455 
L 338.154545 104.418182 
L 342.131818 98.281818 
L 346.109091 96.236364 
L 350.086364 94.190909 
L 354.063636 94.190909 
L 358.040909 92.145455 
L 362.018182 92.145455 
L 365.995455 92.145455 
L 369.972727 92.145455 
L 373.95 92.145455 
L 377.927273 92.145455 
L 381.904545 92.145455 
L 385.881818 92.145455 
L 389.859091 92.145455 
L 393.836364 92.145455 
L 397.813636 92.145455 
L 401.790909 92.145455 
L 405.768182 92.145455 
L 409.745455 92.145455 
L 413.722727 92.145455 
" style="fill:none;stroke:#1f77b4;stroke-linecap:square;stroke-width:1.5;"/>
   </g>
   <g id="line2d_23">
    <path clip-path="url(#p22c0d50c03)" d="M 334.177273 126.918182 
L 338.154545 124.872727 
L 342.131818 126.918182 
L 346.109091 128.963636 
L 350.086364 131.009091 
L 354.063636 131.009091 
L 358.040909 133.054545 
L 362.018182 133.054545 
L 365.995455 133.054545 
L 369.972727 133.054545 
L 373.95 133.054545 
L 377.927273 133.054545 
L 381.904545 133.054545 
L 385.881818 133.054545 
L 389.859091 133.054545 
L 393.836364 133.054545 
L 397.813636 133.054545 
L 401.790909 133.054545 
L 405.768182 133.054545 
L 409.745455 133.054545 
L 413.722727 133.054545 
" style="fill:none;stroke:#ff7f0e;stroke-linecap:square;stroke-width:1.5;"/>
   </g>
   <g id="line2d_24">
    <path clip-path="url(#p22c0d50c03)" d="M 334.177273 116.690909 
L 338.154545 128.963636 
L 342.131818 133.054545 
L 346.109091 133.054545 
L 350.086364 133.054545 
L 354.063636 133.054545 
L 358.040909 133.054545 
L 362.018182 133.054545 
L 365.995455 133.054545 
L 369.972727 133.054545 
L 373.95 133.054545 
L 377.927273 133.054545 
L 381.904545 133.054545 
L 385.881818 133.054545 
L 389.859091 133.054545 
L 393.836364 133.054545 
L 397.813636 133.054545 
L 401.790909 133.054545 
L 405.768182 133.054545 
L 409.745455 133.054545 
L 413.722727 133.054545 
" style="fill:none;stroke:#2ca02c;stroke-linecap:square;stroke-width:1.5;"/>
   </g>
   <g id="patch_38">
    <path d="M 330.2 135.1 
L 330.2 90.1 
" style="fill:none;stroke:#000000;stroke-linecap:square;stroke-linejoin:miter;stroke-width:0.8;"/>
   </g>
   <g id="patch_39">
    <path d="M 417.7 135.1 
L 417.7 90.1 
" style="fill:none;stroke:#000000;stroke-linecap:square;stroke-linejoin:miter;stroke-width:0.8;"/>
   </g>
   <g id="patch_40">
    <path d="M 330.2 135.1 
L 417.7 135.1 
" style="fill:none;stroke:#000000;stroke-linecap:square;stroke-linejoin:miter;stroke-width:0.8;"/>
   </g>
   <g id="patch_41">
    <path d="M 330.2 90.1 
L 417.7 90.1 
" style="fill:none;stroke:#000000;stroke-linecap:square;stroke-linejoin:miter;stroke-width:0.8;"/>
   </g>
   <g id="text_8">
    <!-- Random seed: 7 -->
    <defs>
     <path d="M 8.203125 72.90625 
L 55.078125 72.90625 
L 55.078125 68.703125 
L 28.609375 0 
L 18.3125 0 
L 43.21875 64.59375 
L 8.203125 64.59375 
z
" id="DejaVuSans-37"/>
    </defs>
    <g transform="translate(349.478906 84.1)scale(0.06 -0.06)">
     <use xlink:href="#DejaVuSans-52"/>
     <use x="69.451172" xlink:href="#DejaVuSans-61"/>
     <use x="130.730469" xlink:href="#DejaVuSans-6e"/>
     <use x="194.109375" xlink:href="#DejaVuSans-64"/>
     <use x="257.585938" xlink:href="#DejaVuSans-6f"/>
     <use x="318.767578" xlink:href="#DejaVuSans-6d"/>
     <use x="416.179688" xlink:href="#DejaVuSans-20"/>
     <use x="447.966797" xlink:href="#DejaVuSans-73"/>
     <use x="500.066406" xlink:href="#DejaVuSans-65"/>
     <use x="561.589844" xlink:href="#DejaVuSans-65"/>
     <use x="623.113281" xlink:href="#DejaVuSans-64"/>
     <use x="686.589844" xlink:href="#DejaVuSans-3a"/>
     <use x="720.28125" xlink:href="#DejaVuSans-20"/>
     <use x="752.068359" xlink:href="#DejaVuSans-37"/>
    </g>
   </g>
  </g>
  <g id="axes_9">
   <g id="patch_42">
    <path d="M 14.3 204.4 
L 101.8 204.4 
L 101.8 159.4 
L 14.3 159.4 
z
" style="fill:#ffffff;"/>
   </g>
   <g id="matplotlib.axis_17"/>
   <g id="matplotlib.axis_18"/>
   <g id="line2d_25">
    <path clip-path="url(#p3dd59b7b38)" d="M 18.277273 190.081818 
L 22.254545 185.990909 
L 26.231818 175.763636 
L 30.209091 171.672727 
L 34.186364 165.536364 
L 38.163636 165.536364 
L 42.140909 165.536364 
L 46.118182 163.490909 
L 50.095455 161.445455 
L 54.072727 161.445455 
L 58.05 161.445455 
L 62.027273 161.445455 
L 66.004545 161.445455 
L 69.981818 161.445455 
L 73.959091 161.445455 
L 77.936364 161.445455 
L 81.913636 161.445455 
L 85.890909 161.445455 
L 89.868182 161.445455 
L 93.845455 161.445455 
L 97.822727 161.445455 
" style="fill:none;stroke:#1f77b4;stroke-linecap:square;stroke-width:1.5;"/>
   </g>
   <g id="line2d_26">
    <path clip-path="url(#p3dd59b7b38)" d="M 18.277273 181.9 
L 22.254545 181.9 
L 26.231818 190.081818 
L 30.209091 194.172727 
L 34.186364 198.263636 
L 38.163636 198.263636 
L 42.140909 198.263636 
L 46.118182 200.309091 
L 50.095455 202.354545 
L 54.072727 202.354545 
L 58.05 202.354545 
L 62.027273 202.354545 
L 66.004545 202.354545 
L 69.981818 202.354545 
L 73.959091 202.354545 
L 77.936364 202.354545 
L 81.913636 202.354545 
L 85.890909 202.354545 
L 89.868182 202.354545 
L 93.845455 202.354545 
L 97.822727 202.354545 
" style="fill:none;stroke:#ff7f0e;stroke-linecap:square;stroke-width:1.5;"/>
   </g>
   <g id="line2d_27">
    <path clip-path="url(#p3dd59b7b38)" d="M 18.277273 194.172727 
L 22.254545 198.263636 
L 26.231818 200.309091 
L 30.209091 200.309091 
L 34.186364 202.354545 
L 38.163636 202.354545 
L 42.140909 202.354545 
L 46.118182 202.354545 
L 50.095455 202.354545 
L 54.072727 202.354545 
L 58.05 202.354545 
L 62.027273 202.354545 
L 66.004545 202.354545 
L 69.981818 202.354545 
L 73.959091 202.354545 
L 77.936364 202.354545 
L 81.913636 202.354545 
L 85.890909 202.354545 
L 89.868182 202.354545 
L 93.845455 202.354545 
L 97.822727 202.354545 
" style="fill:none;stroke:#2ca02c;stroke-linecap:square;stroke-width:1.5;"/>
   </g>
   <g id="patch_43">
    <path d="M 14.3 204.4 
L 14.3 159.4 
" style="fill:none;stroke:#000000;stroke-linecap:square;stroke-linejoin:miter;stroke-width:0.8;"/>
   </g>
   <g id="patch_44">
    <path d="M 101.8 204.4 
L 101.8 159.4 
" style="fill:none;stroke:#000000;stroke-linecap:square;stroke-linejoin:miter;stroke-width:0.8;"/>
   </g>
   <g id="patch_45">
    <path d="M 14.3 204.4 
L 101.8 204.4 
" style="fill:none;stroke:#000000;stroke-linecap:square;stroke-linejoin:miter;stroke-width:0.8;"/>
   </g>
   <g id="patch_46">
    <path d="M 14.3 159.4 
L 101.8 159.4 
" style="fill:none;stroke:#000000;stroke-linecap:square;stroke-linejoin:miter;stroke-width:0.8;"/>
   </g>
   <g id="text_9">
    <!-- Random seed: 8 -->
    <defs>
     <path d="M 31.78125 34.625 
Q 24.75 34.625 20.71875 30.859375 
Q 16.703125 27.09375 16.703125 20.515625 
Q 16.703125 13.921875 20.71875 10.15625 
Q 24.75 6.390625 31.78125 6.390625 
Q 38.8125 6.390625 42.859375 10.171875 
Q 46.921875 13.96875 46.921875 20.515625 
Q 46.921875 27.09375 42.890625 30.859375 
Q 38.875 34.625 31.78125 34.625 
M 21.921875 38.8125 
Q 15.578125 40.375 12.03125 44.71875 
Q 8.5 49.078125 8.5 55.328125 
Q 8.5 64.0625 14.71875 69.140625 
Q 20.953125 74.21875 31.78125 74.21875 
Q 42.671875 74.21875 48.875 69.140625 
Q 55.078125 64.0625 55.078125 55.328125 
Q 55.078125 49.078125 51.53125 44.71875 
Q 48 40.375 41.703125 38.8125 
Q 48.828125 37.15625 52.796875 32.3125 
Q 56.78125 27.484375 56.78125 20.515625 
Q 56.78125 9.90625 50.3125 4.234375 
Q 43.84375 -1.421875 31.78125 -1.421875 
Q 19.734375 -1.421875 13.25 4.234375 
Q 6.78125 9.90625 6.78125 20.515625 
Q 6.78125 27.484375 10.78125 32.3125 
Q 14.796875 37.15625 21.921875 38.8125 
M 18.3125 54.390625 
Q 18.3125 48.734375 21.84375 45.5625 
Q 25.390625 42.390625 31.78125 42.390625 
Q 38.140625 42.390625 41.71875 45.5625 
Q 45.3125 48.734375 45.3125 54.390625 
Q 45.3125 60.0625 41.71875 63.234375 
Q 38.140625 66.40625 31.78125 66.40625 
Q 25.390625 66.40625 21.84375 63.234375 
Q 18.3125 60.0625 18.3125 54.390625 
" id="DejaVuSans-38"/>
    </defs>
    <g transform="translate(33.578906 153.4)scale(0.06 -0.06)">
     <use xlink:href="#DejaVuSans-52"/>
     <use x="69.451172" xlink:href="#DejaVuSans-61"/>
     <use x="130.730469" xlink:href="#DejaVuSans-6e"/>
     <use x="194.109375" xlink:href="#DejaVuSans-64"/>
     <use x="257.585938" xlink:href="#DejaVuSans-6f"/>
     <use x="318.767578" xlink:href="#DejaVuSans-6d"/>
     <use x="416.179688" xlink:href="#DejaVuSans-20"/>
     <use x="447.966797" xlink:href="#DejaVuSans-73"/>
     <use x="500.066406" xlink:href="#DejaVuSans-65"/>
     <use x="561.589844" xlink:href="#DejaVuSans-65"/>
     <use x="623.113281" xlink:href="#DejaVuSans-64"/>
     <use x="686.589844" xlink:href="#DejaVuSans-3a"/>
     <use x="720.28125" xlink:href="#DejaVuSans-20"/>
     <use x="752.068359" xlink:href="#DejaVuSans-38"/>
    </g>
   </g>
  </g>
  <g id="axes_10">
   <g id="patch_47">
    <path d="M 119.6 204.4 
L 207.1 204.4 
L 207.1 159.4 
L 119.6 159.4 
z
" style="fill:#ffffff;"/>
   </g>
   <g id="matplotlib.axis_19"/>
   <g id="matplotlib.axis_20"/>
   <g id="line2d_28">
    <path clip-path="url(#p4372d75b4d)" d="M 123.577273 188.036364 
L 127.554545 173.718182 
L 131.531818 171.672727 
L 135.509091 167.581818 
L 139.486364 167.581818 
L 143.463636 167.581818 
L 147.440909 165.536364 
L 151.418182 161.445455 
L 155.395455 161.445455 
L 159.372727 161.445455 
L 163.35 161.445455 
L 167.327273 161.445455 
L 171.304545 161.445455 
L 175.281818 161.445455 
L 179.259091 161.445455 
L 183.236364 161.445455 
L 187.213636 161.445455 
L 191.190909 161.445455 
L 195.168182 161.445455 
L 199.145455 161.445455 
L 203.122727 161.445455 
" style="fill:none;stroke:#1f77b4;stroke-linecap:square;stroke-width:1.5;"/>
   </g>
   <g id="line2d_29">
    <path clip-path="url(#p4372d75b4d)" d="M 123.577273 188.036364 
L 127.554545 194.172727 
L 131.531818 194.172727 
L 135.509091 198.263636 
L 139.486364 196.218182 
L 143.463636 196.218182 
L 147.440909 198.263636 
L 151.418182 202.354545 
L 155.395455 202.354545 
L 159.372727 202.354545 
L 163.35 202.354545 
L 167.327273 202.354545 
L 171.304545 202.354545 
L 175.281818 202.354545 
L 179.259091 202.354545 
L 183.236364 202.354545 
L 187.213636 202.354545 
L 191.190909 202.354545 
L 195.168182 202.354545 
L 199.145455 202.354545 
L 203.122727 202.354545 
" style="fill:none;stroke:#ff7f0e;stroke-linecap:square;stroke-width:1.5;"/>
   </g>
   <g id="line2d_30">
    <path clip-path="url(#p4372d75b4d)" d="M 123.577273 190.081818 
L 127.554545 198.263636 
L 131.531818 200.309091 
L 135.509091 200.309091 
L 139.486364 202.354545 
L 143.463636 202.354545 
L 147.440909 202.354545 
L 151.418182 202.354545 
L 155.395455 202.354545 
L 159.372727 202.354545 
L 163.35 202.354545 
L 167.327273 202.354545 
L 171.304545 202.354545 
L 175.281818 202.354545 
L 179.259091 202.354545 
L 183.236364 202.354545 
L 187.213636 202.354545 
L 191.190909 202.354545 
L 195.168182 202.354545 
L 199.145455 202.354545 
L 203.122727 202.354545 
" style="fill:none;stroke:#2ca02c;stroke-linecap:square;stroke-width:1.5;"/>
   </g>
   <g id="patch_48">
    <path d="M 119.6 204.4 
L 119.6 159.4 
" style="fill:none;stroke:#000000;stroke-linecap:square;stroke-linejoin:miter;stroke-width:0.8;"/>
   </g>
   <g id="patch_49">
    <path d="M 207.1 204.4 
L 207.1 159.4 
" style="fill:none;stroke:#000000;stroke-linecap:square;stroke-linejoin:miter;stroke-width:0.8;"/>
   </g>
   <g id="patch_50">
    <path d="M 119.6 204.4 
L 207.1 204.4 
" style="fill:none;stroke:#000000;stroke-linecap:square;stroke-linejoin:miter;stroke-width:0.8;"/>
   </g>
   <g id="patch_51">
    <path d="M 119.6 159.4 
L 207.1 159.4 
" style="fill:none;stroke:#000000;stroke-linecap:square;stroke-linejoin:miter;stroke-width:0.8;"/>
   </g>
   <g id="text_10">
    <!-- Random seed: 9 -->
    <defs>
     <path d="M 10.984375 1.515625 
L 10.984375 10.5 
Q 14.703125 8.734375 18.5 7.8125 
Q 22.3125 6.890625 25.984375 6.890625 
Q 35.75 6.890625 40.890625 13.453125 
Q 46.046875 20.015625 46.78125 33.40625 
Q 43.953125 29.203125 39.59375 26.953125 
Q 35.25 24.703125 29.984375 24.703125 
Q 19.046875 24.703125 12.671875 31.3125 
Q 6.296875 37.9375 6.296875 49.421875 
Q 6.296875 60.640625 12.9375 67.421875 
Q 19.578125 74.21875 30.609375 74.21875 
Q 43.265625 74.21875 49.921875 64.515625 
Q 56.59375 54.828125 56.59375 36.375 
Q 56.59375 19.140625 48.40625 8.859375 
Q 40.234375 -1.421875 26.421875 -1.421875 
Q 22.703125 -1.421875 18.890625 -0.6875 
Q 15.09375 0.046875 10.984375 1.515625 
M 30.609375 32.421875 
Q 37.25 32.421875 41.125 36.953125 
Q 45.015625 41.5 45.015625 49.421875 
Q 45.015625 57.28125 41.125 61.84375 
Q 37.25 66.40625 30.609375 66.40625 
Q 23.96875 66.40625 20.09375 61.84375 
Q 16.21875 57.28125 16.21875 49.421875 
Q 16.21875 41.5 20.09375 36.953125 
Q 23.96875 32.421875 30.609375 32.421875 
" id="DejaVuSans-39"/>
    </defs>
    <g transform="translate(138.878906 153.4)scale(0.06 -0.06)">
     <use xlink:href="#DejaVuSans-52"/>
     <use x="69.451172" xlink:href="#DejaVuSans-61"/>
     <use x="130.730469" xlink:href="#DejaVuSans-6e"/>
     <use x="194.109375" xlink:href="#DejaVuSans-64"/>
     <use x="257.585938" xlink:href="#DejaVuSans-6f"/>
     <use x="318.767578" xlink:href="#DejaVuSans-6d"/>
     <use x="416.179688" xlink:href="#DejaVuSans-20"/>
     <use x="447.966797" xlink:href="#DejaVuSans-73"/>
     <use x="500.066406" xlink:href="#DejaVuSans-65"/>
     <use x="561.589844" xlink:href="#DejaVuSans-65"/>
     <use x="623.113281" xlink:href="#DejaVuSans-64"/>
     <use x="686.589844" xlink:href="#DejaVuSans-3a"/>
     <use x="720.28125" xlink:href="#DejaVuSans-20"/>
     <use x="752.068359" xlink:href="#DejaVuSans-39"/>
    </g>
   </g>
  </g>
  <g id="axes_11">
   <g id="patch_52">
    <path d="M 224.9 204.4 
L 312.4 204.4 
L 312.4 159.4 
L 224.9 159.4 
z
" style="fill:#ffffff;"/>
   </g>
   <g id="matplotlib.axis_21"/>
   <g id="matplotlib.axis_22"/>
   <g id="line2d_31">
    <path clip-path="url(#p29bd87373d)" d="M 228.877273 183.945455 
L 232.854545 175.763636 
L 236.831818 173.718182 
L 240.809091 169.627273 
L 244.786364 165.536364 
L 248.763636 165.536364 
L 252.740909 163.490909 
L 256.718182 163.490909 
L 260.695455 161.445455 
L 264.672727 161.445455 
L 268.65 161.445455 
L 272.627273 161.445455 
L 276.604545 161.445455 
L 280.581818 161.445455 
L 284.559091 161.445455 
L 288.536364 161.445455 
L 292.513636 161.445455 
L 296.490909 161.445455 
L 300.468182 161.445455 
L 304.445455 161.445455 
L 308.422727 161.445455 
" style="fill:none;stroke:#1f77b4;stroke-linecap:square;stroke-width:1.5;"/>
   </g>
   <g id="line2d_32">
    <path clip-path="url(#p29bd87373d)" d="M 228.877273 185.990909 
L 232.854545 190.081818 
L 236.831818 190.081818 
L 240.809091 194.172727 
L 244.786364 198.263636 
L 248.763636 198.263636 
L 252.740909 200.309091 
L 256.718182 200.309091 
L 260.695455 202.354545 
L 264.672727 202.354545 
L 268.65 202.354545 
L 272.627273 202.354545 
L 276.604545 202.354545 
L 280.581818 202.354545 
L 284.559091 202.354545 
L 288.536364 202.354545 
L 292.513636 202.354545 
L 296.490909 202.354545 
L 300.468182 202.354545 
L 304.445455 202.354545 
L 308.422727 202.354545 
" style="fill:none;stroke:#ff7f0e;stroke-linecap:square;stroke-width:1.5;"/>
   </g>
   <g id="line2d_33">
    <path clip-path="url(#p29bd87373d)" d="M 228.877273 196.218182 
L 232.854545 200.309091 
L 236.831818 202.354545 
L 240.809091 202.354545 
L 244.786364 202.354545 
L 248.763636 202.354545 
L 252.740909 202.354545 
L 256.718182 202.354545 
L 260.695455 202.354545 
L 264.672727 202.354545 
L 268.65 202.354545 
L 272.627273 202.354545 
L 276.604545 202.354545 
L 280.581818 202.354545 
L 284.559091 202.354545 
L 288.536364 202.354545 
L 292.513636 202.354545 
L 296.490909 202.354545 
L 300.468182 202.354545 
L 304.445455 202.354545 
L 308.422727 202.354545 
" style="fill:none;stroke:#2ca02c;stroke-linecap:square;stroke-width:1.5;"/>
   </g>
   <g id="patch_53">
    <path d="M 224.9 204.4 
L 224.9 159.4 
" style="fill:none;stroke:#000000;stroke-linecap:square;stroke-linejoin:miter;stroke-width:0.8;"/>
   </g>
   <g id="patch_54">
    <path d="M 312.4 204.4 
L 312.4 159.4 
" style="fill:none;stroke:#000000;stroke-linecap:square;stroke-linejoin:miter;stroke-width:0.8;"/>
   </g>
   <g id="patch_55">
    <path d="M 224.9 204.4 
L 312.4 204.4 
" style="fill:none;stroke:#000000;stroke-linecap:square;stroke-linejoin:miter;stroke-width:0.8;"/>
   </g>
   <g id="patch_56">
    <path d="M 224.9 159.4 
L 312.4 159.4 
" style="fill:none;stroke:#000000;stroke-linecap:square;stroke-linejoin:miter;stroke-width:0.8;"/>
   </g>
   <g id="text_11">
    <!-- Random seed: 10 -->
    <g transform="translate(242.270156 153.4)scale(0.06 -0.06)">
     <use xlink:href="#DejaVuSans-52"/>
     <use x="69.451172" xlink:href="#DejaVuSans-61"/>
     <use x="130.730469" xlink:href="#DejaVuSans-6e"/>
     <use x="194.109375" xlink:href="#DejaVuSans-64"/>
     <use x="257.585938" xlink:href="#DejaVuSans-6f"/>
     <use x="318.767578" xlink:href="#DejaVuSans-6d"/>
     <use x="416.179688" xlink:href="#DejaVuSans-20"/>
     <use x="447.966797" xlink:href="#DejaVuSans-73"/>
     <use x="500.066406" xlink:href="#DejaVuSans-65"/>
     <use x="561.589844" xlink:href="#DejaVuSans-65"/>
     <use x="623.113281" xlink:href="#DejaVuSans-64"/>
     <use x="686.589844" xlink:href="#DejaVuSans-3a"/>
     <use x="720.28125" xlink:href="#DejaVuSans-20"/>
     <use x="752.068359" xlink:href="#DejaVuSans-31"/>
     <use x="815.691406" xlink:href="#DejaVuSans-30"/>
    </g>
   </g>
  </g>
  <g id="axes_12">
   <g id="patch_57">
    <path d="M 330.2 204.4 
L 417.7 204.4 
L 417.7 159.4 
L 330.2 159.4 
z
" style="fill:#ffffff;"/>
   </g>
   <g id="matplotlib.axis_23"/>
   <g id="matplotlib.axis_24"/>
   <g id="line2d_34">
    <path clip-path="url(#pf1b0800567)" d="M 334.177273 183.945455 
L 338.154545 173.718182 
L 342.131818 169.627273 
L 346.109091 163.490909 
L 350.086364 163.490909 
L 354.063636 163.490909 
L 358.040909 161.445455 
L 362.018182 161.445455 
L 365.995455 161.445455 
L 369.972727 161.445455 
L 373.95 161.445455 
L 377.927273 161.445455 
L 381.904545 161.445455 
L 385.881818 161.445455 
L 389.859091 161.445455 
L 393.836364 161.445455 
L 397.813636 161.445455 
L 401.790909 161.445455 
L 405.768182 161.445455 
L 409.745455 161.445455 
L 413.722727 161.445455 
" style="fill:none;stroke:#1f77b4;stroke-linecap:square;stroke-width:1.5;"/>
   </g>
   <g id="line2d_35">
    <path clip-path="url(#pf1b0800567)" d="M 334.177273 183.945455 
L 338.154545 190.081818 
L 342.131818 194.172727 
L 346.109091 200.309091 
L 350.086364 200.309091 
L 354.063636 200.309091 
L 358.040909 202.354545 
L 362.018182 202.354545 
L 365.995455 202.354545 
L 369.972727 202.354545 
L 373.95 202.354545 
L 377.927273 202.354545 
L 381.904545 202.354545 
L 385.881818 202.354545 
L 389.859091 202.354545 
L 393.836364 202.354545 
L 397.813636 202.354545 
L 401.790909 202.354545 
L 405.768182 202.354545 
L 409.745455 202.354545 
L 413.722727 202.354545 
" style="fill:none;stroke:#ff7f0e;stroke-linecap:square;stroke-width:1.5;"/>
   </g>
   <g id="line2d_36">
    <path clip-path="url(#pf1b0800567)" d="M 334.177273 198.263636 
L 338.154545 202.354545 
L 342.131818 202.354545 
L 346.109091 202.354545 
L 350.086364 202.354545 
L 354.063636 202.354545 
L 358.040909 202.354545 
L 362.018182 202.354545 
L 365.995455 202.354545 
L 369.972727 202.354545 
L 373.95 202.354545 
L 377.927273 202.354545 
L 381.904545 202.354545 
L 385.881818 202.354545 
L 389.859091 202.354545 
L 393.836364 202.354545 
L 397.813636 202.354545 
L 401.790909 202.354545 
L 405.768182 202.354545 
L 409.745455 202.354545 
L 413.722727 202.354545 
" style="fill:none;stroke:#2ca02c;stroke-linecap:square;stroke-width:1.5;"/>
   </g>
   <g id="patch_58">
    <path d="M 330.2 204.4 
L 330.2 159.4 
" style="fill:none;stroke:#000000;stroke-linecap:square;stroke-linejoin:miter;stroke-width:0.8;"/>
   </g>
   <g id="patch_59">
    <path d="M 417.7 204.4 
L 417.7 159.4 
" style="fill:none;stroke:#000000;stroke-linecap:square;stroke-linejoin:miter;stroke-width:0.8;"/>
   </g>
   <g id="patch_60">
    <path d="M 330.2 204.4 
L 417.7 204.4 
" style="fill:none;stroke:#000000;stroke-linecap:square;stroke-linejoin:miter;stroke-width:0.8;"/>
   </g>
   <g id="patch_61">
    <path d="M 330.2 159.4 
L 417.7 159.4 
" style="fill:none;stroke:#000000;stroke-linecap:square;stroke-linejoin:miter;stroke-width:0.8;"/>
   </g>
   <g id="text_12">
    <!-- Random seed: 11 -->
    <g transform="translate(347.570156 153.4)scale(0.06 -0.06)">
     <use xlink:href="#DejaVuSans-52"/>
     <use x="69.451172" xlink:href="#DejaVuSans-61"/>
     <use x="130.730469" xlink:href="#DejaVuSans-6e"/>
     <use x="194.109375" xlink:href="#DejaVuSans-64"/>
     <use x="257.585938" xlink:href="#DejaVuSans-6f"/>
     <use x="318.767578" xlink:href="#DejaVuSans-6d"/>
     <use x="416.179688" xlink:href="#DejaVuSans-20"/>
     <use x="447.966797" xlink:href="#DejaVuSans-73"/>
     <use x="500.066406" xlink:href="#DejaVuSans-65"/>
     <use x="561.589844" xlink:href="#DejaVuSans-65"/>
     <use x="623.113281" xlink:href="#DejaVuSans-64"/>
     <use x="686.589844" xlink:href="#DejaVuSans-3a"/>
     <use x="720.28125" xlink:href="#DejaVuSans-20"/>
     <use x="752.068359" xlink:href="#DejaVuSans-31"/>
     <use x="815.691406" xlink:href="#DejaVuSans-31"/>
    </g>
   </g>
  </g>
  <g id="axes_13">
   <g id="patch_62">
    <path d="M 14.3 273.7 
L 101.8 273.7 
L 101.8 228.7 
L 14.3 228.7 
z
" style="fill:#ffffff;"/>
   </g>
   <g id="matplotlib.axis_25"/>
   <g id="matplotlib.axis_26"/>
   <g id="line2d_37">
    <path clip-path="url(#p79b37a9faf)" d="M 18.277273 259.381818 
L 22.254545 251.2 
L 26.231818 243.018182 
L 30.209091 238.927273 
L 34.186364 234.836364 
L 38.163636 232.790909 
L 42.140909 232.790909 
L 46.118182 230.745455 
L 50.095455 230.745455 
L 54.072727 230.745455 
L 58.05 230.745455 
L 62.027273 230.745455 
L 66.004545 230.745455 
L 69.981818 230.745455 
L 73.959091 230.745455 
L 77.936364 230.745455 
L 81.913636 230.745455 
L 85.890909 230.745455 
L 89.868182 230.745455 
L 93.845455 230.745455 
L 97.822727 230.745455 
" style="fill:none;stroke:#1f77b4;stroke-linecap:square;stroke-width:1.5;"/>
   </g>
   <g id="line2d_38">
    <path clip-path="url(#p79b37a9faf)" d="M 18.277273 255.290909 
L 22.254545 255.290909 
L 26.231818 259.381818 
L 30.209091 263.472727 
L 34.186364 267.563636 
L 38.163636 269.609091 
L 42.140909 269.609091 
L 46.118182 271.654545 
L 50.095455 271.654545 
L 54.072727 271.654545 
L 58.05 271.654545 
L 62.027273 271.654545 
L 66.004545 271.654545 
L 69.981818 271.654545 
L 73.959091 271.654545 
L 77.936364 271.654545 
L 81.913636 271.654545 
L 85.890909 271.654545 
L 89.868182 271.654545 
L 93.845455 271.654545 
L 97.822727 271.654545 
" style="fill:none;stroke:#ff7f0e;stroke-linecap:square;stroke-width:1.5;"/>
   </g>
   <g id="line2d_39">
    <path clip-path="url(#p79b37a9faf)" d="M 18.277273 259.381818 
L 22.254545 267.563636 
L 26.231818 271.654545 
L 30.209091 271.654545 
L 34.186364 271.654545 
L 38.163636 271.654545 
L 42.140909 271.654545 
L 46.118182 271.654545 
L 50.095455 271.654545 
L 54.072727 271.654545 
L 58.05 271.654545 
L 62.027273 271.654545 
L 66.004545 271.654545 
L 69.981818 271.654545 
L 73.959091 271.654545 
L 77.936364 271.654545 
L 81.913636 271.654545 
L 85.890909 271.654545 
L 89.868182 271.654545 
L 93.845455 271.654545 
L 97.822727 271.654545 
" style="fill:none;stroke:#2ca02c;stroke-linecap:square;stroke-width:1.5;"/>
   </g>
   <g id="patch_63">
    <path d="M 14.3 273.7 
L 14.3 228.7 
" style="fill:none;stroke:#000000;stroke-linecap:square;stroke-linejoin:miter;stroke-width:0.8;"/>
   </g>
   <g id="patch_64">
    <path d="M 101.8 273.7 
L 101.8 228.7 
" style="fill:none;stroke:#000000;stroke-linecap:square;stroke-linejoin:miter;stroke-width:0.8;"/>
   </g>
   <g id="patch_65">
    <path d="M 14.3 273.7 
L 101.8 273.7 
" style="fill:none;stroke:#000000;stroke-linecap:square;stroke-linejoin:miter;stroke-width:0.8;"/>
   </g>
   <g id="patch_66">
    <path d="M 14.3 228.7 
L 101.8 228.7 
" style="fill:none;stroke:#000000;stroke-linecap:square;stroke-linejoin:miter;stroke-width:0.8;"/>
   </g>
   <g id="text_13">
    <!-- Random seed: 12 -->
    <g transform="translate(31.670156 222.7)scale(0.06 -0.06)">
     <use xlink:href="#DejaVuSans-52"/>
     <use x="69.451172" xlink:href="#DejaVuSans-61"/>
     <use x="130.730469" xlink:href="#DejaVuSans-6e"/>
     <use x="194.109375" xlink:href="#DejaVuSans-64"/>
     <use x="257.585938" xlink:href="#DejaVuSans-6f"/>
     <use x="318.767578" xlink:href="#DejaVuSans-6d"/>
     <use x="416.179688" xlink:href="#DejaVuSans-20"/>
     <use x="447.966797" xlink:href="#DejaVuSans-73"/>
     <use x="500.066406" xlink:href="#DejaVuSans-65"/>
     <use x="561.589844" xlink:href="#DejaVuSans-65"/>
     <use x="623.113281" xlink:href="#DejaVuSans-64"/>
     <use x="686.589844" xlink:href="#DejaVuSans-3a"/>
     <use x="720.28125" xlink:href="#DejaVuSans-20"/>
     <use x="752.068359" xlink:href="#DejaVuSans-31"/>
     <use x="815.691406" xlink:href="#DejaVuSans-32"/>
    </g>
   </g>
  </g>
  <g id="axes_14">
   <g id="patch_67">
    <path d="M 119.6 273.7 
L 207.1 273.7 
L 207.1 228.7 
L 119.6 228.7 
z
" style="fill:#ffffff;"/>
   </g>
   <g id="matplotlib.axis_27"/>
   <g id="matplotlib.axis_28"/>
   <g id="line2d_40">
    <path clip-path="url(#p16d314adf2)" d="M 123.577273 261.427273 
L 127.554545 249.154545 
L 131.531818 245.063636 
L 135.509091 243.018182 
L 139.486364 236.881818 
L 143.463636 236.881818 
L 147.440909 230.745455 
L 151.418182 230.745455 
L 155.395455 230.745455 
L 159.372727 230.745455 
L 163.35 230.745455 
L 167.327273 230.745455 
L 171.304545 230.745455 
L 175.281818 230.745455 
L 179.259091 230.745455 
L 183.236364 230.745455 
L 187.213636 230.745455 
L 191.190909 230.745455 
L 195.168182 230.745455 
L 199.145455 230.745455 
L 203.122727 230.745455 
" style="fill:none;stroke:#1f77b4;stroke-linecap:square;stroke-width:1.5;"/>
   </g>
   <g id="line2d_41">
    <path clip-path="url(#p16d314adf2)" d="M 123.577273 263.472727 
L 127.554545 261.427273 
L 131.531818 259.381818 
L 135.509091 259.381818 
L 139.486364 265.518182 
L 143.463636 265.518182 
L 147.440909 271.654545 
L 151.418182 271.654545 
L 155.395455 271.654545 
L 159.372727 271.654545 
L 163.35 271.654545 
L 167.327273 271.654545 
L 171.304545 271.654545 
L 175.281818 271.654545 
L 179.259091 271.654545 
L 183.236364 271.654545 
L 187.213636 271.654545 
L 191.190909 271.654545 
L 195.168182 271.654545 
L 199.145455 271.654545 
L 203.122727 271.654545 
" style="fill:none;stroke:#ff7f0e;stroke-linecap:square;stroke-width:1.5;"/>
   </g>
   <g id="line2d_42">
    <path clip-path="url(#p16d314adf2)" d="M 123.577273 249.154545 
L 127.554545 263.472727 
L 131.531818 269.609091 
L 135.509091 271.654545 
L 139.486364 271.654545 
L 143.463636 271.654545 
L 147.440909 271.654545 
L 151.418182 271.654545 
L 155.395455 271.654545 
L 159.372727 271.654545 
L 163.35 271.654545 
L 167.327273 271.654545 
L 171.304545 271.654545 
L 175.281818 271.654545 
L 179.259091 271.654545 
L 183.236364 271.654545 
L 187.213636 271.654545 
L 191.190909 271.654545 
L 195.168182 271.654545 
L 199.145455 271.654545 
L 203.122727 271.654545 
" style="fill:none;stroke:#2ca02c;stroke-linecap:square;stroke-width:1.5;"/>
   </g>
   <g id="patch_68">
    <path d="M 119.6 273.7 
L 119.6 228.7 
" style="fill:none;stroke:#000000;stroke-linecap:square;stroke-linejoin:miter;stroke-width:0.8;"/>
   </g>
   <g id="patch_69">
    <path d="M 207.1 273.7 
L 207.1 228.7 
" style="fill:none;stroke:#000000;stroke-linecap:square;stroke-linejoin:miter;stroke-width:0.8;"/>
   </g>
   <g id="patch_70">
    <path d="M 119.6 273.7 
L 207.1 273.7 
" style="fill:none;stroke:#000000;stroke-linecap:square;stroke-linejoin:miter;stroke-width:0.8;"/>
   </g>
   <g id="patch_71">
    <path d="M 119.6 228.7 
L 207.1 228.7 
" style="fill:none;stroke:#000000;stroke-linecap:square;stroke-linejoin:miter;stroke-width:0.8;"/>
   </g>
   <g id="text_14">
    <!-- Random seed: 13 -->
    <g transform="translate(136.970156 222.7)scale(0.06 -0.06)">
     <use xlink:href="#DejaVuSans-52"/>
     <use x="69.451172" xlink:href="#DejaVuSans-61"/>
     <use x="130.730469" xlink:href="#DejaVuSans-6e"/>
     <use x="194.109375" xlink:href="#DejaVuSans-64"/>
     <use x="257.585938" xlink:href="#DejaVuSans-6f"/>
     <use x="318.767578" xlink:href="#DejaVuSans-6d"/>
     <use x="416.179688" xlink:href="#DejaVuSans-20"/>
     <use x="447.966797" xlink:href="#DejaVuSans-73"/>
     <use x="500.066406" xlink:href="#DejaVuSans-65"/>
     <use x="561.589844" xlink:href="#DejaVuSans-65"/>
     <use x="623.113281" xlink:href="#DejaVuSans-64"/>
     <use x="686.589844" xlink:href="#DejaVuSans-3a"/>
     <use x="720.28125" xlink:href="#DejaVuSans-20"/>
     <use x="752.068359" xlink:href="#DejaVuSans-31"/>
     <use x="815.691406" xlink:href="#DejaVuSans-33"/>
    </g>
   </g>
  </g>
  <g id="axes_15">
   <g id="patch_72">
    <path d="M 224.9 273.7 
L 312.4 273.7 
L 312.4 228.7 
L 224.9 228.7 
z
" style="fill:#ffffff;"/>
   </g>
   <g id="matplotlib.axis_29"/>
   <g id="matplotlib.axis_30"/>
   <g id="line2d_43">
    <path clip-path="url(#pbe67adbb96)" d="M 228.877273 257.336364 
L 232.854545 249.154545 
L 236.831818 245.063636 
L 240.809091 234.836364 
L 244.786364 232.790909 
L 248.763636 232.790909 
L 252.740909 232.790909 
L 256.718182 230.745455 
L 260.695455 230.745455 
L 264.672727 230.745455 
L 268.65 230.745455 
L 272.627273 230.745455 
L 276.604545 230.745455 
L 280.581818 230.745455 
L 284.559091 230.745455 
L 288.536364 230.745455 
L 292.513636 230.745455 
L 296.490909 230.745455 
L 300.468182 230.745455 
L 304.445455 230.745455 
L 308.422727 230.745455 
" style="fill:none;stroke:#1f77b4;stroke-linecap:square;stroke-width:1.5;"/>
   </g>
   <g id="line2d_44">
    <path clip-path="url(#pbe67adbb96)" d="M 228.877273 261.427273 
L 232.854545 259.381818 
L 236.831818 261.427273 
L 240.809091 267.563636 
L 244.786364 269.609091 
L 248.763636 269.609091 
L 252.740909 269.609091 
L 256.718182 271.654545 
L 260.695455 271.654545 
L 264.672727 271.654545 
L 268.65 271.654545 
L 272.627273 271.654545 
L 276.604545 271.654545 
L 280.581818 271.654545 
L 284.559091 271.654545 
L 288.536364 271.654545 
L 292.513636 271.654545 
L 296.490909 271.654545 
L 300.468182 271.654545 
L 304.445455 271.654545 
L 308.422727 271.654545 
" style="fill:none;stroke:#ff7f0e;stroke-linecap:square;stroke-width:1.5;"/>
   </g>
   <g id="line2d_45">
    <path clip-path="url(#pbe67adbb96)" d="M 228.877273 255.290909 
L 232.854545 265.518182 
L 236.831818 267.563636 
L 240.809091 271.654545 
L 244.786364 271.654545 
L 248.763636 271.654545 
L 252.740909 271.654545 
L 256.718182 271.654545 
L 260.695455 271.654545 
L 264.672727 271.654545 
L 268.65 271.654545 
L 272.627273 271.654545 
L 276.604545 271.654545 
L 280.581818 271.654545 
L 284.559091 271.654545 
L 288.536364 271.654545 
L 292.513636 271.654545 
L 296.490909 271.654545 
L 300.468182 271.654545 
L 304.445455 271.654545 
L 308.422727 271.654545 
" style="fill:none;stroke:#2ca02c;stroke-linecap:square;stroke-width:1.5;"/>
   </g>
   <g id="patch_73">
    <path d="M 224.9 273.7 
L 224.9 228.7 
" style="fill:none;stroke:#000000;stroke-linecap:square;stroke-linejoin:miter;stroke-width:0.8;"/>
   </g>
   <g id="patch_74">
    <path d="M 312.4 273.7 
L 312.4 228.7 
" style="fill:none;stroke:#000000;stroke-linecap:square;stroke-linejoin:miter;stroke-width:0.8;"/>
   </g>
   <g id="patch_75">
    <path d="M 224.9 273.7 
L 312.4 273.7 
" style="fill:none;stroke:#000000;stroke-linecap:square;stroke-linejoin:miter;stroke-width:0.8;"/>
   </g>
   <g id="patch_76">
    <path d="M 224.9 228.7 
L 312.4 228.7 
" style="fill:none;stroke:#000000;stroke-linecap:square;stroke-linejoin:miter;stroke-width:0.8;"/>
   </g>
   <g id="text_15">
    <!-- Random seed: 14 -->
    <g transform="translate(242.270156 222.7)scale(0.06 -0.06)">
     <use xlink:href="#DejaVuSans-52"/>
     <use x="69.451172" xlink:href="#DejaVuSans-61"/>
     <use x="130.730469" xlink:href="#DejaVuSans-6e"/>
     <use x="194.109375" xlink:href="#DejaVuSans-64"/>
     <use x="257.585938" xlink:href="#DejaVuSans-6f"/>
     <use x="318.767578" xlink:href="#DejaVuSans-6d"/>
     <use x="416.179688" xlink:href="#DejaVuSans-20"/>
     <use x="447.966797" xlink:href="#DejaVuSans-73"/>
     <use x="500.066406" xlink:href="#DejaVuSans-65"/>
     <use x="561.589844" xlink:href="#DejaVuSans-65"/>
     <use x="623.113281" xlink:href="#DejaVuSans-64"/>
     <use x="686.589844" xlink:href="#DejaVuSans-3a"/>
     <use x="720.28125" xlink:href="#DejaVuSans-20"/>
     <use x="752.068359" xlink:href="#DejaVuSans-31"/>
     <use x="815.691406" xlink:href="#DejaVuSans-34"/>
    </g>
   </g>
  </g>
  <g id="axes_16">
   <g id="patch_77">
    <path d="M 330.2 273.7 
L 417.7 273.7 
L 417.7 228.7 
L 330.2 228.7 
z
" style="fill:#ffffff;"/>
   </g>
   <g id="matplotlib.axis_31"/>
   <g id="matplotlib.axis_32"/>
   <g id="line2d_46">
    <path clip-path="url(#p0104867c0b)" d="M 334.177273 255.290909 
L 338.154545 251.2 
L 342.131818 240.972727 
L 346.109091 238.927273 
L 350.086364 236.881818 
L 354.063636 234.836364 
L 358.040909 232.790909 
L 362.018182 232.790909 
L 365.995455 230.745455 
L 369.972727 230.745455 
L 373.95 230.745455 
L 377.927273 230.745455 
L 381.904545 230.745455 
L 385.881818 230.745455 
L 389.859091 230.745455 
L 393.836364 230.745455 
L 397.813636 230.745455 
L 401.790909 230.745455 
L 405.768182 230.745455 
L 409.745455 230.745455 
L 413.722727 230.745455 
" style="fill:none;stroke:#1f77b4;stroke-linecap:square;stroke-width:1.5;"/>
   </g>
   <g id="line2d_47">
    <path clip-path="url(#p0104867c0b)" d="M 334.177273 253.245455 
L 338.154545 251.2 
L 342.131818 261.427273 
L 346.109091 263.472727 
L 350.086364 265.518182 
L 354.063636 267.563636 
L 358.040909 269.609091 
L 362.018182 269.609091 
L 365.995455 271.654545 
L 369.972727 271.654545 
L 373.95 271.654545 
L 377.927273 271.654545 
L 381.904545 271.654545 
L 385.881818 271.654545 
L 389.859091 271.654545 
L 393.836364 271.654545 
L 397.813636 271.654545 
L 401.790909 271.654545 
L 405.768182 271.654545 
L 409.745455 271.654545 
L 413.722727 271.654545 
" style="fill:none;stroke:#ff7f0e;stroke-linecap:square;stroke-width:1.5;"/>
   </g>
   <g id="line2d_48">
    <path clip-path="url(#p0104867c0b)" d="M 334.177273 265.518182 
L 338.154545 271.654545 
L 342.131818 271.654545 
L 346.109091 271.654545 
L 350.086364 271.654545 
L 354.063636 271.654545 
L 358.040909 271.654545 
L 362.018182 271.654545 
L 365.995455 271.654545 
L 369.972727 271.654545 
L 373.95 271.654545 
L 377.927273 271.654545 
L 381.904545 271.654545 
L 385.881818 271.654545 
L 389.859091 271.654545 
L 393.836364 271.654545 
L 397.813636 271.654545 
L 401.790909 271.654545 
L 405.768182 271.654545 
L 409.745455 271.654545 
L 413.722727 271.654545 
" style="fill:none;stroke:#2ca02c;stroke-linecap:square;stroke-width:1.5;"/>
   </g>
   <g id="patch_78">
    <path d="M 330.2 273.7 
L 330.2 228.7 
" style="fill:none;stroke:#000000;stroke-linecap:square;stroke-linejoin:miter;stroke-width:0.8;"/>
   </g>
   <g id="patch_79">
    <path d="M 417.7 273.7 
L 417.7 228.7 
" style="fill:none;stroke:#000000;stroke-linecap:square;stroke-linejoin:miter;stroke-width:0.8;"/>
   </g>
   <g id="patch_80">
    <path d="M 330.2 273.7 
L 417.7 273.7 
" style="fill:none;stroke:#000000;stroke-linecap:square;stroke-linejoin:miter;stroke-width:0.8;"/>
   </g>
   <g id="patch_81">
    <path d="M 330.2 228.7 
L 417.7 228.7 
" style="fill:none;stroke:#000000;stroke-linecap:square;stroke-linejoin:miter;stroke-width:0.8;"/>
   </g>
   <g id="text_16">
    <!-- Random seed: 15 -->
    <g transform="translate(347.570156 222.7)scale(0.06 -0.06)">
     <use xlink:href="#DejaVuSans-52"/>
     <use x="69.451172" xlink:href="#DejaVuSans-61"/>
     <use x="130.730469" xlink:href="#DejaVuSans-6e"/>
     <use x="194.109375" xlink:href="#DejaVuSans-64"/>
     <use x="257.585938" xlink:href="#DejaVuSans-6f"/>
     <use x="318.767578" xlink:href="#DejaVuSans-6d"/>
     <use x="416.179688" xlink:href="#DejaVuSans-20"/>
     <use x="447.966797" xlink:href="#DejaVuSans-73"/>
     <use x="500.066406" xlink:href="#DejaVuSans-65"/>
     <use x="561.589844" xlink:href="#DejaVuSans-65"/>
     <use x="623.113281" xlink:href="#DejaVuSans-64"/>
     <use x="686.589844" xlink:href="#DejaVuSans-3a"/>
     <use x="720.28125" xlink:href="#DejaVuSans-20"/>
     <use x="752.068359" xlink:href="#DejaVuSans-31"/>
     <use x="815.691406" xlink:href="#DejaVuSans-35"/>
    </g>
   </g>
  </g>
 </g>
 <defs>
  <clipPath id="p5163b4586a">
   <rect height="45" width="87.5" x="14.3" y="20.8"/>
  </clipPath>
  <clipPath id="pd6d5aa2b96">
   <rect height="45" width="87.5" x="119.6" y="20.8"/>
  </clipPath>
  <clipPath id="p531549d15c">
   <rect height="45" width="87.5" x="224.9" y="20.8"/>
  </clipPath>
  <clipPath id="p1fdfaea494">
   <rect height="45" width="87.5" x="330.2" y="20.8"/>
  </clipPath>
  <clipPath id="p73ef63dc00">
   <rect height="45" width="87.5" x="14.3" y="90.1"/>
  </clipPath>
  <clipPath id="p3e5bc9827a">
   <rect height="45" width="87.5" x="119.6" y="90.1"/>
  </clipPath>
  <clipPath id="p436d3b65eb">
   <rect height="45" width="87.5" x="224.9" y="90.1"/>
  </clipPath>
  <clipPath id="p22c0d50c03">
   <rect height="45" width="87.5" x="330.2" y="90.1"/>
  </clipPath>
  <clipPath id="p3dd59b7b38">
   <rect height="45" width="87.5" x="14.3" y="159.4"/>
  </clipPath>
  <clipPath id="p4372d75b4d">
   <rect height="45" width="87.5" x="119.6" y="159.4"/>
  </clipPath>
  <clipPath id="p29bd87373d">
   <rect height="45" width="87.5" x="224.9" y="159.4"/>
  </clipPath>
  <clipPath id="pf1b0800567">
   <rect height="45" width="87.5" x="330.2" y="159.4"/>
  </clipPath>
  <clipPath id="p79b37a9faf">
   <rect height="45" width="87.5" x="14.3" y="228.7"/>
  </clipPath>
  <clipPath id="p16d314adf2">
   <rect height="45" width="87.5" x="119.6" y="228.7"/>
  </clipPath>
  <clipPath id="pbe67adbb96">
   <rect height="45" width="87.5" x="224.9" y="228.7"/>
  </clipPath>
  <clipPath id="p0104867c0b">
   <rect height="45" width="87.5" x="330.2" y="228.7"/>
  </clipPath>
 </defs>
</svg>
